<svg width="50" height="50" viewBox="0 0 50 50" fill="none" xmlns="http://www.w3.org/2000/svg">
<rect x="0.5" y="0.5" width="49" height="49" rx="7.5" fill="white"/>
<rect x="0.5" y="0.5" width="49" height="49" rx="7.5" stroke="#ECECEE"/>
<g clip-path="url(#clip0_2_19)">
<path d="M6 4C18.54 4 31.08 4 44 4C44 17.86 44 31.72 44 46C31.46 46 18.92 46 6 46C6 32.14 6 18.28 6 4Z" fill="#FEFEFE"/>
<path d="M25.19 12.61C25.3851 12.716 25.5706 12.8375 25.757 12.9611C25.8121 12.997 25.8672 13.0328 25.9223 13.0686C26.0354 13.142 26.1483 13.2158 26.261 13.2899C26.5029 13.4488 26.746 13.6051 26.9891 13.7617C27.0352 13.7915 27.0813 13.8213 27.1288 13.852C27.4945 14.0881 27.862 14.3207 28.23 14.5525C28.6918 14.8433 29.1519 15.137 29.6107 15.4336C30.1106 15.7567 30.6123 16.0762 31.1141 16.3957C31.372 16.5599 31.6297 16.7243 31.8875 16.8887C31.9904 16.9544 32.0933 17.02 32.1963 17.0856C32.8138 17.4794 33.4313 17.8731 34.0488 18.2669C34.0997 18.2994 34.1507 18.3319 34.2033 18.3654C34.3057 18.4307 34.4081 18.496 34.5105 18.5614C34.7477 18.7127 34.9849 18.8639 35.2224 19.0146C36.76 19.9904 36.76 19.9904 36.9225 20.17C36.9322 20.2971 36.9359 20.4183 36.9355 20.5456C36.9358 20.5847 36.936 20.6239 36.9363 20.6642C36.937 20.796 36.937 20.9278 36.9371 21.0597C36.9374 21.1539 36.9378 21.2482 36.9383 21.3424C36.9393 21.599 36.9397 21.8555 36.94 22.112C36.9401 22.2722 36.9404 22.4324 36.9408 22.5926C36.9419 23.1511 36.9425 23.7097 36.9427 24.2683C36.9429 24.7893 36.9443 25.3104 36.9463 25.8314C36.9479 26.2784 36.9487 26.7253 36.9487 27.1723C36.9488 27.4395 36.9492 27.7066 36.9505 27.9737C36.9518 28.225 36.9519 28.4762 36.9511 28.7275C36.951 28.8197 36.9513 28.912 36.9521 29.0042C36.9531 29.1302 36.9526 29.256 36.9517 29.3819C36.9523 29.4184 36.953 29.455 36.9536 29.4926C36.9505 29.6925 36.9267 29.7719 36.8096 29.9278C36.6876 30.0377 36.5687 30.1267 36.4317 30.2121C36.3827 30.2429 36.3336 30.2738 36.283 30.3057C36.2305 30.3382 36.178 30.3707 36.1239 30.4042C36.0684 30.439 36.013 30.4738 35.9576 30.5087C35.8722 30.5624 35.7869 30.616 35.7015 30.6695C35.4262 30.8419 35.153 31.0182 34.88 31.195C34.3316 31.5493 33.7814 31.9002 33.2309 32.2507C32.973 32.4149 32.7153 32.5793 32.4575 32.7437C32.3546 32.8094 32.2517 32.875 32.1488 32.9406C32.0978 32.9731 32.0469 33.0056 31.9944 33.0391C27.8263 35.6969 27.8263 35.6969 27.6717 35.7954C27.5693 35.8607 27.467 35.926 27.3646 35.9913C27.1269 36.1428 26.8892 36.2944 26.6514 36.4459C26.5683 36.4989 26.4851 36.5519 26.402 36.6049C26.2985 36.6708 26.1949 36.7368 26.0914 36.8028C26.0439 36.833 25.9964 36.8633 25.9474 36.8945C25.9009 36.9238 25.8545 36.9531 25.8066 36.9833C25.7079 37.0472 25.6105 37.1134 25.5141 37.1814C25.1458 37.4369 25.1458 37.4369 24.9282 37.4609C24.67 37.3504 24.4385 37.1995 24.2014 37.0422C24.1467 37.0065 24.0919 36.9708 24.0371 36.9352C23.9234 36.8613 23.8099 36.7872 23.6964 36.7128C23.4357 36.5421 23.1727 36.3757 22.91 36.2087C22.8071 36.1431 22.7042 36.0775 22.6013 36.0119C22.5503 35.9794 22.4994 35.9469 22.4469 35.9134C22.2925 35.815 22.1381 35.7166 21.9838 35.6181C21.9328 35.5856 21.8819 35.5531 21.8294 35.5197C21.7265 35.4541 21.6237 35.3885 21.5208 35.3229C21.2624 35.1581 21.004 34.9934 20.7454 34.8288C20.249 34.5126 19.753 34.1955 19.2584 33.8758C18.8463 33.6093 18.4324 33.3463 18.0175 33.085C17.5558 32.7941 17.0956 32.5005 16.6368 32.2039C16.2922 31.9811 15.9468 31.7599 15.6009 31.5395C15.5246 31.4909 15.5246 31.4909 15.4468 31.4413C15.2079 31.289 14.9688 31.137 14.7297 30.9852C13.7183 30.3432 13.7183 30.3432 13.3625 30.1056C13.3174 30.0756 13.2724 30.0455 13.2259 30.0146C13.125 29.935 13.125 29.935 13.03 29.7775C13.0203 29.6391 13.0161 29.5062 13.0162 29.3678C13.0157 29.3052 13.0157 29.3052 13.0152 29.2415C13.0143 29.1036 13.0142 28.9657 13.014 28.8278C13.0137 28.732 13.0134 28.6362 13.0131 28.5404C13.0125 28.3396 13.0123 28.1387 13.0124 27.9379C13.0124 27.6804 13.0111 27.4229 13.0095 27.1655C13.0084 26.9676 13.0082 26.7698 13.0083 26.5719C13.0082 26.477 13.0077 26.3821 13.007 26.2872C13.0061 26.1544 13.0064 26.0218 13.0069 25.889C13.0064 25.8498 13.0059 25.8105 13.0053 25.7701C13.0073 25.5875 13.0178 25.49 13.1197 25.3432C13.22 25.2625 13.22 25.2625 13.3273 25.2348C13.5205 25.2759 13.6658 25.3815 13.8316 25.4955C13.8667 25.519 13.9017 25.5425 13.9379 25.5667C14.0108 25.6156 14.0836 25.6647 14.1563 25.714C14.2613 25.785 14.367 25.8547 14.473 25.9239C14.5373 25.9659 14.6015 26.0079 14.6658 26.05C14.6958 26.0696 14.7258 26.0892 14.7568 26.1093C14.8741 26.1869 14.9754 26.2577 15.0725 26.365C15.0813 26.5244 15.0845 26.6793 15.0838 26.8387C15.0846 26.9355 15.0853 27.0323 15.0861 27.1291C15.0869 27.282 15.0873 27.4349 15.087 27.5878C15.0869 27.7352 15.0882 27.8824 15.0898 28.0298C15.0893 28.0755 15.0888 28.1212 15.0883 28.1682C15.0904 28.4319 15.0904 28.4319 15.225 28.6427C15.2906 28.6846 15.2906 28.6846 15.3575 28.7275C15.3973 28.7551 15.4372 28.7827 15.4782 28.8111C15.5209 28.838 15.5635 28.8649 15.6074 28.8926C15.656 28.9234 15.7046 28.9542 15.7547 28.9859C15.8329 29.035 15.8329 29.035 15.9127 29.0851C15.9679 29.1201 16.0231 29.155 16.0783 29.1899C16.1928 29.2625 16.3074 29.3349 16.4221 29.4072C16.6852 29.5734 16.9476 29.7412 17.21 29.9087C17.3129 29.9744 17.4158 30.04 17.5188 30.1056C18.9596 31.0244 20.4004 31.9431 21.8413 32.8619C21.9177 32.9106 21.9177 32.9106 21.9957 32.9604C22.0983 33.0258 22.2009 33.0912 22.3034 33.1566C22.566 33.3241 22.8286 33.4914 23.0913 33.6586C23.1445 33.6925 23.1977 33.7264 23.2526 33.7613C23.3575 33.8281 23.4624 33.8948 23.5675 33.9614C23.796 34.1067 24.0235 34.253 24.2478 34.4061C24.2846 34.431 24.3213 34.4558 24.3592 34.4814C24.4254 34.5264 24.4912 34.572 24.5566 34.6184C24.7641 34.759 24.9016 34.8118 25.1425 34.765C25.3381 34.6656 25.5198 34.544 25.7036 34.4205C25.7583 34.3845 25.8131 34.3486 25.8679 34.3128C25.9816 34.2384 26.0952 34.1636 26.2086 34.0886C26.4689 33.9168 26.7321 33.7506 26.995 33.5837C27.0978 33.5182 27.2006 33.4527 27.3034 33.3871C27.5104 33.2551 27.7175 33.1231 27.9246 32.9913C28.4211 32.6751 28.917 32.358 29.4116 32.0383C29.8519 31.7536 30.2943 31.4731 30.7375 31.194C31.1707 30.921 31.6023 30.645 32.0328 30.3666C32.3813 30.1412 32.731 29.9181 33.0809 29.6955C33.4836 29.439 33.8856 29.1814 34.2863 28.9211C34.3305 28.8925 34.3748 28.8638 34.4204 28.8343C34.4609 28.8079 34.5014 28.7815 34.5431 28.7544C34.5785 28.7313 34.6139 28.7083 34.6504 28.6846C34.7441 28.6226 34.7441 28.6226 34.8325 28.5175C34.847 28.4197 34.847 28.4197 34.8449 28.3066C34.8452 28.2625 34.8456 28.2184 34.8459 28.173C34.8457 28.1003 34.8457 28.1003 34.8456 28.0261C34.8459 27.9497 34.8459 27.9497 34.8463 27.8717C34.8469 27.7026 34.8469 27.5335 34.8468 27.3643C34.847 27.2472 34.8472 27.13 34.8474 27.0128C34.8478 26.7669 34.8477 26.5211 34.8475 26.2752C34.8472 25.9596 34.848 25.6441 34.8491 25.3285C34.8498 25.0865 34.8499 24.8444 34.8497 24.6023C34.8497 24.4859 34.85 24.3696 34.8505 24.2532C34.8511 24.0907 34.8507 23.9282 34.8502 23.7656C34.8506 23.7173 34.8509 23.6689 34.8513 23.6191C34.851 23.5749 34.8506 23.5306 34.8503 23.485C34.8503 23.4466 34.8503 23.4082 34.8503 23.3686C34.8272 23.2371 34.7863 23.1893 34.69 23.11C34.479 23.121 34.3302 23.1947 34.1504 23.3122C34.102 23.3435 34.0536 23.3748 34.0037 23.407C33.9519 23.4411 33.9002 23.4752 33.8469 23.5103C33.7919 23.546 33.7369 23.5817 33.6819 23.6173C33.5677 23.6912 33.4537 23.7654 33.3397 23.8397C33.0784 24.0099 32.8154 24.1766 32.5525 24.3437C32.4496 24.4094 32.3467 24.475 32.2438 24.5406C30.0825 25.9187 30.0825 25.9187 27.9213 27.2969C27.8703 27.3294 27.8193 27.3619 27.7667 27.3954C27.6643 27.4607 27.5618 27.526 27.4594 27.5914C27.1404 27.7947 26.8215 27.9981 26.5027 28.2017C26.3969 28.2691 26.291 28.3365 26.1851 28.4038C25.9707 28.5401 25.7566 28.6765 25.5448 28.8177C25.5141 28.8379 25.4835 28.8581 25.452 28.8789C25.376 28.929 25.3004 28.9799 25.2249 29.0308C25.068 29.1084 24.9805 29.1221 24.81 29.095C24.688 29.029 24.5796 28.9617 24.4656 28.8817C24.3936 28.8331 24.3216 28.7846 24.2495 28.7361C24.2101 28.7095 24.1708 28.6828 24.1302 28.6554C23.893 28.4968 23.6521 28.3452 23.4117 28.1926C23.305 28.1247 23.1983 28.0568 23.0917 27.9888C22.9836 27.92 22.8756 27.8513 22.7675 27.7825C22.4069 27.553 22.0464 27.3232 21.6861 27.093C21.582 27.0266 21.4779 26.9603 21.3737 26.8941C21.2187 26.7956 21.0639 26.6968 20.9091 26.598C20.8626 26.5686 20.8162 26.5392 20.7684 26.5089C20.7246 26.4809 20.6807 26.4528 20.6356 26.4238C20.5977 26.3997 20.5598 26.3756 20.5207 26.3507C20.4784 26.3208 20.4361 26.2908 20.3925 26.26C20.3601 26.2391 20.3277 26.2182 20.2944 26.1966C20.0336 26.0111 20.0336 26.0111 19.9782 25.8374C19.9654 25.7104 19.9647 25.5899 19.9687 25.4622C19.9688 25.4166 19.9689 25.3709 19.969 25.3239C19.9696 25.2277 19.971 25.1316 19.9734 25.0355C19.9769 24.8885 19.9773 24.7417 19.9773 24.5946C19.9782 24.501 19.9793 24.4074 19.9806 24.3138C19.9808 24.2699 19.981 24.2261 19.9812 24.1809C19.9871 23.9809 19.9919 23.8764 20.1003 23.7111C20.2025 23.635 20.2025 23.635 20.3489 23.6282C20.605 23.6888 20.8221 23.8568 21.0427 24.0058C21.1447 24.0732 21.2468 24.1405 21.349 24.2078C21.4023 24.243 21.4556 24.2783 21.5105 24.3146C21.757 24.477 22.0066 24.6332 22.2561 24.7898C22.7112 25.0756 23.1647 25.3643 23.6166 25.6562C23.6635 25.6864 23.7104 25.7166 23.7588 25.7477C23.9575 25.8756 24.1557 26.0041 24.3519 26.1365C24.3974 26.1667 24.3974 26.1667 24.4439 26.1975C24.5203 26.2483 24.5962 26.2998 24.6721 26.3515C24.8429 26.4333 24.9571 26.4322 25.1425 26.4175C25.2859 26.3556 25.2859 26.3556 25.4225 26.2614C25.4751 26.2276 25.5276 26.1937 25.5818 26.1589C25.6382 26.1215 25.6947 26.0841 25.7511 26.0467C25.8103 26.0083 25.8696 25.9699 25.9289 25.9316C26.0509 25.8527 26.1727 25.7734 26.2943 25.6938C26.5601 25.52 26.8282 25.3505 27.0959 25.1805C27.198 25.1153 27.3001 25.0502 27.4021 24.985C27.7096 24.7886 28.0173 24.5924 28.325 24.3962C28.3759 24.3638 28.4268 24.3313 28.4792 24.2979C28.7376 24.1331 28.9961 23.9684 29.2546 23.8038C29.7511 23.4876 30.247 23.1705 30.7416 22.8508C31.1303 22.5995 31.5203 22.351 31.9114 22.1044C31.9965 22.0507 32.0814 21.9968 32.1663 21.9429C32.4195 21.7824 32.6733 21.6237 32.9306 21.4714C32.973 21.4458 33.0154 21.4203 33.059 21.3939C33.1363 21.3473 33.2142 21.3017 33.2926 21.2574C33.3889 21.1987 33.4703 21.1463 33.55 21.0625C33.5912 20.8929 33.5975 20.763 33.5975 20.59C33.564 20.5761 33.5304 20.5623 33.4959 20.548C33.352 20.4813 33.2213 20.4027 33.086 20.3168C33.0326 20.2831 32.9792 20.2493 32.9242 20.2145C32.8666 20.1778 32.809 20.1411 32.7514 20.1044C32.6915 20.0663 32.6315 20.0283 32.5715 19.9903C32.1515 19.7235 31.7327 19.4544 31.3145 19.184C30.8146 18.8608 30.3128 18.5413 29.8109 18.2218C29.553 18.0576 29.2953 17.8931 29.0375 17.7287C28.9346 17.6631 28.8317 17.5975 28.7288 17.5319C28.5229 17.4006 28.3171 17.2694 28.1113 17.1381C28.0603 17.1056 28.0093 17.0731 27.9568 17.0396C27.8542 16.9742 27.7516 16.9088 27.6491 16.8434C27.3865 16.6759 27.1239 16.5086 26.8612 16.3414C26.808 16.3075 26.7548 16.2736 26.7 16.2387C26.595 16.1719 26.4901 16.1052 26.3851 16.0386C26.1565 15.8933 25.929 15.747 25.7047 15.5939C25.6679 15.569 25.6312 15.5442 25.5933 15.5186C25.5271 15.4736 25.4613 15.428 25.396 15.3816C25.1884 15.241 25.0509 15.1882 24.81 15.235C24.6144 15.3344 24.4327 15.456 24.2489 15.5795C24.1942 15.6155 24.1394 15.6514 24.0846 15.6872C23.9709 15.7616 23.8573 15.8363 23.7439 15.9114C23.4836 16.0832 23.2204 16.2494 22.9575 16.4162C22.8546 16.4818 22.7517 16.5475 22.6488 16.6131C19.5613 18.5819 19.5613 18.5819 19.4069 18.6803C19.304 18.7459 19.2012 18.8115 19.0983 18.8771C18.8399 19.0419 18.5815 19.2066 18.3229 19.3712C17.7512 19.7353 17.1803 20.1007 16.6109 20.4691C16.5661 20.498 16.5213 20.527 16.4752 20.5568C16.4358 20.5823 16.3964 20.6078 16.3558 20.6341C16.1689 20.7529 16.0515 20.7649 15.8325 20.7475C15.6764 20.6737 15.6764 20.6737 15.5174 20.5711C15.489 20.553 15.4605 20.5348 15.4311 20.5161C15.3713 20.4778 15.3117 20.4392 15.2522 20.4001C15.1619 20.3408 15.071 20.2826 14.9799 20.2245C14.2856 19.7779 14.2856 19.7779 14.2264 19.5466C14.2954 19.2531 14.5557 19.1275 14.781 18.9761C14.9106 18.8929 15.0407 18.8108 15.1714 18.7298C15.259 18.6755 15.3464 18.6209 15.4337 18.5662C15.5246 18.5093 15.6156 18.4523 15.7065 18.3955C16.0049 18.2092 16.3018 18.0201 16.5984 17.8305C16.7005 17.7653 16.8025 17.7002 16.9046 17.635C16.9549 17.6029 17.0053 17.5707 17.0572 17.5376C17.3139 17.3737 17.5707 17.21 17.8275 17.0462C17.9304 16.9806 18.0333 16.915 18.1363 16.8494C18.7538 16.4556 18.7538 16.4556 18.9082 16.3572C19.011 16.2916 19.1138 16.226 19.2167 16.1604C19.4751 15.9956 19.7336 15.8309 19.9921 15.6663C20.4886 15.3501 20.9845 15.033 21.4791 14.7133C21.9191 14.4288 22.3612 14.1485 22.804 13.8696C23.3012 13.5564 23.7961 13.2388 24.2899 12.9193C24.3307 12.8932 24.3714 12.8672 24.4134 12.8404C24.4828 12.795 24.5514 12.7481 24.6186 12.6987C24.8309 12.5464 24.9484 12.5281 25.19 12.61Z" fill="#BE0A2C"/>
<path d="M28.6575 29.3575C28.8366 29.5555 28.7721 29.9063 28.7727 30.1767C28.7733 30.2952 28.7756 30.4135 28.778 30.532C28.7785 30.6074 28.7788 30.6828 28.779 30.7582C28.78 30.8611 28.78 30.8611 28.781 30.9661C28.7525 31.1425 28.7525 31.1425 28.6477 31.2612C28.6039 31.2913 28.5601 31.3215 28.515 31.3525C28.4552 31.3939 28.4552 31.3939 28.3943 31.4361C28.3516 31.463 28.309 31.4899 28.2651 31.5176C28.2164 31.5484 28.1678 31.5792 28.1177 31.611C28.0656 31.6437 28.0135 31.6764 27.9598 31.7102C27.877 31.7626 27.7941 31.815 27.7113 31.8674C27.6252 31.9219 27.5391 31.9763 27.4529 32.0307C27.23 32.1714 27.0078 32.3134 26.7855 32.4555C26.6805 32.5225 26.5754 32.5893 26.4703 32.656C26.2558 32.7921 26.0418 32.9284 25.8314 33.0721C25.801 33.0925 25.7706 33.1129 25.7393 33.1339C25.6639 33.1847 25.5892 33.2365 25.5145 33.2884C25.3386 33.3657 25.2286 33.3487 25.0475 33.295C24.8966 33.0448 24.9312 32.7598 24.9297 32.4671C24.9287 32.3573 24.9258 32.2476 24.9228 32.1378C24.9148 31.6172 24.9148 31.6172 25.0616 31.4042C25.1405 31.3528 25.1405 31.3528 25.2375 31.3C25.3224 31.2433 25.4072 31.1866 25.4921 31.1298C25.5931 31.0659 25.6943 31.0024 25.7956 30.9391C25.8781 30.887 25.9607 30.8349 26.0432 30.7828C26.1288 30.7288 26.2146 30.6749 26.3003 30.621C26.5231 30.4808 26.745 30.339 26.9669 30.1972C27.0719 30.1301 27.177 30.0632 27.2821 29.9965C27.497 29.8601 27.7114 29.7234 27.9227 29.5804C27.9687 29.5498 27.9687 29.5498 28.0155 29.5186C28.0916 29.4677 28.1671 29.4159 28.2426 29.3641C28.4036 29.2909 28.4921 29.3038 28.6575 29.3575Z" fill="#BE0B2D"/>
</g>
<defs>
<clipPath id="clip0_2_19">
<rect width="38" height="42" fill="white" transform="translate(6 4)"/>
</clipPath>
</defs>
</svg>
