<svg width="50" height="50" viewBox="0 0 50 50" fill="none" xmlns="http://www.w3.org/2000/svg">
<g clip-path="url(#clip0_2170_3268)">
<rect width="50" height="50" rx="10" fill="white"/>
<rect width="50" height="50" rx="10" fill="#202A45"/>
<path d="M32.3506 21.9784V32.3475C36.9847 32.3475 38.0796 29.6693 38.0478 28.3303V16.4356C38.0478 13.272 35.4945 12.2528 34.2179 12.1387H22.0742C18.6864 12.1387 17.8606 14.5468 17.8712 15.7508V17.8062H27.4304C31.2417 17.8062 32.2986 20.5876 32.3506 21.9784Z" fill="#9B6AFA"/>
<path d="M18.582 28.3008V21.7441H25.1387L18.582 28.3008Z" fill="#3D6BFF"/>
<path d="M28.7056 31.7394H22.1646L28.7056 25.2944V31.7394Z" fill="#3D6BFF"/>
<path d="M11.9531 34.6666V25.6987C11.9531 22.9832 14.1324 21.9309 15.2221 21.7441H18.585V27.5669C18.585 30.8551 20.9515 31.7394 22.1347 31.7705H28.7048V34.6666C28.7048 37.7307 25.8816 38.4342 24.47 38.4029H16.4053C13.0175 38.4029 12.0256 35.912 11.9531 34.6666Z" fill="#28D9EB"/>
</g>
<defs>
<clipPath id="clip0_2170_3268">
<rect width="50" height="50" rx="10" fill="white"/>
</clipPath>
</defs>
</svg>
