<svg width="50" height="50" viewBox="0 0 50 50" fill="none" xmlns="http://www.w3.org/2000/svg">
<rect width="50" height="50" rx="4" fill="#9B6AFA"/>
<path d="M16.2686 13.3639V16.8286H29.8091C31.6664 16.8286 33.1721 18.3343 33.1721 20.1916V33.7307H36.6369C38.4943 33.7307 40 32.225 40 30.3677V13.3629C40 11.5056 38.4943 10 36.6369 10H19.6316C17.7743 10 16.2686 11.5056 16.2686 13.3629V13.3639Z" fill="white"/>
<path opacity="0.6" d="M21.3852 33.1031C20.5483 33.94 19.1916 33.94 18.3547 33.1031L16.8971 31.6456C16.0601 30.8087 16.0601 29.452 16.8971 28.6151L23.699 21.8134H13.363C11.5057 21.8134 10 23.319 10 25.1763V36.6371C10 38.4944 11.5057 40 13.363 40H24.8242C26.6815 40 28.1872 38.4944 28.1872 36.6371V26.3014L21.3852 33.1031Z" fill="white"/>
<path d="M16.897 28.6151L23.699 21.8134H16.2696V30.0929L16.2715 30.0948C16.2802 29.5586 16.4877 29.0244 16.897 28.6151Z" fill="white"/>
<path d="M28.1862 26.3024L21.3843 33.1041C20.9673 33.5211 20.4196 33.7306 19.8729 33.7315H28.1862V26.3024Z" fill="white"/>
</svg>
