<svg width="173" height="32" viewBox="0 0 173 32" fill="none" xmlns="http://www.w3.org/2000/svg">
<g clip-path="url(#clip0_809_25837)">
<path d="M44.6988 24.6399C43.4545 23.9177 42.4463 22.8477 41.6752 21.4288C40.9031 20.011 40.5186 18.3263 40.5186 16.375C40.5186 14.4236 40.9041 12.7461 41.6752 11.3404C42.4463 9.93466 43.4535 8.87074 44.6988 8.14862C45.9431 7.42649 47.2612 7.06543 48.6549 7.06543C50.0487 7.06543 51.2113 7.34434 52.2195 7.90115C53.2267 8.45897 53.9799 9.24398 54.478 10.2572L54.8884 7.44576H58.9193V25.3052H54.739L54.4401 22.5688C53.942 23.5567 53.1898 24.3295 52.1816 24.8863C51.1734 25.4431 49.9979 25.722 48.6549 25.722C47.312 25.722 45.9421 25.362 44.6988 24.6399ZM53.0414 20.156C53.9241 19.2574 54.3664 17.9967 54.3664 16.375C54.3664 15.3364 54.1482 14.4307 53.7139 13.6579C53.2785 12.885 52.7186 12.2968 52.0342 11.8911C51.3498 11.4864 50.6345 11.2836 49.8883 11.2836C48.5443 11.2836 47.4246 11.7532 46.5289 12.6893C45.6333 13.6264 45.185 14.8557 45.185 16.375C45.185 17.8943 45.6323 19.162 46.5289 20.0982C47.4246 21.0353 48.5443 21.5039 49.8883 21.5039C51.1067 21.5039 52.1577 21.0556 53.0414 20.156Z" fill="#281E49"/>
<path d="M70.2108 24.9066C69.2524 24.362 68.4872 23.5962 67.9154 22.6074V32.0001H63.2121V7.44678H67.3924L67.8028 10.3728C68.3498 9.30889 69.1149 8.49143 70.0982 7.92143C71.0805 7.35144 72.2192 7.06644 73.5133 7.06644C74.9061 7.06644 76.2191 7.42751 77.4505 8.14963C78.6819 8.87176 79.6771 9.93568 80.4363 11.3414C81.1954 12.7471 81.575 14.4256 81.575 16.376C81.575 18.3263 81.1954 20.0109 80.4363 21.4298C79.6771 22.8487 78.6819 23.9187 77.4505 24.6409C76.2191 25.363 74.9061 25.7241 73.5133 25.7241C72.269 25.7241 71.1691 25.4512 70.2108 24.9066ZM75.6224 20.1185C76.4811 19.1945 76.9095 17.947 76.9095 16.376C76.9095 14.805 76.4742 13.6274 75.6035 12.6903C74.7317 11.7532 73.6369 11.2846 72.3188 11.2846C71.5726 11.2846 70.8633 11.4813 70.1908 11.8739C69.5194 12.2674 68.9654 12.8495 68.5301 13.6214C68.0947 14.3942 67.8765 15.3121 67.8765 16.376C67.8765 18.0231 68.3119 19.2888 69.1826 20.1753C70.0533 21.0627 71.0984 21.5049 72.3178 21.5049C73.6618 21.5049 74.7636 21.0444 75.6224 20.1185Z" fill="#281E49"/>
<path d="M91.4478 24.9066C90.4894 24.362 89.7243 23.5962 89.1524 22.6074V32.0001H84.4491V7.44678H88.6294L89.0399 10.3728C89.5868 9.30889 90.3519 8.49143 91.3352 7.92143C92.3175 7.35144 93.4562 7.06644 94.7504 7.06644C96.1431 7.06644 97.4562 7.42751 98.6875 8.14963C99.9189 8.87176 100.914 9.93568 101.673 11.3414C102.432 12.7471 102.812 14.4256 102.812 16.376C102.812 18.3263 102.432 20.0109 101.673 21.4298C100.914 22.8487 99.9189 23.9187 98.6875 24.6409C97.4562 25.363 96.1431 25.7241 94.7504 25.7241C93.506 25.7241 92.4062 25.4512 91.4478 24.9066ZM96.8594 20.1185C97.7182 19.1945 98.1466 17.947 98.1466 16.376C98.1466 14.805 97.7112 13.6274 96.8405 12.6903C95.9688 11.7532 94.8739 11.2846 93.5559 11.2846C92.8097 11.2846 92.1003 11.4813 91.4279 11.8739C90.7564 12.2674 90.2025 12.8495 89.7671 13.6214C89.3318 14.3942 89.1136 15.3121 89.1136 16.376C89.1136 18.0231 89.5489 19.2888 90.4197 20.1753C91.2904 21.0627 92.3355 21.5049 93.5549 21.5049C94.8988 21.5049 96.0007 21.0444 96.8594 20.1185Z" fill="#281E49"/>
<path d="M107.086 9.23181C108.417 7.78756 110.315 7.06543 112.778 7.06543C114.296 7.06543 115.546 7.40722 116.529 8.09182C117.513 8.77541 118.215 9.51072 118.638 10.2957H118.713C119.136 9.51072 119.845 8.77541 120.84 8.09182C121.835 7.40824 123.092 7.06543 124.61 7.06543C127.074 7.06543 128.971 7.78756 130.302 9.23181C131.633 10.6761 132.299 12.6518 132.299 15.1599V25.3052H127.559V15.5392C127.559 14.1964 127.285 13.1518 126.738 12.4043C126.19 11.6578 125.382 11.2836 124.312 11.2836C123.242 11.2836 122.433 11.6578 121.886 12.4043C121.338 13.1518 121.065 14.1964 121.065 15.5392V25.3052H116.325V15.5392C116.325 14.1964 116.051 13.1518 115.504 12.4043C114.956 11.6578 114.147 11.2836 113.078 11.2836C112.009 11.2836 111.199 11.6578 110.652 12.4043C110.105 13.1518 109.832 14.1964 109.832 15.5392V25.3052H105.091V15.1599C105.091 12.6518 105.757 10.6761 107.088 9.23181H107.086Z" fill="#281E49"/>
<path d="M138.757 24.6399C137.512 23.9177 136.504 22.8477 135.733 21.4288C134.961 20.011 134.576 18.3263 134.576 16.375C134.576 14.4236 134.962 12.7461 135.733 11.3404C136.504 9.93466 137.511 8.87074 138.757 8.14862C140.001 7.42649 141.319 7.06543 142.713 7.06543C144.107 7.06543 145.269 7.34434 146.277 7.90115C147.285 8.45897 148.038 9.24398 148.536 10.2572L148.946 7.44576H152.977V25.3052H148.797L148.498 22.5688C148 23.5567 147.248 24.3295 146.239 24.8863C145.231 25.4431 144.056 25.722 142.713 25.722C141.37 25.722 140 25.362 138.757 24.6399ZM147.098 20.156C147.981 19.2574 148.423 17.9967 148.423 16.375C148.423 15.3364 148.205 14.4307 147.771 13.6579C147.335 12.885 146.775 12.2968 146.091 11.8911C145.407 11.4864 144.691 11.2836 143.945 11.2836C142.601 11.2836 141.481 11.7532 140.586 12.6893C139.69 13.6264 139.242 14.8557 139.242 16.375C139.242 17.8943 139.689 19.162 140.586 20.0982C141.481 21.0353 142.601 21.5039 143.945 21.5039C145.164 21.5039 146.215 21.0556 147.098 20.156Z" fill="#281E49"/>
<path d="M163.913 18.8071L160.554 25.3052H154.843L160.666 16.0717L154.843 7.44576H160.554L163.913 13.526L167.235 7.44576H172.984L167.161 16.0717L172.984 25.3052H167.235L163.913 18.8071Z" fill="#281E49"/>
<path d="M6.53027 3.50558V7.1163H20.6373C22.5723 7.1163 24.141 8.68536 24.141 10.6209V24.7303H27.7508C29.6859 24.7303 31.2546 23.1613 31.2546 21.2258V3.50458C31.2546 1.56905 29.6859 0 27.7508 0H10.034C8.09894 0 6.53027 1.56905 6.53027 3.50458V3.50558Z" fill="#9B6AFA"/>
<path d="M11.8616 24.0767C10.9897 24.9488 9.57618 24.9488 8.70425 24.0767L7.18564 22.5577C6.31371 21.6855 6.31371 20.2717 7.18564 19.3995L14.2722 12.3113H3.50372C1.56867 12.3113 0 13.8803 0 15.8159V27.7595C0 29.695 1.56867 31.2641 3.50372 31.2641H15.4444C17.3795 31.2641 18.9481 29.695 18.9481 27.7595V16.9884L11.8616 24.0767Z" fill="#D7C3FE"/>
<path d="M7.18592 19.3995L14.2725 12.3113H6.53223V20.9396L6.53423 20.9416C6.54324 20.3828 6.75947 19.8261 7.18592 19.3995Z" fill="#7252BF"/>
<path d="M18.9473 16.9893L11.8608 24.0775C11.4263 24.5121 10.8557 24.7304 10.2861 24.7314H18.9473V16.9893Z" fill="#7252BF"/>
</g>
<defs>
<clipPath id="clip0_809_25837">
<rect width="173" height="32" fill="white"/>
</clipPath>
</defs>
</svg>
