<svg width="145" height="45" viewBox="0 0 145 45" fill="none" xmlns="http://www.w3.org/2000/svg">
<path d="M63.3251 17.7379C62.5511 16.7075 61.5773 15.9076 60.4005 15.3382C59.2236 14.7653 57.8331 14.4789 56.2289 14.4789C54.6247 14.4789 53.3252 14.7863 52.1658 15.4011C51.0065 16.0158 49.9802 16.9101 49.0905 18.0803V6.84644L44.2324 6.84644L44.2324 37.4635H48.9609V34.8053C49.9066 36.0069 50.9539 36.8627 52.0993 37.3797C53.2446 37.8932 54.4916 38.1517 55.8401 38.1517C57.3287 38.1517 58.6772 37.8722 59.8821 37.3168C61.087 36.7579 62.1167 35.965 62.9784 34.938C63.8365 33.9075 64.4985 32.657 64.9574 31.1864C65.4162 29.7158 65.6439 28.0636 65.6439 26.2332C65.6439 24.4028 65.4512 22.8973 65.0624 21.4511C64.6736 20.0085 64.0957 18.7719 63.3216 17.7414L63.3251 17.7379ZM60.0992 29.9603C59.812 30.9628 59.4127 31.7697 58.8943 32.3845C58.3795 32.9993 57.777 33.4499 57.087 33.7364C56.4005 34.0228 55.6544 34.166 54.8523 34.166C54.1063 34.166 53.3917 34.0647 52.7017 33.8656C52.0152 33.6665 51.4058 33.2927 50.8734 32.7513C50.3445 32.2099 49.9137 31.4798 49.5844 30.5646C49.2552 29.6494 49.0765 28.4792 49.0485 27.0471V25.6324C49.0485 24.5739 49.1641 23.6099 49.3918 22.7366C49.6194 21.8633 49.9802 21.1158 50.4671 20.487C50.9539 19.8583 51.5774 19.3727 52.3375 19.0304C53.0975 18.6881 54.0082 18.5169 55.0695 18.5169C55.7875 18.5169 56.481 18.6601 57.1535 18.9466C57.826 19.233 58.4075 19.6836 58.8943 20.2984C59.3812 20.9132 59.777 21.7131 60.0782 22.6981C60.3794 23.6832 60.5301 24.8778 60.5301 26.2786C60.5301 27.6793 60.3864 28.9648 60.0992 29.9673V29.9603Z" fill="#DF295D"/>
<path d="M85.8823 17.0516C85.1958 16.2517 84.2711 15.623 83.1082 15.1654C81.9489 14.7078 80.4778 14.4807 78.7019 14.4807C75.9489 14.4807 73.7843 14.9802 72.2081 15.9827C70.6319 16.9853 69.6407 18.5711 69.2414 20.7439L73.7142 21.2154C73.9419 20.2443 74.4253 19.5003 75.1538 18.9868C75.8858 18.4733 77.0102 18.2148 78.5303 18.2148C79.8473 18.2148 80.9156 18.5362 81.7352 19.1789C82.5513 19.8217 82.9611 20.9884 82.9611 22.6755V23.6187L79.6511 23.7898C78.2746 23.8492 76.8981 23.982 75.5216 24.1985C74.145 24.4116 72.9051 24.7924 71.8018 25.3338C70.6985 25.8787 69.8018 26.6262 69.1153 27.5834C68.4288 28.5405 68.082 29.791 68.082 31.335C68.082 32.4772 68.2747 33.4727 68.6635 34.3146C69.0488 35.1564 69.5811 35.8515 70.2536 36.393C70.9261 36.9379 71.7212 37.3431 72.6389 37.6156C73.5566 37.888 74.5443 38.0242 75.6056 38.0242C77.3254 38.0242 78.786 37.6959 79.9909 37.0392C81.1958 36.3825 82.2116 35.5546 83.0452 34.5521V37.4688H87.7317V23.5314C87.7317 22.2179 87.5951 21.0093 87.3219 19.909C87.0487 18.8087 86.5688 17.8585 85.8823 17.0586V17.0516ZM82.9576 28.2016C82.9576 30.06 82.4427 31.5306 81.4095 32.6169C80.3762 33.7033 78.786 34.2447 76.6354 34.2447C75.4305 34.2447 74.5198 33.9722 73.9034 33.4308C73.2869 32.8894 72.9787 32.1314 72.9787 31.1568C72.9787 30.6154 73.0557 30.1054 73.2133 29.6338C73.371 29.1622 73.6932 28.7466 74.1801 28.3903C74.6669 28.034 75.364 27.7405 76.2641 27.51C77.1678 27.2829 78.3482 27.1258 79.8123 27.0384L82.9506 26.9092V28.1946L82.9576 28.2016Z" fill="#DF295D"/>
<path d="M102.585 14.8245C101.352 14.8245 100.189 15.1389 99.1037 15.7677C98.0144 16.3964 97.0827 17.2977 96.3086 18.4678V15.1669H91.5801V37.4669H96.4382V24.3887C96.4382 23.7599 96.5608 23.1381 96.8025 22.5233C97.0441 21.9086 97.4049 21.3601 97.8778 20.8711C98.3506 20.3856 98.9321 19.9908 99.6186 19.6904C100.305 19.39 101.107 19.2398 102.025 19.2398C102.428 19.2398 102.813 19.2538 103.184 19.2817C103.555 19.3097 103.902 19.3691 104.217 19.4529L104.778 14.9922C104.463 14.9363 104.14 14.8909 103.811 14.863C103.482 14.835 103.072 14.821 102.585 14.821V14.8245Z" fill="#DF295D"/>
<path d="M119.65 33.8611C119.205 33.917 118.739 33.9485 118.253 33.9485C117.335 33.9485 116.641 33.69 116.169 33.1765C115.696 32.663 115.458 31.8316 115.458 30.6894V19.0259H121.006V15.166L115.458 15.166V9.16138L110.599 9.16138V15.166H107.072V19.0259H110.599V30.2597C110.599 32.8027 111.086 34.7134 112.06 35.9849C113.034 37.2564 114.753 37.8922 117.219 37.8922C118.824 37.8922 120.316 37.6616 121.692 37.2075L120.96 33.5642C120.529 33.7074 120.091 33.8087 119.65 33.8646V33.8611Z" fill="#DF295D"/>
<path d="M144.239 25.3693C144.239 23.7415 144.04 22.2604 143.637 20.9296C143.234 19.5987 142.618 18.4564 141.788 17.4993C140.957 16.5422 139.91 15.7982 138.649 15.2707C137.388 14.7433 135.896 14.4778 134.176 14.4778C132.572 14.4778 131.101 14.7433 129.77 15.2707C128.436 15.8017 127.29 16.5702 126.331 17.5866C125.371 18.6031 124.625 19.8537 124.096 21.3382C123.567 22.8263 123.301 24.5275 123.301 26.4417C123.301 30.1583 124.225 33.0401 126.075 35.0836C127.924 37.1271 130.625 38.1506 134.18 38.1506C137.133 38.1506 139.395 37.5148 140.975 36.2433C142.551 34.9718 143.539 33.1764 143.942 30.8605H139.213C138.954 31.9748 138.439 32.8341 137.665 33.4349C136.891 34.0357 135.732 34.3361 134.183 34.3361C132.204 34.3361 130.73 33.7073 129.756 32.4498C128.782 31.1923 128.264 29.547 128.208 27.5175H144.246V25.3728L144.239 25.3693ZM128.288 24.1292C128.432 22.3268 128.975 20.8911 129.924 19.8187C130.87 18.7464 132.246 18.2119 134.054 18.2119C135.861 18.2119 137.322 18.7429 138.183 19.7978C139.042 20.8562 139.472 22.2988 139.472 24.1292H128.292H128.288Z" fill="#DF295D"/>
<path d="M27.6786 21.7621H21.0832L28.9676 4.0031C29.3459 3.15427 29.2653 2.21812 28.7539 1.43217C28.169 0.534445 27.1287 0 25.9764 0L12.4738 0C10.3407 0 8.4528 1.14574 7.66822 2.91674L0.207664 19.7116C-0.125083 20.4591 -0.0550313 21.2835 0.396805 21.9751C0.908186 22.7611 1.81536 23.2292 2.82061 23.2292H9.22338L1.16388 41.3898C0.824124 42.1548 0.894176 43.0001 1.35652 43.7092C1.88191 44.5126 2.8101 44.9947 3.84337 44.9947H17.6296C19.9519 44.9947 22.0044 43.7512 22.859 41.823L30.2355 25.2028C30.5613 24.4692 30.4947 23.6623 30.0499 22.9846C29.549 22.2162 28.6629 21.7586 27.6821 21.7586L27.6786 21.7621ZM2.81711 21.7621C2.31273 21.7621 1.8679 21.542 1.62972 21.1752C1.52815 21.018 1.38104 20.6967 1.55267 20.3054L9.01322 3.50708C9.55613 2.28449 10.9467 1.46361 12.4738 1.46361L22.12 1.46361C22.6244 1.46361 23.0692 1.68368 23.3074 2.05045C23.4089 2.20764 23.5561 2.52901 23.3844 2.92024L15.9729 19.6173C15.402 20.8993 13.9449 21.7621 12.3407 21.7621H2.82061H2.81711ZM28.887 24.6124L21.5105 41.2326C20.9011 42.6054 19.3389 43.5311 17.6261 43.5311H8.20412C7.72076 43.5311 7.29694 43.3215 7.06927 42.9722C6.9712 42.822 6.8346 42.5181 6.99572 42.1478L14.7225 24.7417C15.1218 23.8404 16.155 23.2326 17.2934 23.2326H27.6821C28.1655 23.2326 28.5893 23.4422 28.817 23.7915C28.915 23.9417 29.0516 24.2456 28.8905 24.6124H28.887Z" fill="#DF295D"/>
</svg>
