<svg width="50" height="50" viewBox="0 0 50 50" fill="none" xmlns="http://www.w3.org/2000/svg">
<rect x="0.5" y="0.5" width="49" height="49" rx="7.5" fill="white"/>
<rect x="0.5" y="0.5" width="49" height="49" rx="7.5" stroke="#ECECEE"/>
<path d="M14.8596 26.2779C14.8596 28.4521 13.4629 30.1872 11.2887 30.1872C10.4031 30.1872 9.6472 29.7696 9.05685 29.1793V30.0144H7.005V19.7768H9.04965V23.2829C9.6112 22.743 10.3527 22.3686 11.2815 22.3686C13.5637 22.3686 14.8524 24.2116 14.8524 26.2779H14.8596ZM12.9517 26.3571C12.9517 25.2556 12.0662 24.3556 11.0151 24.3556C9.96397 24.3556 9.05685 25.2556 9.05685 26.3571C9.05685 27.4586 9.95678 28.3729 11.0151 28.3729C12.0734 28.3729 12.9517 27.4586 12.9517 26.3571Z" fill="#101929"/>
<path d="M21.3895 22.5702H23.3765L23.3117 30.0216H21.3895V29.2009C20.7991 29.7913 20.036 30.2088 19.1577 30.2088C16.9834 30.2088 15.5867 28.4738 15.5867 26.2995C15.5867 24.1253 16.8754 22.3902 19.1577 22.3902C20.0864 22.3902 20.8351 22.7646 21.3895 23.3046V22.5774V22.5702ZM21.3895 26.3571C21.3895 25.2556 20.4752 24.3701 19.4024 24.3701C18.3297 24.3701 17.4442 25.2556 17.4442 26.3715C17.4442 27.4874 18.3441 28.3874 19.4024 28.3874C20.4608 28.3874 21.3895 27.4586 21.3895 26.3571Z" fill="#101929"/>
<path d="M26.2779 27.5522C26.2923 28.2505 26.7603 28.5889 27.797 28.5889C28.4305 28.5889 28.8841 28.3225 28.8841 27.8761C28.8841 26.7098 24.3197 27.4442 24.3197 24.6652C24.3197 23.0237 25.8747 22.383 27.5162 22.383C29.7984 22.383 30.792 23.8445 30.792 24.8524H28.7401C28.6753 24.4492 28.3369 23.9524 27.5162 23.9524C27.0338 23.9524 26.4435 24.0748 26.4435 24.5572C26.4435 25.6875 31.0079 24.9316 31.0079 27.8329C31.0079 29.1864 30.2016 30.2232 27.8402 30.2232C25.6372 30.2232 24.3341 29.3664 24.1901 27.5522H26.2707H26.2779Z" fill="#101929"/>
<path d="M33.6789 27.0411C33.8949 27.9842 34.55 28.5313 35.6803 28.5313C36.4579 28.5313 37.0338 28.265 37.3722 27.7898L39.4241 27.7466C38.9561 29.3161 37.689 30.18 35.7307 30.18C33.2325 30.18 31.8358 28.7689 31.8358 26.2707C31.8358 24.2045 33.4485 22.3614 35.7307 22.3614C38.1354 22.3614 39.6256 24.0965 39.6256 26.2707C39.6256 26.5371 39.6112 26.7819 39.5824 27.0123L38.1066 27.0411H33.6861H33.6789ZM33.7581 25.3924H37.6242C37.3578 24.586 36.7099 24.0101 35.6875 24.0101C34.7444 24.0101 34.0605 24.6148 33.7653 25.3924H33.7581Z" fill="#101929"/>
<path d="M40.1152 28.7761C40.1152 27.9842 40.7704 27.3362 41.5551 27.3362C42.3399 27.3362 42.995 27.9914 42.995 28.7761C42.995 29.5609 42.3399 30.216 41.5551 30.216C40.7704 30.216 40.1152 29.5609 40.1152 28.7761Z" fill="#5383EC"/>
</svg>
