<svg width="50" height="50" viewBox="0 0 50 50" fill="none" xmlns="http://www.w3.org/2000/svg">
<rect width="50" height="50" rx="8" fill="#30A2DB"/>
<path d="M23.8757 18.7336L21.466 16.1632L22.9118 14.0748L25.6428 16.9665L23.8757 18.7336Z" fill="white"/>
<path d="M37.5306 22.4298C37.5306 26.6886 34.0782 30.1409 29.8195 30.1409C25.5608 30.1409 22.1084 26.6886 22.1084 22.4298C22.1084 18.1711 25.5608 14.7188 29.8195 14.7188C34.0782 14.7188 37.5306 18.1711 37.5306 22.4298Z" fill="white"/>
<path d="M23.7149 13.2721C23.7149 15.1353 22.2045 16.6457 20.3413 16.6457C18.4781 16.6457 16.9677 15.1353 16.9677 13.2721C16.9677 11.4089 18.4781 9.8985 20.3413 9.8985C22.2045 9.8985 23.7149 11.4089 23.7149 13.2721Z" fill="white"/>
<path d="M24.3573 34.1576C24.3573 37.4403 21.6961 40.1016 18.4134 40.1016C15.1306 40.1016 12.4694 37.4403 12.4694 34.1576C12.4694 30.8748 15.1306 28.2136 18.4134 28.2136C21.6961 28.2136 24.3573 30.8748 24.3573 34.1576Z" fill="white"/>
<path d="M24.3576 25.1603L20.3414 29.3372L22.4299 32.7108L26.928 28.052L24.3576 25.1603Z" fill="white"/>
</svg>
