<svg width="50" height="50" viewBox="0 0 50 50" fill="none" xmlns="http://www.w3.org/2000/svg">
<rect x="0.5" y="0.5" width="49" height="49" rx="9.5" fill="white"/>
<rect x="0.5" y="0.5" width="49" height="49" rx="9.5" stroke="#DDDDE0"/>
<path d="M11.1927 23.549C11.1927 27.7118 13.0541 30.4446 13.9848 31.2907L11.51 35.6057C11.235 35.9864 10.7739 36.9002 11.1292 37.5094C11.4846 38.1186 12.7156 37.8901 13.2867 37.6998L20.14 35.225C20.838 35.3096 22.564 35.4534 23.8839 35.3519C25.5338 35.225 28.1355 34.6539 30.6737 32.4329C32.7043 30.6561 33.7196 28.3929 33.9735 27.4833L38.3519 28.4352C38.7538 28.4563 39.6211 28.3971 39.8749 27.991C40.1287 27.5848 39.9383 27.1872 39.8114 27.0391L35.1157 23.8029L39.4307 20.0589C39.5999 19.8686 39.8495 19.3736 39.4941 18.9167C39.1388 18.4598 38.5423 18.4725 38.2885 18.536L33.9735 20.0589C33.0851 17.3726 29.6838 12 23.1859 12C15.0635 12 11.1927 18.3456 11.1927 23.549Z" fill="#32D951"/>
<path d="M13.1599 23.4855C13.1599 27.1913 14.979 29.7677 15.8885 30.5926C16.1424 30.9987 15.9943 31.5656 15.8885 31.7983C15.402 32.7713 14.4037 34.7553 14.3021 34.9076C14.2006 35.0599 14.2175 35.1403 14.2387 35.1614C15.5712 34.6961 18.3633 33.7146 18.871 33.5116C19.3786 33.3085 19.844 33.2578 20.0132 33.2578H24.3917C28.199 33.2578 32.4506 28.4985 32.4506 23.6759C32.4506 18.8532 28.7701 14.0305 22.9322 14.0305C17.0942 14.0305 13.1599 18.8532 13.1599 23.4855Z" fill="white"/>
<path d="M27.6913 21.3279C27.6913 23.3606 26.1003 25.0084 24.1378 25.0084C22.1752 25.0084 20.5842 23.3606 20.5842 21.3279C20.5842 19.2953 22.1752 17.6475 24.1378 17.6475C26.1003 17.6475 27.6913 19.2953 27.6913 21.3279Z" fill="#32D951"/>
<path d="M25.9146 20.3128C25.9146 21.4343 25.0622 22.3434 24.0109 22.3434C22.9595 22.3434 22.1072 21.4343 22.1072 20.3128C22.1072 19.1914 22.9595 18.2822 24.0109 18.2822C25.0622 18.2822 25.9146 19.1914 25.9146 20.3128Z" fill="white"/>
</svg>
