<svg width="50" height="50" viewBox="0 0 50 50" fill="none" xmlns="http://www.w3.org/2000/svg">
<g clip-path="url(#clip0_2170_3273)">
<rect width="50" height="50" rx="10" fill="white"/>
<rect width="50" height="50" rx="10" fill="#3333CC"/>
<path d="M15.8576 21.3366C14.7896 21.3366 13.8511 21.6278 13.0744 22.2104L12.589 22.5663V17L10 17.7767V32.89H12.6214V31.9515L13.1068 32.3074C13.9159 32.8576 14.8544 33.1489 15.89 33.1489C18.8673 33.1489 21.2945 30.4951 21.2945 27.2265C21.2945 23.9579 18.835 21.3366 15.8576 21.3366ZM15.6634 30.4951C13.9159 30.4951 12.589 29.1036 12.589 27.2589C12.589 25.4142 13.9159 23.9903 15.6634 23.9903C17.411 23.9903 18.7379 25.3819 18.7379 27.2265C18.7055 29.0712 17.411 30.4951 15.6634 30.4951Z" fill="white"/>
<path d="M26.7305 26.0296L26.4392 25.9325C25.2094 25.4794 24.6916 25.1882 24.6916 24.5409C24.6916 23.8613 25.3713 23.6024 26.0185 23.6024C26.6658 23.6024 27.4425 23.8289 27.4425 24.7998V25.35H30.0315V24.7998C30.0315 22.6315 28.381 21.0781 26.0185 21.0781C23.4619 21.0781 22.135 22.7933 22.135 24.5085C22.135 26.9357 24.1415 27.6477 25.7596 28.2302L25.9214 28.295C27.1512 28.748 27.7661 29.0717 27.7661 29.6218C27.7661 30.3662 26.957 30.6251 26.245 30.6251C25.436 30.6251 24.4327 30.3985 24.4327 29.2658V28.6833H21.8438V29.2658C21.8438 31.5959 23.5913 33.1493 26.245 33.1493C28.6075 33.1493 30.3551 31.693 30.3551 29.6542C30.3227 27.3564 28.3162 26.6121 26.7305 26.0296Z" fill="white"/>
<path d="M36.1158 31.4017H38.8989V30.3985H34.9184L36.6336 28.7157C38.0251 27.3564 38.7048 26.1267 38.7048 24.8645C38.7048 22.9875 37.3779 21.0781 34.8213 21.0781C32.9119 21.0781 30.873 22.2755 30.873 24.8645V25.3176H33.4297V24.8969C33.4297 24.0231 33.9151 23.57 34.8536 23.57C35.4685 23.57 36.1481 23.926 36.1481 24.8645C36.1481 25.6412 35.3714 26.4827 34.8213 27.0328L32.297 29.5571C31.4232 30.4309 30.9054 31.6283 30.9054 32.8581H38.9313V31.8548H36.1158C35.9863 31.8548 35.8569 31.7577 35.8569 31.5959C35.8569 31.5312 35.954 31.4017 36.1158 31.4017ZM39.9993 31.6607C39.9993 31.8548 39.8374 32.0166 39.6433 32.0166C39.4491 32.0166 39.2873 31.8548 39.2873 31.6607C39.2873 31.4665 39.4491 31.3047 39.6433 31.3047C39.8374 31.3047 39.9993 31.4665 39.9993 31.6607Z" fill="white"/>
</g>
<defs>
<clipPath id="clip0_2170_3273">
<rect width="50" height="50" rx="10" fill="white"/>
</clipPath>
</defs>
</svg>
