<svg width="40" height="26" viewBox="0 0 40 26" fill="none" xmlns="http://www.w3.org/2000/svg">
<path d="M2 0.5H38C38.8284 0.5 39.5 1.17157 39.5 2V24C39.5 24.8284 38.8284 25.5 38 25.5H2C1.17157 25.5 0.5 24.8284 0.5 24V2C0.5 1.17157 1.17157 0.5 2 0.5Z" stroke="#DEDDD8"/>
<rect width="20" height="20" transform="translate(10 3)" fill="#FCFBF9"/>
<path d="M24.167 4.66663C25.5477 4.66663 26.667 5.78591 26.667 7.16663V11.3336H25.001V7.16663C25.001 6.70639 24.6272 6.33362 24.167 6.33362H15.834C15.3737 6.33362 15.001 6.70639 15.001 7.16663V18.8336C15.0012 19.2937 15.3739 19.6666 15.834 19.6666H16.667V21.3336H15.834C14.4534 21.3336 13.3342 20.2142 13.334 18.8336V7.16663C13.334 5.78591 14.4533 4.66663 15.834 4.66663H24.167ZM23.6445 14.7125C24.4418 14.0485 25.6138 14.1011 26.3477 14.8346C27.1822 15.6691 27.1195 17.041 26.2129 17.7965L22.2012 21.1403C22.0514 21.2651 21.8619 21.3336 21.667 21.3336H20.001C19.5407 21.3336 19.167 20.9599 19.167 20.4996V18.8336C19.167 18.5864 19.2769 18.3513 19.4668 18.193L23.6445 14.7125ZM25.1689 16.0133C25.0445 15.8893 24.846 15.8804 24.7109 15.9928L20.834 19.2242V19.6666H21.3643L25.1465 16.5153C25.3 16.3871 25.3104 16.1547 25.1689 16.0133ZM17.501 15.4996C17.9611 15.4998 18.334 15.8735 18.334 16.3336C18.3338 16.7936 17.961 17.1665 17.501 17.1666C17.0408 17.1666 16.6672 16.7937 16.667 16.3336C16.667 15.8734 17.0407 15.4996 17.501 15.4996ZM17.501 12.1666C17.961 12.1668 18.3338 12.5397 18.334 12.9996C18.334 13.4598 17.9611 13.8334 17.501 13.8336C17.0407 13.8336 16.667 13.4599 16.667 12.9996C16.6672 12.5395 17.0408 12.1666 17.501 12.1666ZM23.334 13.8336H20.001V12.1666H23.334V13.8336ZM17.501 8.83362C17.9611 8.83379 18.334 9.2065 18.334 9.66663C18.334 10.1268 17.9611 10.4995 17.501 10.4996C17.0407 10.4996 16.667 10.1269 16.667 9.66663C16.667 9.20639 17.0407 8.83362 17.501 8.83362ZM23.334 10.4996H20.001V8.83362H23.334V10.4996Z" fill="#221D25"/>
</svg>
