<svg width="50" height="50" viewBox="0 0 50 50" fill="none" xmlns="http://www.w3.org/2000/svg">
<g clip-path="url(#clip0_2170_3278)">
<rect width="50" height="50" rx="10" fill="white"/>
<rect x="0.5" y="0.5" width="49" height="49" rx="9.5" fill="white" stroke="#DDDDE0"/>
<path d="M30.8002 19.226C30.6943 19.226 30.5895 19.2469 30.4917 19.2875C30.3939 19.3281 30.3051 19.3875 30.2303 19.4625C30.0825 19.6103 29.9938 19.8191 29.9938 20.0334V29.7796C29.9938 29.9939 30.0788 30.199 30.2303 30.3506C30.3051 30.4255 30.394 30.4849 30.4918 30.5255C30.5896 30.566 30.6945 30.5869 30.8004 30.5869C30.9062 30.5869 31.0111 30.566 31.1089 30.5255C31.2067 30.4849 31.2956 30.4255 31.3704 30.3506C31.5182 30.2027 31.6069 29.9939 31.6069 29.7796V20.0331C31.6069 19.8187 31.5219 19.6136 31.3704 19.4621C31.2956 19.3871 31.2067 19.3276 31.1088 19.2871C31.011 19.2465 30.9061 19.226 30.8002 19.226ZM18.5155 22.6613C18.5155 22.2156 18.1545 21.8542 17.7099 21.8542C17.2653 21.8542 16.9043 22.2156 16.9043 22.6613V29.7789C16.9043 30.2245 17.2653 30.586 17.7099 30.586C18.1545 30.586 18.5155 30.2245 18.5155 29.7789V22.6613Z" fill="#5A646E"/>
<path d="M18.7423 20.0347C18.7371 20.3055 18.6259 20.5634 18.4326 20.7532C18.2394 20.9427 17.9796 21.0488 17.709 21.0488C17.4385 21.0488 17.1787 20.9424 16.9855 20.7532C16.7922 20.5634 16.681 20.3055 16.6758 20.0347C16.6757 19.7604 16.7845 19.4972 16.9784 19.303C17.1717 19.109 17.4341 19 17.7087 19C17.9833 19 18.2456 19.109 18.4393 19.303C18.6332 19.4972 18.7424 19.7604 18.7423 20.0347Z" fill="#00AEEF"/>
<path d="M28.536 24.4301C27.7614 22.6762 25.9288 21.4367 23.8379 21.651C23.1329 21.7256 22.4548 21.9623 21.8567 22.3428C21.2584 22.7236 20.7563 23.2376 20.3896 23.8447C20.0228 24.4521 19.8013 25.1361 19.7425 25.8432C19.6834 26.5506 19.7891 27.2623 20.0504 27.9216C20.3116 28.5811 20.7218 29.1712 21.2488 29.6459C21.7757 30.1203 22.4052 30.4663 23.0881 30.657C23.7706 30.8477 24.4924 30.8773 25.1845 30.7439C25.8767 30.6104 26.5364 30.3178 27.1007 29.8883C27.1955 29.8156 27.2729 29.7225 27.3272 29.616C27.3815 29.5096 27.4115 29.392 27.4144 29.2723C27.4205 29.06 27.3421 28.8539 27.1964 28.6993C27.0506 28.5448 26.8496 28.4543 26.6372 28.4478C26.4548 28.442 26.2758 28.4989 26.1302 28.609C25.572 29.04 24.8782 29.2573 24.1738 29.2217C23.601 29.1921 23.0482 28.9988 22.5847 28.6655C22.1173 28.332 21.7546 27.8722 21.5393 27.3399C21.5099 27.2682 21.5081 27.1881 21.5343 27.1151C21.5604 27.0421 21.6126 26.9813 21.6808 26.9445C21.726 26.9202 21.7766 26.9075 21.8279 26.9075H27.4248C27.6036 26.9083 27.781 26.8735 27.9466 26.8055C28.1121 26.7375 28.2625 26.6374 28.3893 26.511C28.516 26.3846 28.6169 26.2346 28.6857 26.069C28.7545 25.9037 28.79 25.7263 28.7902 25.5472C28.7792 25.1629 28.6942 24.7837 28.5412 24.4312L28.536 24.4301ZM24.3139 23.2283C24.9131 23.2284 25.4984 23.4084 25.9942 23.7449C26.4903 24.0818 26.8739 24.5598 27.0955 25.1171C27.1142 25.1646 27.1212 25.2159 27.1158 25.2667C27.1103 25.3175 27.0924 25.3661 27.0638 25.4084C27.0352 25.4507 26.9968 25.4854 26.9517 25.5095C26.9066 25.5336 26.8564 25.5465 26.8054 25.5465H21.822C21.7709 25.5465 21.7206 25.5338 21.6756 25.5095C21.6306 25.4851 21.5921 25.4504 21.5633 25.4086C21.5345 25.3669 21.5167 25.3177 21.5116 25.2667C21.5062 25.2159 21.5132 25.1646 21.5319 25.1171C21.7534 24.5598 22.1371 24.0818 22.6332 23.7449C23.1291 23.4123 23.7148 23.2283 24.3139 23.2283ZM37.4045 29.2246C36.83 29.2248 36.2677 29.0594 35.7847 28.7483C35.3017 28.4371 34.9181 27.9933 34.6761 27.4696C34.4379 26.9462 34.3552 26.3653 34.4377 25.7961C34.5203 25.227 34.7646 24.6936 35.1417 24.2593L33.9222 23.2183C33.5274 23.6769 33.2272 24.209 33.039 24.7841C32.8503 25.3592 32.7768 25.9659 32.8228 26.5694C32.8686 27.1729 33.0334 27.7616 33.3032 28.3015C33.5768 28.8412 33.9541 29.3215 34.4137 29.715C34.8731 30.1086 35.4056 30.4072 35.9806 30.5946C36.5555 30.7818 37.1618 30.8534 37.7644 30.8052C38.3668 30.7572 38.9544 30.5901 39.4925 30.3137C40.0306 30.0376 40.509 29.658 40.9001 29.1965L39.6806 28.1559C39.3999 28.4908 39.0492 28.76 38.6532 28.9445C38.257 29.1293 37.8261 29.2246 37.3893 29.2243L37.4045 29.2246Z" fill="#5A646E"/>
<path d="M37.4042 21.624C36.7446 21.6233 36.0923 21.7652 35.4936 22.0398C34.8937 22.3146 34.3603 22.7157 33.9297 23.2157L35.1455 24.2567C35.6636 23.6591 36.3964 23.2911 37.1843 23.2331C37.9722 23.175 38.7512 23.43 39.3517 23.9444C39.9523 24.4589 40.3251 25.1898 40.3902 25.9781C40.4546 26.7664 40.2052 27.5482 39.6962 28.1536L40.912 29.1943C41.4774 28.5247 41.8407 27.7072 41.9578 26.838C42.0749 25.9689 41.9413 25.0843 41.5727 24.2885C41.2043 23.493 40.6162 22.8195 39.8776 22.3472C39.1374 21.8783 38.28 21.624 37.4042 21.624Z" fill="#00AEEF"/>
<path d="M15.4184 28.6452C15.2794 28.5247 15.1035 28.4553 14.9195 28.4486C14.7355 28.442 14.5555 28.4985 14.4084 28.6086C13.9649 28.9479 13.4357 29.1563 12.8803 29.2103C12.3249 29.2642 11.7654 29.1622 11.2654 28.9146C10.7654 28.667 10.3437 28.2849 10.0484 27.8108C9.75328 27.3364 9.59641 26.7891 9.5955 26.2304C9.59458 25.6717 9.74966 25.1238 10.0433 24.6485C10.3366 24.1736 10.7568 23.79 11.2565 23.541C11.7561 23.2923 12.3153 23.1881 12.8707 23.2402C13.4261 23.2923 13.9561 23.4989 14.4006 23.837C14.5462 23.9492 14.7259 24.008 14.9096 24.0035C15.0933 23.9991 15.2699 23.9317 15.4099 23.8126C15.5004 23.735 15.5725 23.6389 15.6205 23.5306C15.6686 23.4224 15.693 23.3041 15.6907 23.1851C15.6885 23.0661 15.659 22.9493 15.6057 22.8433C15.5525 22.7372 15.4757 22.6437 15.3822 22.5713C14.7014 22.0501 13.8882 21.7301 13.0348 21.6474C12.1811 21.5646 11.3223 21.7228 10.554 22.1038C9.78568 22.4848 9.13971 23.0746 8.68812 23.8041C8.23652 24.5336 7.99816 25.3758 8.00001 26.2339C8.00186 27.092 8.24281 27.9331 8.69661 28.6611C9.15042 29.3891 9.79862 29.9756 10.568 30.3537C11.3374 30.7317 12.1977 30.8873 13.0503 30.8019C13.9033 30.7164 14.7153 30.3937 15.3944 29.8703C15.4866 29.7979 15.5617 29.7059 15.614 29.601C15.6664 29.496 15.6947 29.3807 15.697 29.2635C15.6994 29.1462 15.6756 29.0299 15.6275 28.923C15.5794 28.8161 15.5081 28.7212 15.4188 28.6452H15.4184Z" fill="#5A646E"/>
</g>
<defs>
<clipPath id="clip0_2170_3278">
<rect width="50" height="50" rx="10" fill="white"/>
</clipPath>
</defs>
</svg>
