<svg width="50" height="50" viewBox="0 0 50 50" fill="none" xmlns="http://www.w3.org/2000/svg">
<rect x="0.5" y="0.5" width="49" height="49" rx="7.5" fill="white"/>
<rect x="0.5" y="0.5" width="49" height="49" rx="7.5" stroke="#ECECEE"/>
<path d="M20.2284 32.7981C19.9011 33.0026 19.5738 33.1663 19.2465 33.289C18.9192 33.3708 18.551 33.4118 18.1828 33.4118C17.4464 33.4118 16.8327 33.2072 16.3827 32.7163C15.9326 32.2662 15.6872 31.6116 15.6872 30.8343C15.6872 30.1388 15.9326 29.5251 16.3418 29.0751C16.7918 28.625 17.3646 28.4205 18.0601 28.4205C18.7556 28.4205 19.2874 28.625 19.6966 29.116C20.1057 29.566 20.3102 30.1797 20.3102 30.957V31.0798H16.71C16.7509 31.5298 16.8736 31.898 17.16 32.1435C17.4464 32.389 17.7737 32.5117 18.2237 32.5117C18.551 32.5117 18.8783 32.4708 19.2056 32.348C19.5329 32.2662 19.8602 32.0617 20.2284 31.8571V32.7981ZM16.71 30.3843H19.2465C19.2056 30.057 19.0829 29.7706 18.8783 29.566C18.6737 29.3615 18.3874 29.2387 18.0601 29.2387C17.6919 29.2387 17.3646 29.3205 17.16 29.5251C16.9145 29.7297 16.7918 30.016 16.71 30.3843Z" fill="#FF6900"/>
<path d="M20.9648 33.3299V28.5023H21.9467V29.116C22.1513 28.8705 22.3967 28.7069 22.6422 28.5841C22.8877 28.5023 23.1332 28.4205 23.4195 28.4205C23.9514 28.4205 24.3605 28.5841 24.6469 28.8705C24.9333 29.1978 25.0969 29.6069 25.0969 30.1388V33.3299H24.1151V30.3843C24.1151 29.9751 24.0332 29.6888 23.8696 29.5251C23.7059 29.3205 23.4605 29.2387 23.1332 29.2387C22.8877 29.2387 22.6422 29.2796 22.4786 29.3615C22.274 29.4842 22.1104 29.6478 21.9467 29.8524V33.3299H20.9648ZM27.5926 33.4118L25.3015 28.5023H26.3652L27.8381 31.6935L29.2291 28.5023H30.2928L28.0426 33.4118H27.5926ZM30.4974 27.1113C30.4974 26.9476 30.5792 26.8249 30.661 26.7022C30.7837 26.6203 30.9065 26.5385 31.0701 26.5385C31.1929 26.5385 31.3565 26.6203 31.4383 26.7022C31.5611 26.8249 31.602 26.9476 31.602 27.1113C31.602 27.234 31.5611 27.3568 31.4383 27.4795C31.3565 27.6022 31.1929 27.6431 31.0701 27.6431C30.9065 27.6431 30.7837 27.6022 30.661 27.4795C30.5792 27.3568 30.4974 27.234 30.4974 27.1113ZM30.5792 33.3299V28.5023H31.5202V33.3299H30.5792ZM33.2385 30.9161C33.2385 31.3662 33.4021 31.7344 33.6885 32.0617C34.0158 32.389 34.384 32.5117 34.7931 32.5117C35.2023 32.5117 35.5705 32.389 35.8978 32.0617C36.1842 31.7344 36.3478 31.3662 36.3478 30.9161C36.3478 30.4661 36.1842 30.0979 35.8978 29.7706C35.5705 29.4433 35.2023 29.2796 34.7931 29.2796C34.384 29.2796 34.0158 29.4433 33.6885 29.7706C33.4021 30.0979 33.2385 30.4661 33.2385 30.9161ZM32.2566 30.9161C32.2566 30.2206 32.5021 29.6069 32.993 29.116C33.4839 28.6659 34.0976 28.4205 34.7931 28.4205C35.1613 28.4205 35.4477 28.4614 35.775 28.5841C36.1023 28.7069 36.3478 28.9114 36.5933 29.1569C36.8388 29.4024 37.0433 29.6478 37.166 29.9751C37.2888 30.2615 37.3706 30.5888 37.3706 30.9161C37.3706 31.2434 37.2888 31.5707 37.166 31.8571C37.0433 32.1844 36.8388 32.4708 36.5933 32.6753C36.3478 32.9208 36.1023 33.1254 35.775 33.2481C35.4886 33.3709 35.1613 33.4118 34.7931 33.4118C34.0976 33.4118 33.4839 33.1663 32.993 32.6753C32.5021 32.1844 32.2566 31.6116 32.2566 30.9161ZM37.6979 33.0026V31.9798C37.9843 32.1435 38.2707 32.3071 38.5571 32.389C38.8025 32.5117 39.048 32.5526 39.2935 32.5526C39.539 32.5526 39.7026 32.5117 39.8663 32.4299C39.989 32.3071 40.0708 32.1844 40.0708 32.0207C40.0708 31.8162 39.8253 31.6116 39.2935 31.3252C39.1298 31.2843 39.0071 31.2025 38.9253 31.1616C38.4752 30.9161 38.1889 30.7116 38.0252 30.507C37.8616 30.3024 37.7388 30.0161 37.7388 29.7297C37.7388 29.3205 37.9025 28.9932 38.1889 28.7478C38.4752 28.5023 38.8844 28.4205 39.3753 28.4205C39.6617 28.4205 39.9072 28.4205 40.1526 28.5023C40.3981 28.5841 40.6436 28.6659 40.8891 28.7887V29.7297C40.6027 29.566 40.3163 29.4433 40.0708 29.3615C39.8253 29.2796 39.6208 29.2387 39.3753 29.2387C39.1707 29.2387 39.048 29.2796 38.9253 29.3615C38.8025 29.4433 38.7616 29.5251 38.7616 29.6478C38.7616 29.8933 39.0889 30.1797 39.7844 30.507L39.8663 30.5479C40.3981 30.8343 40.7254 31.0798 40.8891 31.2434C41.0527 31.448 41.1345 31.6935 41.1345 32.0207C41.1345 32.4299 40.9709 32.7981 40.6436 33.0436C40.3163 33.289 39.9072 33.4118 39.3753 33.4118C39.0889 33.4118 38.8025 33.3709 38.5162 33.3299C38.2298 33.2481 37.9843 33.1254 37.6979 33.0026Z" fill="#4B4B4B"/>
<path d="M38.7361 24.6573V25.6392C38.4906 25.721 38.2451 25.8028 38.0406 25.8437C37.7951 25.8846 37.5496 25.8846 37.3451 25.8846C36.5677 25.8846 35.9131 25.6392 35.4222 25.1891C34.8903 24.6982 34.6449 24.1254 34.6449 23.389C34.6449 22.6526 34.8903 22.0798 35.4222 21.5889C35.9131 21.0979 36.5268 20.8933 37.3041 20.8933H39.9634V20.1978L40.8635 19.2159H40.9453V20.8933H42.4591V21.7116H40.9453C40.9453 22.4889 40.9453 23.2663 40.9453 24.0436C40.9453 24.4118 41.0272 24.6982 41.109 24.78C41.1908 24.9027 41.3954 24.9846 41.6818 24.9846C41.8045 24.9846 41.9681 24.9437 42.0909 24.9027C42.2136 24.8618 42.3773 24.8209 42.5 24.7391V25.6392C42.3364 25.721 42.1727 25.8028 42.0091 25.8437C41.8454 25.8846 41.6818 25.8846 41.4772 25.8846C40.9044 25.8846 40.5362 25.7619 40.3317 25.5164C40.0862 25.23 40.0044 24.78 40.0044 24.0845V21.7116C39.0634 21.7116 38.0815 21.7116 37.1405 21.7116C36.8132 21.7116 35.954 21.998 35.7086 22.898C35.6677 23.0617 35.6677 23.2253 35.6677 23.389C35.6677 23.839 35.8313 24.2481 36.1177 24.5345C36.445 24.8209 36.8541 24.9846 37.386 24.9846C37.5905 24.9846 37.836 24.9437 38.0815 24.9027C38.286 24.8618 38.4906 24.78 38.7361 24.6573Z" fill="#4B4B4B"/>
<path d="M34.113 25.4346C33.8675 25.5574 33.622 25.6801 33.3356 25.7619C33.0083 25.8437 32.6401 25.8847 32.3128 25.8847C31.5355 25.8847 30.9218 25.6801 30.4718 25.1892C30.0217 24.7391 29.8172 24.0845 29.8172 23.3072C29.8172 22.6117 30.0217 21.998 30.4309 21.548C30.8809 21.0979 31.4537 20.8934 32.1492 20.8934C32.8447 20.8934 33.4175 21.0979 33.7857 21.5889C34.1948 22.0389 34.3994 22.6526 34.3994 23.4299V23.5527H30.7991C30.84 24.0027 31.0036 24.3709 31.2491 24.6164C31.5355 24.8619 31.9037 24.9846 32.3537 24.9846C32.6401 24.9846 32.9674 24.9437 33.2947 24.8209C33.3356 24.8209 33.3765 24.8209 33.4175 24.78L34.113 25.4346ZM30.7991 22.8572H33.3765C33.3356 22.5299 33.2129 22.2435 32.9674 22.0389C32.7629 21.8344 32.4765 21.7116 32.1492 21.7116C31.781 21.7116 31.4946 21.7934 31.2491 21.998C31.0446 22.2026 30.8809 22.4889 30.7991 22.8572Z" fill="#4B4B4B"/>
<path d="M25.1123 25.8028V20.9752H26.0942V21.548C26.3397 21.3434 26.5851 21.1798 26.7897 21.057C27.0352 20.9752 27.2806 20.8934 27.567 20.8934C28.0989 20.8934 28.508 21.057 28.7944 21.3434C29.1217 21.6707 29.2444 22.0798 29.2444 22.6117V25.8028H28.3034V22.8572C28.3034 22.448 28.2216 22.1617 28.058 21.998C27.8943 21.7934 27.6488 21.7116 27.2806 21.7116C27.0352 21.7116 26.8306 21.7525 26.626 21.8344C26.4624 21.9571 26.2578 22.1207 26.0942 22.3253V25.8028H25.1123Z" fill="#4B4B4B"/>
<path d="M19.671 23.389C19.671 22.6935 19.9164 22.0798 20.4074 21.5889C20.8983 21.1388 21.512 20.8934 22.2484 20.8934C22.5757 20.8934 22.903 20.9343 23.1894 21.057C23.5167 21.1798 23.7622 21.3843 24.0077 21.6298C24.2531 21.8753 24.4577 22.1207 24.5804 22.448C24.7032 22.7344 24.785 23.0617 24.785 23.389C24.785 23.7163 24.7032 24.0436 24.5804 24.33C24.4577 24.6573 24.2531 24.9437 24.0077 25.1482C23.7622 25.3937 23.5167 25.5983 23.1894 25.721C22.903 25.8437 22.5757 25.8847 22.2484 25.8847C21.512 25.8847 20.8983 25.6392 20.4074 25.1482C19.9164 24.6573 19.671 24.0845 19.671 23.389ZM20.6938 23.389C20.6938 23.8391 20.8165 24.2073 21.1438 24.5346C21.4302 24.8619 21.7984 24.9846 22.2075 24.9846C22.6576 24.9846 23.0258 24.8619 23.3122 24.5346C23.5985 24.2073 23.7622 23.8391 23.7622 23.389C23.7622 22.939 23.5985 22.5708 23.3122 22.2435C23.0258 21.9162 22.6576 21.7525 22.2075 21.7525C21.7984 21.7525 21.4302 21.9162 21.1438 22.2435C20.8165 22.5708 20.6938 22.939 20.6938 23.389Z" fill="#4B4B4B"/>
<path d="M19.5073 24.0844V25.23C19.0982 25.4755 18.6482 25.6391 18.1981 25.7618C17.789 25.8437 17.339 25.9255 16.8889 25.9255C16.4798 25.9255 16.0707 25.8846 15.7025 25.7618C15.3343 25.6391 14.9661 25.4755 14.6388 25.2709C14.1069 24.9027 13.6569 24.4527 13.3705 23.9208C13.0841 23.348 12.9205 22.7753 12.9205 22.1207C12.9205 21.6297 13.0023 21.1388 13.2068 20.6887C13.4114 20.2387 13.6978 19.8296 14.066 19.5023C14.4342 19.1341 14.8842 18.8477 15.3752 18.684C15.8661 18.4795 16.398 18.3976 16.9708 18.3976C17.3799 18.3976 17.789 18.4386 18.1981 18.5204C18.6073 18.6431 19.0164 18.7659 19.4664 18.9704V20.116C18.9755 19.8705 18.5663 19.6659 18.1572 19.5432C17.7481 19.4204 17.339 19.3795 16.9708 19.3795C16.1116 19.3795 15.4161 19.625 14.8433 20.1569C14.3115 20.6887 14.0251 21.3433 14.0251 22.1616C14.0251 22.9389 14.3115 23.5935 14.8433 24.1254C15.3752 24.6572 16.0707 24.9436 16.8889 24.9436C17.339 24.9436 17.7481 24.8618 18.1981 24.6981C18.6482 24.5754 19.0573 24.3708 19.5073 24.0844Z" fill="#4B4B4B"/>
<path fill-rule="evenodd" clip-rule="evenodd" d="M17.7481 15.4929C17.4208 15.6156 17.0526 15.7793 16.5616 15.9838C15.2115 16.5975 13.2477 17.8658 11.9795 19.1341C11.1612 19.9523 10.4248 20.8524 9.81111 21.8752L9.7702 21.8343C9.72929 21.7115 9.64746 21.6297 9.56564 21.5479C9.48382 21.4661 9.40199 21.4252 9.27925 21.3843C9.15652 21.3433 9.03378 21.3433 8.91104 21.3843C8.82922 21.3843 8.70648 21.4252 8.62466 21.507L8.54283 21.5479C11.0794 17.9885 14.2296 15.9838 17.4617 14.9201C17.5026 14.9201 17.5844 14.8792 17.5844 14.8792L17.6663 15.1247L17.7481 15.4929Z" fill="url(#paint0_linear_5_55)"/>
<path fill-rule="evenodd" clip-rule="evenodd" d="M9.402 21.998C9.85204 23.0617 10.343 24.1663 10.8339 25.3119C10.9158 25.5164 10.8748 25.6801 10.7112 25.8028C9.52474 26.5801 8.3792 27.3575 7.23366 28.1348C7.15183 28.1757 7.02909 28.2166 6.90636 28.1757C6.78362 28.1348 6.7018 28.053 6.66088 27.9302C6.29267 26.7438 5.88355 25.6392 5.51534 24.5754C5.47443 24.4118 5.51534 24.2481 5.63808 24.1254C6.7018 23.389 7.76552 22.6117 8.82923 21.8343C8.95197 21.7525 9.03379 21.7525 9.15653 21.7525C9.27927 21.7934 9.36109 21.8752 9.402 21.998Z" fill="#FFCD00"/>
<path fill-rule="evenodd" clip-rule="evenodd" d="M17.9117 12.6291C19.5891 12.6291 21.3074 12.6291 22.9848 12.5882C23.0667 12.5882 23.1485 12.6291 23.1485 12.7109C23.1894 12.7928 23.1894 12.8746 23.1076 12.9155C21.7984 14.3065 20.4892 15.6975 19.18 17.0885C19.0982 17.2113 18.9754 17.2522 18.8118 17.2113C18.6891 17.1704 18.6072 17.0885 18.5663 16.9249C18.239 15.6566 17.8708 14.3883 17.5435 13.0791C17.5435 12.9564 17.5435 12.8746 17.6253 12.7518C17.7072 12.67 17.789 12.6291 17.9117 12.6291Z" fill="#FF6900"/>
<defs>
<linearGradient id="paint0_linear_5_55" x1="10.4719" y1="19.5189" x2="15.8369" y2="17.2159" gradientUnits="userSpaceOnUse">
<stop stop-color="#969696"/>
<stop offset="1" stop-color="#606060"/>
</linearGradient>
</defs>
</svg>
