<svg width="50" height="50" viewBox="0 0 50 50" fill="none" xmlns="http://www.w3.org/2000/svg">
<rect x="0.5" y="0.5" width="49" height="49" rx="7.5" fill="white"/>
<rect x="0.5" y="0.5" width="49" height="49" rx="7.5" stroke="#ECECEE"/>
<path d="M14.2945 12.6473V29.2943C16.4592 29.2943 18.1769 29.0198 18.7651 28.8826V16.8826H25.2357C28.2945 16.8826 30.7651 17.8237 30.7651 25.6473C30.7651 31.9061 27.0788 33.2355 25.2357 33.1178H14.2945V37.3531H25.6475C29.0004 37.3531 32.3533 36.1178 34.0592 32.7649C35.7651 29.412 35.5886 25.6473 35.5886 24.1179C35.5886 22.5884 35.2357 18.2943 32.8239 15.4708C30.8945 13.212 28.1769 12.6473 27.0592 12.6473H14.2945Z" fill="#95BF47"/>
<path d="M20.2942 22.8241V28.4712C21.5648 28.3771 23.2157 27.6869 23.8824 27.3535V22.8241H20.2942Z" fill="#95BF47"/>
<path d="M25.2354 20.1187V26.8834C25.8472 26.6951 27.8825 25.6285 28.8236 25.1186V20.1187H25.2354Z" fill="#95BF47"/>
<path d="M26.6475 27.0598C22.5534 29.3187 16.7063 29.9226 14.2945 29.9422V30.6481C15.0789 30.7265 17.0451 30.5251 19.0004 30.1775C21.6475 29.7069 23.1181 29.5304 27.7651 27.354C31.4828 25.6128 35.4318 21.5304 36.9416 19.7069L36.471 19.2951C36.3533 19.452 35.8475 20.0598 34.7651 21.2363C33.4122 22.7069 31.7651 24.2363 26.6475 27.0598Z" fill="#95BF47"/>
<path d="M39.0005 18.2937C39.0005 19.1709 38.2894 19.8819 37.4123 19.8819C36.5351 19.8819 35.824 19.1709 35.824 18.2937C35.824 17.4166 36.5351 16.7055 37.4123 16.7055C38.2894 16.7055 39.0005 17.4166 39.0005 18.2937Z" fill="#95BF47"/>
<path d="M30.7663 24.5865L30.7075 23.8806C31.0408 23.6453 31.9192 22.9983 32.7663 22.2924C33.6133 21.5865 34.6094 20.3904 35.0016 19.8806L35.2369 20.763C34.9427 21.0767 34.178 21.8688 33.4722 22.5277C32.7663 23.1865 31.3741 24.1747 30.7663 24.5865Z" fill="white"/>
</svg>
