<svg width="50" height="50" viewBox="0 0 50 50" fill="none" xmlns="http://www.w3.org/2000/svg">
<rect x="0.5" y="0.5" width="49" height="49" rx="7.5" fill="white"/>
<rect x="0.5" y="0.5" width="49" height="49" rx="7.5" stroke="#ECECEE"/>
<path d="M5.83923 30.3316C5.83923 29.8022 5.81516 29.5556 5.74598 29.1645C6.11596 29.0773 7.10859 29.0081 7.50263 29.0081C9.1871 29.0081 10.3813 30.2203 10.3813 31.9078C10.3813 32.7169 10.0895 33.5171 9.58415 34.0856C9.06678 34.6511 7.84855 34.9639 6.86795 34.9639C6.54911 34.9639 6.26937 34.9368 5.79711 34.8767C5.85727 34.2059 5.8663 34.0134 5.8663 33.5893L5.83923 30.3316ZM6.78674 34.0495C6.9251 34.0766 7.32216 34.0856 7.4515 34.0856C8.14634 34.0856 8.66371 33.8419 9.01564 33.3366C9.28937 32.9516 9.44578 32.4312 9.44578 31.8988C9.44578 30.6806 8.70582 29.9225 7.50263 29.9225C7.33118 29.9225 6.90706 29.9406 6.74463 29.9767L6.78674 34.0495Z" fill="#303132"/>
<path d="M11.7409 34.8496L11.777 34.1096L11.786 33.484L11.795 30.2985C11.786 29.6969 11.777 29.3119 11.7589 29.1224L12.7576 29.1134V29.1645C12.7124 29.9045 12.7124 29.9045 12.7124 30.079V30.2023L12.6974 33.866V33.9713C12.6974 34.2149 12.7215 34.7624 12.7395 34.9037H11.7409V34.8496Z" fill="#303132"/>
<path d="M14.4029 34.9037C14.445 34.4856 14.4992 32.5004 14.4992 31.2882C14.4992 30.7076 14.4902 30.0278 14.4631 28.8006L18.1599 32.753L18.1358 29.1405L19.0623 29.1495C19.0532 29.5315 19.0532 29.8263 19.0472 30.0008C19.0292 30.6114 19.0111 31.0114 19.0202 31.1257C19.0292 31.2461 19.0292 31.2731 19.0292 31.2972L19.0021 35L15.3143 31.0385L15.3504 34.9037H14.4029Z" fill="#303132"/>
<path d="M23.1982 32.5786L22.5635 30.9513L21.9529 32.5786L21.616 33.3697L21.0235 34.9037H20.0429L22.5876 28.7735L25.1684 34.9037H24.1878L23.5502 33.3697L23.1982 32.5786Z" fill="#303132"/>
<path d="M26.3295 28.9209L28.6757 32.1424L31.04 28.8337C31.031 28.957 31.031 29.0352 31.031 29.0442C31.031 29.3209 31.0581 29.7481 31.3258 34.8406L31.3318 34.9037H30.3963L30.276 31.2972L28.6427 33.5351L27.0695 31.3844L26.9672 34.9037H26.0889L26.3295 28.9209Z" fill="#303132"/>
<path d="M32.9049 34.8496L32.938 34.1096L32.9471 33.484L32.9561 30.2985C32.9471 29.6969 32.938 29.3119 32.923 29.1224L33.9186 29.1134V29.1645C33.8765 29.9045 33.8765 29.9045 33.8765 30.079V30.2023L33.8585 33.866V33.9713C33.8585 34.2149 33.8855 34.7624 33.9036 34.9037H32.9049V34.8496Z" fill="#303132"/>
<path d="M37.8862 29.9827L37.2154 29.9767C37.1733 29.9827 36.8905 29.9827 36.3491 29.9827L35.3865 30.0008H35.3264L35.3173 29.1555L39.3811 29.1495L36.6409 34.1096L39.2548 34.0766L39.2638 34.9037H35.203L37.8862 29.9827Z" fill="#303132"/>
<path d="M40.5843 34.9037C40.6264 34.4074 40.6445 34.2059 40.6354 33.875L40.6445 30.3677C40.6264 29.6969 40.6084 29.3931 40.5753 29.1555L44.2119 29.1314L44.0645 30.0008C43.9201 29.9767 43.7036 29.9677 43.0929 29.9586L41.5649 29.9677L41.5799 31.4175H43.2133L43.6855 31.3995C43.9021 31.3844 44.0405 31.3844 44.0555 31.3754C44.0645 31.3754 44.0826 31.3754 44.1157 31.3664L43.9532 32.2958L41.5649 32.2808L41.5559 34.0495L42.6809 34.0585C43.3336 34.0405 43.9803 33.9983 44.254 33.9532L44.0826 34.9037H40.5843Z" fill="#303132"/>
<path d="M20.085 24.9835C19.6458 25.0737 19.1946 25.1128 18.7434 25.0857C18.4697 25.0707 18.214 25.0316 18.0155 24.824C17.8079 24.6105 17.7448 24.2916 17.847 24.0119C17.9794 23.6479 18.3644 23.4584 18.7043 23.3411C19.2758 23.1426 19.8774 23.0945 20.479 23.0854C21.2701 23.0764 22.0552 23.1486 22.8403 23.2479C23.1591 23.29 23.475 23.3411 23.7878 23.4013C23.7126 23.4434 23.6374 23.4855 23.5622 23.5276C22.4703 24.1382 21.3213 24.7368 20.085 24.9835ZM33.7622 15.4873C33.9607 15.2106 33.7502 15 33.7502 15C32.9952 15.9265 32.1229 16.889 31.1242 17.8726C31.0129 17.9809 30.6339 18.3479 30.2369 18.7148C29.921 19.0036 29.5962 19.2834 29.3766 19.4759C28.3509 20.3722 27.1447 21.2656 26.2633 21.8612C25.5354 22.3545 25.0812 22.6312 25.0812 22.6312C25.0812 22.6312 23.2193 22.1048 21.61 21.8612C20.7618 21.7348 19.8925 21.7679 19.0502 21.9334C18.2922 22.0808 17.4229 22.2943 16.8334 22.8297C16.7792 22.8749 16.7221 22.932 16.6679 22.9952C16.5055 23.1787 16.3611 23.4103 16.2739 23.6599C16.1656 23.9758 16.1536 24.1773 16.1536 24.421C16.1536 24.7639 16.2889 25.197 16.4935 25.4978C16.7221 25.8317 17.0229 26.0904 17.3778 26.2408C17.456 26.2739 17.5643 26.316 17.6936 26.3461C17.8501 26.3792 18.0155 26.4122 18.1117 26.4303C18.578 26.5085 18.957 26.5296 19.3029 26.5296C21.5709 26.5296 23.3998 25.2782 25.1955 24.0209C25.3158 23.9367 25.4392 23.8495 25.5595 23.7622C25.6106 23.7712 26.0678 23.8825 26.6724 24.042C27.2018 24.1803 27.8335 24.3698 28.411 24.5563C28.8382 24.6917 29.2292 24.8331 29.524 24.9383C29.903 25.0767 30.3331 25.2391 30.7663 25.4166C31.2927 25.6332 31.8191 25.8618 32.2673 26.0693C32.9801 26.4002 33.4945 26.6679 33.4945 26.6679C33.5396 26.4122 33.3411 26.2859 33.3411 26.2859L33.2178 26.2077C32.8869 26.0002 32.3996 25.7144 32.0236 25.5038C31.2806 25.0887 30.5226 24.7007 29.8007 24.3698C29.3796 24.1773 28.9735 23.9999 28.6005 23.8464C27.3763 23.3411 26.495 23.0614 26.495 23.0614C30.7332 19.7496 33.5637 15.764 33.7622 15.4873Z" fill="#F04154"/>
</svg>
