<svg width="50" height="50" viewBox="0 0 50 50" fill="none" xmlns="http://www.w3.org/2000/svg">
<rect width="50" height="50" rx="8" fill="#23634C"/>
<path d="M22.3864 32.2857H16.9785C14.2746 32.2857 11.4893 30.4294 10.7167 28.3458C9.94411 26.2622 9.4156 23.8376 11.2046 20.8827C12.6359 18.5188 15.2978 17.8015 16.4499 17.7385H20.8006C22.0611 17.7385 22.915 17.549 23.4436 18.231C23.8664 18.7765 23.7011 19.3169 23.5656 19.519L20.3533 22.739C19.9196 23.1053 19.0522 24.0422 19.0522 24.8605C19.0522 25.6789 19.3504 26.1865 19.4995 26.338C20.7193 27.5503 23.2159 30.0355 23.4436 30.2779C23.7282 30.5809 23.8095 31.225 23.4436 31.7553C23.1508 32.1796 22.6168 32.2857 22.3864 32.2857Z" fill="white"/>
<path d="M30.5916 23.4327L21.5007 13.1409C21.2493 12.7365 20.8814 11.7268 21.4213 10.9236C21.9612 10.1203 22.6255 9.97522 22.8901 10.0032H27.376C29.0592 10.0032 30.5916 11.0909 31.1473 11.6347C33.0661 13.7824 37.0147 18.1948 37.4593 18.6633C38.0151 19.2491 40 21.4663 40 24.9806C40 27.7921 38.7561 29.8058 38.1342 30.4613C36.6919 32.1626 33.3863 36.0088 31.7031 37.7827C30.0199 39.5565 28.0376 40 27.2569 40H22.9298C21.8183 40 21.1831 38.9541 21.1831 38.1174C21.1831 37.4479 21.3949 36.9739 21.5007 36.8204L30.3931 26.7378C30.6181 26.5007 31.068 25.8174 31.068 24.9806C31.068 24.1439 30.7503 23.6 30.5916 23.4327Z" fill="white"/>
</svg>
