<svg width="120" height="19" viewBox="0 0 120 19" fill="none" xmlns="http://www.w3.org/2000/svg">
<g clip-path="url(#clip0_6120_16032)">
<path d="M61.0732 7.03308H63.7818C65.5036 7.03308 66.4135 7.88866 66.4135 9.33569C66.4135 10.7827 65.5036 11.6277 63.7818 11.6277H61.7421V14.709H61.0732V7.03308ZM63.7599 11.0244C65.0539 11.0244 65.7334 10.4323 65.7334 9.33569C65.7334 8.23904 65.0533 7.63577 63.7599 7.63577H61.7421V11.0238H63.7599V11.0244Z" fill="#23634C"/>
<path d="M66.8302 13.2945C66.8302 12.3733 67.4222 11.8362 68.6176 11.6938L70.1195 11.5183C70.7665 11.4527 70.9639 11.2991 70.9639 11.1236V10.8057C70.9639 9.7859 70.4487 9.41306 69.3851 9.41306C68.3215 9.41306 67.7951 9.79713 67.7951 10.5753V10.7071H67.1699V10.5316C67.1699 9.3912 67.9924 8.89783 69.407 8.89783C70.8215 8.89783 71.6109 9.45679 71.6109 10.817V14.7096H70.9858V13.6679H70.9527C70.7884 14.0077 70.0752 14.8195 68.6825 14.8195C67.5753 14.8195 66.8296 14.3149 66.8296 13.2951L66.8302 13.2945ZM68.8149 14.2812C70.2732 14.2812 70.9639 13.2833 70.9639 12.7462V11.7263C70.9308 11.8581 70.701 11.9786 70.0758 12.0554L68.7712 12.1978C67.7844 12.3184 67.4772 12.7024 67.4772 13.2508C67.4772 14.0295 68.0805 14.2812 68.8149 14.2812Z" fill="#23634C"/>
<path d="M72.5758 11.7483C72.5758 9.77478 73.793 8.89734 75.1195 8.89734C75.9526 8.89734 76.7969 9.23709 77.2466 9.99399V9.00724H77.8936V14.6542C77.8936 16.4853 76.4678 17.0005 75.2069 17.0005C73.946 17.0005 72.7944 16.4959 72.7838 15.2787H73.3427C73.3758 16.0132 74.1434 16.474 75.2176 16.474C76.3467 16.474 77.246 15.9694 77.246 14.6536V13.502C76.7964 14.2589 75.952 14.5986 75.1189 14.5986C73.7918 14.5986 72.5752 13.7106 72.5752 11.7477L72.5758 11.7483ZM75.2187 14.0403C76.2717 14.0403 77.2803 13.3164 77.2803 11.7483C77.2803 10.1801 76.2717 9.44566 75.2187 9.44566C74.1658 9.44566 73.2009 10.1801 73.2009 11.7483C73.2009 13.3164 74.1658 14.0403 75.2187 14.0403Z" fill="#23634C"/>
<path d="M78.9139 13.2945C78.9139 12.3733 79.506 11.8362 80.7013 11.6938L82.2033 11.5183C82.8503 11.4527 83.0476 11.2991 83.0476 11.1236V10.8057C83.0476 9.7859 82.5324 9.41306 81.4688 9.41306C80.4053 9.41306 79.8788 9.79713 79.8788 10.5753V10.7071H79.2537V10.5316C79.2537 9.3912 80.0762 8.89783 81.4907 8.89783C82.9052 8.89783 83.6946 9.45679 83.6946 10.817V14.7096H83.0695V13.6679H83.0364C82.8721 14.0077 82.159 14.8195 80.7663 14.8195C79.659 14.8195 78.9133 14.3149 78.9133 13.2951L78.9139 13.2945ZM80.8986 14.2812C82.3569 14.2812 83.0476 13.2833 83.0476 12.7462V11.7263C83.0145 11.8581 82.7847 11.9786 82.1596 12.0554L80.8549 12.1978C79.8682 12.3184 79.5609 12.7024 79.5609 13.2508C79.5609 14.0295 80.1642 14.2812 80.8986 14.2812Z" fill="#23634C"/>
<path d="M91.0852 9.45679C90.0547 9.45679 89.4621 10.1806 89.4621 11.3316V14.709H88.8151V11.3316C88.8151 10.18 88.3766 9.45679 87.3349 9.45679C86.2932 9.45679 85.69 10.1806 85.69 11.3316V14.709H85.043V9.00714H85.69V10.1038C85.7774 9.76404 86.2489 8.89783 87.5323 8.89783C88.3329 8.89783 89.0343 9.23758 89.3197 10.1587C89.4839 9.74218 89.9667 8.89783 91.2713 8.89783C92.3461 8.89783 93.2229 9.47924 93.2229 11.2223V14.709H92.5759V11.3316C92.5759 10.18 92.1375 9.45679 91.0846 9.45679H91.0852Z" fill="#23634C"/>
<path d="M94.2542 11.88C94.2542 9.8185 95.4164 8.89734 96.864 8.89734C98.3116 8.89734 99.3533 9.85159 99.3533 11.6715C99.3533 11.8576 99.3421 11.9675 99.3203 12.0662H94.8793C94.923 13.5463 95.6468 14.292 96.9296 14.292C97.6203 14.292 98.366 14.0728 98.6733 13.1847H99.2765C98.8818 14.435 97.9169 14.8184 96.919 14.8184C95.3183 14.8184 94.2542 13.8423 94.2542 11.8795V11.88ZM98.7282 11.5509C98.717 10.1476 97.9825 9.4238 96.8534 9.4238C95.7242 9.4238 94.9455 10.1145 94.8799 11.5509H98.7288H98.7282Z" fill="#23634C"/>
<path d="M102.851 9.45679C101.732 9.45679 101.02 10.1806 101.02 11.3316V14.709H100.373V9.00714H101.02V10.1038H101.031C101.129 9.76404 101.678 8.89783 103.037 8.89783C104.156 8.89783 105.11 9.47924 105.11 11.2223V14.709H104.463V11.3316C104.463 10.18 103.991 9.45679 102.851 9.45679Z" fill="#23634C"/>
<path d="M106.82 13.4919V9.55552H105.91V9.00719H106.82V7.59265H107.467V9.00719H108.607V9.55552H107.467V13.3495C107.467 14.0183 107.708 14.2376 108.333 14.2376C108.465 14.2376 108.564 14.2376 108.695 14.2157V14.7309C108.531 14.764 108.344 14.7859 108.136 14.7859C107.379 14.7859 106.82 14.4786 106.82 13.4919Z" fill="#23634C"/>
<path d="M109.342 11.8582C109.342 9.84036 110.636 8.89734 112.05 8.89734C113.465 8.89734 114.748 9.84036 114.748 11.8582C114.748 13.876 113.454 14.819 112.05 14.819C110.647 14.819 109.342 13.876 109.342 11.8582ZM112.05 14.2707C113.114 14.2707 114.123 13.525 114.123 11.8582C114.123 10.1913 113.114 9.44566 112.05 9.44566C110.987 9.44566 109.967 10.1913 109.967 11.8582C109.967 13.525 110.987 14.2707 112.05 14.2707Z" fill="#23634C"/>
<path d="M115.45 13.174H116.042C116.174 14.0295 116.985 14.2925 117.774 14.2925C118.63 14.2925 119.331 13.9746 119.331 13.1633C119.331 12.5057 118.893 12.319 118.202 12.1547L117.117 11.8918C116.162 11.6613 115.637 11.1898 115.637 10.4004C115.637 9.42431 116.459 8.89844 117.72 8.89844C118.981 8.89844 119.792 9.38118 119.869 10.4991H119.321C119.178 9.69847 118.597 9.42431 117.731 9.42431C116.799 9.42431 116.272 9.73156 116.272 10.4111C116.272 10.9044 116.558 11.2005 117.336 11.3872L118.399 11.6395C119.364 11.8587 120 12.2097 120 13.1527C120 14.4136 118.871 14.8195 117.763 14.8195C116.535 14.8195 115.526 14.3262 115.449 13.1746L115.45 13.174Z" fill="#23634C"/>
<path d="M8.44055 0H0.627502C0.281253 0 0 0.281253 0 0.627502V17.3875C0 17.7343 0.281253 18.015 0.627502 18.015H8.43996C11.8392 18.015 16.9656 15.193 16.9656 9.00719C16.9656 2.8214 11.8794 0 8.44055 0ZM8.03403 14.3049H4.00195V3.71065H8.03403C10.0572 3.71065 13.0452 5.37276 13.0452 9.00778C13.0452 12.6428 10.0324 14.3049 8.03403 14.3049Z" fill="#23634C"/>
<path d="M23.3665 11.6998L25.1267 13.5841C25.5178 14.0024 25.2212 14.6854 24.6481 14.6854H22.0134C21.1229 14.6854 20.2721 14.3161 19.6635 13.6662C18.1857 12.0868 18.1857 9.63174 19.6635 8.05294C20.2721 7.40239 21.1229 7.03369 22.0134 7.03369H24.6516C25.2242 7.03369 25.5208 7.71733 25.1296 8.13566L23.3665 10.0199C22.9239 10.4926 22.9239 11.2271 23.3665 11.7004V11.6998Z" fill="#23634C"/>
<path d="M24.9128 18.0149H26.7899C27.7324 18.0149 28.6323 17.6244 29.2757 16.936L32.3335 13.665C33.8095 12.0862 33.8095 9.63406 32.3347 8.05467L29.2763 4.78067C28.6329 4.09172 27.7324 3.70056 26.7899 3.70056H24.9122C24.0814 3.70056 23.6513 4.69204 24.2185 5.29886L28.6323 10.0205C29.0742 10.4932 29.0742 11.2282 28.6323 11.7009L24.2203 16.4172C23.6524 17.024 24.0832 18.0155 24.9139 18.0155L24.9128 18.0149Z" fill="#23634C"/>
<path d="M54.2723 9.27482V17.7071C54.2723 17.8767 54.1347 18.0138 53.9657 18.0138H50.7431C50.5735 18.0138 50.4364 17.8761 50.4364 17.7071V8.76313C50.4364 7.89042 49.8473 7.09629 48.9923 6.91962C47.8147 6.67677 46.7713 7.57017 46.7713 8.71231V17.7071C46.7713 17.8767 46.6336 18.0138 46.4646 18.0138H43.242C43.0724 18.0138 42.9353 17.8761 42.9353 17.7071V8.81217C42.9353 7.81892 42.1897 6.93144 41.1976 6.88181C40.1399 6.82863 39.2702 7.66648 39.2702 8.71231V17.7071C39.2702 17.8767 39.1325 18.0138 38.9635 18.0138H35.7764C35.6068 18.0138 35.4697 17.8761 35.4697 17.7071V4.33694C35.4697 3.9901 35.751 3.70943 36.0972 3.70943H37.071L37.7487 4.54315C38.6876 3.84533 39.8575 3.42877 41.1178 3.42877C42.5489 3.42877 43.8595 3.96114 44.8533 4.84449C45.8985 3.92451 47.2759 3.38564 48.7808 3.43114C51.8722 3.52449 54.2729 6.18281 54.2729 9.27482H54.2723Z" fill="#23634C"/>
</g>
<defs>
<clipPath id="clip0_6120_16032">
<rect width="120" height="18.0156" fill="white"/>
</clipPath>
</defs>
</svg>
