<svg width="50" height="50" viewBox="0 0 50 50" fill="none" xmlns="http://www.w3.org/2000/svg">
<rect width="50" height="50" rx="10" fill="#DDDDE7"/>
<path d="M28.3866 32.7769C27.9096 34.0574 28.4631 35.1777 28.559 35.3646C28.8466 35.2614 29.1343 35.1571 29.4219 35.0539C29.4911 35.4107 29.5603 35.7664 29.6295 36.1232C30.3881 35.9047 31.1479 35.6862 31.9065 35.4678C31.9065 34.9046 31.9065 34.3414 31.9065 33.777C32.3203 33.5246 32.7342 33.2709 33.1481 33.0185C33.0789 32.1907 33.0097 31.3629 32.9406 30.5352C31.8591 30.7536 30.7789 30.9721 29.6975 31.1906C29.4535 31.3411 28.7398 31.8266 28.3866 32.7769Z" fill="white"/>
<path d="M21.3457 31.1681C21.3797 31.7252 21.4149 32.2835 21.4489 32.8406C21.7924 32.712 22.1346 32.5833 22.4781 32.4546C22.5558 33.2181 22.6323 33.9815 22.7099 34.745C23.0619 34.6673 23.4139 34.5908 23.7647 34.5131C23.7647 34.8906 23.7647 35.2681 23.7647 35.6456C25.6605 35.8434 27.5564 36.04 29.4522 36.2379C30.507 35.8519 31.5629 35.4659 32.6177 35.08C33.9989 33.8966 35.3801 32.712 36.7613 31.5286C37.242 30.6535 37.7226 29.7784 38.2033 28.9033C38.2627 28.5768 38.3234 28.2515 38.3829 27.925C38.537 27.8048 38.6912 27.6847 38.8465 27.5645C38.838 26.6299 38.8296 25.6941 38.8211 24.7596C39.173 24.5884 39.525 24.4161 39.8758 24.2449C39.8503 23.7388 39.8248 23.2327 39.7981 22.7266C33.6481 25.54 27.4969 28.3547 21.3457 31.1681Z" fill="white"/>
<path d="M40 22.4798L38.4173 23.2141C38.4173 23.2141 37.0955 20.4043 36.434 19.7719C36.286 19.6153 36.1937 19.5377 36.1937 19.5377H34.7737L34.77 21.1993H33.1873V19.5377H34.7737C34.7737 18.9842 34.7749 18.4538 34.7749 17.9003C32.845 16.0385 30.3957 15.0408 27.7728 14.7325C26.3418 14.565 24.9096 14.5844 23.4786 14.7738C22.0561 14.9631 18.9053 15.7666 18.9053 15.7666V17.9695L17.3226 17.9792L17.3202 16.2921C17.2158 16.0943 17.0677 15.9074 16.8796 15.7241C16.1792 15.0444 15.4692 14.3999 14.5905 13.9618C14.1487 13.7409 13.8549 13.787 13.5236 14.1511C13.1789 14.5274 12.8463 14.9146 12.5623 15.3418C11.8462 16.4172 11.3194 17.5896 10.8303 18.7779C10.3036 20.0596 9.937 21.3825 9.82048 22.7723C9.77193 23.3476 9.7865 23.9314 9.64571 24.4982C9.3799 25.5699 9.11409 26.6404 9.02427 27.7486C9.01821 27.8311 9.02185 27.9804 9.02185 27.9804H10.5499V29.6335L9 29.6493C9 29.6493 9 30.1081 9.10802 30.9735C9.33135 32.7589 10.0462 34.2943 11.2685 35.6039C12.7468 37.1878 14.321 38.075 15.4765 38.6783C15.8467 38.8712 16.161 39.0205 16.3819 39.1213C16.3722 38.6698 16.3722 36.9074 16.3722 36.9074H17.9889L17.9877 39.6772L18.222 39.7682C19.608 40.2768 20.965 40.4382 21.6483 40.477C23.3864 40.5778 26.1404 40.4175 26.8735 40.2403C28.7899 39.7743 30.6336 39.2912 32.3256 38.268C34.5989 36.8953 36.485 35.1584 37.6538 32.7225C38.427 31.1118 38.8567 29.4502 38.9768 27.6381C39.0411 26.6732 39.0084 24.9582 39.0084 24.9582L40 24.4933V22.4798ZM32.2539 32.8718L31.3121 33.3633L31.3109 34.4035L30.1263 35.0334V33.9508L29.0218 34.5382V33.1279L32.2527 31.4189L32.2539 32.8718Z" fill="black"/>
<path d="M32.9334 15.8819C30.4052 14.3781 27.6658 14.0079 24.7734 14.1111C24.7771 13.8659 24.9264 12.9338 25.4992 12.4386L26.8781 12.4398V10.902C26.8781 10.902 26.9412 10.7867 27.0528 10.675C27.4995 10.266 27.9558 9.8703 28.4316 9.49404C28.973 9.06559 29.3553 9.05588 29.8553 9.53288C31.1735 10.7867 32.1457 12.2614 32.5911 14.048C32.7367 14.6403 32.8448 15.2386 32.9334 15.8819Z" fill="black"/>
<path d="M34.8143 14.4844H36.425V17.7785C35.8897 17.7821 35.3302 17.7845 34.7949 17.7882L34.8143 14.4844Z" fill="black"/>
<path d="M23.8203 10.6626C24.2949 10.6614 25.4042 10.6626 25.4042 10.6626L25.403 12.3243H23.8203V10.6626Z" fill="black"/>
<path d="M22.2363 9.00054C22.7109 8.99933 23.8203 9.00054 23.8203 9.00054L23.819 10.6621H22.2363V9.00054Z" fill="black"/>
<path d="M17.3027 13.0709C17.7773 13.0696 18.8867 13.0709 18.8867 13.0709L18.8854 14.7325H17.3027V13.0709Z" fill="black"/>
<path d="M14.8027 41.334C14.8027 40.7806 14.8027 40.2259 14.8027 39.6724C15.2773 39.6712 16.3867 39.6724 16.3867 39.6724C16.3867 40.2259 16.3854 40.7806 16.3854 41.334C15.8575 41.334 15.3295 41.334 14.8027 41.334Z" fill="black"/>
<path d="M33.9883 25.6837C34.3694 25.5102 34.7651 25.3318 35.1462 25.1582V30.1661C34.776 30.3421 34.4082 30.5168 33.9883 30.7171C33.9883 30.2595 33.9883 29.8456 33.9883 29.4305V25.6837Z" fill="#00FE22"/>
<path d="M24.124 30.1469L25.2746 29.625V34.4629L24.1191 34.9788L24.124 30.1469Z" fill="#00FEF8"/>
<path d="M35.1465 30.1674V25.1595L36.2328 24.668C36.2364 24.668 36.2328 29.6686 36.2328 29.6686L35.1465 30.1674Z" fill="#FE00E9"/>
<path d="M27.3548 33.6242L26.3086 34.032V29.1577L27.3548 28.6855V33.6242Z" fill="#FE00E9"/>
<path d="M26.3085 29.1562C26.3109 30.7802 26.3061 32.4078 26.3085 34.0306L25.2695 34.4615V29.6248L26.3085 29.1562Z" fill="#00FE22"/>
<path d="M37.2188 24.2249L38.6048 23.6035L38.6024 27.1185L37.2188 27.8674V24.2249Z" fill="#000AFE"/>
<path d="M37.2197 24.2246C37.2234 25.4359 37.2197 29.2337 37.2197 29.2337L36.233 29.6694C36.2317 28.1073 36.233 24.6688 36.233 24.6688L37.2197 24.2246Z" fill="#FE0200"/>
<path d="M33.9876 25.6836V29.2228L32.6367 29.8868V26.2965L33.9876 25.6836Z" fill="#00FEF8"/>
<path d="M24.1241 30.1445C24.1241 30.1445 24.1216 32.6157 24.1192 33.8501L22.772 34.3647C22.7707 33.1619 22.7695 30.7563 22.7695 30.7563L24.1241 30.1445Z" fill="#FEF800"/>
<path d="M27.3555 32.2675V28.6857L28.5911 28.125V31.7262L27.3555 32.2675Z" fill="#FE0200"/>
<path d="M28.5909 29.2138C28.5873 28.8497 28.5945 28.488 28.5909 28.1238L30.0547 27.4551V28.5426L28.5909 29.2138Z" fill="#000AFE"/>
<path d="M30.0547 28.5433V27.4558C30.5038 27.2555 30.948 27.0577 31.3971 26.8574V27.9291L30.0547 28.5433Z" fill="#FEFEFE"/>
<path d="M31.3945 27.9293V26.8576L32.6374 26.2969V27.3977L31.3945 27.9293Z" fill="#FEF800"/>
<path d="M22.7722 30.7559C22.7722 30.7559 22.771 31.478 22.7722 31.8397C22.4021 31.9951 22.0307 32.1517 21.6289 32.3216V31.2596C21.6289 31.2596 22.4263 30.9064 22.7722 30.7559Z" fill="#FEFEFE"/>
<path d="M38.6035 24.6028L38.6047 23.6003C38.9288 23.4461 39.2504 23.292 39.6133 23.1172C39.6133 23.4522 39.6158 24.1549 39.6158 24.1549L38.6035 24.6028Z" fill="#FEFEFE"/>
</svg>
