<svg width="50" height="50" viewBox="0 0 50 50" fill="none" xmlns="http://www.w3.org/2000/svg">
<rect x="0.5" y="0.5" width="49" height="49" rx="9.5" fill="white"/>
<rect x="0.5" y="0.5" width="49" height="49" rx="9.5" stroke="#DDDDE0"/>
<path d="M14.0708 33.9513V28.3274H15.4314L17.7898 31.3208V28.3274H19.4226V33.9513H18.062L15.7035 30.9579V33.9513H14.0708Z" fill="#141316"/>
<path d="M15.4786 20.7148C15.8504 21.9562 15.759 23.2904 15.2215 24.4696C14.684 25.6489 13.7369 26.593 12.556 27.1267C11.3751 27.6605 10.0406 27.7476 8.80029 27.3719C7.56 26.9962 6.49817 26.1832 5.81193 25.0839C5.12569 23.9846 4.86166 22.6736 5.06886 21.3943C5.27606 20.115 5.94041 18.9544 6.93857 18.1279C7.93674 17.3014 9.2009 16.8651 10.4964 16.9001C11.7918 16.9352 13.0306 17.4391 13.9826 18.3183L12.2536 20.1906C11.7549 19.7301 11.1061 19.4661 10.4275 19.4478C9.74896 19.4295 9.08681 19.658 8.56398 20.0909C8.04116 20.5238 7.69318 21.1317 7.58465 21.8018C7.47612 22.4718 7.61442 23.1585 7.97386 23.7343C8.33331 24.3102 8.88948 24.736 9.53913 24.9328C10.1888 25.1296 10.8878 25.0839 11.5063 24.8044C12.1249 24.5248 12.6209 24.0303 12.9025 23.4126C13.184 22.7949 13.2319 22.0961 13.0372 21.4458L15.4786 20.7148Z" fill="#3282FF"/>
<path d="M11.5307 17.3518L9.89795 12.9071L12.2564 12L15.5218 20.7987C14.7962 21.3429 13.2904 22.4133 13.0727 21.615C12.855 20.8168 12.4378 20.3149 12.2564 20.1637L11.5307 17.3518Z" fill="#3282FF"/>
<path d="M21.6906 26.604L19.3322 27.511C18.9391 26.483 17.9534 23.8827 17.1552 21.7057C16.3569 19.5287 17.9111 18.2588 18.7879 17.896L21.872 16.7168L22.7791 19.1659C22.0534 19.438 20.4932 20.0186 20.0578 20.1637C19.6224 20.3088 19.5741 20.6475 19.6043 20.7987L21.6906 26.604Z" fill="#3282FF"/>
<path d="M34.3894 22.1593C34.3894 25.1651 31.9527 27.6018 28.9469 27.6018C25.9411 27.6018 23.5044 25.1651 23.5044 22.1593C23.5044 19.1535 25.9411 16.7168 28.9469 16.7168C31.9527 16.7168 34.3894 19.1535 34.3894 22.1593Z" fill="#3282FF"/>
<path d="M31.6686 22.1595C31.6686 23.6624 30.4502 24.8807 28.9473 24.8807C27.4444 24.8807 26.2261 23.6624 26.2261 22.1595C26.2261 20.6566 27.4444 19.4382 28.9473 19.4382C30.4502 19.4382 31.6686 20.6566 31.6686 22.1595Z" fill="white"/>
<path d="M45.9997 22.1593C45.9997 25.0649 43.6442 27.4203 40.7386 27.4203C37.833 27.4203 35.4775 25.0649 35.4775 22.1593C35.4775 19.2537 37.833 16.8982 40.7386 16.8982C43.6442 16.8982 45.9997 19.2537 45.9997 22.1593Z" fill="#3282FF"/>
<path d="M43.2786 22.0688C43.2786 23.5216 42.1009 24.6993 40.6481 24.6993C39.1953 24.6993 38.0176 23.5216 38.0176 22.0688C38.0176 20.616 39.1953 19.4382 40.6481 19.4382C42.1009 19.4382 43.2786 20.616 43.2786 22.0688Z" fill="white"/>
<path d="M38.8337 32.3184L35.8403 24.064L39.5594 26.6945L41.2828 31.4113L38.8337 32.3184Z" fill="#3282FF"/>
<path d="M6.27002 33.9513V28.3274H7.81205V32.5907H10.5333V33.9513H6.27002Z" fill="#141316"/>
<path d="M11.3496 33.9513V28.3274H12.8916V33.9513H11.3496Z" fill="#141316"/>
<path d="M20.6021 33.9513V28.3274H22.2348V30.1416L23.6861 28.3274H25.591L23.3233 31.0486L25.8631 33.9513H23.8675L22.2348 32.0464V33.9513H20.6021Z" fill="#141316"/>
<path d="M26.3164 33.9513V28.3274H30.6704V29.5973H27.9491V30.6858H30.489V32.0464H27.9491V33.9513H26.3164Z" fill="#141316"/>
<path d="M33.1194 31.6836L30.9424 28.3274H32.7565L33.9357 30.2323L35.2057 28.3274H37.0198L34.7521 31.6836V33.9513H33.1194V31.6836Z" fill="#141316"/>
</svg>
