<svg width="32" height="32" viewBox="0 0 32 32" fill="none" xmlns="http://www.w3.org/2000/svg">
    <path fill-rule="evenodd" clip-rule="evenodd" d="M27.119 24.0721C27.8165 25.4038 26.8506 27.0001 25.3473 27.0001H6.65268C5.14938 27.0001 4.18347 25.4038 4.88101 24.0721L14.2283 6.22726C14.977 4.79794 17.023 4.79795 17.7716 6.22726L27.119 24.0721ZM25.3473 25.0001L16 7.15527L6.65268 25.0001H25.3473Z" fill="#56545E"/>
    <path d="M14.9309 21.6127C14.9309 21.0223 15.4095 20.5437 16 20.5437C16.5904 20.5437 17.0691 21.0223 17.0691 21.6127C17.0691 22.2032 16.5904 22.6818 16 22.6818C15.4095 22.6818 14.9309 22.2032 14.9309 21.6127Z" fill="#56545E"/>
    <path fill-rule="evenodd" clip-rule="evenodd" d="M17.0691 13.3921L17.0691 19.14H14.9309L14.9309 13.3921L17.0691 13.3921Z" fill="#56545E"/>
</svg>
