<svg width="50" height="50" viewBox="0 0 50 50" fill="none" xmlns="http://www.w3.org/2000/svg">
<rect width="50" height="50" rx="10" fill="#00265D"/>
<path d="M21.8027 22.9922L25.2156 23.7033C24.6847 23.7412 24.552 24.5723 24.552 24.9831C24.3782 27.4479 24.0211 32.4723 23.9832 32.8515C23.9452 33.2307 23.5565 33.2939 23.3669 33.2781L19.9067 32.6619C19.9857 32.6461 20.1911 32.5955 20.3807 32.5197C20.5703 32.4438 20.6493 32.1721 20.6651 32.0457C20.8547 29.4387 21.2434 24.0919 21.2813 23.5611C21.3193 23.0302 21.6447 22.9606 21.8027 22.9922Z" fill="white"/>
<path d="M33.7005 34.7949L30.1929 34.2261C30.4962 34.264 30.7933 33.8311 30.9039 33.6099C32.3417 26.4524 35.2362 12.0238 35.3121 11.5688C35.3879 11.1138 35.7229 11 35.8809 11L39.4833 11.4266C39.3885 11.4266 39.142 11.4645 38.9145 11.6162C38.687 11.7679 38.5669 12.0586 38.5353 12.185C37.0975 19.4688 34.2029 34.1123 34.1271 34.4157C34.0512 34.719 33.8111 34.7949 33.7005 34.7949Z" fill="white"/>
<path d="M37.8716 15.1714L38.4404 12.1852C38.5307 11.7112 39.0092 11.4268 39.341 11.4268C39.6064 11.4268 39.7992 11.7112 39.8624 11.8534C40.2416 13.0542 41 15.5221 41 15.7876C41 16.053 40.6524 15.993 40.4786 15.9298L37.8716 15.1714Z" fill="#8093AE"/>
<path d="M31.7568 18.7263L32.4204 26.0733L30.9984 33.1359C30.951 33.4835 30.733 34.1882 30.24 34.2261C29.7471 34.264 29.5922 33.8627 29.5764 33.6573L29.2446 29.3439C29.687 26.0891 30.5813 19.4942 30.6192 19.1529C30.6666 18.7263 30.9036 18.3945 31.2828 18.3471C31.5862 18.3091 31.7252 18.5841 31.7568 18.7263Z" fill="#8093AE"/>
<path d="M28.2493 17.5412L31.4726 18.347C30.9796 18.2712 30.7616 18.821 30.7142 19.1054C30.0822 23.7191 28.7992 33.0506 28.7233 33.4677C28.6475 33.8848 28.2809 33.9259 28.1071 33.8943L24.6943 33.4677C24.7575 33.4519 24.9503 33.4013 25.2157 33.3255C25.4812 33.2496 25.5791 32.9779 25.5949 32.8515C26.2585 28.0325 27.5952 18.2996 27.6331 17.9204C27.6711 17.5412 28.0597 17.5096 28.2493 17.5412Z" fill="white"/>
<path d="M25.4528 23.9402L26.3534 27.3531C26.1164 29.1227 25.6329 32.7093 25.595 32.8989C25.557 33.0885 25.4528 33.1991 25.4054 33.2307C25.1684 33.3571 24.6375 33.534 24.41 33.2307C24.1824 32.9273 24.0624 32.1247 24.0308 31.7613C24.1572 29.6599 24.4194 25.3623 24.4574 24.9831C24.5048 24.5091 24.5048 24.035 24.884 23.798C25.1873 23.6084 25.3896 23.8138 25.4528 23.9402Z" fill="#8093AE"/>
<path d="M20.902 28.8226L20.0014 27.448C19.9393 27.3532 19.7644 27.2584 19.4326 27.4006C19.1672 27.5144 19.0692 27.8272 19.0534 27.9694L18.769 31.2874C18.9586 31.6035 19.3663 32.2734 19.48 32.4251C19.5938 32.5767 19.717 32.6463 19.7644 32.6621C19.8908 32.6621 20.191 32.6336 20.3806 32.5199C20.5702 32.4061 20.6492 32.1881 20.665 32.0933L20.902 28.8226Z" fill="#8093AE"/>
<path d="M16.3993 26.5948L19.8122 27.3058C19.3571 27.3058 19.1802 27.7166 19.1486 27.922C19.038 29.107 18.8073 31.5718 18.7694 31.951C18.7314 32.3302 18.406 32.425 18.248 32.425L14.5981 31.9984C14.6929 31.9984 14.9299 31.97 15.1195 31.8562C15.3091 31.7425 15.4197 31.556 15.4513 31.477C15.5461 30.213 15.7452 27.5712 15.7831 27.1162C15.8211 26.6612 16.2097 26.579 16.3993 26.5948Z" fill="white"/>
<path d="M13.4131 23.8457L15.7357 28.9175C15.6725 29.6759 15.5461 31.2306 15.5461 31.3823C15.5461 31.5719 15.2617 31.9037 14.8825 31.9985C14.5792 32.0743 14.3453 31.8721 14.2663 31.7615L9.09972 21.4756C9.03652 21.3493 8.93856 21.0301 9.05232 20.7647C9.16608 20.4992 9.54212 20.4645 9.71592 20.4803L16.9207 21.4757L15.9253 24.0353L13.4131 23.8457Z" fill="#8093AE"/>
<circle cx="19.101" cy="36.4541" r="3.08101" fill="white"/>
<circle cx="29.3871" cy="37.1649" r="2.37001" fill="white"/>
</svg>
