<svg width="50" height="50" viewBox="0 0 50 50" fill="none" xmlns="http://www.w3.org/2000/svg">
<rect x="0.5" y="0.5" width="49" height="49" rx="7.5" fill="white"/>
<rect x="0.5" y="0.5" width="49" height="49" rx="7.5" stroke="#ECECEE"/>
<path d="M40.5172 16.9502C40.5172 16.0515 39.7888 15.3231 38.8901 15.3231H21.4137C20.515 15.3231 19.7865 16.0515 19.7865 16.9502V33.9445C19.7865 34.8432 20.515 35.5716 21.4137 35.5716H34.5493H36.3816H37.2715H38.8901C39.7888 35.5716 40.5172 34.8432 40.5172 33.9445V16.9502Z" fill="white"/>
<path fill-rule="evenodd" clip-rule="evenodd" d="M41 16.9517C41 15.7868 40.0557 14.8424 38.8908 14.8424H21.4143C20.2494 14.8424 19.3051 15.7868 19.3051 16.9517V33.946C19.3051 35.1109 20.2494 36.0552 21.4143 36.0552H38.8908C40.0557 36.0552 41 35.1109 41 33.946V16.9517ZM38.8908 15.8067C39.5231 15.8067 40.0358 16.3193 40.0358 16.9517V33.946C40.0358 34.5784 39.5231 35.091 38.8908 35.091H21.4143C20.7819 35.091 20.2693 34.5784 20.2693 33.946V16.9517C20.2693 16.3193 20.7819 15.8067 21.4143 15.8067H38.8908Z" fill="#493EE4"/>
<path d="M37.2737 38.0426V34.6679H33.5307C34.2025 35.5417 35.698 37.4762 36.3052 38.2234C36.9125 38.9707 37.2039 38.4143 37.2737 38.0426Z" fill="white"/>
<path fill-rule="evenodd" clip-rule="evenodd" d="M37.9008 35.0601H36.7905V37.9925C36.7872 38.0061 36.7835 38.0196 36.7794 38.0328C36.7506 38.0042 36.7172 37.9677 36.6795 37.9213L34.4158 35.0903H32.5873V36.0545H33.9522L35.9288 38.5265L35.93 38.528C36.1055 38.7439 36.2983 38.918 36.5175 39.0087C36.7617 39.1098 37.0164 39.0963 37.2334 38.9693C37.4246 38.8574 37.5401 38.6849 37.608 38.5498C37.6791 38.4085 37.7226 38.2593 37.7465 38.1322L37.7548 38.0881V36.0243H37.9008V35.0601Z" fill="#433FE6"/>
<path d="M9.48276 13.0342C9.48276 12.1356 10.2112 11.4071 11.1099 11.4071H31.72C32.6187 11.4071 33.3472 12.1356 33.3472 13.0342V30.0286C33.3472 30.9272 32.6187 31.6557 31.72 31.6557H16.3528H14.2436H13.2191H11.1099C10.2112 31.6557 9.48276 30.9272 9.48276 30.0286V13.0342Z" fill="white"/>
<path fill-rule="evenodd" clip-rule="evenodd" d="M9 13.0336C9 11.8687 9.94433 10.9243 11.1092 10.9243H31.7194C32.8843 10.9243 33.8286 11.8687 33.8286 13.0336V30.0279C33.8286 31.1928 32.8843 32.1372 31.7194 32.1372H11.1092C9.94433 32.1372 9 31.1928 9 30.0279V13.0336ZM11.1092 11.8886C10.4769 11.8886 9.96422 12.4012 9.96422 13.0336V30.0279C9.96422 30.6603 10.4769 31.1729 11.1092 31.1729H31.7194C32.3518 31.1729 32.8644 30.6603 32.8644 30.0279V13.0336C32.8644 12.4012 32.3518 11.8886 31.7194 11.8886H11.1092Z" fill="#493EE4"/>
<path d="M13.2198 34.1267V30.7519H17.5287C16.7553 31.6257 15.0338 33.5602 14.3347 34.3075C13.6356 35.0547 13.3002 34.4983 13.2198 34.1267Z" fill="white"/>
<path fill-rule="evenodd" clip-rule="evenodd" d="M12.4935 31.142H13.6988V34.0657C13.7105 34.1051 13.7261 34.1432 13.7438 34.1737C13.7441 34.1743 13.7444 34.1749 13.7448 34.1755C13.7903 34.1504 13.8685 34.095 13.9782 33.9779L16.5608 31.1722H18.6103V32.1364H16.9837L14.685 34.6338L14.6836 34.6352C14.4805 34.8524 14.2667 35.0162 14.0369 35.0988C13.7906 35.1874 13.5417 35.1757 13.3237 35.0648C13.1221 34.9624 12.991 34.798 12.9092 34.6567C12.8258 34.5126 12.774 34.3591 12.7455 34.227L12.7346 34.1766V32.1062H12.4935V31.142Z" fill="#433FE6"/>
<path d="M22.5596 19.3L17.0153 24.8443C19.4982 25.6638 20.6412 23.4582 20.9023 22.2529L22.5596 25.1757C22.0774 26.0194 20.4624 27.7068 17.859 27.7068C14.6048 27.7068 12.375 24.8443 12.375 22.0721C12.375 19.3 14.7253 16.5881 17.859 16.5881C20.366 16.5881 22.0373 18.396 22.5596 19.3Z" fill="#7437DE"/>
<path d="M18.7013 19.4212L15.206 22.9165C15.0453 22.3742 14.9649 21.0484 15.9291 20.0841C16.8933 19.1199 18.179 19.2405 18.7013 19.4212Z" fill="white"/>
<path d="M23.193 27.7369L20.8728 22.1927H23.4943L24.5489 24.6032C25.1716 23.0564 26.5376 19.6375 27.0197 18.3358C27.5018 17.0341 28.1848 16.6283 28.4661 16.5881H30.4548L26.0254 27.7369H23.193Z" fill="#00A34C"/>
</svg>
