<svg width="50" height="50" viewBox="0 0 50 50" fill="none" xmlns="http://www.w3.org/2000/svg">
<g clip-path="url(#clip0_2_80)">
<rect width="50" height="50" rx="8" fill="white"/>
<g clip-path="url(#clip1_2_80)">
<path d="M50 0H0V50H50V0Z" fill="white"/>
<path d="M33.33 10.08C18.07 5.56 13.72 13.77 11.02 16.47C6.56 20.93 4.62 30.42 11.85 36.43C14.26 38.43 13.98 36.8 20.96 41.23C22.72 42.35 26.42 42.34 30.69 41.87C36.29 41.26 40.01 38.15 41.25 31.66C41.11 26.57 42.46 24.17 42.4 21.55C42.24 14.01 36.45 10.6 33.33 10.08ZM35.32 32.31C33.9 34.1 31.95 35.48 29.7 36.25C29.57 36.3 29.43 36.35 29.29 36.39C29.25 36.4 29.21 36.41 29.17 36.42C28.06 36.77 26.89 36.96 25.67 36.96C24.81 36.96 23.98 36.86 23.17 36.69C20.56 36.18 18.27 34.87 16.55 33.04C12.11 30.58 10.64 24.31 15.05 19.35C16.66 16.68 19.33 14.69 22.52 13.89C23.52 13.61 24.57 13.45 25.67 13.45C27.05 13.45 28.37 13.71 29.6 14.15C29.89 14.25 30.18 14.35 30.46 14.46C34.23 15.36 38.43 17.74 39.38 21.87C40.47 26.61 37.8 30.25 35.32 32.31Z" fill="url(#paint0_linear_2_80)"/>
<path d="M42.14 22.79C38.95 14.98 30.78 3.90003 19.39 7.82003C10.22 10.97 7.66001 25.93 10.77 34.2C13.7 41.91 22.6 46.32 31.09 41.44C36.07 38.18 45.4 30.78 42.14 22.8V22.79ZM37.58 27.58C37.57 27.65 37.54 27.72 37.52 27.79C37.45 28.1 37.37 28.41 37.27 28.71C37.27 28.73 37.26 28.74 37.25 28.76C37.13 29.11 37.01 29.45 36.86 29.79C36.86 29.79 36.86 29.79 36.86 29.8C36.24 31.2 35.35 32.46 34.24 33.52C33.22 35.5 31.88 37.2 29.88 37.93C26.4 39.19 22.89 37.96 20.09 35.67C19.86 35.56 19.64 35.44 19.42 35.31C19.37 35.28 19.33 35.26 19.29 35.23C18.65 34.86 18.05 34.43 17.49 33.95C17.42 33.89 17.36 33.84 17.29 33.78C17.13 33.63 16.97 33.48 16.81 33.33C16.75 33.27 16.69 33.2 16.63 33.14C16.38 32.88 16.15 32.62 15.93 32.34C15.84 32.22 15.74 32.11 15.66 31.99C15.56 31.85 15.46 31.71 15.37 31.57C15.27 31.41 15.17 31.25 15.07 31.09C15 30.97 14.92 30.85 14.85 30.72C14.7 30.46 14.57 30.19 14.45 29.92C14.4 29.81 14.35 29.69 14.3 29.58C14.21 29.36 14.13 29.14 14.05 28.92C14.02 28.82 13.98 28.72 13.95 28.62C13.85 28.3 13.76 27.98 13.69 27.66C13.67 27.58 13.66 27.51 13.65 27.43C13.6 27.16 13.55 26.88 13.52 26.6C13.51 26.5 13.5 26.4 13.49 26.3C13.46 25.95 13.43 25.59 13.43 25.23C13.43 24.83 13.45 24.42 13.49 24.03C13.49 23.94 13.52 23.85 13.53 23.76C13.57 23.46 13.61 23.16 13.67 22.87C13.68 22.81 13.71 22.75 13.72 22.68C13.79 22.36 13.87 22.05 13.97 21.74C13.97 21.72 13.99 21.7 14 21.67C14.11 21.33 14.24 20.99 14.39 20.66C14.39 20.65 14.4 20.64 14.41 20.63C15.03 19.24 15.92 17.99 17.02 16.94C17.94 15.14 19.06 13.58 20.76 12.93C22.95 11.89 26.51 12.37 29.49 14.12C29.58 14.15 29.66 14.19 29.75 14.23C30.91 14.63 31.99 15.19 32.96 15.89C32.98 15.91 33.01 15.93 33.03 15.94C33.25 16.1 33.47 16.27 33.68 16.45C33.71 16.48 33.75 16.51 33.78 16.54C34.37 17.05 34.91 17.62 35.39 18.23C35.46 18.32 35.54 18.41 35.61 18.51C35.72 18.67 35.83 18.83 35.94 18.99C36.03 19.12 36.11 19.25 36.19 19.39C36.28 19.54 36.37 19.69 36.45 19.84C36.55 20.02 36.64 20.2 36.72 20.39C36.78 20.51 36.84 20.63 36.89 20.75C37.02 21.05 37.14 21.36 37.24 21.68C37.28 21.79 37.31 21.9 37.34 22.01C37.41 22.24 37.47 22.47 37.53 22.71C37.56 22.83 37.58 22.96 37.61 23.08C37.66 23.32 37.7 23.57 37.73 23.81C37.74 23.92 37.76 24.04 37.77 24.15C37.8 24.51 37.83 24.87 37.83 25.24C37.83 25.64 37.81 26.04 37.77 26.44C37.77 26.52 37.74 26.6 37.73 26.68C37.69 26.99 37.65 27.3 37.58 27.6V27.58Z" fill="url(#paint1_linear_2_80)"/>
<path d="M33.1 27.49H27.96V32.63C27.96 33.52 27.24 34.24 26.35 34.24H24.98C24.09 34.24 23.37 33.52 23.37 32.63V27.53H18.23C17.34 27.53 16.62 26.81 16.62 25.92V24.55C16.62 23.66 17.34 22.94 18.23 22.94H23.37V17.8C23.37 16.91 24.09 16.19 24.98 16.19H26.35C27.24 16.19 27.96 16.91 27.96 17.8V22.93L33.1 22.9C33.99 22.9 34.71 23.62 34.71 24.51V25.88C34.71 26.77 33.99 27.49 33.1 27.49Z" fill="url(#paint2_linear_2_80)"/>
<path d="M29.8 9.21002C21 7.06002 17.31 8.44002 14.83 13.16C14.08 14.59 13.16 18.12 11.12 20.54C8.14 24.06 6.66 35.35 19.82 40.66C21.18 41.21 24.22 42.29 27.06 41.9C29.11 41.62 30.38 40.67 33.64 39.16C41.99 35.29 42.67 26.7 42.22 23.92C40.3 12.13 33.32 10.08 29.79 9.22002L29.8 9.21002ZM30.36 37.44C23.57 39.5 17.55 34.11 16.55 33.04C14.97 32.16 13.92 30.72 13.07 29.19C10.95 25.38 13.38 20.53 16.97 16.09C20.29 11.98 26.13 11.37 32.18 14.97C35.96 17.22 38.05 18.73 38.85 22.24C39.69 25.87 38.29 26.88 37.05 30.6C36.78 31.41 35.89 35.77 30.36 37.44Z" fill="url(#paint3_linear_2_80)"/>
</g>
</g>
<rect x="0.5" y="0.5" width="49" height="49" rx="7.5" stroke="#ECECEE"/>
<defs>
<linearGradient id="paint0_linear_2_80" x1="14.05" y1="37.99" x2="39.09" y2="12.61" gradientUnits="userSpaceOnUse">
<stop stop-color="#15A9E1"/>
<stop offset="0.26" stop-color="#5DBAA1"/>
<stop offset="0.54" stop-color="#FFDC0A"/>
<stop offset="0.79" stop-color="#F59C08"/>
<stop offset="0.99" stop-color="#EC660C"/>
</linearGradient>
<linearGradient id="paint1_linear_2_80" x1="12.64" y1="37.28" x2="36.66" y2="12.93" gradientUnits="userSpaceOnUse">
<stop stop-color="#14B9E5"/>
<stop offset="0.26" stop-color="#10A54B"/>
<stop offset="0.55" stop-color="#FECA05"/>
<stop offset="0.8" stop-color="#F29306"/>
<stop offset="0.99" stop-color="#E53517"/>
</linearGradient>
<linearGradient id="paint2_linear_2_80" x1="34.77" y1="16.11" x2="20.17" y2="30.71" gradientUnits="userSpaceOnUse">
<stop offset="0.19" stop-color="#4B4B4A"/>
<stop offset="1" stop-color="#1E1E1C"/>
</linearGradient>
<linearGradient id="paint3_linear_2_80" x1="14.1" y1="36.75" x2="37.7" y2="12.84" gradientUnits="userSpaceOnUse">
<stop stop-color="#039BB4"/>
<stop offset="0.25" stop-color="#009640"/>
<stop offset="0.54" stop-color="#F7AC06"/>
<stop offset="0.8" stop-color="#ED7708"/>
<stop offset="0.99" stop-color="#E20E17"/>
</linearGradient>
<clipPath id="clip0_2_80">
<rect width="50" height="50" rx="8" fill="white"/>
</clipPath>
<clipPath id="clip1_2_80">
<rect width="50" height="50" fill="white"/>
</clipPath>
</defs>
</svg>
