<svg width="50" height="50" viewBox="0 0 50 50" fill="none" xmlns="http://www.w3.org/2000/svg">
<g clip-path="url(#clip0_2170_3279)">
<rect width="50" height="50" rx="10" fill="white"/>
<rect width="50" height="50" rx="10" fill="#EC0000"/>
<path d="M24.1714 23.2817H27.6067V34.3207C25.4838 35.1441 20.2808 36.3818 16.4518 34.7453C11.6657 32.6996 10.1604 29.0714 10.006 23.9764C9.85157 18.8815 12.7078 14.7901 16.915 13.6322C21.1222 12.4742 25.0593 13.2462 25.5224 13.3234C25.893 13.3851 26.9377 13.6836 27.4137 13.8252C27.4009 14.0954 27.3443 14.8287 27.2208 15.6007C27.0972 16.3727 26.9377 16.8487 26.8734 16.9902C22.8978 15.7422 14.715 15.0063 13.7886 22.0466C12.6307 30.8469 18.6134 32.7768 21.7784 32.3522C23.3021 32.1478 23.9518 32.073 24.1714 32.057V23.2817Z" fill="white"/>
<rect x="32.2754" y="13.3232" width="1.77551" height="1.77551" fill="white"/>
<rect x="35.748" y="13.3232" width="1.77551" height="1.77551" fill="white"/>
<rect x="39.2227" y="13.3232" width="1.77551" height="1.77551" fill="white"/>
<rect x="32.2754" y="16.7969" width="1.77551" height="1.77551" fill="white"/>
<rect x="35.748" y="16.7969" width="1.77551" height="1.77551" fill="white"/>
<rect x="39.2227" y="16.7969" width="1.77551" height="1.77551" fill="white"/>
<rect x="32.2754" y="20.2705" width="1.77551" height="1.77551" fill="white"/>
<rect x="35.748" y="20.2705" width="1.77551" height="1.77551" fill="white"/>
<rect x="39.2227" y="20.2705" width="1.77551" height="1.77551" fill="white"/>
</g>
<defs>
<clipPath id="clip0_2170_3279">
<rect width="50" height="50" rx="10" fill="white"/>
</clipPath>
</defs>
</svg>
