<svg width="50" height="50" viewBox="0 0 50 50" fill="none" xmlns="http://www.w3.org/2000/svg">
<rect width="50" height="50" rx="8" fill="#FB4516"/>
<path d="M18.6938 34.1261C18.6938 32.7977 19.1858 31.7275 19.4318 31.3585H15.8339C14.8192 31.3585 13.8044 31.0818 13.1587 30.7128C12.5129 30.3438 9.92998 28.7755 9.56098 26.5615C9.19198 24.3475 9.56098 21.3955 12.513 19.6428C14.8746 18.2405 17.679 19.0585 18.786 19.6428V15.0302C18.786 11.0635 23.1218 9.58746 25.3358 9.58746C27.5498 9.58746 30.4096 11.617 30.9631 14.0155C31.4059 15.9343 30.7786 17.9515 30.4096 18.7202H34.4686C37.0516 18.7202 40.5571 20.7498 40.5571 24.901C40.5571 29.0523 37.1438 31.2663 34.7453 31.2663C32.8265 31.2663 31.5473 30.7128 31.1476 30.436V34.8641C31.1476 37.6316 28.6568 39.5688 27.5498 40.0301C26.4428 40.4913 22.9373 40.8603 21 39.1076C19.0628 37.3548 18.6938 35.7866 18.6938 34.1261Z" fill="white"/>
<path d="M15.6489 28.2219H24.8739V31.2662C24.4742 31.2662 23.4902 31.4507 22.7522 32.1887C21.8297 33.1112 21.9219 33.9415 21.9219 34.2182C21.9219 34.495 22.0142 37.447 24.9662 37.447C27.3278 37.447 28.0412 35.7865 28.1027 34.9562V25.0854H31.1469V25.3622C31.0854 25.4544 31.1285 25.8972 31.7927 26.9304C32.6229 28.2219 34.0067 28.1297 34.3757 28.1297C34.7447 28.1297 37.3277 27.7607 37.3277 24.8087C37.3277 22.4471 34.9292 21.8567 33.73 21.8567H25.0584V18.7201C25.4889 18.6894 26.5344 18.4618 27.2724 17.7976C28.0104 17.1334 28.0719 15.8604 28.0104 15.3069C27.9489 14.4459 27.2355 12.7239 24.8739 12.7239C22.5123 12.7239 21.8604 14.4459 21.8297 15.3069V25.0854H18.6009C18.6624 24.7779 18.6378 23.96 18.0474 23.1482C17.3094 22.1334 15.9256 22.0412 15.6489 22.0412C15.3721 22.0412 12.6046 22.2257 12.6046 25.0854C12.6046 27.3732 14.6341 28.1297 15.6489 28.2219Z" fill="#FB4516"/>
</svg>
