<svg width="32" height="32" viewBox="0 0 32 32" fill="none" xmlns="http://www.w3.org/2000/svg">
<path fill-rule="evenodd" clip-rule="evenodd" d="M16 18.2236C18.2091 18.2236 20 16.4328 20 14.2236C20 12.0145 18.2091 10.2236 16 10.2236C13.7909 10.2236 12 12.0145 12 14.2236C12 16.4328 13.7909 18.2236 16 18.2236ZM18 14.2236C18 15.3282 17.1046 16.2236 16 16.2236C14.8954 16.2236 14 15.3282 14 14.2236C14 13.1191 14.8954 12.2236 16 12.2236C17.1046 12.2236 18 13.1191 18 14.2236Z" fill="#56545E"/>
<path fill-rule="evenodd" clip-rule="evenodd" d="M16 27.4473C16.3469 27.4473 16.6088 27.3558 16.6861 27.3285C16.7999 27.2882 16.8903 27.2452 16.9445 27.218C17.0548 27.1626 17.1488 27.1047 17.2113 27.0646C17.3433 26.98 17.4824 26.8792 17.6159 26.7773C17.8898 26.5682 18.2328 26.2831 18.6167 25.9373C19.3858 25.2445 20.3705 24.2616 21.3468 23.0718C23.2373 20.7678 25.3789 17.3467 25.3789 13.5883C25.3789 10.7297 23.9791 8.5323 22.1358 7.10633C20.3354 5.71362 18.0566 5 16 5C13.9434 5 11.6646 5.71362 9.86424 7.10633C8.02088 8.5323 6.62109 10.7297 6.62109 13.5883C6.62109 17.3467 8.76267 20.7678 10.6532 23.0718C11.6295 24.2616 12.6142 25.2445 13.3833 25.9373C13.7672 26.2831 14.1102 26.5682 14.3841 26.7773C14.5176 26.8792 14.6567 26.98 14.7887 27.0646C14.8512 27.1047 14.9452 27.1626 15.0555 27.218C15.1097 27.2452 15.2001 27.2882 15.3139 27.3285C15.3912 27.3558 15.6531 27.4473 16 27.4473ZM23.3789 13.5883C23.3789 19.6825 16.2966 25.4473 16 25.4473C15.7034 25.4473 8.62109 19.6825 8.62109 13.5883C8.62109 9.30591 12.7398 7 16 7C19.2602 7 23.3789 9.30591 23.3789 13.5883Z" fill="#56545E"/>
</svg>
