<svg width="50" height="50" viewBox="0 0 50 50" fill="none" xmlns="http://www.w3.org/2000/svg">
<rect x="0.5" y="0.5" width="49" height="49" rx="7.5" fill="white"/>
<rect x="0.5" y="0.5" width="49" height="49" rx="7.5" stroke="#ECECEE"/>
<path d="M27.1114 39.5135C27.0491 39.5565 26.9901 39.5939 26.9323 39.6336C25.5134 40.4689 24.0219 41.031 22.3333 40.8225C20.9347 40.6491 19.6155 40.2014 18.3156 39.6812C16.8865 39.1077 15.8665 38.1297 15.3066 36.6892C15.1162 36.1996 15.0765 35.6737 14.9711 35.1649C14.7569 34.1335 14.7399 33.0795 14.6062 32.0403C14.4521 30.8457 14.4385 29.6467 14.3886 28.4499C14.3161 26.7317 14.4249 25.0227 14.6096 23.3125C14.7365 22.1395 15.0289 21.0141 15.3655 19.8921C15.4709 19.5407 15.6126 19.2075 15.7973 18.8891C15.9481 18.6284 15.9061 18.3247 15.9243 18.0402C16.0387 16.2643 16.1317 14.4872 16.3334 12.7181C16.3742 12.3565 16.4354 11.9973 16.5045 11.6391C16.6745 10.7551 17.2333 10.4231 18.1082 10.6871C18.8256 10.9036 19.2563 11.4544 19.6665 12.0358C20.2989 12.9323 20.3091 13.9205 20.1221 14.9394C20.0235 15.4766 19.9045 16.0104 19.7833 16.6043C20.3001 16.2427 20.8883 15.9628 21.4776 15.9243C22.0171 15.8891 22.8195 15.99 22.8195 15.99C22.8557 15.9515 23.6717 15.0595 25.0136 14.9666C25.6879 14.9269 26.3305 15.0448 26.9346 15.3134C27.8413 15.6579 28.4907 16.2303 28.4907 16.2303C28.4907 16.2303 29.1299 16.2246 29.3985 16.262C29.9187 16.3311 30.3369 16.4093 30.8389 16.5759C31.8147 16.8989 32.531 17.5733 32.973 18.4969C33.4127 19.4161 33.8479 20.3352 34.1891 21.2974C34.2412 21.4447 34.3307 21.5807 34.3999 21.7235C34.52 21.9706 34.7251 22.0363 34.9813 22.0148C35.4176 21.9774 35.5967 22.229 35.3983 22.6211C35.1388 23.1391 34.8135 23.776 34.2933 24.0582C34.1437 24.1398 34.2299 24.2928 34.2786 24.4107C35.0164 26.2433 35.2204 27.9183 35.4731 29.8631C35.7021 31.6311 35.7032 33.3935 35.4017 35.1513C35.2839 35.8324 35.0855 36.4943 34.7739 37.1142C34.0905 38.4776 32.9277 39.1576 31.4634 39.3593C30.5703 39.4817 29.6693 39.4976 28.7797 39.3083C28.1473 39.1735 27.5307 38.9502 27.0207 38.5637C25.6437 37.5177 24.0843 36.8649 22.484 36.2574C20.6253 35.5513 19.033 34.4305 17.8169 32.837C17.044 31.8227 16.4773 30.7143 15.9424 29.5639C15.8778 29.4245 15.7543 29.1775 15.6613 28.9927C15.6364 28.944 15.5627 28.9667 15.5684 29.0211C15.6285 29.5107 15.735 29.9447 15.8438 30.3765C16.3368 32.3519 17.5438 33.8389 19.0897 35.0912C20.3533 36.1157 21.7995 36.7969 23.3227 37.3295C24.2611 37.6571 25.153 38.0628 25.9407 38.6839C26.2931 38.9615 26.6955 39.2041 27.1069 39.4239C27.1397 39.4443 27.1431 39.4908 27.1114 39.5135Z" fill="#080413"/>
<path d="M34.7467 11.7831C34.7603 12.6229 34.5313 13.3267 34.0531 13.9523C33.534 14.6323 32.9934 15.2862 32.3293 15.8359C32.0006 16.1079 31.6731 16.2121 31.2458 16.0943C30.3822 15.8563 29.5095 15.6557 28.6165 15.548C28.1915 15.497 28.0521 15.1978 28.3014 14.8895C29.7453 13.1045 31.1801 11.3093 32.7327 9.61614C32.7837 9.5606 32.8347 9.5062 32.888 9.45294C33.4093 8.93614 34.0406 9.05627 34.3228 9.734C34.4951 10.1488 34.5823 10.5885 34.6719 11.0283C34.7251 11.2969 34.7353 11.5666 34.7467 11.7831Z" fill="#080413"/>
<path d="M23.1901 16.3073C23.9063 15.6421 24.7235 15.2137 25.7344 15.4041C26.7011 15.5854 27.5443 16.0433 28.2935 16.6779C29.1242 17.3829 29.5413 18.2952 29.6863 19.3492C29.7226 19.6076 29.7883 20.019 29.8144 20.2661C29.828 20.3896 29.8167 20.4213 29.7396 20.4735C29.029 20.9075 28.1869 21.4073 27.55 21.9536C26.8485 22.5543 26.4699 23.3057 26.4223 24.2225C26.4133 24.3801 26.4269 24.8323 26.4269 24.8323C26.4065 24.8436 26.3747 24.8402 26.3249 24.813C24.7371 23.9403 23.2841 22.9362 22.739 21.0685C22.3344 19.8694 22.3219 18.7451 22.3355 18.1864C22.3537 17.3602 22.7753 16.6904 23.1901 16.3073Z" fill="#FA175F"/>
<path d="M22.4319 16.3776C22.484 16.3821 22.5135 16.4411 22.4851 16.4853C22.2075 16.9227 22.025 17.3398 21.9491 17.8033C21.8006 18.7089 21.9513 19.5872 22.1474 20.4712C22.5622 22.3401 23.5981 23.7522 25.2561 24.6861C25.5723 24.8878 26.1832 25.2153 26.2093 25.2357C26.2433 25.2618 26.2399 25.3139 26.2025 25.3343C25.7163 25.6188 23.1391 26.1537 21.7315 25.7185C21.1331 25.5327 20.5471 25.3298 19.9941 25.0249C19.1373 24.5523 18.6227 23.8225 18.3723 22.9045C18.0062 21.566 18.0085 20.2366 18.5808 18.9446C18.8199 18.4051 19.1588 17.9314 19.5362 17.4747C19.9351 16.9907 20.3873 16.6145 21.0016 16.4524C21.4595 16.3311 21.9151 16.3334 22.4319 16.3776Z" fill="#CB01E3"/>
<path d="M34.8815 22.4364C34.9484 22.4398 34.988 22.5135 34.954 22.5724C34.6469 23.1051 34.2842 23.6196 33.6439 23.7409C33.1192 23.8406 32.6012 23.9471 32.0697 23.6479C31.9246 23.5675 31.9235 23.5199 31.9609 23.385C32.1989 22.5214 32.4346 21.6578 32.6137 20.7795C32.6772 20.4689 32.7327 20.1573 32.6534 19.8354C32.5627 19.4705 32.3542 19.3118 31.9813 19.3719C31.4815 19.4523 30.4332 20.0689 30.372 20.0904C30.2779 20.1255 30.2337 20.1085 30.1986 20.0224C30.1759 19.9635 30.0308 18.9503 29.939 18.5411C29.8223 18.03 29.242 17.0247 29.0539 16.7584C29.0335 16.7289 29.055 16.6893 29.0913 16.6904C30.5975 16.7471 31.9552 17.2344 32.642 18.7576C33.0364 19.6337 33.4603 20.4984 33.7822 21.4062C33.8354 21.5547 33.9068 21.6986 33.9839 21.8369C34.231 22.2721 34.4214 22.4115 34.8815 22.4364Z" fill="#F9B607"/>
<path d="M27.3573 29.5583C26.7997 29.5005 26.2421 29.4381 25.6823 29.386C24.8198 29.3067 23.9845 29.4279 23.1889 29.7736C22.8138 29.9368 22.4273 30.0807 22.0885 30.3187C21.9026 30.4491 21.7269 30.3981 21.5739 30.2666C21.0696 29.828 20.0938 28.434 19.9567 28.213C19.8921 28.1087 19.9737 27.9761 20.0961 27.9863C20.342 28.0067 20.7069 28.0997 20.8067 28.1348C21.0605 28.2277 21.4266 28.3535 21.6601 28.485C21.7111 28.5133 21.7462 28.5247 21.8131 28.5065C23.1867 27.8696 24.8674 27.8775 26.2784 28.2629C26.7873 28.4011 27.193 28.723 27.5772 29.0687C27.6475 29.1333 27.8413 29.3826 27.9512 29.5277C27.9818 29.5673 27.9489 29.624 27.9002 29.6195C27.7347 29.6002 27.4548 29.5696 27.3573 29.5583Z" fill="#FEFEFE"/>
<path d="M31.3013 27.1579C31.2979 26.7249 31.3931 26.3181 31.6266 25.952C32.0255 25.3275 32.7747 25.204 33.3561 25.663C34.214 26.3407 34.4792 27.856 33.9023 28.7887C33.4819 29.4676 32.6704 29.5798 32.072 29.0279C31.5269 28.5269 31.3285 27.8753 31.3013 27.1579Z" fill="#FEFEFE"/>
<path d="M31.6504 22.5826C31.69 22.569 31.7286 22.6019 31.7206 22.6438C31.6424 23.0269 31.5427 23.3725 31.4214 23.7125C31.367 23.8644 31.2503 23.9335 31.1324 24.0208C29.7328 25.0408 28.341 25.0113 26.955 24.1466C26.853 24.0831 26.8439 24.0163 26.8609 23.9177C26.9504 23.3986 27.168 22.9487 27.5216 22.5554C27.7064 22.3491 27.8854 22.3061 28.1359 22.4251C28.8567 22.7662 29.6138 22.9305 30.4162 22.875C30.8332 22.8444 31.231 22.7345 31.6504 22.5826Z" fill="#FEFEFE"/>
<path d="M32.0312 21.0843C32.072 21.073 32.1105 21.1104 32.1015 21.1523C32.0482 21.3926 32.004 21.5943 31.9587 21.7961C31.9349 21.9071 31.8533 21.9695 31.7626 22.0239C30.6383 22.705 29.5016 22.5769 28.3581 22.076C28.1801 21.9978 28.2413 21.9185 28.3513 21.8471C28.7899 21.5637 29.2319 21.2849 29.6727 21.0039C29.7498 20.9551 29.8223 20.9608 29.9119 20.9835C30.5975 21.1591 31.2866 21.277 32.0312 21.0843Z" fill="#FEFEFE"/>
<path d="M26.972 24.6033C28.3671 25.4397 29.7328 25.3355 31.0871 24.5217C31.1109 24.5081 31.1404 24.5308 31.1302 24.558C30.7652 25.5961 30.0807 26.0517 29.0902 26.0404C28.026 26.0268 27.1737 25.5973 26.8949 24.6645C26.8802 24.6181 26.93 24.5784 26.972 24.6033Z" fill="#FEFEFE"/>
<path d="M30.4117 20.6695C30.3663 20.6571 30.3573 20.597 30.3981 20.5732C30.8967 20.2717 31.3455 20.0065 31.8397 19.8365C32.1865 19.7175 32.2488 19.7821 32.2681 20.1391C32.2828 20.4089 32.2273 20.5789 31.9292 20.6729C31.4339 20.8305 30.9557 20.8089 30.4117 20.6695Z" fill="#FEFDFC"/>
<path d="M31.9383 35.7281C31.5201 35.7213 31.1574 35.5797 30.8684 35.2714C30.7823 35.1796 30.7301 35.0617 30.7777 34.9371C30.831 34.7988 30.967 34.7523 31.0985 34.7535C31.5065 34.758 31.8635 34.8974 32.1536 35.1898C32.2477 35.285 32.3123 35.4074 32.2613 35.5445C32.2069 35.6851 32.0765 35.7179 31.9383 35.7281Z" fill="#FBFBFB"/>
<path d="M34.6662 34.163C34.6413 34.4735 34.5438 34.7807 34.3183 35.0345C34.231 35.132 34.1211 35.2204 33.976 35.1694C33.8377 35.1207 33.7856 34.9971 33.772 34.8611C33.7357 34.5347 33.806 34.2299 33.9749 33.9511C34.0825 33.7754 34.2061 33.568 34.4486 33.6428C34.673 33.7131 34.6639 33.942 34.6662 34.163Z" fill="#FBFBFB"/>
<path d="M31.5903 24.7121C31.5767 24.7189 31.562 24.7076 31.5654 24.694C31.6345 24.4413 31.7014 24.2384 31.7671 24.0469C31.7796 24.0129 31.7977 23.9483 31.8612 23.98L32.1967 24.1602C32.2352 24.1897 32.2137 24.2327 32.1763 24.2656C32.0867 24.3427 31.6549 24.6781 31.5903 24.7121Z" fill="#F4165D"/>
</svg>
