<svg width="50" height="50" viewBox="0 0 50 50" fill="none" xmlns="http://www.w3.org/2000/svg">
<rect width="50" height="50" rx="8" fill="#271B35"/>
<path d="M28.2842 20.4526L26.6 19.5263L26.1789 19.2737C26.0105 19.1895 25.7578 19.1895 25.5894 19.2737C25.421 19.3579 25.3368 19.5263 25.3368 19.7789V22.221C25.3368 22.3895 25.421 22.5579 25.5894 22.7263C25.6736 22.8105 25.7578 22.8105 25.8421 22.8105C25.9263 22.8105 26.0105 22.8105 26.0947 22.7263L26.4315 22.5579L26.9368 22.3053L28.2 21.6316C28.3684 21.5474 28.4526 21.3789 28.4526 21.1263C28.621 20.7053 28.4526 20.5368 28.2842 20.4526ZM28.1157 21.0421L26.7684 21.8L26.6 21.8842L25.9263 22.221C25.8421 22.221 25.8421 22.221 25.8421 22.221C25.8421 22.221 25.7578 22.221 25.7578 22.1368V19.6947C25.7578 19.6105 25.7578 19.6105 25.8421 19.6105C25.8421 19.6105 25.8421 19.6105 25.9263 19.6105C25.9263 19.6105 25.9263 19.6105 26.0105 19.6105L26.6842 19.9474L28.1157 20.7895C28.2 20.7895 28.2 20.8737 28.2 20.8737C28.1157 20.9579 28.1157 20.9579 28.1157 21.0421Z" fill="url(#paint0_linear_110_33)"/>
<path d="M23.1473 26.5158C23.0631 26.5158 23.0631 26.5158 22.9789 26.4316C22.8947 26.3474 22.8105 26.2632 22.8105 26.179L23.3157 23.4842C22.7262 22.7263 22.3894 21.8 22.3894 20.8737C22.3894 18.5158 24.3263 16.6631 26.6841 16.6631C29.042 16.6631 30.9789 18.6 30.9789 20.8737C30.9789 23.2316 29.042 25.0842 26.6841 25.0842C26.3473 25.0842 26.0105 25 25.6736 24.9158L23.3157 26.5158C23.2315 26.5158 23.1473 26.5158 23.1473 26.5158ZM26.6841 17.1684C24.6631 17.1684 22.9789 18.7684 22.9789 20.7895C22.9789 21.6316 23.3157 22.4737 23.9052 23.1474C23.9894 23.2316 23.9894 23.3158 23.9894 23.4L23.5684 25.5895L25.421 24.3263C25.5052 24.2421 25.5894 24.2421 25.6736 24.3263C26.0105 24.4105 26.3473 24.4947 26.6841 24.4947C28.7052 24.4947 30.3894 22.8947 30.3894 20.8737C30.3894 18.8526 28.7052 17.1684 26.6841 17.1684Z" fill="url(#paint1_linear_110_33)"/>
<path d="M13.4631 33C13.2947 32.8316 13.1263 32.6632 13.1263 32.4105C13.1263 32.2421 13.2105 32.0737 13.3789 31.9053C13.5473 31.7368 13.7157 31.7368 13.9684 31.7368C14.0526 31.7368 14.221 31.7368 14.3052 31.7368C14.4736 31.7368 14.5578 31.7368 14.6421 31.7368C14.6421 31.5684 14.5578 31.4 14.4736 31.2316C14.3894 31.0632 14.3052 30.8947 14.1368 30.7263C14.0526 30.5579 13.8842 30.3895 13.8 30.3053C13.5473 30.7263 13.3789 31.0632 13.1263 31.4C12.8736 31.6526 12.621 31.9895 12.3684 32.2421C12.2842 32.3263 12.1157 32.4105 11.9473 32.4105C11.8631 32.4105 11.6947 32.3263 11.6947 32.2421C11.6105 32.1579 11.6105 32.0737 11.6105 31.9895C11.6105 31.8211 11.6105 31.6526 11.7789 31.5684L11.9473 31.4C12.3684 30.8947 12.7052 30.4737 12.8736 30.1368C13.0421 29.8842 13.1263 29.6316 13.2947 29.2947C13.4631 28.9579 13.6315 28.5368 13.8 28.2C13.9684 27.8632 14.221 27.6947 14.6421 27.6947C14.8105 27.6947 14.9789 27.6947 15.0631 27.7789C15.1473 27.7789 15.1473 27.8632 15.1473 27.9474C15.1473 28.0316 15.1473 28.0316 15.0631 28.1158C15.0631 28.2 14.9789 28.2842 14.9789 28.3684C14.8105 28.6211 14.8105 28.8737 14.8105 29.0421C14.8105 29.1263 14.8105 29.2947 14.8947 29.3789C14.9789 29.5474 15.0631 29.7158 15.2315 29.8842C15.4842 30.2211 15.6526 30.4737 15.7368 30.6421C15.821 30.8947 15.9052 31.0632 15.9052 31.3158C15.9052 31.4 15.9052 31.4842 15.9052 31.6526C16.2421 31.4842 16.6631 31.1474 17.1684 30.5579C17.2526 30.4737 17.3368 30.3895 17.5052 30.3895C17.5894 30.3895 17.6736 30.4737 17.7579 30.5579C17.8421 30.6421 17.8421 30.7263 17.8421 30.8947C17.8421 31.1474 17.7579 31.4 17.5894 31.5684C17.2526 31.9895 16.8315 32.3263 16.4947 32.4947C16.1579 32.6632 15.7368 32.7474 15.2315 32.7474C14.8947 33 14.5578 33.0842 14.1368 33.0842C13.9684 33.2526 13.6315 33.1684 13.4631 33Z" fill="white"/>
<path d="M23.4842 30.6421C23.5684 30.7263 23.5684 30.8106 23.5684 30.979C23.5684 31.3158 23.4842 31.4842 23.3157 31.6527C22.9789 32.0737 22.642 32.3263 22.221 32.579C21.8842 32.8316 21.4631 32.9158 20.9578 32.9158C20.5368 32.9158 20.2841 32.8316 20.1157 32.579C19.9473 32.3263 19.8631 32.0737 19.8631 31.6527C19.8631 31.4842 19.9473 31.0632 20.0315 30.5579C20.1157 30.0527 20.1999 29.8 20.1999 29.6316C20.1999 29.5474 20.1999 29.4632 20.1157 29.4632C20.0315 29.4632 19.8631 29.5474 19.6947 29.8C19.5263 30.0527 19.3578 30.3895 19.1894 30.8106C19.021 31.2316 18.8526 31.6527 18.7684 32.0737C18.5999 32.6632 18.2631 33 17.7578 33C17.5052 33 17.421 32.9158 17.3368 32.7474C17.2526 32.579 17.2526 32.3263 17.2526 31.9053C17.2526 31.6527 17.2526 31.4842 17.2526 31.3158V30.3895C17.2526 29.2948 17.3368 28.0316 17.5894 26.8526C17.842 25.5895 18.1789 24.579 18.5999 23.7369C19.021 22.8947 19.6105 22.4737 20.2841 22.4737C20.621 22.4737 20.8736 22.6421 21.1263 22.8947C21.3789 23.1474 21.4631 23.5684 21.4631 23.9895C21.4631 24.7474 21.2105 25.5053 20.7894 26.3474C20.3684 27.1053 19.6105 28.1158 18.6841 29.1263C18.6841 29.5474 18.6841 29.8842 18.6841 30.3053C18.9368 29.7158 19.1894 29.1263 19.5263 28.7895C19.8631 28.3684 20.1157 28.1158 20.4526 27.9474C20.7052 27.779 21.042 27.6948 21.2947 27.6948C21.7999 27.6948 22.0526 27.9474 22.0526 28.4527C22.0526 28.7053 21.9684 29.2948 21.7999 30.0527C21.6315 30.7263 21.5473 31.1474 21.5473 31.3158C21.5473 31.6527 21.6315 31.7369 21.8842 31.7369C22.0526 31.7369 22.221 31.6527 22.3894 31.4842C22.5578 31.3158 22.8947 30.979 23.2315 30.6421C23.3157 30.5579 23.3999 30.4737 23.5684 30.4737C23.3157 30.4737 23.3999 30.5579 23.4842 30.6421ZM19.442 24.2421C19.2736 24.6632 19.1052 25.1684 18.9368 25.7579C18.7684 26.4316 18.6841 27.1053 18.5999 27.8632C19.021 27.3579 19.442 26.7684 19.7789 26.0948C20.1157 25.4211 20.1999 24.9158 20.1999 24.4105C20.1999 24.1579 20.1999 23.9895 20.1157 23.9053C20.0315 23.8211 19.9473 23.7369 19.8631 23.7369C19.7789 23.6526 19.6105 23.8211 19.442 24.2421Z" fill="white"/>
<path d="M28.5368 29.7158C28.621 29.8 28.621 29.9684 28.621 30.0527C28.621 30.3895 28.5368 30.6421 28.2842 30.6421C27.8631 30.8105 27.3579 30.8948 26.7684 30.8948C26.6 31.4842 26.3473 31.9895 25.9263 32.4105C25.5052 32.7474 25 33 24.4947 33C24.0737 33 23.6526 32.9158 23.3158 32.6632C22.9789 32.4105 22.7263 32.1579 22.5579 31.8211C22.3894 31.4842 22.3052 31.0632 22.3052 30.6421C22.3052 30.0526 22.3894 29.5474 22.6421 29.1263C22.8947 28.7053 23.1473 28.3684 23.5684 28.1158C23.9895 27.8632 24.4105 27.779 24.8316 27.779C25.421 27.779 25.8421 27.9474 26.1789 28.3684C26.5158 28.7895 26.7684 29.2105 26.7684 29.8C27.1052 29.8 27.5263 29.7158 28.0316 29.5474C28.1158 29.5474 28.1158 29.5474 28.2 29.5474C28.4526 29.5474 28.5368 29.6316 28.5368 29.7158ZM25.2526 31.5684C25.421 31.4 25.5052 31.0632 25.5895 30.7263C25.3368 30.5579 25.1684 30.3895 25.0842 30.1369C25 29.8842 24.9158 29.6316 24.9158 29.379C24.9158 29.2948 24.9158 29.1263 24.9158 29.0421H24.8316C24.4947 29.0421 24.3263 29.2105 24.0737 29.4632C23.9052 29.7158 23.7368 30.1369 23.7368 30.6421C23.7368 31.0632 23.821 31.3158 23.9895 31.5684C24.1579 31.8211 24.3263 31.9053 24.5789 31.9053C24.9158 31.8211 25.0842 31.7369 25.2526 31.5684Z" fill="white"/>
<path d="M32.5789 29.4632C32.6632 29.5474 32.7474 29.7158 32.7474 29.8842C32.7474 29.9684 32.7474 30.0526 32.6632 30.2211C32.5789 30.4737 32.4105 30.7263 32.1579 30.8948C31.9053 31.0632 31.7368 31.1474 31.4842 31.1474C31.3158 31.1474 31.0631 31.0632 30.9789 30.8948C30.8105 30.7263 30.7263 30.5579 30.7263 30.3053C30.7263 30.1369 30.7263 30.0526 30.7263 29.8842C30.7263 29.8 30.7263 29.7158 30.7263 29.6316C30.7263 29.5474 30.7263 29.5474 30.7263 29.4632L30.6421 29.379C30.5579 29.379 30.3895 29.4632 30.221 29.7158C30.0526 29.9684 29.8842 30.3053 29.7158 30.7263C29.5474 31.1474 29.3789 31.5684 29.2947 31.9895C29.2105 32.3263 29.1263 32.579 29.0421 32.6632C28.9579 32.7474 28.7895 32.8316 28.5368 32.8316C28.2842 32.8316 28.0316 32.6632 27.9474 32.4105C27.8631 32.0737 27.7789 31.6526 27.7789 30.979C27.7789 30.0526 27.9474 29.1263 28.2 28.2842C28.2842 28.0316 28.3684 27.9474 28.5368 27.779C28.7052 27.6947 28.8737 27.6105 29.2105 27.6105C29.3789 27.6105 29.4631 27.6105 29.5474 27.6947C29.6316 27.6947 29.6316 27.779 29.6316 27.8632C29.6316 27.9474 29.5474 28.2842 29.4631 28.6211C29.3789 28.9579 29.2947 29.2105 29.2947 29.379C29.2105 29.6316 29.2105 29.8842 29.2105 30.2211C29.4631 29.5474 29.7158 29.0421 30.0526 28.7053C30.3895 28.2842 30.6421 28.0316 30.9789 27.8632C31.2316 27.6947 31.5684 27.6105 31.7368 27.6105C31.9895 27.6105 32.1579 27.6947 32.2421 27.779C32.3263 27.8632 32.4105 28.1158 32.4105 28.2842C32.4105 28.4526 32.4105 28.7053 32.3263 29.0421H32.4105C32.3263 29.2947 32.4947 29.379 32.5789 29.4632Z" fill="white"/>
<path d="M38.1368 30.6421C38.2211 30.7263 38.2211 30.8106 38.2211 30.979C38.2211 31.3158 38.1368 31.4842 37.9684 31.6527C37.6316 32.0737 37.2947 32.3264 36.9579 32.579C36.5368 32.8316 36.1158 32.9158 35.6105 32.9158C34.0947 32.9158 33.3368 31.8211 33.3368 29.7158C33.3368 29.379 33.3368 29.0421 33.3368 28.7053H32.9158C32.6632 28.7053 32.5789 28.7053 32.4947 28.6211C32.4105 28.5369 32.4105 28.4527 32.4105 28.2C32.4105 27.779 32.5789 27.6106 32.9158 27.6106H33.5895C33.7579 26.7684 33.9263 26.0948 34.1789 25.4211C34.4316 24.7474 34.7684 24.2421 35.1053 23.8211C35.4421 23.4 35.8632 23.2316 36.2842 23.2316C36.6211 23.2316 36.8737 23.4 37.0421 23.6527C37.2105 23.9053 37.2947 24.2421 37.2947 24.6632C37.2947 25.8421 36.7895 26.7684 35.8632 27.6106H37.1263C37.2105 27.6106 37.2947 27.6106 37.379 27.6948C37.4632 27.779 37.4632 27.8632 37.4632 27.9474C37.4632 28.4527 37.0421 28.7053 36.2 28.7053H34.8526C34.8526 29.0421 34.8526 29.379 34.8526 29.5474C34.8526 30.3053 34.9368 30.8106 35.1053 31.1474C35.2737 31.4842 35.6105 31.6527 35.9474 31.6527C36.2842 31.6527 36.5368 31.5685 36.7895 31.4C37.0421 31.2316 37.2947 30.8948 37.6316 30.5579C37.7158 30.4737 37.8 30.3895 37.9684 30.3895C38.0526 30.4737 38.1368 30.5579 38.1368 30.6421ZM35.6105 24.7474C35.4421 25 35.3579 25.4211 35.1895 25.9263C35.1053 26.4316 34.9368 26.9369 34.8526 27.5263C35.2737 27.1895 35.6105 26.7684 35.8632 26.2632C36.1158 25.7579 36.2 25.3369 36.2 25C36.2 24.579 36.1158 24.3263 35.9474 24.3263C35.8632 24.3263 35.6947 24.4948 35.6105 24.7474Z" fill="white"/>
<path d="M38.5578 33C38.3894 32.8316 38.221 32.6632 38.221 32.4105C38.221 32.2421 38.3052 32.0737 38.4736 31.9053C38.642 31.7369 38.8105 31.7369 39.0631 31.7369C39.1473 31.7369 39.3157 31.7369 39.3999 31.7369C39.5684 31.7369 39.6526 31.7369 39.7368 31.7369C39.7368 31.5684 39.6526 31.4 39.5684 31.2316C39.4842 31.0632 39.3999 30.8948 39.2315 30.7263C39.1473 30.5579 38.9789 30.3895 38.8947 30.3053C38.642 30.7263 38.4736 31.0632 38.221 31.4C37.9684 31.6526 37.7157 31.9895 37.4631 32.2421C37.2947 32.4105 37.2105 32.4105 37.042 32.4105C36.9578 32.4105 36.7894 32.3263 36.7894 32.2421C36.7052 32.1579 36.7052 32.0737 36.7052 31.9053C36.7052 31.7369 36.7894 31.6526 36.8736 31.4842L37.042 31.3158C37.4631 30.8105 37.7999 30.3895 37.9684 30.0526C38.1368 29.8 38.221 29.5474 38.3894 29.2947C38.5578 28.9579 38.7263 28.6211 38.8947 28.1158C39.0631 27.779 39.3157 27.6105 39.7368 27.6105C39.9052 27.6105 40.0736 27.6105 40.1578 27.6947C40.2421 27.6947 40.242 27.779 40.242 27.8632C40.242 27.9474 40.2421 27.9474 40.1578 28.0316C40.1578 28.1158 40.0736 28.2 40.0736 28.2842C39.9052 28.5369 39.9052 28.7895 39.9052 28.9579C39.9052 29.0421 39.9052 29.2105 39.9894 29.2947C40.0736 29.4632 40.1578 29.6316 40.3263 29.8C40.5789 30.1369 40.7473 30.3895 40.8315 30.5579C40.9157 30.8105 40.9999 30.979 40.9999 31.2316C40.9999 31.5684 40.9157 31.8211 40.7473 32.0737C40.5789 32.3263 40.4105 32.579 40.1578 32.7474C40.0736 33.1684 39.7368 33.2527 39.3999 33.2527C39.0631 33.2527 38.7263 33.1684 38.5578 33Z" fill="white"/>
<path d="M10.0105 33.3369C9.67362 33.3369 9.42099 33.2526 9.25257 33C9.08415 32.8316 8.99994 32.579 8.99994 32.2421C8.99994 31.9895 9.08415 31.4842 9.25257 30.7263C9.5052 29.8842 9.5052 29.5474 9.5052 29.4632C9.5052 29.2105 9.42099 28.9579 9.25257 28.7053L9.16836 28.6211C9.08415 28.5368 9.08415 28.4526 9.08415 28.3684C9.08415 28.2 9.16836 28.1158 9.33678 28.0316C9.75784 27.9474 10.3473 27.8632 11.1052 27.8632C11.1894 27.8632 11.3578 27.9474 11.3578 28.0316C11.442 28.2 11.442 28.3684 11.442 28.7053C11.442 29.0421 11.3578 29.5474 11.1052 30.3895C10.8526 31.3158 10.7684 31.6526 10.7684 31.8211C10.7684 31.9053 10.7684 31.9053 10.7684 31.9053C10.8526 31.9053 10.9368 31.8211 11.1052 31.7368C11.1894 31.7368 11.2736 31.6526 11.3578 31.7368C11.442 31.7368 11.5263 31.8211 11.5263 31.9053L11.6105 32.0737C11.6947 32.2421 11.6105 32.4105 11.5263 32.4947C11.442 32.579 11.442 32.579 11.3578 32.6632C11.2736 32.7474 11.021 32.9158 10.6842 33.0842C10.6842 33.2526 10.3473 33.3369 10.0105 33.3369ZM9.67362 28.4526C9.92626 28.7895 10.0105 29.1263 10.0105 29.4632C10.0105 29.7158 9.92626 30.1368 9.75784 30.8947C9.58941 31.5684 9.5052 31.9895 9.5052 32.2421C9.5052 32.4947 9.58941 32.6632 9.67362 32.7474C9.75783 32.8316 9.92626 32.9158 10.1789 32.9158C10.4315 32.9158 10.6842 32.8316 10.9368 32.7474C11.2736 32.579 11.442 32.4947 11.5263 32.4105C11.6105 32.3263 11.6105 32.3263 11.6947 32.3263V32.2421C11.1052 32.4105 11.021 32.4105 10.9368 32.4105C10.5999 32.4105 10.5999 31.9895 10.5999 31.9053C10.5999 31.6526 10.6842 31.1474 10.9368 30.3895C11.1052 29.6316 11.2736 29.1263 11.2736 28.8737C11.2736 28.6211 11.2736 28.5368 11.1894 28.4526C10.5157 28.3684 10.0105 28.3684 9.67362 28.4526ZM10.7684 27.3579C10.4315 27.3579 10.1789 27.2737 10.0105 27.1053C9.84205 26.9368 9.75784 26.6842 9.75784 26.3474C9.75784 26.0105 9.84205 25.7579 10.0947 25.5895C10.3473 25.3368 10.5999 25.2526 10.9368 25.2526C11.2736 25.2526 11.5263 25.3368 11.6947 25.5053C11.8631 25.6737 11.9473 25.9263 11.9473 26.2632C11.9473 26.6 11.7789 26.8526 11.5263 27.021C11.3578 27.2737 11.1052 27.3579 10.7684 27.3579ZM11.021 25.6737C10.7684 25.6737 10.5999 25.7579 10.4315 25.9263C10.2631 26.0947 10.1789 26.2632 10.1789 26.4316C10.1789 26.6 10.2631 26.7684 10.3473 26.8526C10.4315 26.9368 10.5999 27.021 10.8526 27.021C11.1052 27.021 11.2736 26.9368 11.442 26.7684C11.5263 26.6 11.6105 26.4316 11.6105 26.2632C11.6105 26.0947 11.5263 25.9263 11.442 25.8421C11.3578 25.6737 11.1894 25.6737 11.021 25.6737Z" fill="url(#paint2_linear_110_33)"/>
<defs>
<linearGradient id="paint0_linear_110_33" x1="24.6209" y1="21.3791" x2="28.7136" y2="19.9449" gradientUnits="userSpaceOnUse">
<stop stop-color="#1AFFB9"/>
<stop offset="1" stop-color="#FFFC35"/>
</linearGradient>
<linearGradient id="paint1_linear_110_33" x1="22.3625" y1="21.5673" x2="30.9909" y2="21.5673" gradientUnits="userSpaceOnUse">
<stop stop-color="#1AFFB9"/>
<stop offset="1" stop-color="#FFFC35"/>
</linearGradient>
<linearGradient id="paint2_linear_110_33" x1="9.014" y1="29.2981" x2="12.0295" y2="29.2981" gradientUnits="userSpaceOnUse">
<stop stop-color="#1AFFB9"/>
<stop offset="1" stop-color="#FFFC35"/>
</linearGradient>
</defs>
</svg>
