<svg width="50" height="50" viewBox="0 0 50 50" fill="none" xmlns="http://www.w3.org/2000/svg">
<g clip-path="url(#clip0_2170_3277)">
<rect width="50" height="50" rx="10" fill="white"/>
<rect width="50" height="50" rx="10" fill="#5274FF"/>
<path fill-rule="evenodd" clip-rule="evenodd" d="M34.4162 27.4719C35.2053 27.381 35.5348 27.1435 35.5153 26.2963C35.494 25.5258 35.417 24.7577 35.2847 23.9969C34.8145 21.5283 33.651 19.4161 31.8002 17.8547C29.7562 16.1325 26.9454 15.1429 23.3875 15.1582C22.3557 15.1683 21.3338 14.9689 20.3926 14.5739C19.4462 14.169 18.6044 13.5783 17.9248 12.842L16.8107 11.6552C16.4219 11.2648 15.8856 11.0308 15.3152 11.0028C14.7449 10.9748 14.1853 11.155 13.7547 11.5052C13.3241 11.8554 13.0563 12.3483 13.0079 12.8794C12.9595 13.4107 13.1343 13.9386 13.4954 14.3517L14.6095 15.5385C15.7043 16.7185 17.0575 17.6656 18.5777 18.316C20.0946 18.9516 21.7414 19.2716 23.404 19.254C25.7999 19.2442 27.6103 19.8439 28.8487 20.8895C30.0466 21.8987 30.7744 23.3847 31.017 25.1808C31.27 27.0526 32.5489 27.6789 34.4162 27.4663V27.4719ZM15.5334 22.4788C17.4022 22.2664 18.678 22.8982 18.9341 24.7643C19.1767 26.5606 19.9045 28.0465 21.1024 29.0558C22.3423 30.1013 24.1542 30.701 26.5456 30.6912C28.2087 30.6734 29.856 30.9934 31.3734 31.6291C32.8937 32.2794 34.2469 33.2266 35.3416 34.4067L36.4557 35.5935C36.8399 36.0035 37.034 36.5393 36.9951 37.0828C36.9562 37.6264 36.6876 38.1333 36.2483 38.492C35.8091 38.8506 35.2352 39.0317 34.6528 38.9954C34.0706 38.9592 33.5276 38.7083 33.1434 38.2984L32.0293 37.1102C31.3493 36.3742 30.5077 35.7836 29.5615 35.3782C28.6203 34.9833 27.5984 34.7839 26.5666 34.7939C23.0087 34.8093 20.1965 33.8154 18.1539 32.0961C16.3001 30.5361 15.1426 28.4239 14.6664 25.9539C14.5341 25.1927 14.4571 24.424 14.4358 23.653C14.4163 22.8045 14.7458 22.5669 15.5334 22.4774V22.4788ZM23.7918 22.7793H26.1592C26.4689 22.7801 26.7658 22.8952 26.9849 23.0995C27.204 23.3037 27.3276 23.5806 27.3288 23.8697V26.0811C27.3276 26.3702 27.204 26.647 26.9849 26.8514C26.7658 27.0556 26.4689 27.1707 26.1592 27.1714H23.7918C23.4822 27.1707 23.1854 27.0556 22.9663 26.8514C22.7471 26.647 22.6235 26.3702 22.6223 26.0811V23.8697C22.6235 23.5806 22.7471 23.3037 22.9663 23.0995C23.1854 22.8952 23.4822 22.7801 23.7918 22.7793Z" fill="white"/>
</g>
<defs>
<clipPath id="clip0_2170_3277">
<rect width="50" height="50" rx="10" fill="white"/>
</clipPath>
</defs>
</svg>
