<svg width="116" height="40" viewBox="0 0 116 40" fill="none" xmlns="http://www.w3.org/2000/svg">
<g clip-path="url(#clip0_196_10075)">
<path d="M115.729 17.0939H105.832V31.8068H115.729V17.0939Z" fill="#E2DDCF"/>
<path d="M115.729 8.77417H105.832V14.7626H115.729V8.77417Z" fill="#E2DDCF"/>
<path d="M-0.271484 8.77417V16.2842H7.23851V23.7942H14.7485V8.77417H-0.271484Z" fill="#E2DDCF"/>
<path d="M17.9591 8.77417H28.8472L22.5517 31.8067H11.6636L17.9591 8.77417Z" fill="#E2DDCF"/>
<path d="M70.4592 8.78821V8.80216V8.78821L65.1408 14.1066L59.8363 8.78821H50.7769V31.8068H59.8363V19.4111L65.1408 24.7155L70.4592 19.4111V31.8068H79.5047V8.78821H70.4592Z" fill="#E2DDCF"/>
<path d="M95.5019 8.78821H90.8814H86.6937H81.8359V31.8068H90.8814V25.595H95.5019C100.15 25.595 103.905 21.826 103.905 17.1916C103.905 12.5432 100.136 8.78821 95.5019 8.78821ZM93.0172 19.4669C91.705 19.4669 90.6441 18.406 90.6441 17.0939C90.6441 15.7817 91.705 14.7208 93.0172 14.7208C94.3293 14.7208 95.3902 15.7817 95.3902 17.0939C95.3902 18.406 94.3293 19.4669 93.0172 19.4669Z" fill="#E2DDCF"/>
<path d="M40.3076 8.80209L32.7557 8.77417V16.2842H36.9434C38.2416 16.2842 39.3165 17.3032 39.3863 18.5874H32.7836C29.2659 18.5874 26.4043 21.449 26.4043 24.9667V25.4274C26.4043 28.959 29.2659 31.8067 32.7836 31.8067H42.5968H48.4597V16.9542C48.4597 12.4454 44.8163 8.80209 40.3076 8.80209ZM37.2924 27.4794C35.9802 27.4794 34.9193 26.4185 34.9193 25.1063C34.9193 23.7942 35.9802 22.7333 37.2924 22.7333C38.6045 22.7333 39.6654 23.7942 39.6654 25.1063C39.6654 26.4185 38.6045 27.4794 37.2924 27.4794Z" fill="#E2DDCF"/>
</g>
<defs>
<clipPath id="clip0_196_10075">
<rect width="116" height="40" fill="white"/>
</clipPath>
</defs>
</svg>
