<svg width="116" height="40" viewBox="0 0 116 40" fill="none" xmlns="http://www.w3.org/2000/svg">
<g clip-path="url(#clip0_196_10059)">
<path d="M115.729 17.8805H105.832V32.5934H115.729V17.8805Z" fill="#221D25"/>
<path d="M115.729 9.56079H105.832V15.5492H115.729V9.56079Z" fill="#221D25"/>
<path d="M-0.271484 9.56079V17.0708H7.23851V24.5808H14.7485V9.56079H-0.271484Z" fill="#221D25"/>
<path d="M17.9591 9.56079H28.8472L22.5517 32.5933H11.6636L17.9591 9.56079Z" fill="#221D25"/>
<path d="M70.4592 9.57483V9.58878V9.57483L65.1408 14.8932L59.8363 9.57483H50.7769V32.5934H59.8363V20.1977L65.1408 25.5022L70.4592 20.1977V32.5934H79.5047V9.57483H70.4592Z" fill="#221D25"/>
<path d="M95.5019 9.57483H90.8814H86.6937H81.8359V32.5934H90.8814V26.3816H95.5019C100.15 26.3816 103.905 22.6126 103.905 17.9782C103.905 13.3298 100.136 9.57483 95.5019 9.57483ZM93.0172 20.2535C91.705 20.2535 90.6441 19.1926 90.6441 17.8805C90.6441 16.5683 91.705 15.5074 93.0172 15.5074C94.3293 15.5074 95.3902 16.5683 95.3902 17.8805C95.3902 19.1926 94.3293 20.2535 93.0172 20.2535Z" fill="#221D25"/>
<path d="M40.3076 9.58871L32.7557 9.56079V17.0708H36.9434C38.2416 17.0708 39.3165 18.0898 39.3863 19.374H32.7836C29.2659 19.374 26.4043 22.2356 26.4043 25.7533V26.214C26.4043 29.7456 29.2659 32.5933 32.7836 32.5933H42.5968H48.4597V17.7408C48.4597 13.232 44.8163 9.58871 40.3076 9.58871ZM37.2924 28.266C35.9802 28.266 34.9193 27.2051 34.9193 25.8929C34.9193 24.5808 35.9802 23.5199 37.2924 23.5199C38.6045 23.5199 39.6654 24.5808 39.6654 25.8929C39.6654 27.2051 38.6045 28.266 37.2924 28.266Z" fill="#221D25"/>
</g>
<defs>
<clipPath id="clip0_196_10059">
<rect width="116" height="40" fill="white" transform="translate(0 0.786621)"/>
</clipPath>
</defs>
</svg>
