<svg width="50" height="50" viewBox="0 0 50 50" fill="none" xmlns="http://www.w3.org/2000/svg">
<rect width="50" height="50" rx="8" fill="#421BCC"/>
<path d="M9.0058 30.0702H13.4154V21.3254C13.4154 20.4218 14.156 19.5828 15.5361 19.7442C16.6402 19.8733 16.9162 20.9812 16.9162 21.519V30.0702H21.2248V21.8094C21.2248 21.2286 21.3258 19.7442 23.0425 19.7442C24.4159 19.7442 24.8266 20.9274 24.8602 21.519V30.0702H29.0006V22.9065H32.3667C34.1507 22.9065 37.1466 23.6164 36.81 26.8111C36.4734 30.0057 32.0974 31.9418 29.5391 32.1677C26.9809 32.3936 26.3077 33.0067 26.3077 34.2652C26.3077 35.5237 28.3615 36.182 31.0208 35.9561C33.68 35.7302 36.2881 34.3057 38.2237 32.4258C40.8598 29.8657 42.2294 25.2944 39.5365 22.003C37.3822 19.3699 33.4775 18.9697 31.7944 19.0988L32.535 16.3882H37.4495C38.0891 16.3882 39.5702 16.0978 39.5702 14.6134C39.5702 13.4259 38.5828 13.043 38.0891 13H31.9627C30.3739 13 29.6177 13.8175 29.4382 14.2262L28.058 18.0985C27.7439 17.4101 26.3952 16.0333 23.5138 16.0333C19.912 16.0333 19.2388 17.8726 19.1042 17.6467C18.9964 17.466 18.1841 16.8615 17.7914 16.5818C16.8825 16.0548 14.4387 15.3169 11.9343 16.5818C9.42993 17.8468 8.93848 20.1637 9.0058 21.164V30.0702Z" fill="white"/>
</svg>
