<svg width="126" height="37" viewBox="0 0 126 37" fill="none" xmlns="http://www.w3.org/2000/svg">
<g clip-path="url(#clip0_1_2)">
<path d="M63.6874 11.1709C61.6097 11.1709 60.0091 12.2026 59.0555 13.9668C58.3743 12.1032 56.6858 11.1709 54.4715 11.1709C52.6661 11.1709 51.2702 12.0032 50.3501 13.5005V11.5845H46.5838V27.7776H50.3501V18.7589C50.3501 15.9303 51.5084 14.4657 53.3814 14.4657C55.1186 14.4657 55.9015 15.5173 55.9015 17.647V27.7776H59.6002L59.4978 18.226C59.4978 15.4974 60.7578 14.465 62.5291 14.465C64.198 14.465 64.9816 15.5167 64.9816 17.6463V27.777H68.7822L68.714 16.628C68.714 13.0016 66.8207 11.1709 63.6874 11.1709Z" fill="#1A1A1A"/>
<path d="M78.2959 11.2183C74.5598 11.2183 71.402 13.4415 71.6054 17.4572L75.1032 17.7226C74.9333 15.6321 76.1224 14.3041 78.3976 14.3041C80.4353 14.3041 81.6237 15.366 81.6237 16.7935V17.3905L77.8201 18.0208C73.6431 18.6846 71.5713 20.4102 71.5713 23.4966C71.5713 25.8859 73.439 28.2753 77.175 28.2753C79.2468 28.2753 80.8428 27.28 81.6237 25.9193V27.7777H85.1215V16.9922C85.1222 13.4415 82.6764 11.2183 78.2959 11.2183ZM81.6237 21.0079C81.6237 23.3972 80.0953 24.9901 77.8877 24.9901C76.2241 24.9901 75.1026 24.227 75.1026 23.065C75.1026 21.7376 76.3252 21.14 78.3628 20.775L81.6231 20.2441V21.0079H81.6237Z" fill="#1A1A1A"/>
<path d="M88.4106 5.79318V27.7776H92.146V5.79318H88.4106Z" fill="#1A1A1A"/>
<path d="M119.174 11.2183C115.438 11.2183 112.279 13.4415 112.483 17.4572L115.981 17.7226C115.811 15.6321 117 14.3041 119.275 14.3041C121.313 14.3041 122.502 15.366 122.502 16.7935V17.3905L118.698 18.0208C114.52 18.6846 112.448 20.4102 112.448 23.4966C112.448 25.8859 114.317 28.2753 118.053 28.2753C120.125 28.2753 121.721 27.28 122.502 25.9193V27.7777H126V16.9922C126 13.4415 123.555 11.2183 119.174 11.2183ZM122.502 21.0079C122.502 23.3972 120.974 24.9901 118.766 24.9901C117.102 24.9901 115.981 24.227 115.981 23.065C115.981 21.7376 117.204 21.14 119.241 20.775L122.502 20.2441V21.0079H122.502Z" fill="#1A1A1A"/>
<path d="M105.401 26.1944H99.5269C98.5136 26.1944 97.8987 25.657 97.8987 25.0125C97.8987 24.2603 98.4775 23.7948 99.4186 23.7948H102.976C106.486 23.7948 109.381 21.0733 109.381 17.6713C109.381 16.3465 108.983 15.2717 108.151 14.2694L111.255 14.4169L111.263 11.5832H107.391C105.944 11.5832 104.967 11.4139 103.935 11.3357C103.431 11.2581 102.899 11.2177 102.345 11.2177C97.7917 11.2177 95.3046 13.6872 95.3046 17.5277C95.3046 19.3181 96.1006 20.7866 97.44 22.0044C95.6668 22.291 94.4363 23.7236 94.4363 25.1196C94.4363 26.1579 94.9069 27.1608 95.9201 27.7693C94.4363 28.7723 93.7853 30.133 93.7853 31.8516C93.7853 34.8239 96.1373 36.9369 100.516 36.9369H104.533C108.441 36.9369 111.336 34.7521 111.336 31.3502C111.335 28.3073 109.02 26.1944 105.401 26.1944ZM102.325 14.1521C104.8 14.1521 105.654 15.7636 105.654 17.5636C105.654 19.3636 104.716 20.9752 102.325 20.9752C99.9344 20.9752 98.996 19.3636 98.996 17.5636C98.996 15.7642 99.8497 14.1521 102.325 14.1521ZM104.713 33.9293H100.552C98.5983 33.9293 97.6205 32.8911 97.6205 31.5656C97.6205 30.5267 98.0549 29.166 100.371 29.166H104.785C106.486 29.166 107.536 30.0612 107.536 31.422C107.536 32.9982 106.414 33.9293 104.713 33.9293Z" fill="#1A1A1A"/>
<path d="M22.8729 28.6517V16.864C22.8729 13.9475 20.4532 11.5832 17.4685 11.5832H5.40436C2.41965 11.5832 6.57807e-07 13.9475 5.27341e-07 16.864L0 28.6524C-1.30462e-07 31.5688 2.41965 33.9332 5.40436 33.9332H17.4685C20.4532 33.9325 22.8729 31.5682 22.8729 28.6517Z" fill="#39BFAD"/>
<path d="M22.8729 5.78998C22.8729 2.59071 20.2183 -0.00320374 16.9435 -0.00320388L5.92871 -0.00320435C2.6546 -0.00320449 1.43115e-07 2.59071 0 5.78998C-1.43115e-07 8.98927 2.6546 11.5832 5.92871 11.5832H16.9435C20.2183 11.5832 22.8729 8.98991 22.8729 5.78998Z" fill="#E26BA7"/>
<path d="M34.7238 16.553V5.78998C34.7238 2.59071 32.0692 -0.0032042 28.795 -0.00320435C25.5209 -0.00320449 22.8663 2.59071 22.8663 5.78998V16.553C22.8663 19.7522 25.5209 22.3461 28.795 22.3461C32.0692 22.3461 34.7238 19.7522 34.7238 16.553Z" fill="#39BFAD"/>
<path d="M34.7159 28.444C34.8944 25.008 32.0062 22.1858 28.4899 22.3602C25.4789 22.509 23.033 24.8996 22.8801 27.8411C22.7023 31.2771 25.5905 34.0992 29.1061 33.9248C32.1171 33.7761 34.5636 31.3854 34.7159 28.444Z" fill="#E26BA7"/>
</g>
<defs>
<clipPath id="clip0_1_2">
<rect width="126" height="37" fill="white"/>
</clipPath>
</defs>
</svg>
