<svg width="1920" height="577" viewBox="0 0 1920 577" fill="none" xmlns="http://www.w3.org/2000/svg">
<path d="M970.475 174.205C938.814 174.205 914.424 190.295 899.893 217.806C889.513 188.745 863.783 174.205 830.042 174.205C802.531 174.205 781.26 187.185 767.24 210.535V180.655H709.849V433.181H767.24V292.538C767.24 248.426 784.89 225.586 813.431 225.586C839.902 225.586 851.832 241.986 851.832 275.197V433.181H908.194L906.634 284.227C906.634 241.676 925.834 225.576 952.825 225.576C978.255 225.576 990.196 241.976 990.196 275.187V433.171H1048.11L1047.07 259.307C1047.07 202.755 1018.22 174.205 970.475 174.205Z" fill="#1A1A1A"/>
<path d="M1193.08 174.945C1136.15 174.945 1088.03 209.615 1091.13 272.237L1144.43 276.377C1141.84 243.776 1159.96 223.066 1194.63 223.066C1225.68 223.066 1243.79 239.626 1243.79 261.887V271.197L1185.83 281.027C1122.18 291.378 1090.61 318.288 1090.61 366.42C1090.61 403.68 1119.07 440.941 1176 440.941C1207.57 440.941 1231.89 425.421 1243.79 404.201V433.181H1297.09V264.987C1297.1 209.615 1259.83 174.945 1193.08 174.945ZM1243.79 327.609C1243.79 364.869 1220.5 389.71 1186.86 389.71C1161.51 389.71 1144.42 377.81 1144.42 359.689C1144.42 338.989 1163.05 329.669 1194.1 323.978L1243.78 315.698V327.609H1243.79Z" fill="#1A1A1A"/>
<path d="M1347.21 90.3423V433.181H1404.13V90.3423H1347.21Z" fill="#1A1A1A"/>
<path d="M1815.98 174.945C1759.05 174.945 1710.92 209.615 1714.02 272.237L1767.33 276.377C1764.74 243.776 1782.85 223.066 1817.53 223.066C1848.58 223.066 1866.69 239.626 1866.69 261.887V271.197L1808.73 281.027C1745.07 291.378 1713.5 318.288 1713.5 366.42C1713.5 403.68 1741.97 440.941 1798.9 440.941C1830.47 440.941 1854.79 425.421 1866.7 404.201V433.181H1920V264.987C1920 209.615 1882.74 174.945 1815.98 174.945ZM1866.7 327.609C1866.7 364.869 1843.41 389.71 1809.77 389.71C1784.41 389.71 1767.33 377.81 1767.33 359.689C1767.33 338.989 1785.96 329.669 1817.01 323.978L1866.69 315.698V327.609H1866.7Z" fill="#1A1A1A"/>
<path d="M1606.11 408.491H1516.6C1501.16 408.491 1491.79 400.11 1491.79 390.06C1491.79 378.33 1500.61 371.07 1514.95 371.07H1569.16C1622.65 371.07 1666.76 328.629 1666.76 275.577C1666.76 254.917 1660.7 238.156 1648.01 222.526L1695.32 224.826L1695.44 180.635H1636.44C1614.39 180.635 1599.5 177.995 1583.77 176.775C1576.09 175.565 1567.99 174.935 1559.54 174.935C1490.16 174.935 1452.26 213.446 1452.26 273.337C1452.26 301.258 1464.39 324.158 1484.8 343.149C1457.78 347.619 1439.03 369.96 1439.03 391.73C1439.03 407.921 1446.2 423.561 1461.64 433.051C1439.03 448.692 1429.11 469.912 1429.11 496.713C1429.11 543.064 1464.95 576.015 1531.67 576.015H1592.88C1652.44 576.015 1696.55 541.944 1696.55 488.893C1696.54 441.441 1661.25 408.491 1606.11 408.491ZM1559.24 220.696C1596.96 220.696 1609.97 245.826 1609.97 273.897C1609.97 301.968 1595.67 327.099 1559.24 327.099C1522.81 327.099 1508.51 301.968 1508.51 273.897C1508.51 245.836 1521.52 220.696 1559.24 220.696ZM1595.63 529.114H1532.22C1502.45 529.114 1487.55 512.923 1487.55 492.253C1487.55 476.052 1494.17 454.832 1529.46 454.832H1596.73C1622.65 454.832 1638.64 468.792 1638.64 490.013C1638.64 514.593 1621.55 529.114 1595.63 529.114Z" fill="#1A1A1A"/>
<path d="M348.539 446.812L348.539 262.987C348.539 217.506 311.668 180.635 266.187 180.635L82.3521 180.635C36.8709 180.635 -1.61168e-06 217.506 -3.59973e-06 262.987L-1.16354e-05 446.822C-1.36234e-05 492.303 36.8709 529.174 82.3521 529.174L266.187 529.174C311.668 529.164 348.539 492.293 348.539 446.812Z" fill="#39BFAD"/>
<path d="M348.539 90.2923C348.539 40.401 308.088 -0.0500201 258.187 -0.0500223L90.3423 -0.0500296C40.451 -0.0500318 2.87494e-05 40.401 2.65686e-05 90.2923C2.43878e-05 140.184 40.451 180.635 90.3423 180.635L258.187 180.635C308.088 180.635 348.539 140.194 348.539 90.2923Z" fill="#E26BA7"/>
<path d="M529.124 258.137L529.124 90.2923C529.124 40.401 488.673 -0.0500124 438.781 -0.0500146C388.89 -0.0500168 348.439 40.401 348.439 90.2923L348.439 258.137C348.439 308.028 388.89 348.479 438.781 348.479C488.673 348.479 529.124 308.028 529.124 258.137Z" fill="#39BFAD"/>
<path d="M529.004 443.572C531.724 389.99 487.713 345.979 434.131 348.699C388.25 351.019 350.979 388.3 348.649 434.171C345.939 487.753 389.95 531.764 443.522 529.044C489.403 526.724 526.684 489.443 529.004 443.572Z" fill="#E26BA7"/>
</svg>
