<svg width="50" height="50" viewBox="0 0 150 150" fill="none" xmlns="http://www.w3.org/2000/svg">
<g clip-path="url(#clip0_1_6)">
<path d="M0 30C0 13.4315 13.4315 0 30 0H120C136.569 0 150 13.4315 150 30V120C150 136.569 136.569 150 120 150H30C13.4315 150 0 136.569 0 120V30Z" fill="white"/>
<path fill-rule="evenodd" clip-rule="evenodd" d="M120 3H30C15.0883 3 3 15.0883 3 30V120C3 134.912 15.0883 147 30 147H120C134.912 147 147 134.912 147 120V30C147 15.0883 134.912 3 120 3ZM30 0C13.4315 0 0 13.4315 0 30V120C0 136.569 13.4315 150 30 150H120C136.569 150 150 136.569 150 120V30C150 13.4315 136.569 0 120 0H30Z" fill="#DDDDE0"/>
<path opacity="0.933" fill-rule="evenodd" clip-rule="evenodd" d="M86.1893 64.6874C87.9992 63.6257 89.8737 62.7377 91.813 62.0235C93.1944 61.7275 94.5755 61.4315 95.9569 61.1355C95.9569 61.3329 96.0554 61.4315 96.2528 61.4315C96.7232 61.9661 97.3151 62.3606 98.0288 62.6155C100.88 62.2467 103.741 61.9015 106.612 61.5795C104.915 60.6661 104.422 59.3833 105.132 57.7317C107.106 57.6275 108.34 58.5649 108.832 60.5435C109.111 58.2869 110.344 57.251 112.532 57.4357C113.028 58.7957 112.732 59.9797 111.644 60.9875C112.806 60.8342 113.99 60.8342 115.196 60.9875C116.033 61.734 115.934 62.326 114.9 62.7634C113.653 63.0112 112.469 63.4057 111.348 63.9474C112.809 65.3489 114.092 66.8783 115.196 68.5352C113.926 68.1569 112.643 67.861 111.348 67.6472C110.78 66.8129 110.139 66.0235 109.424 65.2793C108.261 66.524 107.324 67.9053 106.612 69.4232C106.415 69.4232 106.316 69.5217 106.316 69.7192C106.119 69.7192 106.02 69.8177 106.02 70.0152C105.823 70.0152 105.724 70.1137 105.724 70.3111C105.626 70.5086 105.527 70.7057 105.428 70.9031C105.231 70.9031 105.132 71.0017 105.132 71.1991C104.935 71.1991 104.836 71.2977 104.836 71.4951C103.612 72.3552 102.329 73.1446 100.989 73.863C100.809 73.8263 100.71 73.7277 100.693 73.567C102.453 70.8679 104.278 68.204 106.168 65.5753C106.366 65.3779 106.366 65.1808 106.168 64.9834C102.681 65.9418 99.1781 66.8792 95.6609 67.7952C93.9746 68.5917 92.5441 69.7266 91.369 71.1991C88.8901 74.7652 86.0783 78.0705 82.9334 81.1147C79.4111 84.0698 75.3659 85.1552 70.7979 84.3706C66.8527 83.0889 62.9063 81.8061 58.9584 80.5227C55.3242 79.9763 51.6735 79.6309 48.0068 79.4868C47.9435 79.0002 48.0423 78.5562 48.3028 78.1548C52.9113 76.8581 57.5486 75.6741 62.2142 74.603C62.3797 74.3884 62.4783 74.1418 62.5102 73.863C62.0568 71.7165 61.8594 69.5457 61.9183 67.3513C63.0939 67.7801 64.0807 68.5201 64.8781 69.5712C65.1493 69.6819 65.3961 69.8299 65.6181 70.0152C64.8305 68.344 63.9425 66.6666 62.9542 64.9834C62.1311 62.2635 62.575 59.7971 64.2862 57.5837C65.4689 59.9504 66.8009 62.2194 68.282 64.3914C68.0289 62.63 67.7329 60.854 67.394 59.0636C67.0983 57.0953 66.9995 55.1219 67.098 53.1438C67.6663 51.1459 68.8997 49.7648 70.7979 49C71.5136 52.9961 72.4507 56.9426 73.6098 60.8395C74.4963 63.8482 76.0256 66.463 78.1976 68.6832C80.0582 69.9784 81.933 69.9784 83.8214 68.6832C84.8005 67.4652 85.5899 66.1333 86.1893 64.6874Z" fill="#1B2E36"/>
<path opacity="0.925" fill-rule="evenodd" clip-rule="evenodd" d="M95.3649 59.3596C94.0199 60.0114 92.836 60.8993 91.813 62.0235C89.8737 62.7377 87.9992 63.6257 86.1893 64.6874C85.0195 63.4605 84.1315 62.03 83.5254 60.3955C83.7846 59.5434 84.2778 58.8526 85.0053 58.3236C87.4342 56.9147 90.0486 56.0759 92.849 55.8077C93.6156 55.771 94.3061 55.9682 94.9209 56.3997C95.3104 57.3433 95.4584 58.3301 95.3649 59.3596Z" fill="#861721"/>
<path opacity="0.952" fill-rule="evenodd" clip-rule="evenodd" d="M95.3649 59.3596C96.2188 59.269 97.0082 59.3676 97.7328 59.6556C97.0316 60.0078 96.4396 60.5012 95.9568 61.1355C94.5755 61.4315 93.1944 61.7275 91.813 62.0235C92.836 60.8993 94.0199 60.0114 95.3649 59.3596Z" fill="#A23747"/>
<path opacity="0.504" fill-rule="evenodd" clip-rule="evenodd" d="M97.7328 59.6556C98.616 59.7405 99.0106 60.2339 98.9167 61.1355C98.0234 61.1959 97.1355 61.2945 96.2528 61.4315C96.0554 61.4315 95.9568 61.3329 95.9568 61.1355C96.4396 60.5012 97.0316 60.0078 97.7328 59.6556Z" fill="#65202B"/>
<path opacity="0.762" fill-rule="evenodd" clip-rule="evenodd" d="M120.228 70.3111C119.048 70.2661 118.604 69.6742 118.896 68.5352C119.537 67.4993 120.178 66.4633 120.82 65.4273C122.181 64.9588 122.724 65.4028 122.448 66.7593C121.876 68.0667 121.136 69.2506 120.228 70.3111Z" fill="#851720"/>
<path opacity="0.94" fill-rule="evenodd" clip-rule="evenodd" d="M111.348 67.6472C112.643 67.861 113.926 68.1569 115.196 68.5352C118.743 70.4319 120.173 73.3918 119.488 77.4148C117.866 82.1977 114.561 84.1216 109.572 83.1866C108.847 82.972 108.157 82.676 107.5 82.2986C105.841 80.462 103.769 79.4755 101.285 79.3388C100.929 79.0715 100.682 78.7264 100.545 78.3028C100.303 76.6701 100.352 75.0913 100.693 73.567C100.71 73.7277 100.809 73.8263 100.989 73.863C102.329 73.1446 103.612 72.3552 104.837 71.4951C105.034 71.4951 105.132 71.3965 105.132 71.1991C105.33 71.1991 105.428 71.1005 105.428 70.9031C105.527 70.7057 105.626 70.5086 105.724 70.3111C105.922 70.3111 106.02 70.2126 106.02 70.0152C106.218 70.0152 106.316 69.9166 106.316 69.7192C106.514 69.7192 106.612 69.6206 106.612 69.4232C108.068 68.4982 109.646 67.9062 111.348 67.6472ZM111.94 69.7192C114.799 70.2558 116.723 71.9329 117.712 74.751C117.957 75.6904 117.661 75.9864 116.824 75.6389C115.963 73.3471 114.433 71.67 112.236 70.6071C111.974 70.3629 111.875 70.0669 111.94 69.7192Z" fill="#E1E2E2"/>
<path opacity="0.775" fill-rule="evenodd" clip-rule="evenodd" d="M120.228 70.3111C122.132 69.5072 124.006 68.6193 125.852 67.6472C126.72 68.1383 126.917 68.8291 126.444 69.7192C124.668 70.6071 122.892 71.4951 121.116 72.3831C120.074 71.9802 119.778 71.2894 120.228 70.3111Z" fill="#851720"/>
<path opacity="0.736" fill-rule="evenodd" clip-rule="evenodd" d="M120.82 72.679C122.232 72.7359 123.613 72.9824 124.964 73.419C126.214 74.3523 126.115 75.0922 124.668 75.6389C123.209 75.4365 121.877 74.9431 120.672 74.159C120.482 73.6366 120.532 73.1432 120.82 72.679Z" fill="#851720"/>
<path opacity="0.779" fill-rule="evenodd" clip-rule="evenodd" d="M98.3248 73.567C98.8114 73.5037 99.2553 73.6025 99.6567 73.863C99.8541 75.5404 99.8541 77.2174 99.6567 78.8948C99.1449 79.4672 98.553 79.4672 97.8808 78.8948C97.6834 77.3163 97.6834 75.7375 97.8808 74.159C98.093 73.998 98.241 73.8005 98.3248 73.567Z" fill="#1A2D35"/>
<path opacity="0.643" fill-rule="evenodd" clip-rule="evenodd" d="M95.6609 74.751C97.335 74.8596 97.8775 75.7475 97.2888 77.4148C96.8513 78.4487 96.2593 78.5473 95.5129 77.7108C95.2918 76.6974 95.3412 75.7108 95.6609 74.751Z" fill="#1C2F36"/>
<path opacity="0.895" fill-rule="evenodd" clip-rule="evenodd" d="M19 82.7426C20.5908 82.6455 22.1694 82.7441 23.7358 83.0386C24.4862 85.0596 25.3248 87.033 26.2517 88.9584C26.9533 86.9155 27.6933 84.8927 28.4716 82.8906C30.146 82.7429 31.8234 82.6935 33.5034 82.7426C33.5034 88.8598 33.5034 94.9767 33.5034 101.094C31.9249 101.094 30.3462 101.094 28.7676 101.094C28.775 97.5352 28.8244 93.9834 28.9156 90.4383C28.1199 93.0735 27.1826 95.6385 26.1037 98.134C25.1808 96.0082 24.3422 93.8377 23.5878 91.6223C23.4399 94.7778 23.3905 97.9351 23.4398 101.094C21.9599 101.094 20.4799 101.094 19 101.094C19 94.9767 19 88.8598 19 82.7426Z" fill="#1C2F36"/>
<path opacity="0.895" fill-rule="evenodd" clip-rule="evenodd" d="M38.5352 82.7426C40.0927 82.6523 41.6218 82.7512 43.123 83.0386C44.685 89.0546 46.214 95.0732 47.7108 101.094C46.0335 101.094 44.3564 101.094 42.679 101.094C42.592 100.028 42.3949 98.9924 42.0871 97.986C41.0061 97.8383 39.921 97.7892 38.8312 97.838C38.854 98.9376 38.7554 100.023 38.5352 101.094C36.9567 101.094 35.3779 101.094 33.7994 101.094C35.1977 94.9267 36.7762 88.8098 38.5352 82.7426ZM40.3111 89.8463C40.6643 89.9854 40.8617 90.2814 40.9031 90.7343C41.1011 91.8235 41.2986 92.9086 41.4951 93.9902C40.8951 94.0381 40.3031 93.9887 39.7192 93.8422C40.1697 92.5579 40.3671 91.2259 40.3111 89.8463Z" fill="#1C2F36"/>
<path opacity="0.912" fill-rule="evenodd" clip-rule="evenodd" d="M48.0068 82.7426C49.5853 82.7426 51.1641 82.7426 52.7426 82.7426C53.6483 85.6075 54.5854 88.4688 55.5545 91.3263C55.7025 88.4667 55.7516 85.6054 55.7025 82.7426C57.1824 82.7426 58.6624 82.7426 60.1423 82.7426C60.1423 88.8598 60.1423 94.9767 60.1423 101.094C58.5514 101.191 56.9729 101.092 55.4065 100.798C54.4691 98.134 53.532 95.4701 52.5946 92.8062C52.4466 95.5669 52.3975 98.3296 52.4466 101.094C50.9667 101.094 49.4868 101.094 48.0068 101.094C48.0068 94.9767 48.0068 88.8598 48.0068 82.7426Z" fill="#1C2F36"/>
<path opacity="0.924" fill-rule="evenodd" clip-rule="evenodd" d="M87.3732 82.7426C90.0389 82.6935 92.7028 82.7426 95.3649 82.8906C98.6509 84.2886 99.4898 86.607 97.8808 89.8463C97.4241 90.4022 96.8815 90.8462 96.2528 91.1783C98.7856 91.7386 99.9696 93.3171 99.8047 95.9141C99.7979 98.094 98.8111 99.6725 96.8448 100.65C93.7109 101.073 90.5536 101.221 87.3732 101.094C87.3614 94.924 87.3614 88.8068 87.3732 82.7426ZM91.813 86.5905C93.6106 86.4629 94.252 87.252 93.7369 88.9584C93.2776 89.3923 92.7347 89.6883 92.109 89.8463C91.8163 88.7787 91.7174 87.6933 91.813 86.5905ZM91.813 93.3982C95.0372 93.2058 95.8263 94.4392 94.1809 97.098C93.3977 97.2451 92.6083 97.2946 91.813 97.246C91.813 95.9635 91.813 94.6807 91.813 93.3982Z" fill="#861620"/>
<path opacity="0.905" fill-rule="evenodd" clip-rule="evenodd" d="M100.397 82.7426C102.471 82.6935 104.543 82.7426 106.612 82.8906C107.809 84.1794 109.289 84.8205 111.052 84.8145C111.052 85.5051 111.052 86.1959 111.052 86.8865C109.079 86.8865 107.106 86.8865 105.132 86.8865C105.132 87.873 105.132 88.8598 105.132 89.8463C112.631 89.8463 120.129 89.8463 127.628 89.8463C127.678 89.455 127.579 89.1096 127.332 88.8104C128.811 89.3648 129.995 90.3513 130.883 91.7703C129.928 92.7506 128.941 93.7374 127.924 94.7301C127.726 94.9276 127.529 94.9276 127.332 94.7301C127.579 94.4309 127.678 94.0855 127.628 93.6942C120.129 93.6942 112.631 93.6942 105.132 93.6942C105.132 94.8781 105.132 96.0621 105.132 97.246C107.106 97.246 109.079 97.246 111.052 97.246C111.052 98.5285 111.052 99.8114 111.052 101.094C107.5 101.094 103.949 101.094 100.397 101.094C100.397 94.9767 100.397 88.8598 100.397 82.7426Z" fill="#851720"/>
<path opacity="0.893" fill-rule="evenodd" clip-rule="evenodd" d="M121.708 82.7426C123.385 82.7426 125.062 82.7426 126.74 82.7426C126.74 84.8145 126.74 86.8865 126.74 88.9584C124.363 89.0563 121.995 88.9578 119.636 88.6624C120.333 86.6799 121.023 84.7065 121.708 82.7426Z" fill="#851720"/>
<path opacity="0.872" fill-rule="evenodd" clip-rule="evenodd" d="M116.676 83.0386C116.971 83.0132 117.217 83.112 117.416 83.3346C118.137 85.2985 118.729 87.2715 119.192 89.2544C116.899 88.9637 114.58 88.8651 112.236 88.9584C112.236 87.577 112.236 86.1959 112.236 84.8145C113.367 84.7835 114.452 84.5369 115.492 84.0746C116.032 83.8792 116.426 83.5338 116.676 83.0386Z" fill="#851720"/>
<path opacity="0.884" fill-rule="evenodd" clip-rule="evenodd" d="M61.6223 83.3346C63.2161 83.8831 64.7947 84.5245 66.3581 85.2585C68.5993 85.8129 70.8683 86.2075 73.1658 86.4425C74.9006 90.9643 74.4566 95.2561 71.8338 99.318C71.0749 99.9771 70.2364 100.52 69.3179 100.946C66.7547 101.094 64.1894 101.143 61.6223 101.094C61.6223 95.1741 61.6223 89.2544 61.6223 83.3346ZM66.3581 86.5905C67.1549 86.7411 67.8948 87.0371 68.578 87.4784C69.5642 90.3362 69.5642 93.1972 68.578 96.0621C68.0703 96.9196 67.3304 97.3144 66.3581 97.246C66.3581 93.6942 66.3581 90.1423 66.3581 86.5905Z" fill="#1C2F36"/>
<path opacity="0.894" fill-rule="evenodd" clip-rule="evenodd" d="M81.7494 84.2226C82.0454 84.2226 82.3414 84.2226 82.6374 84.2226C84.0232 89.7658 85.5032 95.291 87.0772 100.798C85.3999 101.192 83.7228 101.192 82.0454 100.798C81.7344 99.8339 81.5369 98.8473 81.4535 97.838C80.3681 97.838 79.283 97.838 78.1976 97.838C78.1313 98.9269 78.0324 100.012 77.9016 101.094C76.2216 101.143 74.5442 101.094 72.8698 100.946C74.1763 95.9668 75.5082 90.9844 76.8656 85.9985C78.6182 85.6812 80.2461 85.0892 81.7494 84.2226ZM79.6775 88.9584C80.1245 90.5463 80.519 92.1743 80.8615 93.8422C80.2775 93.9887 79.6855 94.0381 79.0856 93.9902C79.4991 92.3412 79.6965 90.6639 79.6775 88.9584Z" fill="#1B2F37"/>
<path opacity="0.889" fill-rule="evenodd" clip-rule="evenodd" d="M112.236 94.5821C113.716 94.5821 115.196 94.5821 116.676 94.5821C116.676 96.7526 116.676 98.9234 116.676 101.094C115.196 101.094 113.716 101.094 112.236 101.094C112.236 98.9234 112.236 96.7526 112.236 94.5821Z" fill="#851720"/>
<path opacity="0.697" fill-rule="evenodd" clip-rule="evenodd" d="M117.86 94.5821C118.963 94.4865 120.048 94.5854 121.116 94.8781C120.583 96.1201 120.189 97.4029 119.932 98.726C119.636 98.726 119.34 98.726 119.044 98.726C118.709 97.3277 118.315 95.9463 117.86 94.5821Z" fill="#851720"/>
<path opacity="0.889" fill-rule="evenodd" clip-rule="evenodd" d="M122.3 94.5821C123.78 94.5821 125.26 94.5821 126.74 94.5821C126.74 96.7526 126.74 98.9234 126.74 101.094C125.26 101.094 123.78 101.094 122.3 101.094C122.3 98.9234 122.3 96.7526 122.3 94.5821Z" fill="#851720"/>
</g>
<defs>
<clipPath id="clip0_1_6">
<rect width="150" height="150" fill="white"/>
</clipPath>
</defs>
</svg>
