<svg width="23" height="23" viewBox="0 0 23 23" fill="none" xmlns="http://www.w3.org/2000/svg">
<mask id="mask0_1258_21" style="mask-type:alpha" maskUnits="userSpaceOnUse" x="0" y="0" width="23" height="23">
<rect width="23" height="23" fill="white"/>
</mask>
<g mask="url(#mask0_1258_21)">
<path d="M15.6665 3.16667C17.0472 3.16667 18.1665 4.28596 18.1665 5.66667V9.83366H16.5005V5.66667C16.5005 5.20643 16.1267 4.83366 15.6665 4.83366H7.3335C6.87326 4.83366 6.50049 5.20643 6.50049 5.66667V17.3337C6.50066 17.7938 6.87337 18.1667 7.3335 18.1667H8.1665V19.8337H7.3335C5.95289 19.8337 4.83367 18.7142 4.8335 17.3337V5.66667C4.8335 4.28596 5.95278 3.16667 7.3335 3.16667H15.6665ZM15.144 13.2126C15.9413 12.5486 17.1133 12.6012 17.8472 13.3346C18.6817 14.1692 18.619 15.541 17.7124 16.2966L13.7007 19.6403C13.5509 19.7651 13.3615 19.8337 13.1665 19.8337H11.5005C11.0403 19.8337 10.6665 19.4599 10.6665 18.9997V17.3337C10.6665 17.0864 10.7764 16.8514 10.9663 16.693L15.144 13.2126ZM16.6685 14.5134C16.544 14.3893 16.3455 14.3804 16.2104 14.4928L12.3335 17.7243V18.1667H12.8638L16.646 15.0153C16.7995 14.8871 16.8099 14.6548 16.6685 14.5134ZM9.00049 13.9997C9.46058 13.9999 9.8335 14.3735 9.8335 14.8337C9.83332 15.2936 9.46047 15.6665 9.00049 15.6667C8.54036 15.6667 8.16668 15.2938 8.1665 14.8337C8.1665 14.3734 8.54025 13.9997 9.00049 13.9997ZM9.00049 10.6667C9.46047 10.6668 9.83332 11.0397 9.8335 11.4997C9.8335 11.9598 9.46058 12.3335 9.00049 12.3337C8.54025 12.3337 8.1665 11.9599 8.1665 11.4997C8.16668 11.0396 8.54036 10.6667 9.00049 10.6667ZM14.8335 12.3337H11.5005V10.6667H14.8335V12.3337ZM9.00049 7.33366C9.46058 7.33384 9.8335 7.70654 9.8335 8.16667C9.8335 8.6268 9.46058 8.9995 9.00049 8.99968C8.54025 8.99968 8.1665 8.62691 8.1665 8.16667C8.1665 7.70643 8.54025 7.33366 9.00049 7.33366ZM14.8335 8.99968H11.5005V7.33366H14.8335V8.99968Z" fill="#221D25"/>
</g>
</svg>
