<svg width="50" height="50" viewBox="0 0 50 50" fill="none" xmlns="http://www.w3.org/2000/svg">
<g clip-path="url(#clip0_2170_3271)">
<rect width="50" height="50" rx="10" fill="white"/>
<rect width="50" height="50" rx="10" fill="#00AFF0"/>
<path d="M40 24.4342C40 19.027 33.2805 14.6152 25 14.6152C16.7195 14.6152 10 19.027 10 24.4342C10 24.57 10 24.9546 10 24.9998C10 30.7465 15.8824 35.3845 25 35.3845C34.1855 35.3845 40 30.7465 40 24.9998C40 24.7962 40 24.6831 40 24.4342Z" fill="#253E8A"/>
<path d="M39.4352 24.434C39.4352 29.5245 32.9646 33.6648 25.0008 33.6648C17.037 33.6648 10.5664 29.5245 10.5664 24.434C10.5664 19.3435 17.037 15.2032 25.0008 15.2032C32.9646 15.1806 39.4352 19.3209 39.4352 24.434Z" fill="#00ADEE"/>
<path d="M20.2013 21.5158C20.2013 21.5384 20.0429 21.6742 20.1334 21.8099C20.3596 22.104 21.061 22.2624 21.785 22.104C22.2148 22.0135 22.7578 21.5837 23.2782 21.1538C23.8438 20.7013 24.4094 20.2488 24.975 20.0678C25.5859 19.8868 25.9705 19.9547 26.2194 20.0452C26.4909 20.1357 26.8302 20.3167 27.3506 20.7013C28.3461 21.4479 32.3053 24.9094 32.9841 25.4977C33.5271 25.2488 35.9931 24.1855 39.3189 23.4615C39.0248 21.6742 37.9388 20.0452 36.3099 18.733C34.0248 19.6832 31.2194 20.2036 28.5044 18.8687C28.4818 18.8687 27.0112 18.1674 25.5406 18.19C23.3687 18.2352 22.4411 19.1855 21.4456 20.1809L20.2013 21.5158Z" fill="white"/>
<path d="M32.8446 25.884C32.7994 25.8388 28.184 21.789 27.1207 21.0198C26.5098 20.5673 26.1704 20.4542 25.8311 20.4089C25.6501 20.3863 25.4012 20.4089 25.2202 20.4768C24.7225 20.6125 24.089 21.0424 23.5234 21.4949C22.9351 21.97 22.3921 22.3999 21.8718 22.513C21.2157 22.6487 20.4238 22.4904 20.0618 22.2415C19.9035 22.151 19.813 22.0379 19.7677 21.9021C19.632 21.5854 19.8808 21.3365 19.9261 21.2913L21.1931 19.9112C21.3514 19.7528 21.4872 19.6171 21.6455 19.4587C21.2383 19.5039 20.8537 19.6171 20.4917 19.7302C20.0392 19.8659 19.5867 19.9791 19.1342 19.9791C18.9532 19.9791 17.9351 19.8207 17.7541 19.7528C16.6003 19.4361 15.5822 19.1193 14.0664 18.418C12.2564 19.7754 11.0347 21.4496 10.6953 23.3048C10.9668 23.3727 11.374 23.5085 11.555 23.5311C15.6501 24.4361 16.9397 25.3863 17.1659 25.5899C17.4148 25.3184 17.7768 25.1374 18.184 25.1374C18.6365 25.1374 19.0437 25.3637 19.2926 25.7257C19.5188 25.5447 19.8582 25.3863 20.2654 25.3863C20.4464 25.3863 20.6501 25.4315 20.8537 25.4994C21.3062 25.6578 21.555 25.9745 21.6908 26.246C21.8492 26.1781 22.0302 26.1329 22.2564 26.1329C22.4826 26.1329 22.7089 26.1781 22.9351 26.2913C23.6817 26.608 23.8175 27.3546 23.7496 27.9202C23.7949 27.9202 23.8627 27.9202 23.908 27.9202C24.813 27.9202 25.5369 28.6442 25.5369 29.5492C25.5369 29.8207 25.4691 30.0922 25.3333 30.3184C25.5822 30.4542 26.1931 30.7709 26.736 30.703C27.1659 30.6578 27.3469 30.4994 27.3921 30.4089C27.4374 30.341 27.4826 30.2732 27.4374 30.2279L26.2835 28.9383C26.2835 28.9383 26.1026 28.7573 26.1478 28.6895C26.2157 28.6216 26.3288 28.7121 26.4193 28.78C27.0075 29.2777 27.7315 30.0243 27.7315 30.0243C27.7541 30.0243 27.7994 30.1374 28.0483 30.1827C28.2745 30.2279 28.6817 30.2053 28.9532 29.9791C29.0211 29.9112 29.089 29.8433 29.1569 29.7754C29.1569 29.7754 29.1568 29.7754 29.1342 29.7754C29.4283 29.3908 29.1116 29.0062 29.1116 29.0062L27.7541 27.4904C27.7541 27.4904 27.5505 27.3094 27.6184 27.2415C27.6863 27.1736 27.7994 27.2641 27.8899 27.3546C28.3197 27.7166 28.9306 28.3275 29.4962 28.8931C29.6093 28.9836 30.1297 29.3003 30.7858 28.8478C31.193 28.5763 31.2835 28.2596 31.2609 28.0107C31.2383 27.6714 30.9668 27.4451 30.9668 27.4451L29.1116 25.5899C29.1116 25.5899 28.908 25.4315 28.9759 25.341C29.0211 25.2732 29.1568 25.3637 29.2473 25.4315C29.8356 25.9293 31.4193 27.3772 31.4193 27.3772C31.4419 27.3999 31.9849 27.7845 32.6636 27.3546C32.9125 27.1962 33.0709 26.97 33.0709 26.6985C33.184 26.1555 32.8446 25.884 32.8446 25.884Z" fill="white"/>
<path d="M23.8827 28.2348C23.5886 28.2348 23.2945 28.3932 23.2492 28.3705C23.2266 28.3479 23.2718 28.2348 23.2945 28.1669C23.3171 28.099 23.7017 26.9678 22.7741 26.5832C22.0728 26.2891 21.6429 26.6285 21.4845 26.7642C21.4393 26.8095 21.4393 26.8095 21.4166 26.7416C21.394 26.538 21.3035 25.995 20.7153 25.7914C19.8556 25.5199 19.2899 26.1307 19.1542 26.357C19.0863 25.8592 18.6791 25.4746 18.1587 25.4746C17.5931 25.4746 17.1406 25.9271 17.1406 26.4701C17.1406 27.0357 17.5931 27.4882 18.1587 27.4882C18.4302 27.4882 18.6791 27.3751 18.8601 27.2167C18.8601 27.2167 18.8601 27.2393 18.8601 27.2619C18.8148 27.5108 18.747 28.4158 19.6972 28.7778C20.0818 28.9361 20.3985 28.823 20.67 28.6194C20.7605 28.5742 20.7605 28.5968 20.7605 28.6647C20.7153 28.8909 20.7605 29.3886 21.4619 29.6828C21.9823 29.909 22.299 29.6828 22.5252 29.4791C22.6157 29.3886 22.6384 29.4113 22.6384 29.547C22.661 30.2257 23.2266 30.7461 23.9053 30.7461C24.6067 30.7461 25.1723 30.1805 25.1723 29.4791C25.1497 28.8004 24.5841 28.2348 23.8827 28.2348Z" fill="white"/>
<path d="M33.0333 25.3845C31.6079 24.1402 28.3274 21.2895 27.4224 20.6108C26.9021 20.2262 26.5627 20.0225 26.2686 19.932C26.1328 19.8868 25.9518 19.8415 25.703 19.8415C25.4767 19.8415 25.2279 19.8868 24.979 19.9547C24.4134 20.1357 23.8251 20.5881 23.2822 21.0406L23.2595 21.0633C22.7392 21.4705 22.2188 21.9004 21.8116 21.9909C21.6306 22.0361 21.4496 22.0587 21.2686 22.0587C20.8161 22.0587 20.4088 21.923 20.2505 21.742C20.2279 21.7194 20.2505 21.6515 20.2957 21.5836L21.5401 20.2262C22.5129 19.2533 23.4405 18.3257 25.5898 18.2805C25.6351 18.2805 25.6577 18.2805 25.703 18.2805C27.0378 18.2805 28.35 18.8687 28.5084 18.9366C29.7527 19.5474 31.0423 19.8415 32.3319 19.8642C33.6894 19.8642 35.0695 19.5248 36.5174 18.8687C36.3591 18.7329 36.1781 18.5972 36.0197 18.4615C34.7301 19.0271 33.5084 19.2986 32.3319 19.2986C31.1328 19.2986 29.9337 19.0044 28.7573 18.4388C28.6894 18.4162 27.2414 17.7148 25.703 17.7148C25.6577 17.7148 25.6125 17.7148 25.5898 17.7148C23.8025 17.7601 22.7844 18.3936 22.1057 18.9592C21.4496 18.9818 20.884 19.1402 20.3636 19.2759C19.9111 19.4117 19.5265 19.5022 19.1419 19.5022C18.9835 19.5022 18.712 19.4795 18.6668 19.4795C18.2369 19.4569 16.0197 18.9139 14.2776 18.2578C14.0966 18.3936 13.9156 18.5067 13.7573 18.6424C15.5898 19.3891 17.8297 19.9773 18.531 20.0225C18.7346 20.0452 18.9383 20.0678 19.1419 20.0678C19.617 20.0678 20.0695 19.932 20.522 19.8189C20.7935 19.751 21.0876 19.6605 21.3817 19.6153C21.2912 19.7058 21.2233 19.7737 21.1328 19.8642L19.8659 21.2443C19.7754 21.3348 19.5491 21.6062 19.6849 21.9456C19.7527 22.0814 19.8659 22.2171 20.0242 22.3076C20.3184 22.5112 20.8613 22.647 21.3817 22.647C21.5627 22.647 21.7437 22.6243 21.9247 22.6017C22.4677 22.4886 23.0107 22.0361 23.6215 21.561C24.0966 21.1764 24.7754 20.7013 25.2731 20.5655C25.4088 20.5203 25.5898 20.4976 25.7256 20.4976C25.7708 20.4976 25.8161 20.4976 25.8387 20.4976C26.1781 20.5429 26.5174 20.656 27.0831 21.0859C28.1238 21.8777 32.7392 25.9049 32.7844 25.9501C32.7844 25.9501 33.0785 26.199 33.0559 26.6289C33.0559 26.8551 32.9202 27.0814 32.6939 27.2171C32.4903 27.3529 32.2867 27.3981 32.0831 27.3981C31.7663 27.3981 31.5627 27.2624 31.5401 27.2397C31.5174 27.2171 29.9337 25.7691 29.3455 25.294C29.255 25.2262 29.1645 25.1583 29.074 25.1583C29.0288 25.1583 28.9835 25.1809 28.9609 25.2262C28.8704 25.3393 28.9609 25.4976 29.0966 25.5881L30.9518 27.4434C30.9518 27.4434 31.1781 27.6696 31.2007 27.9411C31.2233 28.2578 31.065 28.5067 30.7708 28.7103C30.5446 28.8461 30.341 28.9366 30.1147 28.9366C29.8206 28.9366 29.6396 28.8008 29.5944 28.7782L29.3229 28.5067C28.8478 28.0316 28.3274 27.5338 27.9654 27.2397C27.8749 27.1719 27.7844 27.104 27.6939 27.104C27.6487 27.104 27.6034 27.1266 27.5808 27.1492C27.5355 27.1945 27.5129 27.285 27.6034 27.4207C27.6487 27.4886 27.6939 27.5338 27.6939 27.5338L29.0514 29.0497C29.0514 29.0723 29.3229 29.3891 29.074 29.7058L29.0288 29.7737C28.9835 29.8189 28.9383 29.8642 28.893 29.8868C28.6668 30.0678 28.35 30.0904 28.2369 30.0904C28.169 30.0904 28.1012 30.0904 28.0559 30.0678C27.9202 30.0452 27.8297 29.9999 27.7844 29.9547L27.7618 29.932C27.6939 29.8642 27.0152 29.1628 26.4496 28.6877C26.3817 28.6198 26.2912 28.5519 26.1781 28.5519C26.1328 28.5519 26.0876 28.5746 26.065 28.5972C25.9518 28.7103 26.1102 28.8913 26.2007 28.9592L27.3546 30.2262C27.3546 30.2262 27.3319 30.2714 27.3093 30.294C27.2641 30.3619 27.1283 30.4976 26.7211 30.5429C26.6758 30.5429 26.6079 30.5429 26.5627 30.5429C26.1328 30.5429 25.6803 30.3393 25.4315 30.2035C25.5446 29.9773 25.5898 29.7284 25.5898 29.4795C25.5898 28.5293 24.8206 27.7601 23.8704 27.7601C23.8478 27.7601 23.8251 27.7601 23.8025 27.7601C23.8251 27.3302 23.7799 26.5157 22.9202 26.1538C22.6713 26.0406 22.445 25.9954 22.1962 25.9954C22.0152 25.9954 21.8342 26.018 21.6758 26.0859C21.4948 25.7465 21.2233 25.4976 20.8387 25.3619C20.6351 25.294 20.4315 25.2488 20.2279 25.2488C19.8885 25.2488 19.5491 25.3619 19.2776 25.5655C19.0061 25.2262 18.5763 25.0225 18.1464 25.0225C17.7618 25.0225 17.3998 25.1809 17.1283 25.4524C16.7663 25.1809 15.341 24.2759 11.5401 23.4162C11.3591 23.371 10.9292 23.2578 10.6803 23.1673C10.6351 23.371 10.6125 23.5746 10.5898 23.8008C10.5898 23.8008 11.2912 23.9592 11.4269 24.0044C15.3184 24.8642 16.6079 25.7691 16.8116 25.9275C16.7437 26.1085 16.6984 26.2895 16.6984 26.4931C16.6984 27.285 17.3545 27.9411 18.1464 27.9411C18.2369 27.9411 18.3274 27.9411 18.4179 27.9185C18.531 28.5067 18.9156 28.9592 19.5265 29.1854C19.7075 29.2533 19.8659 29.2759 20.0469 29.2759C20.16 29.2759 20.2731 29.2533 20.3862 29.2307C20.4993 29.5022 20.7482 29.8642 21.2912 30.0678C21.4948 30.1357 21.6758 30.1809 21.8568 30.1809C22.0152 30.1809 22.1509 30.1583 22.3093 30.113C22.5808 30.7465 23.1917 31.1764 23.893 31.1764C24.3455 31.1764 24.798 30.9954 25.1147 30.656C25.3862 30.8144 25.9745 31.0859 26.5627 31.0859C26.6306 31.0859 26.7211 31.0859 26.7889 31.0633C27.3772 30.9954 27.6487 30.7691 27.7844 30.5881C27.807 30.5655 27.8297 30.5203 27.8523 30.4976C27.988 30.5429 28.1464 30.5655 28.3274 30.5655C28.6441 30.5655 28.9609 30.4524 29.2776 30.2262C29.5944 29.9999 29.798 29.6832 29.8432 29.4117C29.8432 29.4117 29.8432 29.4117 29.8432 29.3891C29.9564 29.4117 30.0469 29.4117 30.16 29.4117C30.4993 29.4117 30.8161 29.2986 31.1328 29.0949C31.7211 28.7103 31.8342 28.19 31.8342 27.8506C31.9473 27.8732 32.0378 27.8732 32.1509 27.8732C32.4677 27.8732 32.7618 27.7827 33.0559 27.6017C33.4179 27.3755 33.6441 26.9909 33.6894 26.5836C33.712 26.2895 33.6441 25.9954 33.4858 25.7465C34.4812 25.3167 36.7889 24.4795 39.4812 23.8687C39.4586 23.6651 39.436 23.4615 39.3907 23.2352C36.0876 24.0723 33.6441 25.113 33.0333 25.3845ZM23.893 30.6786C23.2595 30.6786 22.7392 30.1809 22.7165 29.5474C22.7165 29.5022 22.7165 29.3438 22.5808 29.3438C22.5355 29.3438 22.4903 29.3664 22.445 29.4117C22.3093 29.5474 22.1283 29.6832 21.8794 29.6832C21.7663 29.6832 21.6306 29.6605 21.4948 29.5927C20.8161 29.3212 20.8161 28.8687 20.8387 28.6651C20.8387 28.6198 20.8387 28.5746 20.8161 28.5293L20.7708 28.4841H20.7256C20.6803 28.4841 20.6577 28.5067 20.6125 28.5293C20.4088 28.6651 20.2279 28.7329 20.0469 28.7329C19.9337 28.7329 19.8432 28.7103 19.7301 28.6651C18.8478 28.3257 18.9156 27.4886 18.9609 27.2397C18.9609 27.1945 18.9609 27.1492 18.9156 27.1266L18.8478 27.0814L18.7799 27.1266C18.5989 27.285 18.3726 27.3755 18.1464 27.3755C17.6487 27.3755 17.2188 26.9682 17.2414 26.4479C17.2414 25.9501 17.6487 25.5429 18.169 25.5429C18.6215 25.5429 19.0061 25.8823 19.074 26.3348L19.0966 26.5836L19.2324 26.38C19.255 26.3574 19.617 25.7918 20.2957 25.7918C20.4315 25.7918 20.5672 25.8144 20.703 25.8596C21.246 26.018 21.3365 26.5157 21.3591 26.7194C21.3591 26.8325 21.4496 26.8551 21.4722 26.8551C21.5174 26.8551 21.5627 26.8325 21.5853 26.8099C21.6984 26.6967 21.9021 26.5157 22.2641 26.5157C22.4224 26.5157 22.6034 26.561 22.7618 26.6289C23.6215 26.9909 23.2369 28.0995 23.2369 28.0995C23.169 28.2805 23.169 28.371 23.2369 28.4162L23.2595 28.4388H23.2822C23.3274 28.4388 23.3726 28.4162 23.4405 28.3936C23.5536 28.3483 23.7346 28.3031 23.893 28.3031C24.5491 28.3031 25.0695 28.8461 25.0695 29.4795C25.0695 30.1357 24.5491 30.6786 23.893 30.6786Z" fill="#253E8A"/>
</g>
<defs>
<clipPath id="clip0_2170_3271">
<rect width="50" height="50" rx="10" fill="white"/>
</clipPath>
</defs>
</svg>
