<svg width="50" height="50" viewBox="0 0 50 50" fill="none" xmlns="http://www.w3.org/2000/svg">
<g clip-path="url(#clip0_2566_6898)">
<rect width="50" height="50" rx="8" fill="#BEDE18"/>
<path d="M40.3514 24.3423L31.0076 15.1162C30.6396 14.7529 30.0435 14.7529 29.6756 15.1162L25.0049 19.7305L20.3342 15.1162C19.9663 14.7529 19.3652 14.7529 18.9973 15.1162L9.65097 24.3423C9.28301 24.7057 9.28301 25.2943 9.65097 25.6576L18.9948 34.8837C19.3628 35.2471 19.9638 35.2471 20.3318 34.8837L25.0025 30.2719L29.6731 34.8837C30.0411 35.2471 30.6372 35.2471 31.0051 34.8837L40.349 25.6576C40.717 25.2943 40.717 24.7057 40.349 24.3423H40.3514ZM29.6756 25.6576L25.4538 29.8262C25.2061 30.0708 24.8013 30.0708 24.5536 29.8262L20.3318 25.6576C19.9638 25.2943 19.9638 24.7057 20.3318 24.3423L24.5536 20.1738C24.8013 19.9291 25.2061 19.9291 25.4538 20.1738L29.6756 24.3423C30.0435 24.7057 30.0435 25.2943 29.6756 25.6576Z" fill="#1E1A34"/>
</g>
<defs>
<clipPath id="clip0_2566_6898">
<rect width="50" height="50" fill="white"/>
</clipPath>
</defs>
</svg>
