<svg width="50" height="50" viewBox="0 0 50 50" fill="none" xmlns="http://www.w3.org/2000/svg">
<rect x="0.5" y="0.5" width="49" height="49" rx="7.5" fill="white"/>
<rect x="0.5" y="0.5" width="49" height="49" rx="7.5" stroke="#ECECEE"/>
<g clip-path="url(#clip0_5_135)">
<path d="M41.7778 25.3377C41.7778 34.54 34.2164 42 24.8889 42C15.5614 42 8 34.7947 8.11113 25.3377C8.11113 16.1354 15.5614 8.67548 24.8889 8.67548C34.2164 8.67548 41.7778 16.1354 41.7778 25.3377Z" fill="white"/>
<path fill-rule="evenodd" clip-rule="evenodd" d="M24.9367 8C27.6961 7.99963 30.4138 8.68208 32.8538 9.98803C35.2936 11.294 37.3818 13.1839 38.9367 15.4936C40.4918 17.8033 41.4664 20.4628 41.7762 23.2411C42.0862 26.0193 41.7216 28.8322 40.7144 31.4352L34.9367 24.8491L34.0478 23.8494L33.3078 24.3763L31.5544 25.6215L25.979 19.7086L25.4878 19.1772L24.9523 18.6098L24.9412 18.6233L24.9212 18.603L18.0212 25.9547L17.4745 25.3715L16.9856 24.8491L16.4634 24.293L8.99452 30.9669C8.07756 28.3758 7.78883 25.5993 8.15268 22.8714C8.51653 20.1435 9.52228 17.5443 11.0852 15.2927C12.648 13.0412 14.7222 11.2034 17.1329 9.93417C19.5436 8.66498 22.2201 8.00161 24.9367 8ZM21.8478 9.9702C19.8295 10.394 17.9162 11.2258 16.2223 12.4159C14.5284 13.6059 13.0888 15.1298 11.9893 16.8964C10.8899 18.6631 10.1533 20.6362 9.8235 22.6978C9.49374 24.7595 9.5776 26.8673 10.0701 28.8954L10.7745 28.2649C9.96708 24.4639 10.679 20.4936 12.7545 17.2234C14.8299 13.9532 18.0997 11.6495 21.8478 10.8168V9.9702ZM39.7433 29.0958C40.2689 27.0583 40.3798 24.9339 40.0691 22.8516C39.7587 20.7694 39.0331 18.773 37.9371 16.9839C36.8409 15.1947 35.3969 13.6503 33.6929 12.4445C31.9891 11.2388 30.0608 10.3969 28.0256 9.9702V10.8168C29.8884 11.2302 31.6524 12.0117 33.2169 13.1167C34.7811 14.2217 36.1151 15.6285 37.1422 17.2564C38.1693 18.8844 38.8693 20.7017 39.2024 22.6042C39.5356 24.5067 39.4951 26.4571 39.0833 28.3437L39.75 29.0958H39.7433ZM27.2101 9.82384C25.7034 9.59888 24.1723 9.59888 22.6656 9.82384V13.503H27.2101V9.82384ZM24.9367 17.4795L27.2101 14.1335H22.6656L24.9367 17.4795Z" fill="#231F20"/>
<path fill-rule="evenodd" clip-rule="evenodd" d="M17.2612 33.0553C25.7276 30.0951 33.9818 29.5872 39.9702 31.2026H40.0096H39.9898L40.2896 31.2878L39.9156 31.1981C33.8965 30.7933 25.2148 33.9546 16.72 39.9735C15.7517 39.5119 15.0208 38.9558 14.3542 38.3929C15.2057 37.8842 16.2362 37.4251 17.1344 36.9507C25.5133 32.5025 33.8091 30.574 39.8805 31.1914C33.2296 29.7125 23.2113 32.12 13.6229 37.8412C12.7778 37.1589 12 36.2583 11.4007 35.477C13.2343 34.5833 15.3391 33.7265 17.2612 33.0553Z" fill="#231F20"/>
<path fill-rule="evenodd" clip-rule="evenodd" d="M32.75 26.9611L33.9167 24.9504L32.0878 26.2541L32.7544 26.9611H32.75ZM24.9346 19.7874L18.5857 26.5536L19.6768 27.7177L24.9346 19.7874ZM16.4123 25.439L9.30122 31.791C9.59181 32.494 9.92887 33.1762 10.3101 33.8333L16.4123 25.439Z" fill="#00B8B2"/>
<path fill-rule="evenodd" clip-rule="evenodd" d="M24.9368 17.0516L25.6568 15.9933H24.2168L24.9368 17.0516Z" fill="#00B8B2"/>
</g>
<defs>
<clipPath id="clip0_5_135">
<rect width="34" height="34" fill="white" transform="translate(8 8)"/>
</clipPath>
</defs>
</svg>
