<svg width="50" height="50" viewBox="0 0 50 50" fill="none" xmlns="http://www.w3.org/2000/svg">
<rect width="50" height="50" rx="8" fill="#444444"/>
<path fill-rule="evenodd" clip-rule="evenodd" d="M12.0214 18.5283C11.6182 18.9484 11.5 19.4417 11.5 19.7108V25.2108C11.5 28.003 13.1864 28.7108 13.5 28.7108H17.7C18.418 28.7108 19 29.2928 19 30.0108V31.2966L21.205 29.0916C21.4488 28.8478 21.7795 28.7108 22.1243 28.7108H23C23.5523 28.7108 24 29.1585 24 29.7108C24 30.2631 23.5523 30.7108 23 30.7108H22.4142L19.2192 33.9058C18.4003 34.7248 17 34.1447 17 32.9866V30.7108H13.5C11.8136 30.7108 9.5 28.8187 9.5 25.2108V19.7108C9.5 18.9799 9.78183 17.9733 10.5786 17.1433C11.3997 16.288 12.6785 15.7108 14.5 15.7108H30.5C31.0523 15.7108 31.5 16.1585 31.5 16.7108C31.5 17.2631 31.0523 17.7108 30.5 17.7108H14.5C13.1215 17.7108 12.4003 18.1336 12.0214 18.5283Z" fill="#16E030"/>
<path d="M34.5 16.7108C34.5 17.2631 34.0523 17.7108 33.5 17.7108C32.9477 17.7108 32.5 17.2631 32.5 16.7108C32.5 16.1585 32.9477 15.7108 33.5 15.7108C34.0523 15.7108 34.5 16.1585 34.5 16.7108Z" fill="#12E823"/>
<path fill-rule="evenodd" clip-rule="evenodd" d="M33.5 17.7108C34.0523 17.7108 34.5 17.2631 34.5 16.7108C34.5 16.1585 34.0523 15.7108 33.5 15.7108C32.9477 15.7108 32.5 16.1585 32.5 16.7108C32.5 17.2631 32.9477 17.7108 33.5 17.7108Z" fill="#16E030"/>
<path d="M37.5 16.7108C37.5 17.2631 37.0523 17.7108 36.5 17.7108C35.9477 17.7108 35.5 17.2631 35.5 16.7108C35.5 16.1585 35.9477 15.7108 36.5 15.7108C37.0523 15.7108 37.5 16.1585 37.5 16.7108Z" fill="#12E823"/>
<path fill-rule="evenodd" clip-rule="evenodd" d="M36.5 17.7108C37.0523 17.7108 37.5 17.2631 37.5 16.7108C37.5 16.1585 37.0523 15.7108 36.5 15.7108C35.9477 15.7108 35.5 16.1585 35.5 16.7108C35.5 17.2631 35.9477 17.7108 36.5 17.7108Z" fill="#16E030"/>
<path d="M40.5 16.7108C40.5 17.2631 40.0523 17.7108 39.5 17.7108C38.9477 17.7108 38.5 17.2631 38.5 16.7108C38.5 16.1585 38.9477 15.7108 39.5 15.7108C40.0523 15.7108 40.5 16.1585 40.5 16.7108Z" fill="#12E823"/>
<path fill-rule="evenodd" clip-rule="evenodd" d="M39.5 17.7108C40.0523 17.7108 40.5 17.2631 40.5 16.7108C40.5 16.1585 40.0523 15.7108 39.5 15.7108C38.9477 15.7108 38.5 16.1585 38.5 16.7108C38.5 17.2631 38.9477 17.7108 39.5 17.7108Z" fill="#16E030"/>
<path d="M26.5 29.7108C26.5 30.2631 26.0523 30.7108 25.5 30.7108C24.9477 30.7108 24.5 30.2631 24.5 29.7108C24.5 29.1585 24.9477 28.7108 25.5 28.7108C26.0523 28.7108 26.5 29.1585 26.5 29.7108Z" fill="#12E823"/>
<path fill-rule="evenodd" clip-rule="evenodd" d="M25.5 30.7108C26.0523 30.7108 26.5 30.2631 26.5 29.7108C26.5 29.1585 26.0523 28.7108 25.5 28.7108C24.9477 28.7108 24.5 29.1585 24.5 29.7108C24.5 30.2631 24.9477 30.7108 25.5 30.7108Z" fill="#16E030"/>
</svg>
