<svg width="50" height="46" viewBox="0 0 50 46" fill="none" xmlns="http://www.w3.org/2000/svg">
<path d="M42.3381 33.3782L40.0976 30.5516C35.7148 31.3006 29.6091 32.1147 25.8684 32.1147C25.3574 32.1147 24.8398 32.1147 24.3288 32.1017C23.844 32.7204 23.3592 33.3326 22.881 33.9448C22.8679 33.9578 22.8613 33.9643 22.8548 33.9773C20.9811 36.3545 19.0485 38.8099 17.1159 41.1935C15.1702 43.0171 12.8576 42.6329 11.4098 41.4345C9.96198 40.2297 9.17584 38.0218 10.6499 35.7944L14.2137 31.281C12.7528 31.0791 11.3836 30.8577 10.1585 30.6298L7.97696 33.3847C5.30406 36.7323 5.86092 41.6299 9.22169 44.3002C10.6564 45.4399 12.3794 46 14.1024 46C16.2381 46 18.3541 45.1403 19.8871 43.4665L25.1608 36.8169L30.4346 43.4665C31.9675 45.1403 34.0836 46 36.2193 46C37.9357 46 39.6652 45.4399 41.0999 44.3002C44.4607 41.6299 45.0176 36.7323 42.3447 33.3847L42.3381 33.3782ZM43.2094 4.34405C41.9319 1.778 39.4425 0.149795 36.5599 0H35.7672L34.7322 0.143282C33.2254 0.429846 31.83 1.15928 30.69 2.25343L30.6114 2.33159C28.7509 4.572 26.9296 6.88404 25.1543 9.15702C23.3854 6.89056 21.5642 4.572 19.7036 2.33159L19.625 2.25343C18.4851 1.15277 17.0897 0.423333 15.5829 0.143282L14.5478 0.00651296H13.8075L13.7551 0C10.8661 0.149795 8.38314 1.778 7.10565 4.34405C5.83471 6.9101 6.0509 9.8604 7.69526 12.2246L9.09067 13.9895C9.70648 14.1002 13.3686 14.9469 14.6002 15.1879L10.6433 10.1795C9.76545 8.92256 9.64097 7.34645 10.3157 5.95271C10.6499 5.24933 11.1478 4.68271 11.757 4.27241C12.3597 3.8621 13.0804 3.62112 13.8469 3.56902C15.1047 3.49738 16.3691 3.99236 17.2273 4.91066C19.0289 7.12502 20.8174 9.41753 22.5534 11.6254C22.6648 11.7687 22.7762 11.9119 22.8875 12.0552C23.9685 13.4294 25.0625 14.8232 26.1697 16.2169C33.8674 16.015 39.7111 14.3738 40.3793 14.1849C40.6086 14.1198 40.9296 14.0286 41.2703 13.9309L42.6329 12.218C44.2707 9.84737 44.4935 6.90358 43.2225 4.33753L43.2094 4.34405Z" fill="#FF009B"/>
<path d="M25.1543 29.2946C12.5891 29.2946 3.98731 26.5267 3.62699 26.4095C0.855822 25.5042 -0.644408 22.5343 0.266212 19.7859C1.17683 17.0375 4.15764 15.5396 6.92225 16.4383C7.11879 16.497 14.4889 18.8025 25.1609 18.8025C35.8328 18.8025 42.9474 16.4774 43.0195 16.4579C45.7775 15.52 48.7715 16.9789 49.7148 19.7208C50.6582 22.4627 49.1842 25.4521 46.4261 26.3899C46.0789 26.5072 37.7523 29.3011 25.1543 29.3011V29.2946Z" fill="#FF009B"/>
</svg>
