<svg width="50" height="50" viewBox="0 0 50 50" fill="none" xmlns="http://www.w3.org/2000/svg">
<g clip-path="url(#clip0_2170_3269)">
<rect width="50" height="50" rx="10" fill="white"/>
<rect x="0.5" y="0.5" width="49" height="49" rx="9.5" fill="white" stroke="#DDDDE0"/>
<path d="M16.6368 17.9415C16.3282 17.5488 16.1364 17.0777 16.0833 16.5818C16.0302 16.0859 16.1178 15.5851 16.3362 15.1364C16.5546 14.6877 16.8951 14.3091 17.3187 14.0437C17.7424 13.7783 18.2324 13.6368 18.7328 13.6353C18.8407 13.6357 18.9486 13.6426 19.0557 13.6558C19.404 13.6967 19.7407 13.806 20.0464 13.9775C20.352 14.1489 20.6205 14.3791 20.8363 14.6547L26.3404 21.6375C28.5922 21.5936 30.8357 21.3508 33.0446 20.9121L34.8886 18.5776C35.5497 17.7389 35.8494 16.6729 35.7218 15.614C35.5943 14.5552 35.0498 13.5901 34.2083 12.9313C33.3668 12.2724 32.2971 11.9737 31.2346 12.1009C30.1721 12.228 29.2038 12.7706 28.5428 13.6093L25.3512 17.655L22.1652 13.613C21.4492 12.7117 20.404 12.1298 19.2585 11.9949C18.113 11.86 16.9605 12.1829 16.0534 12.893C15.1463 13.6031 14.5586 14.6426 14.4188 15.7837C14.2791 16.9248 14.5988 18.0746 15.3079 18.9812L16.7786 20.8413C17.5607 21.0162 18.3968 21.1631 19.2741 21.2803L16.6368 17.9415Z" fill="#12F2AA"/>
<path d="M24.3009 31L20.8595 35.3389C20.4169 35.8764 19.779 36.2203 19.083 36.2966C18.387 36.3729 17.6886 36.1756 17.138 35.7471C16.5874 35.3185 16.2286 34.693 16.1389 34.0052C16.0492 33.3173 16.2356 32.622 16.6581 32.069L18.8354 29.3225C18.1781 29.2436 17.5345 29.1517 16.9046 29.0469L15.3287 31.0314C14.9723 31.4773 14.7083 31.9886 14.5518 32.5358C14.3953 33.083 14.3495 33.6554 14.4169 34.2202C14.4843 34.7851 14.6636 35.3311 14.9446 35.8271C15.2256 36.3231 15.6026 36.7593 16.0542 37.1107C16.5057 37.462 17.0229 37.7215 17.5759 37.8745C18.129 38.0274 18.7071 38.0706 19.277 38.0017C19.847 37.9328 20.3977 37.7531 20.8973 37.473C21.397 37.1928 21.836 36.8176 22.189 36.3691L25.3764 32.3538L28.5694 36.3783C29.2357 37.1977 30.2011 37.7241 31.2565 37.8432C32.3119 37.9623 33.3722 37.6646 34.2075 37.0147C35.0428 36.3647 35.5858 35.4148 35.7188 34.371C35.8518 33.3272 35.5641 32.2734 34.9181 31.4383L33.0508 29.0876C30.502 29.4828 27.9264 29.685 25.3465 29.6924L24.3009 31Z" fill="#12F2AA"/>
<path d="M19.2601 21.2949L21.2308 23.7713C21.5113 24.1228 21.6639 24.5573 21.6639 25.0048C21.6639 25.4523 21.5113 25.8868 21.2308 26.2383L20.9645 26.5733L18.7969 29.294C20.8803 29.5395 22.9765 29.6631 25.0747 29.6642H25.3353L27.7336 26.6418C28.1052 26.1754 28.3073 25.5992 28.3073 25.0057C28.3073 24.4123 28.1052 23.8361 27.7336 23.3697L26.361 21.6447C23.9884 21.713 21.614 21.5961 19.2601 21.2949Z" fill="#FE35F1"/>
<path d="M39.72 23.2027C39.4171 22.186 38.7199 21.3302 37.7815 20.8232C36.8431 20.3161 35.7402 20.1994 34.7151 20.4986C34.198 20.6486 33.6455 20.7857 33.0649 20.906L29.8242 24.9919L33.0351 29.0482C34.3719 28.8404 35.6943 28.5497 36.9945 28.1776C37.5027 28.0287 37.9765 27.7818 38.3886 27.4512C38.8007 27.1205 39.143 26.7125 39.3962 26.2505C39.6493 25.7885 39.8081 25.2815 39.8637 24.7586C39.9193 24.2356 39.8704 23.707 39.72 23.2027Z" fill="#FE35F1"/>
<path d="M19.8984 24.8014L16.7779 20.8212C16.3078 20.7149 15.8564 20.601 15.4312 20.476C14.9176 20.3033 14.3744 20.2358 13.8342 20.2777C13.294 20.3196 12.7677 20.47 12.2868 20.7199C11.806 20.9698 11.3804 21.3141 11.0355 21.7322C10.6906 22.1503 10.4335 22.6337 10.2795 23.1534C10.1256 23.6731 10.0778 24.2186 10.1393 24.7572C10.2007 25.2958 10.37 25.8165 10.6371 26.2881C10.9041 26.7598 11.2635 27.1728 11.6936 27.5025C12.1238 27.8321 12.616 28.0716 13.1407 28.2068C14.3662 28.5613 15.6119 28.8417 16.8712 29.0464L19.8984 25.2025C19.9436 25.1455 19.9682 25.0748 19.9682 25.002C19.9682 24.9291 19.9436 24.8584 19.8984 24.8014Z" fill="#FE35F1"/>
<path d="M20.993 26.5749L21.2583 26.2373C21.5379 25.883 21.6899 25.445 21.6899 24.994C21.6899 24.5429 21.5379 24.105 21.2583 23.7507L19.2948 21.2547C18.4167 21.1372 17.5797 20.9898 16.7969 20.8145L19.9281 24.7934C19.9734 24.8505 19.9981 24.9212 19.9981 24.994C19.9981 25.0668 19.9734 25.1375 19.9281 25.1945L16.9015 29.0429C17.5305 29.1474 18.1744 29.24 18.8333 29.3209L20.993 26.5749Z" fill="#1232A1"/>
<path d="M33.0623 20.8809C30.8554 21.3193 28.6139 21.562 26.3641 21.6059L27.7295 23.3405C28.1001 23.8087 28.3017 24.3877 28.3017 24.984C28.3017 25.5804 28.1001 26.1594 27.7295 26.6276L25.3438 29.6617C27.9209 29.6543 30.4938 29.4511 33.04 29.0538L29.8316 24.9822L33.0623 20.8809Z" fill="#1232A1"/>
</g>
<defs>
<clipPath id="clip0_2170_3269">
<rect width="50" height="50" rx="10" fill="white"/>
</clipPath>
</defs>
</svg>
