<svg width="300" height="57" viewBox="0 0 300 57" fill="none" xmlns="http://www.w3.org/2000/svg">
<path d="M91.686 28.2493C91.686 36.9005 85.2061 43.1774 77.1987 43.1774C72.3676 43.1774 67.9668 40.8032 65.8271 36.9005V56.275H61.9173V13.9917H65.8271V19.5981C67.9062 15.7014 72.4282 13.2607 77.1987 13.2607C85.2061 13.2607 91.686 19.5981 91.686 28.2493ZM87.8369 28.3097C87.8369 21.9723 82.9451 16.9762 76.8956 16.9762C70.8461 16.9762 65.8331 21.5434 65.8331 28.1224C65.8331 34.7014 71.2098 39.456 76.8956 39.456C82.9451 39.456 87.8369 34.5806 87.8369 28.3097Z" fill="#1A2B38"/>
<path d="M120.964 13.9917H124.873V42.4404H120.964V36.532C118.885 40.4286 114.484 43.1714 109.41 43.1714C101.645 43.1714 95.1048 36.6528 95.1048 28.1828C95.1048 19.7129 101.403 13.2547 109.531 13.2547C114.423 13.2547 118.824 15.6289 120.964 19.5316V13.9857V13.9917ZM120.964 28.3097C120.964 21.6703 115.587 16.9762 109.841 16.9762C104.094 16.9762 98.96 22.0932 98.96 28.1828C98.96 34.2725 103.852 39.4499 109.901 39.4499C115.951 39.4499 120.964 34.6954 120.964 28.3037V28.3097Z" fill="#1A2B38"/>
<path d="M154.721 13.9917H158.631V38.5437C158.631 52.3119 152.454 57 143.167 57C138.336 57 133.632 54.6258 130.82 49.9921L134.123 48.1676C136.203 51.5809 139.749 53.2846 143.167 53.2846C150.138 53.2846 154.721 49.7504 154.721 38.7854V36.9548C152.581 40.7911 148.12 43.1714 143.349 43.1714C135.402 43.1714 128.862 36.834 128.862 28.1828C128.862 19.5316 135.342 13.2547 143.349 13.2547C148.18 13.2547 152.581 15.6289 154.721 19.4712V13.9857V13.9917ZM154.721 28.3097C154.721 21.4286 149.344 16.9762 143.658 16.9762C137.67 16.9762 132.778 21.8515 132.778 28.1224C132.778 34.3933 137.67 39.456 143.658 39.456C149.647 39.456 154.721 34.8887 154.721 28.3097Z" fill="#1A2B38"/>
<path d="M189.102 13.8649H193.012V42.3135H189.102V36.4051C187.023 40.3017 182.623 43.0445 177.549 43.0445C169.784 43.0445 163.244 36.5259 163.244 28.056C163.244 19.586 169.542 13.1278 177.67 13.1278C182.562 13.1278 186.963 15.5021 189.102 19.4048V13.8588V13.8649ZM189.102 28.1828C189.102 21.5434 183.726 16.8493 177.979 16.8493C172.233 16.8493 167.099 21.9663 167.099 28.056C167.099 34.1456 171.99 39.3231 178.04 39.3231C184.089 39.3231 189.102 34.5685 189.102 28.1768V28.1828Z" fill="#1A2B38"/>
<path d="M240.329 29.8321H215.755C216.428 35.9218 220.708 39.456 226.454 39.456C230.364 39.456 233.849 37.565 235.747 34.4598L239.111 35.9218C236.607 40.489 231.716 43.1714 226.339 43.1714C218.271 43.1714 211.852 37.1421 211.852 28.1224C211.852 19.1027 218.271 13.2607 226.339 13.2607C234.407 13.2607 240.457 19.1087 240.457 28.1224C240.457 28.6722 240.396 29.2824 240.335 29.8261L240.329 29.8321ZM236.541 26.4792C235.989 20.5707 231.898 16.9762 226.333 16.9762C220.768 16.9762 216.616 20.3895 215.822 26.4792H236.541Z" fill="#1A2B38"/>
<path d="M266.194 13.9917H270.413L258.308 42.4404H254.271L242.354 13.9917H246.512L256.29 37.6919L266.194 13.9917Z" fill="#1A2B38"/>
<path d="M299.873 29.8321H275.299C275.972 35.9218 280.251 39.456 285.998 39.456C289.907 39.456 293.393 37.565 295.29 34.4598L298.654 35.9218C296.151 40.489 291.259 43.1714 285.882 43.1714C277.814 43.1714 271.395 37.1421 271.395 28.1224C271.395 19.1027 277.814 13.2607 285.882 13.2607C293.95 13.2607 300 19.1087 300 28.1224C300 28.6722 299.939 29.2824 299.879 29.8261L299.873 29.8321ZM296.084 26.4792C295.533 20.5707 291.441 16.9762 285.876 16.9762C280.312 16.9762 276.16 20.3895 275.366 26.4792H296.084Z" fill="#1A2B38"/>
<path d="M207.742 42.4706C207.572 42.4827 207.372 42.4948 207.136 42.4948C206.117 42.4948 204.263 42.3075 203.026 41.4013C200.717 39.7037 200.777 36.538 200.777 36.538V0H204.699V36.6588C204.699 36.6588 204.778 38.1148 205.366 38.5498C205.772 38.8458 207.724 39.027 207.724 39.027L207.736 42.4645L207.742 42.4706Z" fill="#1A2B38"/>
<path d="M39.1741 38.1027L37.101 35.4808C33.0458 36.1755 27.3963 36.9307 23.9351 36.9307C23.4623 36.9307 22.9835 36.9307 22.5106 36.9186C22.0621 37.4925 21.6135 38.0604 21.171 38.6283C21.1589 38.6404 21.1528 38.6464 21.1468 38.6585C19.4132 40.8636 17.625 43.1412 15.8368 45.3523C14.0365 47.0439 11.8967 46.6874 10.5571 45.5758C9.21749 44.4582 8.4901 42.4102 9.85397 40.344L13.1515 36.1574C11.7997 35.9701 10.5329 35.7647 9.39934 35.5533L7.38082 38.1087C4.90768 41.214 5.42291 45.7571 8.53253 48.234C9.86003 49.2913 11.4542 49.8108 13.0484 49.8108C15.0245 49.8108 16.9824 49.0134 18.4009 47.4607L23.2805 41.2925L28.1601 47.4607C29.5785 49.0134 31.5364 49.8108 33.5125 49.8108C35.1007 49.8108 36.7009 49.2913 38.0284 48.234C41.138 45.7571 41.6533 41.214 39.1801 38.1087L39.1741 38.1027ZM39.9803 11.1704C38.7982 8.79015 36.4948 7.27981 33.8277 7.14086H33.0943L32.1365 7.27377C30.7423 7.53959 29.4512 8.21622 28.3965 9.23117L28.3238 9.30366C26.6022 11.3819 24.9171 13.5266 23.2744 15.635C21.6378 13.5326 19.9526 11.3819 18.2311 9.30366L18.1584 9.23117C17.1037 8.21018 15.8125 7.53355 14.4184 7.27377L13.4606 7.1469H12.7757L12.7272 7.14086C10.054 7.27981 7.75664 8.79015 6.57462 11.1704C5.39867 13.5507 5.5987 16.2874 7.12017 18.4804L8.4113 20.1177C8.98109 20.2204 12.3695 21.0057 13.5091 21.2293L9.8479 16.5835C9.03565 15.4175 8.92047 13.9555 9.54482 12.6626C9.85397 12.0102 10.3146 11.4846 10.8784 11.104C11.4361 10.7234 12.1028 10.4998 12.812 10.4515C13.9759 10.3851 15.1458 10.8442 15.9398 11.696C17.6068 13.7501 19.2616 15.8766 20.8679 17.9246C20.971 18.0576 21.074 18.1905 21.1771 18.3234C22.1773 19.5981 23.1896 20.8909 24.214 22.1838C31.3364 21.9965 36.7434 20.4741 37.3616 20.2989C37.5738 20.2385 37.8708 20.1539 38.186 20.0633L39.4468 18.4744C40.9623 16.2754 41.1683 13.5447 39.9924 11.1644L39.9803 11.1704Z" fill="#FF009B"/>
<path d="M23.2745 34.3148C11.6482 34.3148 3.68932 31.7472 3.35593 31.6385C0.791864 30.7987 -0.596249 28.0439 0.246317 25.4944C1.08888 22.945 3.84693 21.5555 6.40493 22.3892C6.58678 22.4436 13.4061 24.5822 23.2805 24.5822C33.1549 24.5822 39.7378 22.4254 39.8045 22.4073C42.3565 21.5374 45.1266 22.8906 45.9995 25.434C46.8724 27.9774 45.5085 30.7504 42.9566 31.6204C42.6353 31.7291 34.931 34.3208 23.2745 34.3208V34.3148Z" fill="#FF009B"/>
</svg>
