<svg width="500" height="95" viewBox="0 0 500 95" fill="none" xmlns="http://www.w3.org/2000/svg">
<path d="M152.81 47.0821C152.81 61.5008 142.01 71.9624 128.665 71.9624C120.613 71.9624 113.278 68.0053 109.712 61.5008V93.7917H103.196V23.3196H109.712V32.6635C113.177 26.1691 120.714 22.1012 128.665 22.1012C142.01 22.1012 152.81 32.6635 152.81 47.0821ZM146.395 47.1828C146.395 36.6206 138.242 28.2936 128.159 28.2936C118.077 28.2936 109.722 35.9057 109.722 46.8707C109.722 57.8357 118.683 65.7599 128.159 65.7599C138.242 65.7599 146.395 57.6343 146.395 47.1828Z" fill="#1A2B38"/>
<path d="M201.606 23.3196H208.122V70.734H201.606V60.8866C198.141 67.381 190.806 71.9523 182.35 71.9523C169.409 71.9523 158.508 61.088 158.508 46.9714C158.508 32.8548 169.005 22.0912 182.552 22.0912C190.705 22.0912 198.04 26.0482 201.606 32.5527V23.3095V23.3196ZM201.606 47.1828C201.606 36.1171 192.645 28.2936 183.068 28.2936C173.49 28.2936 164.933 36.8219 164.933 46.9714C164.933 57.1208 173.086 65.7499 183.169 65.7499C193.251 65.7499 201.606 57.8256 201.606 47.1728V47.1828Z" fill="#1A2B38"/>
<path d="M257.868 23.3196H264.384V64.2395C264.384 87.1865 254.09 95 238.612 95C230.561 95 222.721 91.0429 218.033 83.3201L223.539 80.2793C227.004 85.9682 232.914 88.8076 238.612 88.8076C250.231 88.8076 257.868 82.9173 257.868 64.6423V61.5914C254.302 67.9852 246.866 71.9523 238.915 71.9523C225.671 71.9523 214.77 61.39 214.77 46.9714C214.77 32.5527 225.57 22.0912 238.915 22.0912C246.967 22.0912 254.302 26.0482 257.868 32.452V23.3095V23.3196ZM257.868 47.1828C257.868 35.7144 248.907 28.2936 239.431 28.2936C229.449 28.2936 221.296 36.4192 221.296 46.8707C221.296 57.3222 229.449 65.7599 239.431 65.7599C249.412 65.7599 257.868 58.1479 257.868 47.1828Z" fill="#1A2B38"/>
<path d="M315.171 23.1081H321.687V70.5225H315.171V60.6751C311.706 67.1696 304.371 71.7409 295.915 71.7409C282.973 71.7409 272.073 60.8765 272.073 46.7599C272.073 32.6433 282.569 21.8797 296.117 21.8797C304.27 21.8797 311.605 25.8368 315.171 32.3413V23.098V23.1081ZM315.171 46.9714C315.171 35.9057 306.21 28.0821 296.632 28.0821C287.055 28.0821 278.498 36.6105 278.498 46.7599C278.498 56.9094 286.651 65.5384 296.733 65.5384C306.816 65.5384 315.171 57.6142 315.171 46.9613V46.9714Z" fill="#1A2B38"/>
<path d="M400.549 49.7202H359.592C360.714 59.8696 367.846 65.7599 377.424 65.7599C383.94 65.7599 389.749 62.6084 392.911 57.433L398.518 59.8696C394.346 67.4817 386.193 71.9523 377.232 71.9523C363.785 71.9523 353.086 61.9035 353.086 46.8707C353.086 31.8378 363.785 22.1012 377.232 22.1012C390.678 22.1012 400.761 31.8479 400.761 46.8707C400.761 47.787 400.66 48.8039 400.559 49.7101L400.549 49.7202ZM394.235 44.132C393.315 34.2846 386.496 28.2936 377.222 28.2936C367.947 28.2936 361.027 33.9825 359.704 44.132H394.235Z" fill="#1A2B38"/>
<path d="M443.657 23.3196H450.689L430.514 70.734H423.785L403.923 23.3196H410.854L427.149 62.8198L443.657 23.3196Z" fill="#1A2B38"/>
<path d="M499.788 49.7202H458.831C459.953 59.8696 467.085 65.7599 476.663 65.7599C483.179 65.7599 488.988 62.6084 492.15 57.433L497.757 59.8696C493.585 67.4817 485.432 71.9523 476.471 71.9523C463.024 71.9523 452.325 61.9035 452.325 46.8707C452.325 31.8378 463.024 22.1012 476.471 22.1012C489.918 22.1012 500 31.8479 500 46.8707C500 47.787 499.899 48.8039 499.798 49.7101L499.788 49.7202ZM493.474 44.132C492.554 34.2846 485.735 28.2936 476.461 28.2936C467.186 28.2936 460.266 33.9825 458.943 44.132H493.474Z" fill="#1A2B38"/>
<path d="M346.237 70.7843C345.954 70.8045 345.62 70.8246 345.226 70.8246C343.529 70.8246 340.438 70.5125 338.377 69.0021C334.528 66.1728 334.629 60.8967 334.629 60.8967V0H341.165V61.098C341.165 61.098 341.296 63.5246 342.276 64.2496C342.953 64.743 346.206 65.045 346.206 65.045L346.227 70.7742L346.237 70.7843Z" fill="#1A2B38"/>
<path d="M65.2901 63.5045L61.835 59.1346C55.0763 60.2925 45.6605 61.5511 39.8919 61.5511C39.1039 61.5511 38.3058 61.5511 37.5177 61.531C36.7701 62.4876 36.0225 63.434 35.2851 64.3805C35.2648 64.4006 35.2547 64.4107 35.2446 64.4308C32.3553 68.106 29.375 71.902 26.3947 75.5872C23.3942 78.4065 19.8279 77.8124 17.5952 75.9597C15.3625 74.097 14.1502 70.6836 16.4233 67.2401L21.9192 60.2623C19.6663 59.9502 17.5548 59.6078 15.6656 59.2554L12.3014 63.5146C8.17946 68.69 9.03819 76.2618 14.2209 80.39C16.4334 82.1521 19.0904 83.018 21.7474 83.018C25.0409 83.018 28.3041 81.6889 30.6681 79.1012L38.8008 68.8209L46.9335 79.1012C49.2975 81.6889 52.5607 83.018 55.8542 83.018C58.5011 83.018 61.1682 82.1521 63.3807 80.39C68.5634 76.2618 69.4221 68.69 65.3002 63.5146L65.2901 63.5045ZM66.6338 18.6174C64.6637 14.6502 60.8247 12.133 56.3795 11.9014H55.1571L53.5609 12.123C51.2372 12.566 49.0854 13.6937 47.3275 15.3853L47.2063 15.5061C44.3371 18.9698 41.5285 22.5443 38.7907 26.0583C36.063 22.5543 33.2544 18.9698 30.3852 15.5061L30.264 15.3853C28.5061 13.6836 26.3542 12.5559 24.0306 12.123L22.4344 11.9115H21.2928L21.212 11.9014C16.7567 12.133 12.9277 14.6502 10.9577 18.6174C8.99778 22.5845 9.33117 27.1457 11.867 30.8007L14.0188 33.5294C14.9685 33.7006 20.6159 35.0095 22.5152 35.3821L16.4132 27.6391C15.0594 25.6958 14.8675 23.2591 15.908 21.1044C16.4233 20.017 17.1911 19.141 18.1306 18.5066C19.0601 17.8723 20.1714 17.4997 21.3534 17.4192C23.2931 17.3084 25.2429 18.0737 26.5664 19.4934C29.3447 22.9168 32.1027 26.4611 34.7799 29.8744C34.9517 30.0959 35.1234 30.3174 35.2952 30.539C36.9621 32.6635 38.6493 34.8182 40.3566 36.973C52.2273 36.6608 61.2389 34.1235 62.2694 33.8315C62.623 33.7308 63.118 33.5898 63.6434 33.4388L65.7447 30.7907C68.2704 27.1256 68.6139 22.5745 66.654 18.6073L66.6338 18.6174Z" fill="#FF009B"/>
<path d="M38.7908 57.1913C19.4137 57.1913 6.14887 52.912 5.59322 52.7308C1.31977 51.3312 -0.993749 46.7398 0.410529 42.4907C1.81481 38.2417 6.41154 35.9258 10.6749 37.3153C10.978 37.4059 22.3435 40.9703 38.8009 40.9703C55.2582 40.9703 66.2297 37.3757 66.3409 37.3455C70.5941 35.8956 75.2111 38.151 76.6658 42.39C78.1206 46.629 75.8475 51.2507 71.5943 52.7006C71.0588 52.8818 58.2183 57.2014 38.7908 57.2014V57.1913Z" fill="#FF009B"/>
</svg>
