<svg width="142" height="32" viewBox="0 0 142 32" fill="none" xmlns="http://www.w3.org/2000/svg">
<g clip-path="url(#clip0_809_25761)">
<path d="M124.3 27.4999C124.216 27.4999 124.142 27.4741 124.081 27.4225C124.027 27.3635 124 27.2971 124 27.2233V26.4377C124 26.3861 124.015 26.3087 124.046 26.2053C124.077 26.0947 124.158 25.9915 124.289 25.8956L125.491 24.7669C126.107 24.317 126.612 23.9371 127.005 23.6273C127.405 23.3101 127.702 23.0297 127.894 22.7863C128.087 22.5429 128.184 22.3142 128.184 22.1003C128.184 21.8495 128.114 21.6429 127.975 21.4807C127.845 21.311 127.613 21.2262 127.282 21.2262C127.059 21.2262 126.873 21.2741 126.728 21.37C126.581 21.4585 126.465 21.5766 126.381 21.7241C126.303 21.8716 126.249 22.0228 126.219 22.1778C126.188 22.2737 126.134 22.34 126.057 22.3769C125.988 22.4138 125.91 22.4322 125.826 22.4322H124.381C124.312 22.4322 124.254 22.4101 124.208 22.3658C124.162 22.3216 124.139 22.2663 124.139 22.1999C124.147 21.8458 124.223 21.5139 124.37 21.2041C124.524 20.8869 124.736 20.6102 125.005 20.3742C125.282 20.1382 125.61 19.9537 125.988 19.821C126.372 19.6808 126.804 19.6107 127.282 19.6107C127.936 19.6107 128.491 19.7139 128.946 19.9205C129.408 20.1197 129.758 20.4 129.998 20.7614C130.236 21.1155 130.356 21.5323 130.356 22.0118C130.356 22.3732 130.271 22.7125 130.102 23.0297C129.94 23.3396 129.704 23.6383 129.397 23.926C129.096 24.2063 128.738 24.4977 128.322 24.8001L127.259 25.8291H130.229C130.313 25.8291 130.383 25.8549 130.436 25.9066C130.498 25.9583 130.529 26.0246 130.529 26.1058V27.2233C130.529 27.2971 130.498 27.3635 130.436 27.4225C130.383 27.4741 130.313 27.4999 130.229 27.4999H124.3Z" fill="#004132"/>
<path d="M131.954 27.5C131.869 27.5 131.8 27.4742 131.746 27.4226C131.692 27.3636 131.665 27.2972 131.665 27.2234V25.8181C131.665 25.737 131.692 25.6706 131.746 25.619C131.8 25.5674 131.869 25.5416 131.954 25.5416H133.422C133.499 25.5416 133.564 25.5674 133.618 25.619C133.68 25.6706 133.711 25.737 133.711 25.8181V27.2234C133.711 27.2972 133.68 27.3636 133.618 27.4226C133.564 27.4742 133.499 27.5 133.422 27.5H131.954Z" fill="#004132"/>
<path d="M138.164 27.6106C137.609 27.6106 137.127 27.5368 136.719 27.3893C136.319 27.2344 135.984 27.0242 135.714 26.7586C135.444 26.493 135.24 26.1832 135.101 25.8291C134.963 25.4751 134.882 25.0952 134.859 24.6895C134.851 24.4903 134.843 24.2654 134.836 24.0145C134.836 23.7563 134.836 23.4981 134.836 23.24C134.843 22.9744 134.851 22.7384 134.859 22.5319C134.882 22.1261 134.963 21.7499 135.101 21.4032C135.248 21.0491 135.456 20.743 135.725 20.4849C136.003 20.2193 136.342 20.0127 136.743 19.8652C137.151 19.7176 137.625 19.6439 138.164 19.6439C138.711 19.6439 139.184 19.7176 139.585 19.8652C139.994 20.0127 140.333 20.2193 140.602 20.4849C140.871 20.743 141.08 21.0491 141.226 21.4032C141.372 21.7499 141.458 22.1261 141.48 22.5319C141.488 22.7384 141.492 22.9744 141.492 23.24C141.5 23.4981 141.5 23.7563 141.492 24.0145C141.492 24.2654 141.488 24.4903 141.48 24.6895C141.458 25.0952 141.372 25.4751 141.226 25.8291C141.087 26.1832 140.883 26.493 140.614 26.7586C140.352 27.0242 140.017 27.2344 139.609 27.3893C139.208 27.5368 138.726 27.6106 138.164 27.6106ZM138.164 26.0062C138.565 26.0062 138.853 25.8845 139.03 25.6411C139.216 25.3903 139.312 25.0546 139.319 24.6342C139.334 24.4202 139.342 24.1953 139.342 23.9592C139.351 23.7231 139.351 23.4871 139.342 23.2511C139.342 23.015 139.334 22.7974 139.319 22.5982C139.312 22.1925 139.216 21.8643 139.03 21.6135C138.853 21.3626 138.565 21.2336 138.164 21.2262C137.771 21.2336 137.482 21.3626 137.297 21.6135C137.12 21.8643 137.024 22.1925 137.008 22.5982C137.008 22.7974 137.004 23.015 136.997 23.2511C136.997 23.4871 136.997 23.7231 136.997 23.9592C137.004 24.1953 137.008 24.4202 137.008 24.6342C137.024 25.0546 137.124 25.3903 137.309 25.6411C137.493 25.8845 137.779 26.0062 138.164 26.0062Z" fill="#004132"/>
<g clip-path="url(#clip1_809_25761)">
<path d="M113.4 22H120.001C120.011 21.7345 120.021 21.4679 120.021 21.1992C120.008 10.3489 111.073 1.55181 100.037 1.52777V8.01139C107.436 8.02289 113.427 13.9242 113.426 21.1992C113.427 21.4658 113.417 21.7345 113.401 22H113.4Z" fill="#00AF55"/>
<path d="M62.7305 5.94837H64.3167C64.3879 6.61638 64.9109 7.03455 65.6902 7.03455C66.3696 7.03455 66.8235 6.70002 66.8235 6.2829C66.8235 4.72315 62.9155 6.21286 62.9155 3.24703C62.9155 2.02182 64.0062 1.15831 65.4787 1.15831C67.1499 1.15831 68.297 2.06363 68.3672 3.42789H66.781C66.6821 2.77346 66.0729 2.43893 65.5212 2.43893C64.8982 2.43893 64.4878 2.71701 64.4878 3.19058C64.4878 4.70851 68.4533 3.03691 68.4533 6.21181C68.4533 7.53425 67.3625 8.39776 65.6923 8.39776C64.0222 8.39776 62.8176 7.45062 62.7326 5.94732L62.7305 5.94837Z" fill="#00AF55"/>
<path d="M70.8847 0V1.26913H72.6208V2.70343H70.8847V5.76647C70.8847 6.47631 71.2674 6.83906 71.918 6.83906H72.6208V8.28695H71.7203C70.1628 8.28695 69.1433 7.39626 69.1433 5.83652V0H70.8847Z" fill="#00AF55"/>
<path d="M72.7644 4.77856C72.7644 2.68983 74.3218 1.15831 76.5023 1.15831C78.6828 1.15831 80.2264 2.68983 80.2264 4.77856C80.2264 6.86728 78.669 8.39881 76.5023 8.39881C74.3357 8.39881 72.7644 6.86728 72.7644 4.77856ZM78.4712 4.77856C78.4712 3.51152 77.6781 2.63442 76.5034 2.63442C75.3286 2.63442 74.5206 3.51152 74.5206 4.77856C74.5206 6.04559 75.3137 6.92269 76.5034 6.92269C77.693 6.92269 78.4712 6.04559 78.4712 4.77856Z" fill="#00AF55"/>
<path d="M83.9872 1.15833C86.0093 1.15833 87.0926 2.29991 87.0926 3.94329V8.28801H85.3512V4.30605C85.3512 3.34532 84.8792 2.6773 83.9872 2.6773C83.0953 2.6773 82.6232 3.34532 82.6232 4.30605V8.28801H80.8818V3.94329C80.8818 2.29991 81.9652 1.15833 83.9872 1.15833Z" fill="#00AF55"/>
<path d="M94.6977 5.94837C94.4287 7.43808 93.0977 8.3988 91.3414 8.3988C89.0047 8.3988 87.7023 6.58816 87.7023 4.75033C87.7023 2.9125 88.8633 1.15726 91.2 1.15726C93.5368 1.15726 94.669 2.86964 94.669 4.54125C94.669 4.77751 94.6552 4.98659 94.6403 5.12563H89.3725C89.5001 6.25363 90.2368 6.9781 91.3414 6.9781C92.2334 6.9781 92.8138 6.61638 92.9978 5.94732H94.6966L94.6977 5.94837ZM89.4161 3.99868H92.9276C92.8564 3.10799 92.2334 2.43893 91.2 2.43893C90.223 2.43893 89.6 2.94073 89.4161 3.99868Z" fill="#00AF55"/>
<path d="M32.9006 31.7909C32.3627 31.6749 31.8385 31.5066 31.3336 31.2891C30.9498 31.1167 30.5766 30.9201 30.2162 30.7016C29.9589 30.55 29.7144 30.3786 29.4869 30.1873L29.27 29.974L30.583 28.062L30.7658 28.2439C30.9285 28.385 31.0975 28.5167 31.2761 28.6369C31.5451 28.8303 31.83 29.0028 32.1277 29.1513C32.9367 29.5287 33.8202 29.7284 34.7164 29.7367C35.7562 29.8318 36.7906 29.5182 37.5964 28.8659C38.2279 28.1791 38.5479 27.2685 38.4852 26.3444V25.3178C38.4384 25.3826 38.3885 25.4464 38.3374 25.507C38.1939 25.6648 38.0398 25.8122 37.876 25.9482C37.6347 26.1635 37.37 26.3517 37.0861 26.5116C36.7172 26.7019 36.3249 26.8451 35.9188 26.9382C35.4053 27.0688 34.877 27.1326 34.3475 27.1274C32.7316 27.188 31.156 26.6214 29.96 25.5499C28.7597 24.3529 28.1378 22.7095 28.2473 21.0326C28.1793 19.3736 28.8118 17.7595 29.9961 16.575C31.1305 15.4491 32.6858 14.8313 34.2975 14.8668C35.1055 14.8543 35.9071 15.0048 36.6545 15.308C37.1882 15.4982 37.6772 15.7962 38.0876 16.1809L38.4778 16.6074V15.055H41.1069V25.9063C41.1069 29.9688 39.0157 31.999 34.8344 32H34.8079C34.1668 32.0021 33.5278 31.9321 32.9017 31.792H32.9006V31.7909ZM31.8768 18.1787C31.1847 18.9617 30.8232 19.9757 30.87 21.0128C30.8275 22.0456 31.1975 23.0534 31.9013 23.8207C32.6104 24.5536 33.6076 24.9498 34.6356 24.908C35.6924 24.955 36.7225 24.5693 37.4805 23.8427C38.213 23.0806 38.6 22.0582 38.549 21.0117C38.5915 19.9601 38.1971 18.9366 37.455 18.1776C36.7013 17.4438 35.6711 17.0496 34.6101 17.0904C33.581 17.0434 32.5817 17.4417 31.8768 18.1808V18.1787ZM0 15.055H2.62486V16.6566C2.65782 16.6085 2.71097 16.5416 2.78327 16.4527C2.93317 16.2928 3.09583 16.1443 3.26912 16.0095C3.52533 15.7983 3.80174 15.6143 4.09729 15.4596C4.48427 15.2704 4.89145 15.1229 5.31138 15.0205C5.82913 14.8835 6.36388 14.8146 6.8997 14.8166C8.51246 14.7612 10.0731 15.3833 11.1905 16.5269C12.3323 17.7501 12.9329 19.3715 12.8564 21.0306C12.9553 22.7262 12.3546 24.3905 11.1905 25.646C10.0295 26.7824 8.4391 27.3887 6.80295 27.3197C6.27883 27.3229 5.75577 27.258 5.24866 27.1284C4.83085 27.0291 4.43005 26.8723 4.05689 26.6632C3.77942 26.5001 3.51151 26.3203 3.2553 26.1248C3.07456 25.9941 2.91084 25.8415 2.76945 25.6711L2.62486 25.4798V31.7418L0 31.7439V15.055ZM3.62207 18.164C2.89064 18.9606 2.50473 20.0071 2.55151 21.0797C2.49091 22.1617 2.87682 23.2207 3.62207 24.0183C4.38965 24.7585 5.43683 25.1484 6.51059 25.0951C7.53332 25.1411 8.52309 24.7323 9.20775 23.9838C9.89453 23.1799 10.2507 22.1523 10.205 21.1037C10.2496 20.0343 9.8807 18.9868 9.1716 18.1745C8.47738 17.4155 7.47697 16.9995 6.43936 17.0381C5.37836 16.9984 4.35244 17.4093 3.62314 18.1672V18.1619L3.62207 18.164ZM64.653 26.7604C64.2331 26.359 63.9971 25.8081 63.9971 25.232C63.9971 24.656 64.2331 24.1041 64.653 23.7016C65.0815 23.2918 65.6587 23.067 66.2573 23.0806C66.8548 23.0691 67.4331 23.2928 67.8626 23.7016C68.2815 24.1041 68.5175 24.656 68.5164 25.232C68.5164 25.807 68.2804 26.358 67.8626 26.7604C67.4278 27.1598 66.8537 27.3825 66.2573 27.3814C65.6619 27.3814 65.0889 27.1608 64.653 26.7625V26.7604ZM48.6094 27.3417C46.9892 27.4013 45.4104 26.8263 44.2218 25.7412C43.0173 24.518 42.3965 22.8517 42.5113 21.1529C42.4347 19.4677 43.0673 17.8253 44.2601 16.6127C45.3902 15.4794 46.9477 14.8574 48.5615 14.893C49.3695 14.8804 50.1711 15.031 50.9185 15.3341C51.4522 15.5254 51.9401 15.8223 52.3526 16.2049L52.7417 16.6367V15.1062H55.3655V27.1535H52.7396V25.5028C52.7067 25.5509 52.6599 25.6178 52.595 25.7046C52.4558 25.8666 52.3005 26.014 52.1336 26.1478C51.8902 26.3559 51.6244 26.5399 51.3437 26.6967C50.9738 26.889 50.5825 27.0375 50.1764 27.1378C49.6799 27.2727 49.1675 27.3417 48.6519 27.3417H48.6094ZM46.144 18.2132C45.4455 19.015 45.083 20.0489 45.1329 21.1037C45.0883 22.1627 45.4583 23.1977 46.1663 23.9964C46.8648 24.7501 47.8652 25.161 48.9007 25.1191C49.9638 25.1725 51.0003 24.7815 51.7552 24.0445C52.493 23.2426 52.8746 22.1836 52.814 21.1037C52.8619 20.0343 52.4675 18.991 51.719 18.2132C50.9706 17.472 49.9383 17.0726 48.8762 17.1145C47.845 17.0664 46.8446 17.4699 46.144 18.2153V18.2132ZM20.0782 27.3417C18.458 27.4023 16.8803 26.8263 15.6928 25.7412C14.4883 24.518 13.8664 22.8517 13.9791 21.1529C13.9025 19.4677 14.5351 17.8253 15.7279 16.6127C16.8591 15.4805 18.4155 14.8574 20.0293 14.893C20.8384 14.8804 21.64 15.031 22.3884 15.3341C22.921 15.5265 23.409 15.8223 23.8215 16.2049L24.2095 16.6367V15.1062H26.8344V27.1535H24.2095V25.5028C24.1628 25.5708 24.1139 25.6387 24.0649 25.7046C23.9257 25.8666 23.7705 26.014 23.6036 26.1478C23.3601 26.3559 23.0943 26.5399 22.8136 26.6967C22.4437 26.889 22.0524 27.0375 21.6463 27.1378C21.1499 27.2727 20.6364 27.3417 20.1207 27.3417H20.0782ZM17.6107 18.2132C16.9122 19.015 16.5518 20.0489 16.6039 21.1037C16.5593 22.1617 16.9282 23.1977 17.6352 23.9964C18.3326 24.7501 19.334 25.162 20.3695 25.1191C21.4326 25.1714 22.4681 24.7815 23.224 24.0445C23.9618 23.2426 24.3435 22.1836 24.2808 21.1037C24.3297 20.0343 23.9342 18.991 23.1868 18.2132C22.4384 17.4709 21.4061 17.0726 20.344 17.1145C19.3117 17.0664 18.3113 17.4688 17.6107 18.2153V18.2132ZM57.4344 27.1514V15.0811H60.0593V17.2556C60.0869 17.1646 60.123 17.0768 60.1677 16.9932C60.2857 16.7872 60.4154 16.5876 60.5579 16.3963C60.7492 16.1213 60.9778 15.8725 61.2372 15.6561C61.5561 15.4136 61.9144 15.2233 62.2961 15.0937C62.7617 14.9254 63.2593 14.8564 63.7547 14.8919L63.5378 17.6884C62.6108 17.541 61.6667 17.8285 60.9863 18.4651C60.342 19.1467 60.0103 20.0573 60.0656 20.9866V27.1525H57.4355L57.4344 27.1514Z" fill="#004132"/>
<path d="M90.6334 16.2896C91.502 17.2022 91.9357 18.4975 91.9357 20.1764V27.2277H88.8176V20.5266C88.8176 19.5931 88.5763 18.8728 88.0936 18.37C87.6109 17.8661 86.9465 17.6141 86.1002 17.6141C85.254 17.6141 84.5268 17.8838 84.0069 18.4243C83.4871 18.9648 83.2277 19.753 83.2277 20.789V27.2277H80.1095V20.5266C80.1095 19.5931 79.8682 18.8728 79.3855 18.37C78.9029 17.8661 78.2384 17.6141 77.3922 17.6141C76.5459 17.6141 75.8187 17.8838 75.2989 18.4243C74.779 18.9648 74.5196 19.753 74.5196 20.789V27.2277H71.3791V15.0957H74.5196V17.3956C74.846 16.6074 75.3616 15.9979 76.0675 15.5672C76.7724 15.1365 77.5931 14.9212 78.5286 14.9212C79.5237 14.9212 80.388 15.1553 81.1227 15.6216C81.8573 16.0889 82.4101 16.76 82.7822 17.6361C83.1681 16.8039 83.7433 16.1432 84.5077 15.654C85.2721 15.1647 86.13 14.9201 87.0794 14.9201C88.5784 14.9201 89.7627 15.377 90.6313 16.2886L90.6334 16.2896Z" fill="#004132"/>
<path d="M105.034 23.1642C104.57 25.7286 102.28 27.3814 99.2589 27.3814C95.2382 27.3814 92.996 24.2661 92.996 21.1027C92.996 17.9393 94.9947 14.9201 99.0154 14.9201C103.036 14.9201 104.986 17.8671 104.986 20.7431C104.986 21.1508 104.962 21.5093 104.937 21.7498H95.8718C96.0908 23.6911 97.358 24.9372 99.2589 24.9372C100.794 24.9372 101.793 24.3142 102.11 23.1642H105.035H105.034ZM95.9441 19.8095H101.988C101.866 18.2759 100.794 17.1259 99.0154 17.1259C97.3336 17.1259 96.2619 17.9884 95.9451 19.8095H95.9441Z" fill="#004132"/>
</g>
</g>
<defs>
<clipPath id="clip0_809_25761">
<rect width="142" height="32" fill="white"/>
</clipPath>
<clipPath id="clip1_809_25761">
<rect width="120" height="32" fill="white"/>
</clipPath>
</defs>
</svg>
