<svg width="50" height="50" viewBox="0 0 50 50" fill="none" xmlns="http://www.w3.org/2000/svg">
<g clip-path="url(#clip0_2170_3270)">
<rect width="50" height="50" rx="10" fill="white"/>
<rect width="50" height="50" rx="10" fill="#A7BF30"/>
<path d="M25.2001 31.102C25.2001 34.8162 22.1892 37.8271 18.4751 37.8271C14.7609 37.8271 11.75 34.8162 11.75 31.102C11.75 27.3879 14.7609 24.377 18.4751 24.377C22.1892 24.377 25.2001 27.3879 25.2001 31.102Z" fill="white"/>
<path d="M28.0659 21.9848C24.9516 18.4592 20.3676 17.7526 18.4648 17.84V11.2243C21.3592 11.0651 28.2936 12.0836 32.877 17.4308C37.4603 22.778 38.3613 28.7177 38.2389 31.0192H31.7385C31.8119 29.4767 31.1803 25.5104 28.0659 21.9848Z" fill="white"/>
</g>
<defs>
<clipPath id="clip0_2170_3270">
<rect width="50" height="50" rx="10" fill="white"/>
</clipPath>
</defs>
</svg>
