<svg width="76" height="71" viewBox="0 0 76 71" fill="none" xmlns="http://www.w3.org/2000/svg">
<path d="M64.3539 51.034L60.9484 46.7123C54.2865 47.8575 45.0058 49.1022 39.3199 49.1022C38.5432 49.1022 37.7565 49.1022 36.9798 49.0823C36.2429 50.0283 35.506 50.9643 34.7791 51.9003C34.7592 51.9203 34.7492 51.9302 34.7393 51.9501C31.8913 55.5848 28.9538 59.3389 26.0162 62.9834C23.0587 65.7716 19.5436 65.1841 17.3429 63.3519C15.1422 61.5097 13.9473 58.134 16.1878 54.7284L21.6049 47.8276C19.3843 47.5189 17.3031 47.1803 15.4409 46.8318L12.125 51.044C8.06218 56.1623 8.90859 63.6506 14.017 67.7333C16.1977 69.476 18.8167 70.3323 21.4356 70.3323C24.6818 70.3323 27.8982 69.0179 30.2284 66.4587L38.2444 56.2918L46.2605 66.4587C48.5907 69.0179 51.807 70.3323 55.0533 70.3323C57.6623 70.3323 60.2911 69.476 62.4719 67.7333C67.5803 63.6506 68.4267 56.1623 64.3639 51.044L64.3539 51.034ZM65.6783 6.64189C63.7366 2.7185 59.9526 0.229031 55.5711 0H54.3662L52.7929 0.219073C50.5026 0.657219 48.3815 1.7725 46.6489 3.44542L46.5294 3.56491C43.7013 6.99042 40.9331 10.5255 38.2345 14.0007C35.5459 10.5354 32.7776 6.99042 29.9495 3.56491L29.8301 3.44542C28.0974 1.76254 25.9764 0.647261 23.6861 0.219073L22.1127 0.00995808H20.9875L20.9078 0C16.5164 0.229031 12.7424 2.7185 10.8006 6.64189C8.86876 10.5653 9.19737 15.0762 11.6968 18.6909L13.8178 21.3895C14.7539 21.5588 20.3203 22.8533 22.1924 23.2217L16.1778 15.5641C14.8435 13.6423 14.6543 11.2325 15.6799 9.10148C16.1878 8.02603 16.9446 7.1597 17.8707 6.53235C18.7868 5.90501 19.8822 5.53657 21.0472 5.45691C22.9591 5.34737 24.881 6.10417 26.1855 7.50822C28.9239 10.8939 31.6424 14.3991 34.2812 17.7748C34.4505 17.9938 34.6198 18.2129 34.7891 18.432C36.4321 20.5331 38.0951 22.6641 39.778 24.7951C51.4784 24.4864 60.3608 21.977 61.3765 21.6882C61.7251 21.5886 62.213 21.4492 62.7308 21.2999L64.802 18.6809C67.2915 15.0563 67.6301 10.5553 65.6983 6.63193L65.6783 6.64189Z" fill="#FF009B"/>
<path d="M38.2345 44.7904C19.1354 44.7904 6.06071 40.5583 5.51302 40.3791C1.30085 38.995 -0.9795 34.4542 0.404642 30.252C1.78878 26.0498 6.31961 23.7594 10.5218 25.1336C10.8206 25.2232 22.0231 28.7483 38.2445 28.7483C54.4659 28.7483 65.2801 25.1934 65.3896 25.1635C69.5819 23.7296 74.1326 25.9601 75.5665 30.1524C77.0005 34.3446 74.76 38.9153 70.5677 40.3492C70.0399 40.5285 57.3835 44.8004 38.2345 44.8004V44.7904Z" fill="#FF009B"/>
</svg>
