<svg width="110" height="32" viewBox="0 0 110 32" fill="none" xmlns="http://www.w3.org/2000/svg">
<path d="M91.3243 30.5161C91.233 30.5161 91.1535 30.4882 91.0874 30.4325C91.0291 30.3688 91 30.2971 91 30.2174V29.3694C91 29.3137 91.0165 29.2301 91.0496 29.1186C91.0834 28.9992 91.1708 28.8877 91.3117 28.7842L92.6095 27.5659C93.2745 27.0802 93.8191 26.6701 94.2433 26.3357C94.6754 25.9933 94.9957 25.6907 95.2035 25.4279C95.4113 25.1652 95.516 24.9183 95.516 24.6874C95.516 24.4167 95.4404 24.1937 95.2909 24.0186C95.15 23.8354 94.9005 23.7438 94.5424 23.7438C94.3016 23.7438 94.1017 23.7956 93.9443 23.8991C93.7861 23.9946 93.6609 24.1221 93.5696 24.2813C93.4862 24.4406 93.428 24.6038 93.3949 24.771C93.3619 24.8745 93.3036 24.9462 93.2202 24.986C93.1454 25.0258 93.062 25.0457 92.9707 25.0457H91.4116C91.3368 25.0457 91.2747 25.0218 91.2243 24.974C91.1747 24.9263 91.1495 24.8666 91.1495 24.7949C91.1582 24.4127 91.2408 24.0544 91.399 23.72C91.5659 23.3776 91.7941 23.0789 92.0853 22.8241C92.3844 22.5694 92.7378 22.3703 93.1454 22.227C93.561 22.0756 94.0269 22 94.5424 22C95.2492 22 95.8481 22.1115 96.3392 22.3344C96.8382 22.5495 97.2159 22.852 97.4741 23.2421C97.7314 23.6244 97.8605 24.0743 97.8605 24.5918C97.8605 24.982 97.7692 25.3483 97.5866 25.6907C97.4119 26.0251 97.1577 26.3476 96.8256 26.6582C96.5013 26.9608 96.1141 27.2752 95.6655 27.6017L94.518 28.7125H97.7236C97.8149 28.7125 97.8896 28.7404 97.9479 28.7962C98.0148 28.8519 98.0478 28.9236 98.0478 29.0111V30.2174C98.0478 30.2971 98.0148 30.3688 97.9479 30.4325C97.8896 30.4882 97.8149 30.5161 97.7236 30.5161H91.3243Z" fill="#004132"/>
<path d="M99.5869 30.5161C99.4948 30.5161 99.42 30.4883 99.3618 30.4325C99.3035 30.3689 99.2744 30.2972 99.2744 30.2175V28.7006C99.2744 28.6131 99.3035 28.5414 99.3618 28.4857C99.42 28.43 99.4948 28.4021 99.5869 28.4021H101.171C101.254 28.4021 101.325 28.43 101.383 28.4857C101.45 28.5414 101.483 28.6131 101.483 28.7006V30.2175C101.483 30.2972 101.45 30.3689 101.383 30.4325C101.325 30.4883 101.254 30.5161 101.171 30.5161H99.5869Z" fill="#004132"/>
<path d="M106.289 30.6356C105.691 30.6356 105.171 30.5559 104.73 30.3967C104.298 30.2295 103.936 30.0026 103.645 29.7159C103.354 29.4292 103.133 29.0948 102.984 28.7126C102.834 28.3304 102.747 27.9203 102.722 27.4824C102.714 27.2673 102.705 27.0245 102.697 26.7538C102.697 26.4751 102.697 26.1964 102.697 25.9177C102.705 25.631 102.714 25.3762 102.722 25.1533C102.747 24.7153 102.834 24.3092 102.984 23.935C103.142 23.5528 103.366 23.2223 103.657 22.9437C103.957 22.657 104.322 22.434 104.755 22.2748C105.196 22.1155 105.708 22.0359 106.289 22.0359C106.88 22.0359 107.391 22.1155 107.824 22.2748C108.265 22.434 108.631 22.657 108.922 22.9437C109.212 23.2223 109.437 23.5528 109.596 23.935C109.753 24.3092 109.845 24.7153 109.869 25.1533C109.878 25.3762 109.882 25.631 109.882 25.9177C109.891 26.1964 109.891 26.4751 109.882 26.7538C109.882 27.0245 109.878 27.2673 109.869 27.4824C109.845 27.9203 109.753 28.3304 109.596 28.7126C109.445 29.0948 109.225 29.4292 108.934 29.7159C108.651 30.0026 108.29 30.2295 107.849 30.3967C107.416 30.5559 106.897 30.6356 106.289 30.6356ZM106.289 28.9037C106.722 28.9037 107.034 28.7724 107.225 28.5096C107.425 28.2388 107.529 27.8765 107.537 27.4227C107.553 27.1917 107.562 26.9489 107.562 26.6941C107.571 26.4392 107.571 26.1844 107.562 25.9297C107.562 25.6748 107.553 25.4399 107.537 25.225C107.529 24.787 107.425 24.4327 107.225 24.1619C107.034 23.8912 106.722 23.7519 106.289 23.7439C105.866 23.7519 105.553 23.8912 105.354 24.1619C105.163 24.4327 105.059 24.787 105.042 25.225C105.042 25.4399 105.038 25.6748 105.03 25.9297C105.03 26.1844 105.03 26.4392 105.03 26.6941C105.038 26.9489 105.042 27.1917 105.042 27.4227C105.059 27.8765 105.167 28.2388 105.367 28.5096C105.566 28.7724 105.874 28.9037 106.289 28.9037Z" fill="#004132"/>
<g clip-path="url(#clip0_809_25761)">
<path d="M90.7194 17.6H96.0002C96.0087 17.3876 96.0163 17.1743 96.0163 16.9594C96.0061 8.27914 88.8577 1.24145 80.0294 1.22221V6.40911C85.9481 6.41831 90.7415 11.1394 90.7407 16.9594C90.7415 17.1726 90.733 17.3876 90.7203 17.6H90.7194Z" fill="#00AF55"/>
<path d="M50.1846 4.7587H51.4535C51.5105 5.29311 51.929 5.62764 52.5524 5.62764C53.0958 5.62764 53.459 5.36001 53.459 5.02632C53.459 3.77852 50.3326 4.97029 50.3326 2.59763C50.3326 1.61745 51.2052 0.926646 52.3831 0.926646C53.7201 0.926646 54.6378 1.65091 54.6939 2.74231H53.425C53.3459 2.21877 52.8585 1.95115 52.4171 1.95115C51.9187 1.95115 51.5905 2.17361 51.5905 2.55247C51.5905 3.76681 54.7628 2.42953 54.7628 4.96945C54.7628 6.0274 53.8902 6.71821 52.5541 6.71821C51.2179 6.71821 50.2543 5.9605 50.1863 4.75786L50.1846 4.7587Z" fill="#00AF55"/>
<path d="M56.7079 0V1.0153H58.0968V2.16274H56.7079V4.61318C56.7079 5.18104 57.0141 5.47125 57.5346 5.47125H58.0968V6.62956H57.3764C56.1304 6.62956 55.3148 5.91701 55.3148 4.66921V0H56.7079Z" fill="#00AF55"/>
<path d="M58.2117 3.82285C58.2117 2.15186 59.4577 0.926646 61.202 0.926646C62.9464 0.926646 64.1813 2.15186 64.1813 3.82285C64.1813 5.49383 62.9354 6.71904 61.202 6.71904C59.4687 6.71904 58.2117 5.49383 58.2117 3.82285ZM62.7772 3.82285C62.7772 2.80922 62.1427 2.10754 61.2029 2.10754C60.2631 2.10754 59.6167 2.80922 59.6167 3.82285C59.6167 4.83647 60.2512 5.53815 61.2029 5.53815C62.1546 5.53815 62.7772 4.83647 62.7772 3.82285Z" fill="#00AF55"/>
<path d="M67.19 0.92666C68.8076 0.92666 69.6743 1.83993 69.6743 3.15463V6.63041H68.2812V3.44484C68.2812 2.67626 67.9036 2.14184 67.19 2.14184C66.4764 2.14184 66.0988 2.67626 66.0988 3.44484V6.63041H64.7057V3.15463C64.7057 1.83993 65.5723 0.92666 67.19 0.92666Z" fill="#00AF55"/>
<path d="M75.7584 4.75869C75.5432 5.95046 74.4784 6.71904 73.0733 6.71904C71.2039 6.71904 70.1621 5.27053 70.1621 3.80026C70.1621 2.33 71.0908 0.925809 72.9602 0.925809C74.8296 0.925809 75.7354 2.29571 75.7354 3.633C75.7354 3.82201 75.7243 3.98927 75.7124 4.10051H71.4982C71.6003 5.0029 72.1897 5.58248 73.0733 5.58248C73.7869 5.58248 74.2513 5.29311 74.3984 4.75786H75.7575L75.7584 4.75869ZM71.5331 3.19895H74.3423C74.2853 2.48639 73.7869 1.95115 72.9602 1.95115C72.1786 1.95115 71.6802 2.35258 71.5331 3.19895Z" fill="#00AF55"/>
<path d="M26.3205 25.4326C25.8901 25.3398 25.4708 25.2051 25.0668 25.0312C24.7598 24.8932 24.4613 24.736 24.173 24.5612C23.9671 24.4399 23.7715 24.3028 23.5895 24.1497L23.416 23.9791L24.4664 22.4495L24.6127 22.595C24.7428 22.7079 24.878 22.8133 25.0209 22.9094C25.2361 23.0642 25.464 23.2021 25.7022 23.3209C26.3494 23.6228 27.0562 23.7826 27.7731 23.7892C28.6049 23.8654 29.4325 23.6145 30.0771 23.0926C30.5823 22.5431 30.8383 21.8147 30.7882 21.0754V20.2541C30.7507 20.3059 30.7108 20.357 30.6699 20.4055C30.5551 20.5318 30.4318 20.6497 30.3008 20.7584C30.1078 20.9307 29.896 21.0812 29.6689 21.2092C29.3738 21.3614 29.0599 21.476 28.7351 21.5504C28.3243 21.6549 27.9016 21.706 27.478 21.7018C26.1852 21.7503 24.9248 21.297 23.968 20.4398C23.0078 19.4822 22.5102 18.1675 22.5978 16.826C22.5434 15.4987 23.0494 14.2075 23.9969 13.2599C24.9044 12.3592 26.1487 11.8649 27.438 11.8933C28.0844 11.8833 28.7257 12.0037 29.3236 12.2463C29.7506 12.3985 30.1418 12.6368 30.4701 12.9446L30.7822 13.2858V12.0439H32.8855V20.7249C32.8855 23.9749 31.2126 25.5991 27.8675 25.5999H27.8463C27.3334 25.6016 26.8223 25.5455 26.3213 25.4335H26.3205V25.4326ZM25.5014 14.5428C24.9478 15.1692 24.6586 15.9805 24.696 16.8101C24.662 17.6364 24.958 18.4426 25.521 19.0565C26.0883 19.6427 26.8861 19.9597 27.7085 19.9263C28.5539 19.9639 29.378 19.6553 29.9844 19.074C30.5704 18.4644 30.88 17.6464 30.8392 16.8093C30.8732 15.9679 30.5577 15.1492 29.964 14.542C29.361 13.9549 28.5369 13.6396 27.6881 13.6722C26.8648 13.6346 26.0653 13.9532 25.5014 14.5445V14.5428ZM0 12.0439H2.09989V13.3251C2.12625 13.2867 2.16878 13.2331 2.22661 13.162C2.34653 13.0341 2.47666 12.9153 2.61529 12.8074C2.82026 12.6385 3.04139 12.4913 3.27783 12.3675C3.58742 12.2162 3.91316 12.0982 4.24911 12.0163C4.6633 11.9067 5.0911 11.8515 5.51976 11.8532C6.80997 11.8089 8.0585 12.3065 8.95238 13.2214C9.86582 14.1999 10.3464 15.4971 10.2851 16.8243C10.3642 18.1808 9.88368 19.5123 8.95238 20.5167C8.02363 21.4258 6.75128 21.9109 5.44236 21.8557C5.02306 21.8582 4.60462 21.8063 4.19893 21.7026C3.86468 21.6232 3.54404 21.4977 3.24551 21.3304C3.02353 21.2 2.80921 21.0561 2.60424 20.8997C2.45965 20.7952 2.32867 20.6731 2.21556 20.5368L2.09989 20.3837V25.3933L0 25.395V12.0439ZM2.89766 14.5311C2.31251 15.1684 2.00378 16.0056 2.0412 16.8636C1.99273 17.7292 2.30146 18.5764 2.89766 19.2145C3.51172 19.8067 4.34947 20.1186 5.20847 20.076C6.02666 20.1128 6.81847 19.7858 7.3662 19.1869C7.91562 18.5438 8.20054 17.7217 8.16397 16.8829C8.19969 16.0273 7.90456 15.1893 7.33728 14.5395C6.7819 13.9323 5.98158 13.5994 5.15149 13.6304C4.30269 13.5986 3.48195 13.9273 2.89851 14.5336V14.5294L2.89766 14.5311ZM51.7224 21.4082C51.3865 21.0871 51.1977 20.6463 51.1977 20.1855C51.1977 19.7247 51.3865 19.2831 51.7224 18.9611C52.0652 18.6333 52.527 18.4535 53.0058 18.4644C53.4838 18.4552 53.9465 18.6341 54.2901 18.9611C54.6252 19.2831 54.814 19.7247 54.8131 20.1855C54.8131 20.6455 54.6243 21.0862 54.2901 21.4082C53.9422 21.7277 53.483 21.9058 53.0058 21.905C52.5295 21.905 52.0711 21.7285 51.7224 21.4099V21.4082ZM38.8875 21.8732C37.5913 21.9209 36.3283 21.4609 35.3775 20.5928C34.4139 19.6143 33.9172 18.2812 34.009 16.9222C33.9478 15.574 34.4538 14.2601 35.4081 13.29C36.3122 12.3834 37.5582 11.8858 38.8492 11.9142C39.4956 11.9042 40.1369 12.0246 40.7348 12.2672C41.1617 12.4202 41.5521 12.6577 41.8821 12.9638L42.1934 13.3092V12.0849H44.2924V21.7227H42.1917V20.4021C42.1653 20.4406 42.1279 20.4941 42.076 20.5635C41.9646 20.6932 41.8404 20.8111 41.7069 20.9181C41.5121 21.0846 41.2995 21.2318 41.075 21.3572C40.779 21.5111 40.466 21.6299 40.1411 21.7101C39.7439 21.818 39.334 21.8732 38.9215 21.8732H38.8875ZM36.9152 14.5704C36.3564 15.2119 36.0664 16.039 36.1064 16.8829C36.0706 17.7301 36.3666 18.558 36.933 19.197C37.4918 19.8 38.2921 20.1286 39.1205 20.0952C39.971 20.1378 40.8003 19.8251 41.4041 19.2354C41.9944 18.594 42.2997 17.7468 42.2512 16.8829C42.2895 16.0273 41.974 15.1926 41.3752 14.5704C40.7765 13.9775 39.9506 13.658 39.101 13.6914C38.276 13.653 37.4757 13.9758 36.9152 14.5721V14.5704ZM16.0626 21.8732C14.7664 21.9217 13.5043 21.4609 12.5543 20.5928C11.5906 19.6143 11.0931 18.2812 11.1832 16.9222C11.122 15.574 11.6281 14.2601 12.5823 13.29C13.4873 12.3843 14.7324 11.8858 16.0235 11.9142C16.6707 11.9042 17.312 12.0246 17.9107 12.2672C18.3368 12.4211 18.7272 12.6577 19.0572 12.9638L19.3676 13.3092V12.0849H21.4675V21.7227H19.3676V20.4021C19.3302 20.4565 19.2911 20.5108 19.252 20.5635C19.1405 20.6932 19.0164 20.8111 18.8828 20.9181C18.6881 21.0846 18.4754 21.2318 18.2509 21.3572C17.9549 21.5111 17.642 21.6299 17.3171 21.7101C16.9199 21.818 16.5091 21.8732 16.0966 21.8732H16.0626ZM14.0886 14.5704C13.5298 15.2119 13.2415 16.039 13.2831 16.8829C13.2474 17.7292 13.5425 18.558 14.1081 19.197C14.6661 19.8 15.4672 20.1295 16.2956 20.0952C17.1461 20.137 17.9745 19.8251 18.5792 19.2354C19.1695 18.594 19.4748 17.7468 19.4246 16.8829C19.4637 16.0273 19.1473 15.1926 18.5494 14.5704C17.9507 13.9766 17.1249 13.658 16.2752 13.6914C15.4494 13.653 14.649 13.975 14.0886 14.5721V14.5704ZM45.9475 21.721V12.0648H48.0474V13.8043C48.0695 13.7316 48.0984 13.6613 48.1341 13.5944C48.2286 13.4297 48.3323 13.2699 48.4463 13.1169C48.5994 12.8969 48.7822 12.6979 48.9898 12.5248C49.2449 12.3307 49.5315 12.1785 49.8369 12.0748C50.2094 11.9402 50.6074 11.885 51.0037 11.9134L50.8302 14.1506C50.0886 14.0327 49.3334 14.2626 48.789 14.772C48.2736 15.3173 48.0083 16.0457 48.0525 16.7892V21.7218H45.9484L45.9475 21.721Z" fill="#004132"/>
<path d="M72.5067 13.0316C73.2016 13.7617 73.5486 14.7979 73.5486 16.141V21.782H71.0541V16.4212C71.0541 15.6743 70.861 15.0981 70.4749 14.6958C70.0887 14.2927 69.5572 14.0912 68.8802 14.0912C68.2032 14.0912 67.6214 14.307 67.2055 14.7393C66.7897 15.1717 66.5821 15.8023 66.5821 16.6311V21.782H64.0876V16.4212C64.0876 15.6743 63.8945 15.0981 63.5084 14.6958C63.1223 14.2927 62.5907 14.0912 61.9137 14.0912C61.2367 14.0912 60.655 14.307 60.2391 14.7393C59.8232 15.1717 59.6157 15.8023 59.6157 16.6311V21.782H57.1033V12.0765H59.6157V13.9164C59.8768 13.2858 60.2893 12.7982 60.854 12.4537C61.4179 12.1091 62.0745 11.9368 62.8229 11.9368C63.619 11.9368 64.3104 12.1241 64.8981 12.4971C65.4858 12.871 65.9281 13.4079 66.2258 14.1087C66.5345 13.443 66.9946 12.9145 67.6061 12.5231C68.2176 12.1317 68.904 11.936 69.6635 11.936C70.8627 11.936 71.8102 12.3014 72.505 13.0307L72.5067 13.0316Z" fill="#004132"/>
<path d="M84.027 18.5313C83.6562 20.5828 81.8242 21.905 79.4071 21.905C76.1905 21.905 74.3968 19.4127 74.3968 16.882C74.3968 14.3513 75.9958 11.936 79.2124 11.936C82.429 11.936 83.9888 14.2936 83.9888 16.5943C83.9888 16.9205 83.9692 17.2074 83.9496 17.3997H76.6974C76.8726 18.9528 77.8864 19.9497 79.4071 19.9497C80.6352 19.9497 81.4347 19.4512 81.6882 18.5313H84.0279H84.027ZM76.7553 15.8475H81.5904C81.4925 14.6206 80.6352 13.7006 79.2124 13.7006C77.8669 13.7006 77.0096 14.3906 76.7561 15.8475H76.7553Z" fill="#004132"/>
</g>
<defs>
<clipPath id="clip0_809_25761">
<rect width="96" height="25.6" fill="white"/>
</clipPath>
</defs>
</svg>
