<svg width="118" height="32" viewBox="0 0 118 32" fill="none" xmlns="http://www.w3.org/2000/svg">
<g clip-path="url(#clip0_809_25794)">
<path d="M111.509 22H118C118.01 21.7345 118.02 21.4679 118.02 21.1992C118.007 10.3489 109.221 1.55181 98.3693 1.52777V8.01139C105.644 8.02289 111.536 13.9242 111.535 21.1992C111.536 21.4658 111.526 21.7345 111.51 22H111.509Z" fill="#00AF55"/>
<path d="M61.6855 5.94837H63.2453C63.3153 6.61638 63.8297 7.03455 64.596 7.03455C65.264 7.03455 65.7104 6.70002 65.7104 6.2829C65.7104 4.72315 61.8674 6.21286 61.8674 3.24703C61.8674 2.02182 62.94 1.15831 64.3879 1.15831C66.0313 1.15831 67.1593 2.06363 67.2283 3.42789H65.6686C65.5713 2.77346 64.9723 2.43893 64.4297 2.43893C63.8171 2.43893 63.4136 2.71701 63.4136 3.19058C63.4136 4.70851 67.313 3.03691 67.313 6.21181C67.313 7.53425 66.2404 8.39776 64.5981 8.39776C62.9557 8.39776 61.7713 7.45062 61.6876 5.94732L61.6855 5.94837Z" fill="#00AF55"/>
<path d="M69.7039 0V1.26913H71.411V2.70343H69.7039V5.76647C69.7039 6.47631 70.0802 6.83906 70.72 6.83906H71.411V8.28695H70.5255C68.994 8.28695 67.9915 7.39626 67.9915 5.83652V0H69.7039Z" fill="#00AF55"/>
<path d="M71.5522 4.77856C71.5522 2.68983 73.0837 1.15831 75.2279 1.15831C77.372 1.15831 78.8899 2.68983 78.8899 4.77856C78.8899 6.86728 77.3584 8.39881 75.2279 8.39881C73.0973 8.39881 71.5522 6.86728 71.5522 4.77856ZM77.164 4.77856C77.164 3.51152 76.3841 2.63442 75.2289 2.63442C74.0737 2.63442 73.2792 3.51152 73.2792 4.77856C73.2792 6.04559 74.0591 6.92269 75.2289 6.92269C76.3987 6.92269 77.164 6.04559 77.164 4.77856Z" fill="#00AF55"/>
<path d="M82.588 1.15833C84.5764 1.15833 85.6417 2.29991 85.6417 3.94329V8.28801H83.9293V4.30605C83.9293 3.34532 83.4651 2.6773 82.588 2.6773C81.7109 2.6773 81.2468 3.34532 81.2468 4.30605V8.28801H79.5344V3.94329C79.5344 2.29991 80.5997 1.15833 82.588 1.15833Z" fill="#00AF55"/>
<path d="M93.12 5.94837C92.8555 7.43808 91.5467 8.3988 89.8196 8.3988C87.5218 8.3988 86.2412 6.58816 86.2412 4.75033C86.2412 2.9125 87.3828 1.15726 89.6806 1.15726C91.9784 1.15726 93.0918 2.86964 93.0918 4.54125C93.0918 4.77751 93.0782 4.98659 93.0635 5.12563H87.8835C88.009 6.25363 88.7335 6.9781 89.8196 6.9781C90.6967 6.9781 91.2675 6.61638 91.4484 5.94732H93.1189L93.12 5.94837ZM87.9264 3.99868H91.3794C91.3093 3.10799 90.6967 2.43893 89.6806 2.43893C88.7199 2.43893 88.1073 2.94073 87.9264 3.99868Z" fill="#00AF55"/>
<path d="M32.3523 31.7908C31.8233 31.6748 31.3079 31.5065 30.8113 31.289C30.4339 31.1165 30.067 30.92 29.7126 30.7015C29.4596 30.5499 29.2192 30.3785 28.9954 30.1872L28.7822 29.9739L30.0733 28.0618L30.2531 28.2437C30.413 28.3849 30.5792 28.5166 30.7549 28.6368C31.0194 28.8302 31.2995 29.0027 31.5922 29.1512C32.3878 29.5286 33.2565 29.7282 34.1378 29.7366C35.1602 29.8317 36.1774 29.5181 36.9698 28.8658C37.5908 28.1789 37.9055 27.2684 37.8438 26.3442V25.3176C37.7978 25.3825 37.7487 25.4462 37.6985 25.5069C37.5573 25.6647 37.4058 25.8121 37.2448 25.948C37.0075 26.1634 36.7472 26.3516 36.468 26.5115C36.1053 26.7018 35.7195 26.845 35.3202 26.938C34.8152 27.0687 34.2957 27.1325 33.7751 27.1272C32.186 27.1879 30.6367 26.6213 29.4607 25.5497C28.2804 24.3527 27.6688 22.7094 27.7765 21.0325C27.7096 19.3735 28.3316 17.7593 29.4962 16.5749C30.6116 15.449 32.1411 14.8312 33.7259 14.8667C34.5204 14.8542 35.3087 15.0047 36.0436 15.3079C36.5684 15.4981 37.0493 15.7961 37.4528 16.1808L37.8365 16.6073V15.0549H40.4218V25.9062C40.4218 29.9687 38.3654 31.9989 34.2539 31.9999H34.2277C33.5973 32.002 32.969 31.9319 32.3533 31.7919H32.3523V31.7908ZM31.3455 18.1786C30.665 18.9616 30.3095 19.9756 30.3555 21.0127C30.3137 22.0455 30.6775 23.0533 31.3696 23.8206C32.0669 24.5535 33.0475 24.9497 34.0584 24.9078C35.0975 24.9549 36.1105 24.5691 36.8559 23.8426C37.5762 23.0805 37.9567 22.0581 37.9065 21.0116C37.9483 19.9599 37.5605 18.9365 36.8308 18.1775C36.0896 17.4436 35.0766 17.0495 34.0333 17.0903C33.0213 17.0432 32.0386 17.4415 31.3455 18.1806V18.1786ZM0 15.0549H2.58111V16.6564C2.61352 16.6084 2.66579 16.5414 2.73688 16.4526C2.88428 16.2926 3.04423 16.1442 3.21463 16.0093C3.46657 15.7982 3.73838 15.6142 4.029 15.4594C4.40953 15.2702 4.80992 15.1228 5.22286 15.0204C5.73197 14.8834 6.25782 14.8144 6.7847 14.8165C8.37059 14.7611 9.90525 15.3831 11.004 16.5268C12.1267 17.7499 12.7174 19.3714 12.6421 21.0304C12.7393 22.7261 12.1487 24.3904 11.004 25.6459C9.86238 26.7823 8.29845 27.3886 6.68957 27.3196C6.17418 27.3227 5.65984 27.2579 5.16118 27.1283C4.75034 27.029 4.35622 26.8722 3.98928 26.6631C3.71643 26.5 3.45298 26.3202 3.20104 26.1247C3.02332 25.994 2.86233 25.8414 2.72329 25.671L2.58111 25.4797V31.7417L0 31.7438V15.0549ZM3.56171 18.1639C2.84247 18.9605 2.46298 20.007 2.50898 21.0796C2.44939 22.1616 2.82888 23.2206 3.56171 24.0182C4.31649 24.7584 5.34622 25.1483 6.40208 25.095C7.40776 25.141 8.38104 24.7322 9.05428 23.9837C9.72962 23.1798 10.0798 22.1522 10.0349 21.1036C10.0788 20.0342 9.71603 18.9867 9.01874 18.1744C8.33609 17.4154 7.35236 16.9993 6.33204 17.038C5.28872 16.9983 4.2799 17.4091 3.56275 18.1671V18.1618L3.56171 18.1639ZM63.5755 26.7603C63.1625 26.3589 62.9305 25.8079 62.9305 25.2319C62.9305 24.6559 63.1625 24.1039 63.5755 23.7014C63.9968 23.2916 64.5644 23.0669 65.153 23.0805C65.7405 23.069 66.3092 23.2927 66.7316 23.7014C67.1435 24.1039 67.3755 24.6559 67.3745 25.2319C67.3745 25.8069 67.1424 26.3578 66.7316 26.7603C66.304 27.1597 65.7395 27.3823 65.153 27.3813C64.5676 27.3813 64.0041 27.1607 63.5755 26.7624V26.7603ZM47.7992 27.3416C46.206 27.4011 44.6536 26.8262 43.4848 25.741C42.3004 24.5179 41.6898 22.8515 41.8027 21.1527C41.7275 19.4675 42.3495 17.8252 43.5224 16.6125C44.6337 15.4793 46.1652 14.8573 47.7522 14.8928C48.5467 14.8803 49.3349 15.0308 50.0698 15.334C50.5946 15.5253 51.0745 15.8222 51.4801 16.2048L51.8627 16.6366V15.1061H54.4428V27.1534H51.8606V25.5027C51.8282 25.5508 51.7822 25.6177 51.7184 25.7044C51.5815 25.8665 51.4289 26.0139 51.2647 26.1477C51.0253 26.3557 50.764 26.5397 50.488 26.6965C50.1242 26.8889 49.7395 27.0373 49.3401 27.1377C48.8519 27.2726 48.3481 27.3416 47.841 27.3416H47.7992ZM45.3749 18.2131C44.6881 19.0149 44.3316 20.0488 44.3807 21.1036C44.3368 22.1626 44.7006 23.1976 45.3969 23.9963C46.0837 24.75 47.0674 25.1608 48.0857 25.119C49.1311 25.1723 50.1503 24.7814 50.8926 24.0443C51.6181 23.2425 51.9934 22.1835 51.9338 21.1036C51.9808 20.0342 51.593 18.9908 50.857 18.2131C50.1211 17.4719 49.106 17.0725 48.0616 17.1143C47.0476 17.0662 46.0638 17.4698 45.3749 18.2151V18.2131ZM19.7436 27.3416C18.1504 27.4022 16.599 26.8262 15.4313 25.741C14.2468 24.5179 13.6353 22.8515 13.7461 21.1527C13.6708 19.4675 14.2928 17.8252 15.4658 16.6125C16.5781 15.4804 18.1086 14.8573 19.6955 14.8928C20.4911 14.8803 21.2793 15.0308 22.0153 15.334C22.539 15.5264 23.0189 15.8222 23.4245 16.2048L23.806 16.6366V15.1061H26.3872V27.1534H23.806V25.5027C23.76 25.5706 23.712 25.6386 23.6639 25.7044C23.5269 25.8665 23.3743 26.0139 23.2102 26.1477C22.9708 26.3557 22.7094 26.5397 22.4334 26.6965C22.0696 26.8889 21.6849 27.0373 21.2856 27.1377C20.7974 27.2726 20.2924 27.3416 19.7854 27.3416H19.7436ZM17.3172 18.2131C16.6304 19.0149 16.276 20.0488 16.3272 21.1036C16.2833 22.1616 16.646 23.1976 17.3412 23.9963C18.027 24.75 19.0118 25.1619 20.03 25.119C21.0754 25.1713 22.0937 24.7814 22.8369 24.0443C23.5625 23.2425 23.9378 22.1835 23.8761 21.1036C23.9242 20.0342 23.5353 18.9908 22.8004 18.2131C22.0644 17.4708 21.0493 17.0725 20.0049 17.1143C18.9898 17.0662 18.0061 17.4687 17.3172 18.2151V18.2131ZM56.4771 27.1513V15.081H59.0583V17.2555C59.0854 17.1645 59.121 17.0767 59.1649 16.9931C59.2809 16.7871 59.4085 16.5874 59.5486 16.3961C59.7367 16.1212 59.9615 15.8724 60.2166 15.656C60.5302 15.4134 60.8825 15.2232 61.2578 15.0936C61.7157 14.9252 62.2049 14.8562 62.6921 14.8918L62.4788 17.6883C61.5672 17.5409 60.6389 17.8283 59.9699 18.465C59.3363 19.1466 59.0102 20.0572 59.0645 20.9865V27.1523H56.4782L56.4771 27.1513Z" fill="#004132"/>
<path d="M89.1228 16.2895C89.9769 17.2021 90.4035 18.4974 90.4035 20.1763V27.2276H87.3373V20.5265C87.3373 19.593 87.1 18.8727 86.6254 18.3698C86.1508 17.866 85.4974 17.614 84.6652 17.614C83.8331 17.614 83.118 17.8837 82.6068 18.4242C82.0956 18.9647 81.8405 19.7529 81.8405 20.7889V27.2276H78.7744V20.5265C78.7744 19.593 78.537 18.8727 78.0624 18.3698C77.5878 17.866 76.9344 17.614 76.1023 17.614C75.2701 17.614 74.5551 17.8837 74.0439 18.4242C73.5327 18.9647 73.2776 19.7529 73.2776 20.7889V27.2276H70.1895V15.0956H73.2776V17.3955C73.5985 16.6073 74.1056 15.9978 74.7997 15.5671C75.4928 15.1364 76.2999 14.921 77.2198 14.921C78.1983 14.921 79.0482 15.1552 79.7706 15.6215C80.493 16.0888 81.0366 16.7599 81.4025 17.636C81.782 16.8038 82.3476 16.1431 83.0992 15.6539C83.8509 15.1646 84.6945 14.92 85.6281 14.92C87.1021 14.92 88.2667 15.3768 89.1208 16.2884L89.1228 16.2895Z" fill="#004132"/>
<path d="M103.283 23.1641C102.827 25.7285 100.576 27.3813 97.6046 27.3813C93.6508 27.3813 91.4461 24.266 91.4461 21.1026C91.4461 17.9392 93.4115 14.92 97.3652 14.92C101.319 14.92 103.236 17.867 103.236 20.7429C103.236 21.1506 103.212 21.5092 103.188 21.7497H94.2739C94.4893 23.691 95.7354 24.9371 97.6046 24.9371C99.1142 24.9371 100.097 24.3141 100.408 23.1641H103.284H103.283ZM94.345 19.8094H100.288C100.168 18.2758 99.1142 17.1258 97.3652 17.1258C95.7114 17.1258 94.6576 17.9883 94.346 19.8094H94.345Z" fill="#004132"/>
</g>
<defs>
<clipPath id="clip0_809_25794">
<rect width="118" height="32" fill="white"/>
</clipPath>
</defs>
</svg>
