<svg width="50" height="50" viewBox="0 0 50 50" fill="none" xmlns="http://www.w3.org/2000/svg">
<g clip-path="url(#clip0_2170_3280)">
<rect width="50" height="50" rx="10" fill="white"/>
<rect x="0.5" y="0.5" width="49" height="49" rx="9.5" fill="white" stroke="#DDDDE0"/>
<path d="M30.0556 23.9362H29.5474C29.2772 23.9362 29.0582 24.1552 29.0582 24.425V27.2099H27.8794V24.366C27.8794 23.5398 28.5491 22.8699 29.3753 22.8699H30.671L30.0556 23.9362ZM38.608 24.5538C39.5865 24.7033 40.0619 25.125 40.0619 25.8429C40.0619 26.2881 39.8854 26.647 39.5374 26.9095C39.1896 27.172 38.7005 27.3051 38.0836 27.3051C37.3078 27.3051 36.637 27.1332 36.166 26.8141L36.6667 25.9467L36.6712 25.9495C37.0827 26.2098 37.561 26.3417 38.0925 26.3417C38.6213 26.3417 38.8895 26.2052 38.8895 25.9361C38.8895 25.8325 38.8326 25.7485 38.7202 25.6864C38.606 25.6234 38.4271 25.5753 38.1725 25.5394L37.8213 25.4905C36.8194 25.3531 36.3322 24.9255 36.3322 24.1837C36.3322 23.7445 36.4945 23.3957 36.8141 23.148C37.1344 22.9004 37.5839 22.7749 38.1502 22.7749C38.7732 22.7749 39.4265 22.9264 39.9688 23.1834L39.471 24.0458C39.3323 23.9905 39.0618 23.8854 38.8977 23.8404C38.65 23.7726 38.4103 23.7369 38.186 23.7338C37.9706 23.7338 37.804 23.769 37.6919 23.8383C37.5794 23.908 37.5224 24.0049 37.5224 24.126C37.5224 24.237 37.5826 24.3211 37.6965 24.3692C37.8118 24.4179 37.9899 24.4606 38.2258 24.4959L38.608 24.5538ZM40.7914 27.2098H41.9704V22.8699H40.7914V27.2098ZM41.3807 22.292C41.0245 22.292 40.7349 22.0023 40.7349 21.6462C40.7349 21.29 41.0245 21 41.3807 21C41.7369 21 42.0267 21.2898 42.0267 21.6461C42.0267 22.0023 41.7369 22.292 41.3807 22.292ZM25.4355 26.1394H24.0386V24.5614H25.2772H25.2776H25.4355C25.8379 24.5614 26.1651 24.9154 26.1651 25.3507C26.1651 25.7855 25.8379 26.1394 25.4355 26.1394ZM24.0386 22.2472H25.2774C25.5876 22.2472 25.84 22.5263 25.84 22.8693C25.84 23.212 25.5876 23.4908 25.2774 23.4908H24.0386V22.2472ZM26.3069 24.0163C26.788 23.7439 26.9697 23.2641 26.9697 22.8689C26.9697 21.9343 26.2121 21.1765 25.2772 21.1765H22.8594V27.21H25.4355C26.4625 27.21 27.295 26.3773 27.295 25.3505C27.295 24.767 26.9137 24.1933 26.3069 24.0163ZM44.0002 27.2099H42.8213V21.0002C43.4724 21.0002 44.0002 21.528 44.0002 22.1794V27.2099ZM33.0747 26.3695C32.3714 26.3695 31.7992 25.7858 31.7992 25.0682C31.7992 24.3507 32.3714 23.767 33.0747 23.767C33.7782 23.767 34.3503 24.3507 34.3503 25.0682C34.3503 25.7858 33.7782 26.3695 33.0747 26.3695ZM34.4068 22.87V23.3174C33.9969 22.9671 33.477 22.7748 32.9363 22.7748C31.6873 22.7748 30.671 23.791 30.671 25.04C30.671 26.2891 31.6873 27.3052 32.9363 27.3052C33.477 27.3052 33.9969 27.1128 34.4068 26.7625V27.2099H35.4732V22.87H34.4068Z" fill="#54CA30"/>
<path d="M19.529 26.3698C18.8255 26.3698 18.2533 25.7861 18.2533 25.0685C18.2533 24.3509 18.8255 23.7672 19.529 23.7672C20.2323 23.7672 20.8045 24.3509 20.8045 25.0685C20.8045 25.7861 20.2323 26.3698 19.529 26.3698ZM20.861 22.8701V23.3177C20.451 22.9673 19.931 22.7752 19.3906 22.7752C18.1414 22.7752 17.1254 23.7912 17.1254 25.0403C17.1254 26.2893 18.1414 27.3053 19.3906 27.3053C19.931 27.3053 20.451 27.1131 20.861 26.7626V27.1851C20.861 28.0416 19.9492 28.1694 19.4056 28.1694C18.9237 28.1694 18.4066 28.002 17.9678 27.7418L17.427 28.6785C18.2752 29.1714 19.1124 29.2452 19.4856 29.2452C19.8916 29.2452 21.9088 29.1462 21.9265 27.2101H21.9273V22.8701H20.861ZM14.0533 26.3698C13.3498 26.3698 12.7776 25.7861 12.7776 25.0685C12.7776 24.351 13.3498 23.7672 14.0533 23.7672C14.7566 23.7672 15.3288 24.351 15.3288 25.0685C15.3288 25.7861 14.7566 26.3698 14.0533 26.3698ZM15.3852 22.8702V23.3177C14.9753 22.9674 14.4553 22.7751 13.9147 22.7751C12.6657 22.7751 11.6497 23.7913 11.6497 25.0403C11.6497 26.2894 12.6657 27.3054 13.9147 27.3054C14.4553 27.3054 14.9753 27.1131 15.3852 26.7627V27.2102H16.4516V22.8702H15.3852ZM9.43784 23.9979H8.16196V22.2474H9.43784C9.88773 22.2474 10.2538 22.6401 10.2538 23.1228C10.2538 23.6056 9.88773 23.9979 9.43784 23.9979ZM9.43766 21.1768H7V27.2104H8.16196V25.0685H9.43766C10.5124 25.0685 11.3834 24.1972 11.3834 23.1225C11.3834 22.0481 10.5124 21.1768 9.43766 21.1768Z" fill="#0058B5"/>
</g>
<defs>
<clipPath id="clip0_2170_3280">
<rect width="50" height="50" rx="10" fill="white"/>
</clipPath>
</defs>
</svg>
