<svg width="50" height="50" viewBox="0 0 50 50" fill="none" xmlns="http://www.w3.org/2000/svg">
<g clip-path="url(#clip0_2170_3272)">
<rect width="50" height="50" rx="10" fill="white"/>
<rect width="50" height="50" rx="10" fill="#DFE14F"/>
<mask id="mask0_2170_3272" style="mask-type:luminance" maskUnits="userSpaceOnUse" x="11" y="12" width="28" height="27">
<path d="M11.9883 12.5371H38.0132V38.5619H11.9883V12.5371Z" fill="white"/>
</mask>
<g mask="url(#mask0_2170_3272)">
<path fill-rule="evenodd" clip-rule="evenodd" d="M25.0007 38.5619C17.8256 38.5619 11.9883 32.7245 11.9883 25.5495C11.9883 18.3745 17.8256 12.5371 25.0007 12.5371C32.1758 12.5371 38.0132 18.3745 38.0132 25.5495C38.0132 32.7245 32.1758 38.5619 25.0007 38.5619Z" fill="black"/>
</g>
<path fill-rule="evenodd" clip-rule="evenodd" d="M24.9554 13.2773C18.2296 13.2773 12.7578 18.7492 12.7578 25.4749C12.7578 32.2007 18.2296 37.6725 24.9554 37.6725C31.6812 37.6725 37.153 32.2007 37.153 25.4749C37.153 18.7492 31.6812 13.2773 24.9554 13.2773Z" fill="#020303"/>
<path fill-rule="evenodd" clip-rule="evenodd" d="M35.7523 23.6964C35.7523 29.6611 30.917 34.4964 24.9523 34.4964C18.9876 34.4964 14.1523 29.6611 14.1523 23.6964C14.1523 17.7318 18.9876 12.8965 24.9523 12.8965C30.917 12.8965 35.7523 17.7318 35.7523 23.6964Z" fill="#DCE35F"/>
<path fill-rule="evenodd" clip-rule="evenodd" d="M25.0181 13.2038C19.2672 13.2038 14.5886 17.8826 14.5886 23.6334C14.5886 29.3842 19.2672 34.0629 25.0181 34.0629C30.7689 34.0629 35.4476 29.3842 35.4476 23.6334C35.4476 17.8826 30.7689 13.2038 25.0181 13.2038ZM25.0181 34.878C18.8178 34.878 13.7734 29.8337 13.7734 23.6334C13.7734 17.4329 18.8178 12.3887 25.0181 12.3887C31.2185 12.3887 36.2628 17.4329 36.2628 23.6334C36.2628 29.8337 31.2185 34.878 25.0181 34.878Z" fill="black"/>
<path fill-rule="evenodd" clip-rule="evenodd" d="M31.8669 30.594C30.8304 35.4303 26.0697 38.5107 21.2334 37.4743C16.3971 36.4379 13.3166 31.6771 14.353 26.8408C15.3894 22.0045 20.1502 18.9241 24.9865 19.9604C29.8229 20.9969 32.9033 25.7577 31.8669 30.594Z" fill="#A6DBD9"/>
<path fill-rule="evenodd" clip-rule="evenodd" d="M23.175 20.0671C19.2149 20.0671 15.6448 22.8293 14.7821 26.8542C14.3016 29.0965 14.7231 31.3918 15.9689 33.3171C17.2146 35.2426 19.1356 36.5674 21.3779 37.0479C23.6203 37.5285 25.9155 37.1072 27.8408 35.8612C29.766 34.6156 31.091 32.6946 31.5715 30.4523C32.5634 25.8234 29.6046 21.2506 24.9758 20.2585C24.372 20.1292 23.7691 20.0671 23.175 20.0671ZM21.2071 37.8448C18.752 37.3187 16.6487 35.8679 15.2846 33.7599C13.9206 31.6518 13.4591 29.1387 13.9854 26.6836C15.0714 21.6154 20.0781 18.3754 25.1465 19.4618C30.2148 20.5479 33.4545 25.5548 32.3683 30.623C31.8422 33.0782 30.3916 35.1814 28.2835 36.5455C26.7436 37.5419 24.9875 38.0566 23.1958 38.0566C22.5347 38.0566 21.8689 37.9866 21.2071 37.8448Z" fill="black"/>
<path fill-rule="evenodd" clip-rule="evenodd" d="M36.6421 29.1609C36.6421 32.2484 34.1391 34.7514 31.0515 34.7514C27.9639 34.7514 25.4609 32.2484 25.4609 29.1609C25.4609 26.0733 27.9639 23.5703 31.0515 23.5703C34.1391 23.5703 36.6421 26.0733 36.6421 29.1609Z" fill="#F5DE3E"/>
<path fill-rule="evenodd" clip-rule="evenodd" d="M31.0538 23.8734C28.2092 23.8734 25.8949 26.1877 25.8949 29.0323C25.8949 31.8769 28.2092 34.1911 31.0538 34.1911C33.8984 34.1911 36.2128 31.8769 36.2128 29.0323C36.2128 26.1877 33.8984 23.8734 31.0538 23.8734ZM31.0538 35.004C27.7609 35.004 25.082 32.3252 25.082 29.0323C25.082 25.7394 27.7609 23.0605 31.0538 23.0605C34.3467 23.0605 37.0255 25.7394 37.0255 29.0323C37.0255 32.3252 34.3467 35.004 31.0538 35.004Z" fill="black"/>
</g>
<defs>
<clipPath id="clip0_2170_3272">
<rect width="50" height="50" rx="10" fill="white"/>
</clipPath>
</defs>
</svg>
