<svg width="50" height="50" viewBox="0 0 50 50" fill="none" xmlns="http://www.w3.org/2000/svg">
<g clip-path="url(#clip0_2170_3275)">
<rect width="50" height="50" rx="10" fill="white"/>
<rect width="50" height="50" rx="10" fill="#00383D"/>
<path d="M37.6123 23.2117C37.3793 23.2117 37.2241 23.0564 37.2241 22.8235V21.1152H37.0688C36.1758 21.1152 35.8652 21.2705 35.8652 22.0858V23.9881V24.3764V24.4152V27.094C35.8652 27.4046 35.7876 27.6764 35.6711 27.8705C35.4382 28.2587 34.9335 28.414 34.1959 28.414C33.4194 28.414 32.9535 28.2587 32.7206 27.8705C32.6041 27.6764 32.5265 27.4046 32.5265 27.094V24.454V24.4152V23.9881V22.0858C32.5265 21.2705 32.2159 21.1152 31.3229 21.1152H31.0512C30.1582 21.1152 29.8477 21.2705 29.8477 22.0858V27.094C29.8477 27.9093 30.0418 28.5693 30.3912 29.1128C31.0512 30.161 32.3712 30.7434 34.2347 30.7434C36.0982 30.7434 37.4182 30.161 38.0782 29.1128C38.4276 28.5693 38.6217 27.8705 38.6217 27.094V23.2117H37.6123Z" fill="white"/>
<path d="M40.2522 18.3975H41.7275C41.8828 18.3975 41.9993 18.5139 41.9993 18.6692V20.1445C41.9993 20.2998 41.8828 20.4163 41.7275 20.4163H40.2522C40.0969 20.4163 39.9805 20.2998 39.9805 20.1445V18.6692C39.9805 18.5139 40.0969 18.3975 40.2522 18.3975Z" fill="white"/>
<path d="M38.7781 17H39.7875C39.904 17 39.9816 17.0776 39.9816 17.1941V18.2035C39.9816 18.32 39.904 18.3976 39.7875 18.3976H38.7781C38.6616 18.3976 38.584 18.32 38.584 18.2035V17.1941C38.584 17.0776 38.7005 17 38.7781 17Z" fill="white"/>
<path d="M12.7658 21.1152H10.6306C9.5047 21.1152 9 21.6199 9 22.7458V30.0446C9 30.4716 9.15529 30.6269 9.58235 30.6269H9.73764C10.1647 30.6269 10.32 30.4716 10.32 30.0446V27.2105H12.7658C14.9399 27.2105 15.9882 26.2399 15.9882 24.1434C15.9882 22.047 14.9399 21.1152 12.7658 21.1152ZM14.6682 24.1434C14.6682 25.347 14.3576 25.9681 12.7658 25.9681H10.32V22.9011C10.32 22.474 10.4753 22.3188 10.9023 22.3188H12.7658C13.9694 22.3576 14.6682 22.6293 14.6682 24.1434Z" fill="white"/>
<path d="M18.7076 23.2109C17.8535 23.2109 17.3488 23.3274 17.1547 23.3662C16.8053 23.4439 16.65 23.5215 16.65 23.9486V24.065C16.65 24.2203 16.6888 24.3368 16.7276 24.4145C16.8053 24.4921 16.8829 24.5309 16.9994 24.5309C17.077 24.5309 17.1159 24.5309 17.2323 24.4921C17.4265 24.4533 18.0864 24.3368 18.7853 24.3368C20.0664 24.3368 20.5711 24.6862 20.5711 25.5403V26.3168H18.9794C16.9218 26.3168 15.9512 27.0156 15.9512 28.4909C15.9512 29.9662 16.9606 30.7426 18.7464 30.7426C20.8817 30.7426 21.8523 30.005 21.8523 28.3744V25.5403C21.8135 23.9874 20.8041 23.2109 18.7076 23.2109ZM20.5711 27.3262V28.3356C20.5711 29.1509 20.2605 29.6168 18.7076 29.6168C17.6982 29.6168 17.1935 29.2674 17.1935 28.4909C17.1935 27.6756 17.6982 27.3262 18.9794 27.3262H20.5711Z" fill="white"/>
<path d="M28.8774 23.5608C28.7998 23.4443 28.6056 23.4443 28.4503 23.4443H28.3339C27.9068 23.4443 27.7515 23.5608 27.6351 23.9879L26.4315 28.9572C26.2763 29.5784 26.0821 29.6949 25.7327 29.6949C25.3057 29.6949 25.1116 29.5784 24.9563 28.9572L23.5975 23.9879C23.481 23.5608 23.3257 23.4443 22.8986 23.4443H22.7822C22.6269 23.4443 22.4328 23.4443 22.3551 23.5608C22.2775 23.6773 22.2775 23.8326 22.3551 24.0267L23.7139 29.0349C23.9857 30.0055 24.2574 30.7819 25.4221 30.7819C25.6163 30.7819 25.8104 30.7431 26.0045 30.7043C25.6551 31.7913 25.3057 32.2572 24.2574 32.3737C24.0633 32.3737 23.908 32.4125 23.8304 32.529C23.7527 32.6454 23.7527 32.8007 23.7916 32.9172L23.8304 33.0337C23.908 33.3442 23.9857 33.4995 24.3351 33.4995C24.3739 33.4995 24.4127 33.4995 24.4516 33.4995C26.0045 33.3831 26.8198 32.5678 27.3245 30.6266L28.9939 24.0267C28.9162 23.8326 28.955 23.6385 28.8774 23.5608Z" fill="white"/>
<path d="M39.5928 20.4551H37.6128C37.3799 20.4551 37.2246 20.6104 37.2246 20.8433V21.1151H37.3799C38.2728 21.1151 38.5834 21.2704 38.5834 22.0857V23.2503H39.5928C39.8258 23.2503 39.9811 23.0951 39.9811 22.8621V20.8433C39.9811 20.6104 39.8258 20.4551 39.5928 20.4551Z" fill="white"/>
</g>
<defs>
<clipPath id="clip0_2170_3275">
<rect width="50" height="50" rx="10" fill="white"/>
</clipPath>
</defs>
</svg>
