<svg width="50" height="50" viewBox="0 0 50 50" fill="none" xmlns="http://www.w3.org/2000/svg">
<rect x="0.5" y="0.5" width="49" height="49" rx="7.5" fill="white"/>
<rect x="0.5" y="0.5" width="49" height="49" rx="7.5" stroke="#ECECEE"/>
<path d="M17.0008 10.4987H23.4458V29.8338H17.0008V10.4987Z" fill="#006D77"/>
<path d="M26.5548 31.0422C26.5548 27.4827 29.4403 24.5972 32.9998 24.5972V33.0563C32.9998 36.6157 30.1143 39.5013 26.5548 39.5013V31.0422Z" fill="#006D77"/>
<path d="M26.5826 10.4992C28.2843 10.4992 29.9163 11.1752 31.1195 12.3785C32.3228 13.5818 32.9988 15.2138 32.9988 16.9155C32.9988 18.6172 32.3228 20.2492 31.1196 21.4525C29.9163 22.6557 28.2843 23.3317 26.5826 23.3317L26.5826 16.9155L26.5826 10.4992Z" fill="#006D77"/>
<path d="M23.4164 38.6945C22.5738 38.6945 21.7395 38.5285 20.961 38.2061C20.1826 37.8836 19.4753 37.411 18.8795 36.8152C18.2837 36.2194 17.811 35.5121 17.4886 34.7336C17.1661 33.9552 17.0002 33.1208 17.0002 32.2782L23.4164 32.2782L23.4164 38.6945Z" fill="#006D77"/>
</svg>
