<svg width="50" height="50" viewBox="0 0 150 150" fill="none" xmlns="http://www.w3.org/2000/svg">
<g clip-path="url(#clip0_1_10)">
<path d="M0 30C0 13.4315 13.4315 0 30 0H120C136.569 0 150 13.4315 150 30V120C150 136.569 136.569 150 120 150H30C13.4315 150 0 136.569 0 120V30Z" fill="white"/>
<path fill-rule="evenodd" clip-rule="evenodd" d="M120 3H30C15.0883 3 3 15.0883 3 30V120C3 134.912 15.0883 147 30 147H120C134.912 147 147 134.912 147 120V30C147 15.0883 134.912 3 120 3ZM30 0C13.4315 0 0 13.4315 0 30V120C0 136.569 13.4315 150 30 150H120C136.569 150 150 136.569 150 120V30C150 13.4315 136.569 0 120 0H30Z" fill="#DDDDE0"/>
<path fill-rule="evenodd" clip-rule="evenodd" d="M54.6107 51.62C57.4786 52.9368 57.3441 52.1508 57.086 66.0931C56.9598 72.8871 56.7556 80.4245 56.6315 82.8431C56.4245 86.876 56.4573 87.26 57.0272 87.4784C57.7993 87.7749 58.3471 87.0719 59.2744 84.5932C60.0095 82.6281 60.2822 81.0034 61.2046 73.0889C61.8882 67.225 62.0939 66.5223 63.1255 66.5223C64.1952 66.5223 66.6684 68.0489 67.3948 69.1576C67.9495 70.0044 67.9792 70.5877 67.7073 75.3064C67.2735 82.832 67.3108 87.3429 67.8082 87.5098C68.968 87.899 71.1298 81.0943 71.95 74.4714C72.8323 67.3477 73.1288 66.9388 76.578 68.0845C79.1977 68.9547 79.3546 69.3847 78.7858 74.1258C78.2121 78.9021 78.134 85.3968 78.6458 85.713C79.7832 86.416 81.1736 83.4659 81.7117 79.2062C82.3303 74.3093 83.9554 69.9328 86.2686 66.934C88.9771 63.4222 93.1082 63.4502 95.608 66.9969C96.2125 67.854 97.1346 68.7325 97.6571 68.9492C98.18 69.1656 98.9729 69.732 99.4194 70.2079C100.224 71.065 100.231 71.1483 100.231 79.1661C100.231 83.6172 100.252 87.2593 100.277 87.2593C100.302 87.2589 100.954 86.2871 101.726 85.0989C102.93 83.245 103.206 82.4487 103.675 79.4827C104.619 73.5061 106.075 69.6881 108.431 67.0041C111.15 63.9081 114.773 64.1753 117.213 67.6518C118.011 68.7882 118.603 69.2551 119.46 69.4217C120.099 69.5461 120.997 69.9359 121.455 70.2884L122.288 70.9289L121.669 76.675C121.1 81.9566 121.092 84.9064 121.647 85.4607C122.417 86.2314 124.65 82.4632 125.855 78.3595C126.388 76.5416 126.612 76.1994 127.263 76.1994C127.711 76.1994 128.28 76.5702 128.614 77.0807C129.159 77.9123 129.149 78.122 128.44 80.796C127.54 84.1858 125.656 88.3044 124.458 89.503C123.516 90.4448 121.975 90.6418 120.686 89.9844C120.271 89.7729 119.043 88.7336 117.957 87.6754C116.228 85.9898 115.956 85.834 115.764 86.4188C114.045 91.6751 112.235 93.0064 108.774 91.5607C107.259 90.9279 105.731 89.5524 105.011 88.1724L104.495 87.185L103.955 87.9996C103.658 88.4475 102.524 89.7473 101.435 90.8878L99.4543 92.9615L98.5166 97.2816C97.0945 103.834 95.2938 106.71 92.3088 107.194C91.3798 107.345 90.542 107.102 88.4884 106.087C84.0646 103.901 83.0941 102.746 83.07 99.6338C83.0461 96.5389 85.6264 93.9226 90.7314 91.8673C93.3781 90.8014 93.3277 90.8782 93.6297 87.4317L93.8115 85.3581L92.942 87.2589C91.6915 89.993 90.5621 91.0606 88.9204 91.0606C87.3179 91.0606 85.3873 90.1233 84.0152 88.679L83.006 87.617L81.7356 88.9932C79.7245 91.1716 77.7859 90.8795 74.6661 87.9291L72.814 86.1775L71.8888 88.2394C69.7723 92.9556 66.9535 93.5207 63.3785 89.9457C61.4452 88.0124 61.5399 88.0013 60.2601 90.3138C59.9456 90.882 59.2775 91.616 58.7753 91.945C58.0088 92.4476 57.6552 92.4811 56.5665 92.1548C53.7743 91.3181 50.9293 87.9025 50.3234 84.6599C49.7307 81.4876 50.9711 52.3344 51.738 51.4102C52.2333 50.813 52.9708 50.8669 54.6107 51.62ZM37.465 52.8573C39.5618 53.5972 41.0694 54.8863 42.1422 56.858C42.7148 57.9101 43.6266 58.9397 44.4412 59.4536C46.1391 60.5253 47.3816 62.3954 47.8751 64.6208C49.4297 71.6298 43.1769 78.9843 33.3478 81.7081C31.9518 82.0948 30.7049 82.5818 30.576 82.7898C30.4474 82.9979 30.2604 85.1853 30.1606 87.6509C30.0603 90.1164 29.8803 92.2323 29.7596 92.3525C29.3988 92.7133 26.4131 92.4396 25.2055 91.935C24.5866 91.6765 23.8798 91.1018 23.6351 90.658C23.3845 90.2028 23.0811 87.8914 22.9397 85.3581C22.8015 82.887 22.5824 80.2748 22.4528 79.5536C22.2793 78.5879 22.3612 78.083 22.7635 77.6382C23.3175 77.0261 23.3856 76.5675 24.0412 69.0325L24.4093 64.8033L23.3389 63.2473C22.3021 61.7408 21.2594 59.3015 21.2594 58.3836C21.2594 57.4725 23.0932 55.7998 25.2615 54.7322C29.7752 52.5099 34.4468 51.7924 37.465 52.8573ZM34.911 61.1115C33.5804 61.5487 31.5001 62.3529 30.2881 62.8986L28.0841 63.8912L29.0577 64.6674C30.1647 65.5501 30.5106 67.3138 30.5618 72.3345C30.5901 75.1494 30.6071 75.2044 31.3685 74.9735C33.1853 74.423 36.9248 72.2035 38.224 70.9043C40.1352 68.9928 40.6909 67.7842 40.872 65.1427C41.0054 63.1941 40.9163 62.7317 40.204 61.6838C39.1668 60.1576 38.1479 60.0473 34.911 61.1115ZM92.1204 71.7487C90.756 73.1131 89.6058 75.3758 88.7114 78.4545C86.9729 84.4401 87.7423 88.8864 90.0164 85.9954C91.0753 84.6489 93.8609 75.7553 94.0856 73.0025C94.3099 70.2556 93.8848 69.9843 92.1204 71.7487ZM113.432 72.7575C110.293 76.4251 108.408 87.6045 110.929 87.6045C112.12 87.6045 113.625 83.488 115.116 76.1521C115.578 73.8776 115.956 71.8693 115.956 71.6889C115.956 70.8784 114.52 71.4867 113.432 72.7575ZM91.5098 95.7329C90.5555 96.4048 89.1447 98.8078 88.8368 100.285C88.6153 101.35 89.0787 102.811 89.6386 102.811C90.3903 102.811 92.6589 96.9678 92.3935 95.7153C92.2946 95.2477 92.1961 95.2498 91.5098 95.7329Z" fill="#05A4E0"/>
</g>
<defs>
<clipPath id="clip0_1_10">
<rect width="150" height="150" fill="white"/>
</clipPath>
</defs>
</svg>
