<svg width="50" height="50" viewBox="0 0 50 50" fill="none" xmlns="http://www.w3.org/2000/svg">
<g clip-path="url(#clip0_2170_3274)">
<rect width="50" height="50" rx="10" fill="white"/>
<rect width="50" height="50" rx="10" fill="#EC7000"/>
<path d="M42.6246 25.9175H34.904C33.7791 25.9175 33.3024 25.4941 33.1078 24.9323H35.5406C37.1665 24.9323 38.1672 24.2428 38.1672 22.7542C38.1672 21.2657 37.1665 20.4993 35.5406 20.4993H34.7676C33.3103 20.4993 31.5394 21.315 31.167 23.2684H28.9911V19H27.1487V23.2687H24.8748C22.6949 23.2791 21.4809 24.3414 21.3228 25.9175H17.5175C16.393 25.9175 15.9159 25.4941 15.7214 24.9323H18.1541C19.7804 24.9323 20.7807 24.2428 20.7807 22.7542C20.7807 21.2657 19.78 20.4993 18.1541 20.4993H17.3811C15.9242 20.4993 14.1533 21.315 13.7805 23.2684H12.1846C11.1838 23.2684 10.2967 23.564 9.80809 24.1441V23.3997H8V29.5401C8 29.8902 8.11368 30 8.46628 30H9.37609C9.71714 30 9.84237 29.8906 9.84237 29.5401V27.1212C9.84237 25.2933 11.0362 24.932 12.2643 24.932H13.7974C14.1803 26.7457 15.7582 27.6135 17.5861 27.6135H21.5527C22.0085 28.6626 23.0966 29.2118 24.8412 29.2118H25.8982C27.6269 29.2118 29.0821 28.0296 29.0821 26.2892V24.932H31.1839C31.5668 26.7457 33.1447 27.6135 34.9722 27.6135H42.625C42.8296 27.6135 43 27.4495 43 27.2414V26.267C42.9996 26.0707 42.8293 25.9175 42.6246 25.9175ZM17.3129 22.163H18.2112C18.6208 22.163 18.9048 22.3273 18.9048 22.7212C18.9048 23.0933 18.6208 23.2684 18.2112 23.2684H15.6705C15.821 22.6517 16.2436 22.163 17.3129 22.163ZM27.1487 26.3441C27.1487 27.0337 26.6031 27.5263 25.8979 27.5263H24.7152C23.7599 27.5263 23.1345 27.165 23.1345 26.2566C23.1345 25.3701 23.7599 24.9323 24.7152 24.9323H27.1484L27.1487 26.3441ZM34.699 22.163H35.5973C36.0065 22.163 36.291 22.3273 36.291 22.7212C36.291 23.0933 36.0065 23.2684 35.5973 23.2684H33.0566C33.2074 22.6517 33.63 22.163 34.699 22.163Z" fill="#FFFF00"/>
</g>
<defs>
<clipPath id="clip0_2170_3274">
<rect width="50" height="50" rx="10" fill="white"/>
</clipPath>
</defs>
</svg>
