<svg width="50" height="50" viewBox="0 0 50 50" fill="none" xmlns="http://www.w3.org/2000/svg">
<rect width="50" height="50" rx="8" fill="#F2F4F6"/>
<path d="M14.035 10.3903C13.655 10.4365 13.3138 10.5646 12.9994 10.7807C12.8087 10.9118 12.5017 11.2217 12.3765 11.4125C12.1605 11.7403 12.0293 12.1203 12.0025 12.5062C11.998 12.5673 11.9995 14.6698 12.007 17.1776C12.0219 22.232 12.0129 21.8267 12.1202 22.2439C12.2275 22.6641 12.4287 23.0694 12.7058 23.4196C12.9174 23.6908 13.278 24.0037 13.579 24.1796C13.6535 24.2243 15.6964 25.3806 18.1178 26.7515C21.2232 28.5083 22.5389 29.2608 22.5836 29.3025C22.758 29.4724 22.758 29.7689 22.5836 29.9402C22.5553 29.9686 22.2171 30.1712 21.8341 30.3917L21.1383 30.7911L20.0788 30.1846C19.4962 29.8508 17.8198 28.8868 16.3521 28.0434C14.8858 27.1985 13.6357 26.4847 13.5746 26.4594C13.4285 26.3953 13.2929 26.3745 13.0903 26.3819C12.7982 26.3938 12.5732 26.4966 12.3557 26.7157C12.2573 26.8155 12.2216 26.8647 12.1664 26.9779C12.0368 27.2402 12.0457 27.1091 12.0457 28.8674C12.0457 30.2949 12.0472 30.4335 12.0711 30.5244C12.1411 30.7941 12.308 31.037 12.53 31.186C12.5986 31.2336 15.7993 33.0784 17.9688 34.3211C19.298 35.0825 19.4098 35.1392 19.9074 35.3061C20.1801 35.397 20.5035 35.4819 20.733 35.5206C21.3051 35.619 21.8833 35.5445 22.3989 35.3061C22.4659 35.2763 23.3287 34.7875 24.3166 34.2228C25.3045 33.6565 26.1599 33.1678 26.2165 33.1365C26.513 32.9726 26.7112 32.8191 26.9094 32.603C27.3087 32.1635 27.5248 31.6792 27.5799 31.0951C27.5993 30.8865 27.5859 28.252 27.5635 28.0404C27.5203 27.6351 27.3534 27.2089 27.0956 26.8528C26.9749 26.6859 26.7082 26.4221 26.5398 26.3044C26.4638 26.2508 24.1914 24.9574 21.4884 23.4286L16.5756 20.648L16.5652 20.4111C16.5577 20.28 16.5547 19.4411 16.5577 18.5455L16.5607 16.9198L16.6054 16.8543C16.6739 16.7589 16.7485 16.7202 16.8587 16.7276C16.9466 16.7336 17.1016 16.8185 23.8845 20.5661C27.6991 22.6746 30.8372 24.415 30.8551 24.4314C30.9624 24.5312 30.9699 24.6936 30.8715 24.8054C30.8477 24.8337 30.7598 24.8948 30.6748 24.9425C30.35 25.1258 30.1473 25.2792 29.9521 25.4938C29.6452 25.8291 29.4276 26.2538 29.3367 26.7008C29.2846 26.9601 29.2861 27.1985 29.3591 29.2026C29.3963 30.2353 29.4291 31.0906 29.4321 31.104C29.4336 31.1219 29.7435 30.9356 30.5601 30.4275C31.1785 30.0431 32.6507 29.1281 33.8308 28.395C35.011 27.6604 36.0406 27.0197 36.1181 26.9675C36.1956 26.9169 36.361 26.8125 36.4832 26.7366C36.9928 26.4221 37.1344 26.3253 37.2759 26.1927C37.6306 25.8634 37.86 25.4491 37.9584 24.9559C37.9986 24.7562 38.012 24.4016 37.9882 24.2108C37.9345 23.8041 37.7662 23.4017 37.5188 23.0963C37.3475 22.8832 37.2372 22.7804 37.0167 22.6224C36.9094 22.5464 15.8931 10.9222 15.3835 10.657C15.0319 10.4737 14.7309 10.3932 14.3554 10.3828C14.2406 10.3798 14.0961 10.3828 14.035 10.3903Z" fill="#FF4306"/>
<path d="M12.4689 34.0365C12.2618 34.102 12.1098 34.2764 12.0696 34.4924C12.0592 34.552 12.0532 35.0587 12.0532 36.069C12.0532 37.7051 12.0532 37.714 12.1441 38.021C12.2484 38.3726 12.4391 38.6885 12.7148 38.9627C13.0441 39.2905 13.3928 39.4827 13.8428 39.5841C13.9784 39.6139 14.0365 39.6183 14.3107 39.6183C14.6519 39.6183 14.7473 39.6049 15.0155 39.5185C15.2062 39.4589 15.3061 39.4112 15.54 39.2726C15.7069 39.1728 19.7272 36.8587 20.1027 36.6456C20.1667 36.6099 20.2174 36.5786 20.2144 36.5771C20.2129 36.5756 20.1444 36.5964 20.0639 36.6248C19.4217 36.8483 18.7422 36.8766 17.9986 36.7112C17.6857 36.6411 17.2462 36.4862 16.9794 36.3521C16.9213 36.3223 15.9826 35.7963 14.8918 35.1809C13.8026 34.5655 12.8772 34.0499 12.8355 34.035C12.7386 34.0007 12.5762 34.0022 12.4689 34.0365Z" fill="#FF4306"/>
</svg>
