<svg width="50" height="50" viewBox="0 0 50 50" fill="none" xmlns="http://www.w3.org/2000/svg">
<rect x="0.5" y="0.5" width="49" height="49" rx="7.5" fill="white"/>
<rect x="0.5" y="0.5" width="49" height="49" rx="7.5" stroke="#ECECEE"/>
<path fill-rule="evenodd" clip-rule="evenodd" d="M20.8602 21.1841V21.5799H19.9963V23.2358H20.8602C20.8602 23.701 20.883 25.9853 20.834 26.3418C20.8121 26.502 20.8252 26.6725 20.8238 26.8361C20.8189 27.3747 20.5824 27.2319 22.8041 27.2319V23.2358H25.4681V24.9277C25.4681 26.1674 26.5015 27.2314 27.7359 27.2314H29.2122V25.6114C29.2122 25.5284 29.1869 25.5036 29.1044 25.5036H27.4125V23.2353H29.2845C29.3676 23.2353 29.3923 23.2101 29.3923 23.1275V21.6877C29.3923 21.6047 29.3671 21.5799 29.2845 21.5799H27.4125V19.0242H25.4686V21.5799H22.8046C22.8046 20.5897 22.7575 20.716 24.6047 20.716V19.0242H23.0678C22.7507 19.0499 22.4491 19.1106 22.1568 19.2402C21.4871 19.5374 20.8602 20.3834 20.8602 21.1841Z" fill="#342672"/>
<path fill-rule="evenodd" clip-rule="evenodd" d="M16.3241 25.54H16.0362C15.4092 25.54 14.8479 24.9077 14.8479 24.2798V24.0997C14.8479 23.4693 15.4515 22.8395 16.0721 22.8395C16.7184 22.8395 17.1375 23.0284 17.4289 23.6427C17.5814 23.9637 17.5741 24.3905 17.4415 24.713C17.2647 25.1437 16.8632 25.54 16.3241 25.54ZM16.1804 27.412C16.7864 27.412 17.5372 27.2284 18.0456 26.9016C18.1301 26.8472 18.202 26.8026 18.2768 26.7365C18.3661 26.6578 18.4283 26.6166 18.5118 26.5398C19.0814 26.0173 19.4922 25.1364 19.4922 24.3162C19.4922 23.0945 19.0474 22.1635 18.0597 21.5007C17.1438 20.8864 15.8303 20.8281 14.8221 21.2302C13.6183 21.7105 12.8972 22.9051 12.8666 24.1735C12.8579 24.5357 12.9958 25.169 13.1453 25.5152C13.3279 25.9377 13.5304 26.1849 13.831 26.4854C14.456 27.1099 15.2961 27.412 16.1804 27.412Z" fill="#342672"/>
<path fill-rule="evenodd" clip-rule="evenodd" d="M7.36032 22.7317V23.0915C7.36032 23.7 7.83379 24.1977 8.22519 24.4226C9.14201 24.9495 10.6867 25.0412 10.2327 25.6031C10.0569 25.8202 9.6587 25.7823 9.34257 25.7531C8.58065 25.6832 8.0154 25.0859 7.82796 25.0354C7.78328 25.2015 7.16122 26.027 7 26.3315C7.28894 26.7632 8.24607 27.2022 8.82637 27.3134C9.50282 27.4431 10.0142 27.4474 10.6799 27.2755C12.5515 26.7928 12.9399 24.5017 11.1252 23.7549L10.155 23.3931C9.86023 23.294 9.30421 23.2188 9.30421 22.8754C9.30421 22.3461 10.3507 22.5962 10.6469 22.721L11.3204 23.0556C11.3763 22.8473 11.9449 22.1121 12.1125 21.7954C11.7774 21.2953 10.5775 20.9675 9.80827 20.9675C8.6195 20.968 7.36032 21.6318 7.36032 22.7317Z" fill="#342672"/>
<path fill-rule="evenodd" clip-rule="evenodd" d="M37.0246 23.956V27.1241C37.0246 27.2071 37.0498 27.2319 37.1324 27.2319H38.1405V23.4519C38.1405 22.8376 38.6951 22.3719 39.3283 22.3719H41.1285C41.6078 22.3719 41.9205 22.7594 41.9205 23.0202C41.9205 23.3664 41.9613 23.5252 41.6607 23.8045C41.5301 23.9259 41.3688 23.9919 41.128 23.9919H39.0039V24.9641C39.0039 25.0471 39.0292 25.0719 39.1117 25.0719H41.1998C42.1512 25.0719 43 24.2172 43 23.416V23.3873V23.3587C42.999 22.7725 42.9699 22.2583 42.4328 21.7868C42.1516 21.5396 41.7136 21.2919 41.1998 21.2919H39.256C38.513 21.2919 38.04 21.6085 37.5903 22.0742C37.4175 22.2529 37.2247 22.5807 37.1465 22.8541C37.0518 23.1848 37.0246 23.5481 37.0246 23.956Z" fill="#342672"/>
<path fill-rule="evenodd" clip-rule="evenodd" d="M31.0847 22.9838C31.0847 23.8855 30.9793 25.252 31.2896 25.9829C31.966 27.5752 34.1328 27.6733 35.1681 26.9594C35.8412 26.4957 36.1607 25.7585 36.1607 24.7839V22.336H35.0807V24.8198C35.0807 25.8328 34.515 26.3679 33.5326 26.3679C32.676 26.3679 32.1646 25.7182 32.1646 24.8558V22.336C31.5552 22.336 31.6577 22.2845 31.3459 22.5972C31.2425 22.7002 31.0847 22.8007 31.0847 22.9838Z" fill="#342672"/>
<path fill-rule="evenodd" clip-rule="evenodd" d="M29.5006 19.348C29.5006 19.618 29.6346 19.6802 29.7798 19.8249C30.1581 20.2032 30.13 20.1036 31.0847 20.1036C31.0847 21.0967 30.9832 21.0282 31.3459 21.3905C31.6582 21.7027 31.5557 21.6518 32.1647 21.6518V19.5636C32.1647 19.2961 31.9524 19.0236 31.6965 19.0236H29.5006V19.348Z" fill="#E9500E"/>
<path fill-rule="evenodd" clip-rule="evenodd" d="M39.9766 29.86H39.2564V29.0679C39.7114 29.0679 40.2286 28.947 40.2286 29.4642C40.2286 29.6138 40.1189 29.86 39.9766 29.86ZM39.1739 30.9759C39.2215 30.9565 39.2564 30.9132 39.2564 30.8681V30.1844C39.9178 30.1844 39.7683 30.0751 40.0601 30.569C40.1509 30.7224 40.2378 30.8865 40.3724 30.9764C40.5059 30.9409 40.419 30.94 40.5525 30.9045C40.5525 30.6297 40.3369 30.4534 40.1567 30.1125C40.6492 29.9809 40.7715 28.7445 39.8328 28.7445C39.0297 28.7445 38.933 28.6527 38.933 29.0325V30.6165C38.933 30.8438 38.9976 30.9458 39.069 30.9764L39.1739 30.9759Z" fill="#342672"/>
<path fill-rule="evenodd" clip-rule="evenodd" d="M36.9887 28.8518V30.8317C36.9887 30.9147 37.0465 30.9739 37.1285 30.9759H37.1324H38.4285C38.6237 30.9759 38.6237 30.652 38.4285 30.652H37.3126V29.9678C38.2207 29.9678 38.2124 30.0387 38.2124 29.7876C38.2124 29.5997 37.8312 29.6798 37.3126 29.6798V29.0679H38.3566C38.6412 29.0679 38.6295 28.744 38.4644 28.744H37.0965C37.0134 28.744 36.9887 28.7688 36.9887 28.8518Z" fill="#342672"/>
<path fill-rule="evenodd" clip-rule="evenodd" d="M41.8486 29.86H41.2368V29.0679H41.8127C42.0574 29.0679 42.1725 29.251 42.1725 29.5001C42.1725 29.6817 42.0429 29.86 41.8486 29.86ZM41.1061 30.9759C41.1756 30.9647 41.2368 30.9166 41.2368 30.8317V30.1839C41.6889 30.1839 42.2527 30.2786 42.4362 29.7633C42.6237 29.2369 42.293 28.744 41.8127 28.744C41.3519 28.744 40.9129 28.6615 40.9129 28.8878V30.8317C40.9129 30.9166 40.9741 30.9647 41.0435 30.9759H41.1061Z" fill="#342672"/>
</svg>
