<svg width="50" height="50" viewBox="0 0 50 50" fill="none" xmlns="http://www.w3.org/2000/svg">
<rect x="0.5" y="0.5" width="49" height="49" rx="7.5" fill="white"/>
<rect x="0.5" y="0.5" width="49" height="49" rx="7.5" stroke="#ECECEE"/>
<path fill-rule="evenodd" clip-rule="evenodd" d="M37.9233 34.6685L12.94 43.9353C12.325 44.1725 11.675 43.6847 11.675 42.9788V36.725C11.675 35.5848 12.3417 34.5709 13.3417 34.1845L29.155 28.0073C33.1683 26.4615 37.4783 29.4229 37.6633 33.9281C37.6717 34.1175 38.0617 34.5767 37.9233 34.6685Z" fill="#60C1ED"/>
<path fill-rule="evenodd" clip-rule="evenodd" d="M36.6583 15.8136L19.935 22.3676C16.375 23.7393 12.65 21.459 11.7283 17.7744C11.7533 16.795 11.795 15.9398 12.1133 15.5247C12.185 15.4329 12 15.4903 12.105 15.452L37.0583 6.06278C37.6733 5.82556 38.3233 6.31339 38.3233 7.0193V13.273C38.325 14.4132 37.6583 15.429 36.6583 15.8136Z" fill="#D83E8D"/>
<path d="M36.36 35.2424L24.665 29.7328L38.325 30.5918V33.7062C38.325 34.1883 38.2833 34.4504 37.9517 34.6532L36.36 35.2424Z" fill="#4B9ABE"/>
<path fill-rule="evenodd" clip-rule="evenodd" d="M12.7183 25.1358L37.5033 34.6781C37.905 34.833 38.325 34.4848 38.325 33.997V26.5878C38.325 25.8723 37.9067 25.2353 37.2817 24.9981L12.4967 15.452C12.095 15.297 11.675 15.6452 11.675 16.133V23.5422C11.675 24.2577 12.0933 24.8948 12.7183 25.132V25.1358Z" fill="url(#paint0_linear_2_30)"/>
<defs>
<linearGradient id="paint0_linear_2_30" x1="13.3317" y1="19.5359" x2="40.3864" y2="29.2671" gradientUnits="userSpaceOnUse">
<stop stop-color="#D83E8D"/>
<stop offset="1" stop-color="#60C1ED"/>
</linearGradient>
</defs>
</svg>
