<svg width="50" height="50" viewBox="0 0 50 50" fill="none" xmlns="http://www.w3.org/2000/svg">
<rect width="50" height="50" rx="8" fill="#0FAE79"/>
<path d="M34.4049 28.2304L18.9311 39.3886C18.4548 39.4848 18.7326 38.9486 18.9311 38.6685C20.5182 36.4289 23.7876 31.8056 24.1685 31.2297C24.6446 30.5098 25.1207 29.7899 25.0017 28.8301C24.9065 28.0622 23.7717 27.3903 23.2163 27.1504C22.8591 27.0304 21.4069 26.5265 18.455 25.4706C14.7651 24.1508 15.0031 23.4309 15.0031 22.5911C15.0031 21.9192 15.6379 21.3513 15.9553 21.1513C20.5578 17.9919 29.9294 11.529 30.5959 10.9531C31.2625 10.3772 31.4291 10.6332 31.4291 10.8331C30.1595 12.5129 27.2393 16.4242 25.7157 18.6319C24.1922 20.8396 25.3983 22.0314 26.1918 22.3513C28.374 23.1912 32.8813 24.9189 33.4526 25.1109C34.1668 25.3508 35 25.9507 35 26.9106C35 27.6785 34.6032 28.1104 34.4049 28.2304Z" fill="white"/>
<path d="M25.8701 19.8697L31.0876 12.0436C26.7086 18.2969 29.9628 22.655 31.9572 23.7827C31.0661 23.4716 29.0069 22.6969 27.1739 22.0436C25.3409 21.3903 25.4882 20.3753 25.8701 19.8697Z" fill="white"/>
<path d="M24.13 29.8697L18.9122 37.6958C23.2913 31.4425 20.0379 27.0844 18.0435 25.9567C18.9346 26.2678 20.9929 27.0425 22.8259 27.6958C24.659 28.3491 24.5119 29.3642 24.13 29.8697Z" fill="white"/>
</svg>
