<svg width="50" height="50" viewBox="0 0 50 50" fill="none" xmlns="http://www.w3.org/2000/svg">
<rect x="0.5" y="0.5" width="49" height="49" rx="7.5" fill="white"/>
<rect x="0.5" y="0.5" width="49" height="49" rx="7.5" stroke="#ECECEE"/>
<path d="M26.1915 39.0866C26.1328 39.1284 26.0774 39.1647 26.023 39.2032C24.6875 40.0139 23.2838 40.5595 21.6944 40.3571C20.3782 40.1888 19.1366 39.7543 17.9131 39.2494C16.568 38.6928 15.608 37.7435 15.0811 36.3454C14.9019 35.8702 14.8646 35.3598 14.7654 34.8659C14.5638 33.8649 14.5478 32.8419 14.4219 31.8332C14.2768 30.6738 14.264 29.51 14.2171 28.3484C14.1488 26.6808 14.2512 25.022 14.4251 23.3621C14.5446 22.2236 14.8198 21.1313 15.1366 20.0423C15.2358 19.7013 15.3691 19.3779 15.543 19.0688C15.6848 18.8158 15.6454 18.521 15.6624 18.2449C15.7702 16.5212 15.8576 14.7964 16.0475 13.0793C16.0859 12.7284 16.1435 12.3797 16.2086 12.0321C16.3686 11.1741 16.8944 10.8518 17.7179 11.1081C18.3931 11.3182 18.7984 11.8528 19.1846 12.4171C19.7798 13.2872 19.7894 14.2464 19.6134 15.2353C19.5206 15.7567 19.4086 16.2748 19.2944 16.8512C19.7808 16.5003 20.3344 16.2286 20.8891 16.1912C21.3968 16.1571 22.152 16.255 22.152 16.255C22.1862 16.2176 22.9542 15.3519 24.2171 15.2617C24.8518 15.2232 25.4566 15.3376 26.0251 15.5983C26.8784 15.9327 27.4896 16.4882 27.4896 16.4882C27.4896 16.4882 28.0912 16.4827 28.344 16.519C28.8336 16.5861 29.2272 16.662 29.6998 16.8237C30.6182 17.1372 31.2923 17.7917 31.7083 18.6882C32.1222 19.5803 32.5318 20.4724 32.8528 21.4063C32.9019 21.5493 32.9862 21.6813 33.0512 21.8199C33.1643 22.0597 33.3574 22.1235 33.5984 22.1026C34.0091 22.0663 34.1776 22.3105 33.991 22.6911C33.7467 23.1938 33.4406 23.812 32.951 24.0859C32.8102 24.1651 32.8912 24.3136 32.9371 24.428C33.6315 26.2067 33.8235 27.8325 34.0614 29.7201C34.2768 31.4361 34.2779 33.1466 33.9942 34.8527C33.8832 35.5138 33.6966 36.1562 33.4032 36.7579C32.76 38.0812 31.6656 38.7412 30.2875 38.937C29.447 39.0558 28.599 39.0712 27.7616 38.8875C27.1664 38.7566 26.5862 38.5399 26.1062 38.1648C24.8102 37.1495 23.3424 36.5159 21.8363 35.9263C20.087 35.241 18.5883 34.1531 17.4438 32.6065C16.7174 31.6242 16.184 30.5484 15.6806 29.4319C15.6198 29.2966 15.5035 29.0568 15.416 28.8775C15.3926 28.8302 15.3232 28.8522 15.3286 28.905C15.3851 29.3802 15.4854 29.8015 15.5878 30.2206C16.0518 32.1379 17.1878 33.5811 18.6427 34.7966C19.832 35.791 21.1931 36.4521 22.6267 36.9691C23.5099 37.287 24.3494 37.6808 25.0907 38.2836C25.4224 38.5531 25.8011 38.7885 26.1883 39.0019C26.2182 39.0195 26.2214 39.0646 26.1915 39.0866Z" fill="#080413"/>
<path d="M33.3787 12.1718C33.3915 12.9869 33.176 13.67 32.7259 14.2772C32.2373 14.9372 31.7285 15.5719 31.1035 16.1054C30.7941 16.3694 30.4859 16.4706 30.0837 16.3562C29.2709 16.1252 28.4496 15.9305 27.6091 15.826C27.2091 15.7765 27.0779 15.4861 27.3125 15.1869C28.6715 13.4544 30.0219 11.712 31.4832 10.0686C31.5312 10.0147 31.5792 9.9619 31.6293 9.9102C32.12 9.4086 32.7141 9.5252 32.9797 10.183C33.1419 10.5856 33.224 11.0124 33.3083 11.4392C33.3573 11.6999 33.368 11.9617 33.3787 12.1718Z" fill="#080413"/>
<path d="M22.5019 16.563C23.176 15.9173 23.9451 15.5015 24.8966 15.6863C25.8064 15.8623 26.6 16.3067 27.3051 16.9227C28.087 17.6069 28.4795 18.4924 28.616 19.5154C28.6502 19.7662 28.712 20.1655 28.7366 20.4053C28.7494 20.5252 28.7387 20.556 28.6662 20.6066C27.9974 21.0279 27.2048 21.513 26.6054 22.0432C25.9451 22.6262 25.5888 23.3555 25.544 24.2454C25.5355 24.3983 25.5483 24.8372 25.5483 24.8372C25.5291 24.8482 25.4992 24.8449 25.4523 24.8185C23.9579 23.9715 22.5904 22.9969 22.0774 21.1841C21.6966 20.0203 21.6848 18.9291 21.6976 18.3868C21.7147 17.5849 22.1115 16.9348 22.5019 16.563Z" fill="#080413"/>
<path d="M21.7883 16.6312C21.8374 16.6356 21.8651 16.6928 21.8384 16.7357C21.5771 17.1603 21.4054 17.5651 21.3339 18.015C21.1942 18.8939 21.336 19.7464 21.5206 20.6044C21.911 22.4183 22.8859 23.7889 24.4464 24.6953C24.744 24.8911 25.319 25.209 25.3435 25.2288C25.3755 25.2541 25.3723 25.3047 25.3371 25.3245C24.8795 25.6006 22.4539 26.1198 21.1291 25.6974C20.5659 25.517 20.0144 25.3201 19.4939 25.0242C18.6875 24.5655 18.2032 23.8571 17.9675 22.9661C17.623 21.667 17.6251 20.3767 18.1638 19.1227C18.3888 18.5991 18.7078 18.1393 19.063 17.696C19.4384 17.2263 19.864 16.8611 20.4422 16.7038C20.8731 16.5861 21.3019 16.5883 21.7883 16.6312Z" fill="#25F3ED"/>
<path d="M33.5057 22.5118C33.5686 22.5151 33.6059 22.5866 33.5739 22.6438C33.2849 23.1608 32.9435 23.6602 32.3409 23.7779C31.847 23.8747 31.3595 23.9781 30.8593 23.6877C30.7227 23.6096 30.7217 23.5634 30.7569 23.4325C30.9809 22.5943 31.2027 21.7561 31.3713 20.9036C31.431 20.6022 31.4833 20.2997 31.4086 19.9873C31.3233 19.6331 31.127 19.4791 30.7761 19.5374C30.3057 19.6155 29.319 20.2139 29.2614 20.2348C29.1729 20.2689 29.1313 20.2524 29.0982 20.1688C29.0769 20.1116 28.9403 19.1282 28.8539 18.7311C28.7441 18.235 28.1979 17.2593 28.0209 17.0008C28.0017 16.9722 28.0219 16.9337 28.0561 16.9348C29.4737 16.9898 30.7515 17.4628 31.3979 18.9412C31.7691 19.7915 32.1681 20.6308 32.471 21.5119C32.5211 21.656 32.5883 21.7957 32.6609 21.9299C32.8934 22.3523 33.0726 22.4876 33.5057 22.5118Z" fill="#FA175F"/>
<path d="M30.4645 22.6537C30.5019 22.6405 30.5381 22.6724 30.5307 22.7131C30.4571 23.0849 30.3632 23.4204 30.2491 23.7504C30.1979 23.8978 30.088 23.9649 29.9771 24.0496C28.6597 25.0396 27.3499 25.011 26.0453 24.1717C25.9493 24.1101 25.9408 24.0452 25.9568 23.9495C26.0411 23.4457 26.2459 23.009 26.5787 22.6273C26.7525 22.4271 26.9211 22.3853 27.1568 22.5008C27.8352 22.8319 28.5477 22.9914 29.3029 22.9375C29.6944 22.9078 30.0699 22.8011 30.4645 22.6537Z" fill="#FEFEFE"/>
<path d="M30.8229 21.1995C30.8613 21.1885 30.8976 21.2248 30.8891 21.2655C30.8389 21.4987 30.7973 21.6945 30.7547 21.8903C30.7323 21.9981 30.6555 22.0586 30.5701 22.1114C29.512 22.7725 28.4421 22.6482 27.3659 22.162C27.1984 22.0861 27.256 22.0091 27.3595 21.9398C27.7723 21.6648 28.1883 21.3942 28.6032 21.1214C28.6757 21.0741 28.744 21.0796 28.8283 21.1016C29.4725 21.2721 30.1221 21.3865 30.8229 21.1995Z" fill="#FEFEFE"/>
<path d="M26.0603 24.615C27.3733 25.4268 28.6587 25.3256 29.9333 24.5358C29.9557 24.5226 29.9835 24.5446 29.9739 24.571C29.6304 25.5786 28.9861 26.0208 28.0539 26.0098C27.0523 25.9966 26.2501 25.5797 25.9877 24.6744C25.9749 24.6293 26.0219 24.5908 26.0603 24.615Z" fill="#FEFEFE"/>
<path d="M29.2976 20.7969C29.255 20.7848 29.2464 20.7265 29.2848 20.7034C29.7542 20.4108 30.1766 20.1534 30.6416 19.9884C30.968 19.8729 31.0267 19.9356 31.0448 20.2821C31.0587 20.5439 31.0064 20.7089 30.7259 20.8002C30.2598 20.9531 29.8107 20.9322 29.2976 20.7969Z" fill="#FEFDFC"/>
<path d="M30.7344 35.4126C30.3408 35.406 29.9995 35.2685 29.7275 34.9693C29.6464 34.8802 29.5974 34.7658 29.6422 34.6448C29.6923 34.5106 29.8203 34.4655 29.944 34.4666C30.328 34.471 30.664 34.6063 30.9371 34.8901C31.0256 34.9825 31.0864 35.1013 31.0384 35.2344C30.9872 35.3708 30.8646 35.4027 30.7344 35.4126Z" fill="#FBFBFB"/>
<path d="M33.3029 33.8935C33.2795 34.1949 33.1877 34.493 32.9755 34.7394C32.8933 34.834 32.7899 34.9198 32.6533 34.8703C32.5232 34.823 32.4741 34.7031 32.4613 34.5711C32.4272 34.2543 32.4933 33.9584 32.6523 33.6878C32.7536 33.5173 32.8699 33.316 33.0981 33.3886C33.3083 33.4568 33.3008 33.679 33.3029 33.8935Z" fill="#FBFBFB"/>
<path d="M30.4069 24.7206C30.3941 24.7272 30.3803 24.7162 30.3835 24.703C30.4485 24.4577 30.5115 24.2608 30.5733 24.0749C30.5851 24.0419 30.6021 23.9792 30.6619 24.01L30.9776 24.1849C31.0139 24.2135 30.9936 24.2553 30.9584 24.2872C30.8752 24.362 30.4688 24.6876 30.4069 24.7206Z" fill="#080413"/>
<path d="M24.9029 32.48C24.6853 32.48 24.4635 32.4668 24.2267 32.4371C23.4139 32.337 22.8229 31.8717 22.4699 31.0522C22.1392 30.2877 21.9963 29.4748 21.8661 28.6388C21.832 28.4188 21.8288 28.2571 21.9205 28.1262C22.0112 27.9964 22.1712 27.9436 22.3547 27.893C25.8224 26.9426 29.3616 26.0351 32.7845 25.1573C33.4875 24.9769 34.2139 24.791 34.9285 24.6062L34.9371 24.604C35.0704 24.5699 35.1579 24.5468 35.2357 24.5468C35.3627 24.5468 35.4576 24.6117 35.5045 24.7327C35.5355 24.8108 35.5472 24.912 35.5621 25.0583C35.5685 25.1243 35.5749 25.1903 35.5824 25.2563C35.6187 25.6017 35.6528 25.9284 35.6293 26.2089C35.6421 27.1824 35.5077 27.904 35.1941 28.5486C35.0213 28.9039 34.7845 29.1866 34.4923 29.389C34.2149 29.5804 33.8896 29.7003 33.4981 29.7564C33.2891 29.7872 33.0416 29.818 32.792 29.818C32.6651 29.818 32.5477 29.8103 32.4315 29.7949C31.9333 29.7278 31.5184 29.5254 31.1643 29.1811C30.8773 28.9006 30.6363 28.5321 30.4037 28.0206C30.3568 27.9161 30.3131 27.8105 30.2693 27.7071C30.2245 27.5982 30.1787 27.486 30.1296 27.3804C30.0773 27.266 30.0283 27.266 30.0048 27.266C30.0005 27.266 29.9952 27.266 29.992 27.2671C29.8651 27.2792 29.8277 27.3364 29.8107 27.3859C29.7243 27.6268 29.6667 27.8127 29.6219 27.9854C29.4021 28.8258 29.1845 29.4528 28.9168 30.0193C28.5925 30.7057 28.1403 31.2568 27.5717 31.6594C27.0352 32.0389 26.3835 32.2963 25.6325 32.4217C25.4 32.4613 25.1536 32.48 24.9029 32.48Z" fill="white"/>
<path d="M35.2358 24.7228C35.352 24.7228 35.368 24.8097 35.3947 25.0781C35.4342 25.4818 35.4886 25.8866 35.4608 26.2056C35.4726 27.0515 35.3798 27.7819 35.0438 28.4738C34.7142 29.1525 34.1766 29.4847 33.4758 29.5859C33.2486 29.6189 33.0214 29.6453 32.7931 29.6453C32.68 29.6453 32.568 29.6387 32.455 29.6233C31.4694 29.4891 30.9456 28.8005 30.5584 27.9469C30.4624 27.7346 30.3814 27.5168 30.2843 27.3056C30.2288 27.1857 30.1456 27.0911 30.007 27.0911C29.9974 27.0911 29.9888 27.0911 29.9782 27.0922C29.8278 27.1054 29.7062 27.1747 29.6528 27.3254C29.5814 27.5267 29.5142 27.7313 29.4598 27.9392C29.2795 28.6267 29.0683 29.3043 28.7654 29.9412C28.1232 31.2975 27.0235 32.0103 25.6059 32.2479C25.3712 32.2875 25.1376 32.3051 24.903 32.3051C24.6854 32.3051 24.4656 32.2908 24.2459 32.2633C23.4523 32.1665 22.935 31.7034 22.6224 30.9807C22.2971 30.2272 22.1563 29.4187 22.0315 28.6102C21.9707 28.2219 22.0358 28.1592 22.3974 28.0602C26.5755 26.9151 30.775 25.8536 34.9691 24.7745C35.0939 24.7437 35.1771 24.7228 35.2358 24.7228ZM35.2358 24.3752C35.1376 24.3752 35.0363 24.4016 34.8955 24.4379L34.887 24.4401C34.1723 24.6238 33.4459 24.8108 32.744 24.9901C29.3211 25.8679 25.7798 26.7754 22.3099 27.7269C22.1019 27.7841 21.9056 27.849 21.7819 28.0261C21.6432 28.2241 21.6656 28.4617 21.6976 28.6685C21.8288 29.5155 21.975 30.3427 22.3142 31.1259C22.4966 31.5483 22.7419 31.8871 23.0448 32.1324C23.367 32.3953 23.7584 32.557 24.2064 32.612C24.4507 32.6417 24.6779 32.656 24.903 32.656C25.1632 32.656 25.4182 32.6362 25.6603 32.5944C26.04 32.5306 26.3995 32.4338 26.727 32.3073C27.0672 32.1753 27.3851 32.0059 27.6688 31.8035C28.2608 31.3844 28.7312 30.8091 29.0694 30.0974C29.3414 29.521 29.5622 28.8852 29.7862 28.0327C29.8299 27.8633 29.8875 27.684 29.9707 27.4486C29.9718 27.4486 29.9739 27.4475 29.976 27.4475C29.9771 27.4508 29.9792 27.4541 29.9803 27.4574C30.0283 27.5608 30.071 27.6664 30.1179 27.7786C30.1606 27.8831 30.2064 27.9898 30.2544 28.0976C30.4944 28.63 30.7483 29.015 31.0512 29.3098C31.2336 29.4869 31.4352 29.6332 31.6507 29.7399C31.8822 29.8565 32.1392 29.9335 32.4123 29.9698C32.535 29.9863 32.6598 29.994 32.7942 29.994C33.0544 29.994 33.3094 29.9621 33.5238 29.9313C33.9344 29.8719 34.2928 29.7388 34.5872 29.5364C34.904 29.3175 35.16 29.0128 35.3467 28.63C35.5227 28.267 35.6432 27.8842 35.7158 27.4585C35.7776 27.0955 35.8043 26.6896 35.8 26.2188C35.8224 25.9229 35.7872 25.5918 35.752 25.242C35.7446 25.1771 35.7392 25.11 35.7318 25.0451C35.7158 24.8834 35.7019 24.7712 35.6635 24.6711C35.5878 24.4808 35.4331 24.3752 35.2358 24.3752Z" fill="black"/>
<path d="M26.3515 27.5322C25.9227 28.9402 25.464 30.434 25.0534 31.7859C25.0438 31.8178 25.016 31.8398 24.983 31.8409C24.8112 31.8464 24.2726 31.8552 24.0304 31.7936C23.8598 31.7496 23.8107 31.7111 23.831 31.6066C24.1936 30.4483 24.5638 29.147 24.9147 27.9843C24.9382 27.9051 24.9563 27.8237 25.048 27.7995C25.4502 27.6917 25.8523 27.585 26.2939 27.4684C26.3291 27.4585 26.3632 27.4959 26.3515 27.5322Z" fill="#080413"/>
<path d="M32.2512 29.1239C31.8821 29.0524 31.5909 28.8489 31.3563 28.5508C31.2901 28.4661 31.3189 28.3836 31.3435 28.2956C31.5461 27.5773 31.7477 26.8568 31.9461 26.1374C31.9749 26.034 32.0112 25.9713 32.1275 25.9427C32.4997 25.8514 32.8699 25.7403 33.24 25.6358C33.384 25.5951 33.4309 25.6303 33.3829 25.7909C33.0672 26.8513 32.7568 27.9139 32.4432 28.9765C32.4165 29.0722 32.3909 29.1778 32.2512 29.1239Z" fill="#080413"/>
<path d="M25.688 31.8002C25.6571 31.8024 25.6347 31.7716 25.6443 31.7408C25.9365 30.7805 26.2235 29.8367 26.5115 28.894C26.648 28.4485 26.8347 27.8347 26.9776 27.3749C26.9893 27.3375 27.0181 27.3089 27.0544 27.2979L27.6176 27.1307C27.6507 27.1208 27.6795 27.1527 27.6688 27.1857C27.5045 27.7104 26.5477 30.7574 26.3163 31.5032C26.2373 31.7408 26.1872 31.7705 25.688 31.8002Z" fill="#090514"/>
<path d="M34.4944 25.3377C34.5232 25.33 34.5499 25.3586 34.5403 25.3883C34.3365 26.0593 33.6379 28.3759 33.4213 29.0832C33.3968 29.1635 33.3797 29.224 33.2987 29.2394C33.1845 29.2614 32.9808 29.2768 32.9147 29.2086C32.8763 29.1701 32.8752 29.1503 32.8923 29.0909C33.1984 28.0569 33.9141 25.638 33.9365 25.5588C33.9515 25.5049 33.9941 25.4642 34.0475 25.4499L34.4944 25.3377Z" fill="#090514"/>
</svg>
