<?xml version="1.0" encoding="UTF-8"?>
<!DOCTYPE svg PUBLIC "-//W3C//DTD SVG 1.1//EN" "http://www.w3.org/Graphics/SVG/1.1/DTD/svg11.dtd">
<svg xmlns="http://www.w3.org/2000/svg" version="1.1" width="64px" height="64px" style="shape-rendering:geometricPrecision; text-rendering:geometricPrecision; image-rendering:optimizeQuality; fill-rule:evenodd; clip-rule:evenodd"
    xmlns:xlink="http://www.w3.org/1999/xlink">
    <g>
        <path style="opacity:1" fill="#0050ed" d="M -0.5,-0.5 C 399.5,-0.5 799.5,-0.5 1199.5,-0.5C 1199.5,399.5 1199.5,799.5 1199.5,1199.5C 799.5,1199.5 399.5,1199.5 -0.5,1199.5C -0.5,799.5 -0.5,399.5 -0.5,-0.5 Z"/>
    </g>
    <g>
        <path style="opacity:1" fill="#fcfcfc" d="M 627.5,467.5 C 617.428,490.025 601.428,495.525 579.5,484C 574.627,479.751 571.127,474.584 569,468.5C 568.5,476.827 568.334,485.16 568.5,493.5C 567.127,479.635 567.294,465.635 569,451.5C 579.098,430.356 594.598,425.19 615.5,436C 625.305,444.243 629.305,454.743 627.5,467.5 Z"/>
    </g>
    <g>
        <path style="opacity:1" fill="#ee9f2a" d="M 627.5,467.5 C 627.666,477.506 627.5,487.506 627,497.5C 622.969,512.856 612.969,520.856 597,521.5C 584.222,520.605 575.222,514.272 570,502.5C 569.047,499.568 568.547,496.568 568.5,493.5C 568.334,485.16 568.5,476.827 569,468.5C 571.127,474.584 574.627,479.751 579.5,484C 601.428,495.525 617.428,490.025 627.5,467.5 Z"/>
    </g>
    <g>
        <path style="opacity:1" fill="#fefefe" d="M 486.5,471.5 C 503.17,471.333 519.837,471.5 536.5,472C 537,472.5 537.5,473 538,473.5C 538.667,561.5 538.667,649.5 538,737.5C 537.5,738 537,738.5 536.5,739C 520.167,739.667 503.833,739.667 487.5,739C 486.333,738.5 485.5,737.667 485,736.5C 484.333,648.833 484.333,561.167 485,473.5C 485.717,472.956 486.217,472.289 486.5,471.5 Z"/>
    </g>
    <g>
        <path style="opacity:1" fill="#fcfdfe" d="M 886.5,502.5 C 886.5,521.5 886.5,540.5 886.5,559.5C 901.5,559.5 916.5,559.5 931.5,559.5C 932.79,560.058 933.623,561.058 934,562.5C 934.962,575.928 934.629,589.261 933,602.5C 932.5,603 932,603.5 931.5,604C 916.504,604.5 901.504,604.667 886.5,604.5C 886.042,627.553 886.542,650.553 888,673.5C 891.547,685.379 899.38,692.879 911.5,696C 918.07,697.647 924.736,698.647 931.5,699C 932.333,699.833 933.167,700.667 934,701.5C 934.667,715.5 934.667,729.5 934,743.5C 933.167,744.333 932.333,745.167 931.5,746C 906.531,747.342 883.531,741.342 862.5,728C 846.371,714.918 836.538,698.085 833,677.5C 832.211,619.16 832.544,560.827 834,502.5C 834.5,502 835,501.5 835.5,501C 852.167,500.333 868.833,500.333 885.5,501C 886.056,501.383 886.389,501.883 886.5,502.5 Z"/>
    </g>
    <g>
        <path style="opacity:1" fill="#fdfefe" d="M 351.5,548.5 C 401.308,546.215 436.475,567.548 457,612.5C 470.564,655.365 461.064,692.198 428.5,723C 397.994,746.839 364.327,752.506 327.5,740C 282.016,718.216 261.516,682.05 266,631.5C 276.702,585.295 305.202,557.629 351.5,548.5 Z"/>
    </g>
    <g>
        <path style="opacity:1" fill="#fdfdfe" d="M 714.5,548.5 C 739.332,546.062 762.332,551.229 783.5,564C 793.347,571.214 800.68,580.381 805.5,591.5C 805.124,593.383 804.124,594.883 802.5,596C 788.53,600.268 774.53,604.435 760.5,608.5C 759.558,608.392 758.725,608.059 758,607.5C 754.244,598.362 747.41,593.195 737.5,592C 730.833,591.333 724.167,591.333 717.5,592C 708.01,594.176 703.843,600.01 705,609.5C 708.515,615.348 713.681,618.848 720.5,620C 736.265,622.858 751.932,626.191 767.5,630C 782.586,633.788 795.419,641.288 806,652.5C 819.78,676.694 818.446,700.027 802,722.5C 787.327,736.415 769.827,744.249 749.5,746C 723.523,748.672 699.19,743.672 676.5,731C 662.981,721.81 653.981,709.31 649.5,693.5C 649.632,691.399 650.632,689.899 652.5,689C 665.908,685.106 679.408,681.606 693,678.5C 695.034,678.354 696.701,679.02 698,680.5C 702.523,693.019 711.356,700.519 724.5,703C 733.22,703.839 741.887,703.505 750.5,702C 760.838,699.478 765.338,692.978 764,682.5C 760.857,677.503 756.357,674.336 750.5,673C 734.448,669.547 718.448,665.88 702.5,662C 686.831,657.755 673.664,649.588 663,637.5C 654.843,624.305 652.177,609.971 655,594.5C 659.707,575.456 671.207,562.289 689.5,555C 697.793,552.157 706.126,549.99 714.5,548.5 Z"/>
    </g>
    <g>
        <path style="opacity:1" fill="#fdfdfe" d="M 572.5,551.5 C 589.17,551.333 605.837,551.5 622.5,552C 623.667,552.5 624.5,553.333 625,554.5C 625.667,615.167 625.667,675.833 625,736.5C 624.167,737.333 623.333,738.167 622.5,739C 606.167,739.667 589.833,739.667 573.5,739C 572.333,738.5 571.5,737.667 571,736.5C 570.333,675.5 570.333,614.5 571,553.5C 571.717,552.956 572.217,552.289 572.5,551.5 Z"/>
    </g>
    <g>
        <path style="opacity:1" fill="#adc6f9" d="M 886.5,502.5 C 887.497,520.993 887.83,539.659 887.5,558.5C 902.343,558.171 917.01,558.504 931.5,559.5C 916.5,559.5 901.5,559.5 886.5,559.5C 886.5,540.5 886.5,521.5 886.5,502.5 Z"/>
    </g>
    <g>
        <path style="opacity:1" fill="#0450ed" d="M 353.5,599.5 C 382.137,596.72 401.303,608.72 411,635.5C 415.584,666.176 403.084,686.01 373.5,695C 345.309,697.991 326.475,686.157 317,659.5C 313.098,629.626 325.265,609.626 353.5,599.5 Z"/>
    </g>
    <g>
        <path style="opacity:1" fill="#e29b38" d="M 613.5,1121.5 C 614.833,1121.5 616.167,1121.5 617.5,1121.5C 617.5,1123.17 617.5,1124.83 617.5,1126.5C 616.167,1126.5 614.833,1126.5 613.5,1126.5C 613.5,1124.83 613.5,1123.17 613.5,1121.5 Z"/>
    </g>
</svg>
