<svg width="64" height="64" viewBox="0 0 64 64" fill="none" xmlns="http://www.w3.org/2000/svg">
<rect x="0.5" y="0.5" width="63" height="63" rx="9.5" fill="white"/>
<rect x="0.5" y="0.5" width="63" height="63" rx="9.5" stroke="#DDDDE0"/>
<path d="M28.4128 16.9435H25.375V33.0044H28.4128V16.9435Z" fill="#1D26D3"/>
<path d="M17.76 21.7405C14.5778 21.7405 12 24.3198 12 27.5005C12 30.6811 14.5793 33.2604 17.76 33.2604C20.9406 33.2604 23.5199 30.6811 23.5199 27.5005C23.5199 24.3198 20.9421 21.7405 17.76 21.7405ZM17.76 30.3298C16.1987 30.3298 14.9321 29.0632 14.9321 27.5019C14.9321 25.9406 16.1987 24.674 17.76 24.674C19.3213 24.674 20.5879 25.9406 20.5879 27.5019C20.5879 29.0632 19.3213 30.3298 17.76 30.3298Z" fill="#1D26D3"/>
<path d="M40.3037 26.1747C39.3631 25.7892 38.5296 25.4246 38.5296 24.7176C38.5296 24.1818 39.0431 23.8618 39.6206 23.8618C40.4764 23.8618 41.2682 24.2904 41.8442 24.8039L43.1019 22.5371C41.8308 21.7751 41.1179 21.4849 39.6191 21.4849C37.5666 21.4849 35.5975 22.6413 35.5975 24.9319C35.5975 26.901 37.074 27.6735 38.421 28.2525C39.5328 28.7451 40.5597 29.0874 40.5597 29.8807C40.5597 30.5654 39.7471 30.866 39.1264 30.866C38.0355 30.866 37.33 30.3734 36.4757 29.5384L35.2656 31.6891C36.5367 32.7057 37.525 33.2653 39.2783 33.2653C41.4602 33.2653 43.599 32.1297 43.599 29.6471C43.596 27.5023 41.7564 26.7745 40.3023 26.1762L40.3037 26.1747Z" fill="#1D26D3"/>
<path d="M33.694 21.7405H30.6562V33.0044H33.694V21.7405Z" fill="#1D26D3"/>
<path d="M51.0604 30.3498C50.6764 30.5418 50.3117 30.6713 49.8414 30.6713C49.1999 30.6713 48.9439 30.2649 48.8576 29.6011C48.8144 29.2796 48.8144 28.9805 48.8144 28.6367V24.2683H51.681V21.7411H48.8144V19.2555H46.247L45.7767 21.7396H44.4297V24.2668H45.7767V28.9567C45.7767 29.6205 45.8198 30.2843 45.991 30.8409C46.3973 32.298 47.5731 33.2595 49.3264 33.2595C50.2031 33.2595 51.2732 33.0244 51.9995 32.5957L51.0574 30.3498H51.0604Z" fill="#1D26D3"/>
<path d="M33.694 16.9423H30.6562V19.5335H33.694V16.9423Z" fill="#1D26D3"/>
<path d="M26.1425 39.7334V42.0359C26.1425 42.216 26.1425 42.3738 26.1649 42.5435C26.2095 42.8932 26.345 43.1075 26.6843 43.1075C26.9329 43.1075 27.1249 43.0391 27.3273 42.9379L27.8244 44.1226C27.4404 44.3488 26.8763 44.4724 26.4134 44.4724C25.4877 44.4724 24.867 43.9648 24.6527 43.1968C24.5619 42.9036 24.5396 42.5539 24.5396 42.2041V39.7319H23.8281V38.3998H24.5396L24.7881 37.0901H26.1425V38.3998H27.6547V39.7319H26.1425V39.7334Z" fill="#1D26D3"/>
<path d="M28.8359 44.3386V38.403H30.4389V44.3386H28.8359Z" fill="#1D26D3"/>
<path d="M33.0156 38.4014L33.1391 39.2141C33.6124 38.5488 34.3239 38.266 34.9788 38.266C35.6336 38.266 36.1858 38.5711 36.5594 39.0444C37.0223 39.6427 37.0893 40.4092 37.0893 41.2561V44.337H35.4863V41.335C35.4863 40.8944 35.4744 40.3988 35.3062 40.0595C35.1588 39.7663 34.8656 39.6412 34.5159 39.6412C34.0426 39.6412 33.5231 39.9121 33.2299 40.3973V44.3355H31.627V38.3999H33.0156V38.4014Z" fill="#1D26D3"/>
<path d="M39.3313 38.4014L40.528 41.9333H40.5503L41.7693 38.4014H43.5077L40.1678 47.0577L38.7345 46.504L39.6826 43.9872L37.584 38.4014H39.3328H39.3313Z" fill="#1D26D3"/>
<path d="M30.4359 38.4027H28.8359V44.3383H30.4359V38.4027Z" fill="#1D26D3"/>
<path d="M30.4359 35.8728H28.8359V37.2376H30.4359V35.8728Z" fill="#1D26D3"/>
</svg>
