<svg width="50" height="50" viewBox="0 0 50 50" fill="none" xmlns="http://www.w3.org/2000/svg">
<rect width="50" height="50" rx="8" fill="#5B4EEE"/>
<path d="M25.8571 14.594C25.8571 13.7133 26.613 12.9993 27.5455 12.9993H35.3117C36.2441 12.9993 37 13.7133 37 14.594V25.1189C37 25.9996 36.2441 26.7136 35.3117 26.7136H27.5455C26.613 26.7136 25.8571 25.9996 25.8571 25.1189V14.594Z" fill="white"/>
<path d="M25.9995 30.4997C25.9995 29.5792 26.7456 28.833 27.6661 28.833H35.3328C36.2533 28.833 36.9995 29.5792 36.9995 30.4997V35.4997C36.9995 36.4201 36.2533 37.1663 35.3328 37.1663H27.6661C26.7456 37.1663 25.9995 36.4201 25.9995 35.4997V30.4997Z" fill="white"/>
<path d="M13 24.4997C13 23.5792 13.7462 22.833 14.6667 22.833H22.3333C23.2538 22.833 24 23.5792 24 24.4997V35.4997C24 36.4201 23.2538 37.1663 22.3333 37.1663H14.6667C13.7462 37.1663 13 36.4201 13 35.4997V24.4997Z" fill="white"/>
<path d="M13 14.5002C13 13.5797 13.7462 12.8336 14.6667 12.8336H22.3333C23.2538 12.8336 24 13.5797 24 14.5002V19.1669C24 20.0874 23.2538 20.8336 22.3333 20.8336H14.6667C13.7462 20.8336 13 20.0874 13 19.1669V14.5002Z" fill="white"/>
</svg>
