<svg width="50" height="50" viewBox="0 0 50 50" fill="none" xmlns="http://www.w3.org/2000/svg">
<g clip-path="url(#clip0_2170_3276)">
<rect width="50" height="50" rx="10" fill="white"/>
<rect x="0.5" y="0.5" width="49" height="49" rx="9.5" fill="white" stroke="#DDDDE0"/>
<mask id="mask0_2170_3276" style="mask-type:luminance" maskUnits="userSpaceOnUse" x="14" y="13" width="23" height="24">
<path d="M37 13H14V36.0018H37V13Z" fill="white"/>
</mask>
<g mask="url(#mask0_2170_3276)">
<path d="M19.7157 17.6311H15.3404C15.124 17.6273 14.91 17.6775 14.7173 17.7773C14.5246 17.8771 14.3592 18.0234 14.2356 18.2032C14.1121 18.383 14.0343 18.5908 14.009 18.8083C13.9837 19.0257 14.0118 19.2462 14.0908 19.45L20.7084 36.0003L23.3187 24.5572C23.3933 24.2276 23.3662 23.8827 23.241 23.5691L21.2904 18.6881C21.1615 18.3736 20.9429 18.105 20.6624 17.9167C20.3819 17.7285 20.0523 17.629 19.7157 17.6311Z" fill="#001A9E"/>
<path d="M35.4333 13.0001H30.5791C30.2369 12.9984 29.9023 13.1015 29.6192 13.2959C29.3361 13.4903 29.1179 13.7669 28.9933 14.0893L20.709 36.0017H27.306C27.6482 36.0039 27.9831 35.901 28.2662 35.7065C28.5494 35.512 28.7676 35.2352 28.8918 34.9126L36.5672 14.617C36.6336 14.4338 36.6549 14.237 36.6293 14.0437C36.6038 13.8503 36.5321 13.6661 36.4205 13.507C36.3089 13.3479 36.1608 13.2186 35.9888 13.1303C35.8168 13.042 35.6262 12.9973 35.4333 13.0001Z" fill="#00A3FF"/>
</g>
</g>
<defs>
<clipPath id="clip0_2170_3276">
<rect width="50" height="50" rx="10" fill="white"/>
</clipPath>
</defs>
</svg>
