<svg width="50" height="50" viewBox="0 0 50 50" fill="none" xmlns="http://www.w3.org/2000/svg">
<g clip-path="url(#clip0_1886_2370)">
<path d="M40 0H10C4.47715 0 0 4.47715 0 10V40C0 45.5228 4.47715 50 10 50H40C45.5228 50 50 45.5228 50 40V10C50 4.47715 45.5228 0 40 0Z" fill="#1A1136"/>
<path d="M42 13.8286L8 16.0874L10.5909 39.0857L16.1436 31.001L41.4571 31.2495L42 13.8286Z" fill="#FA4756"/>
<path d="M30.2767 26.8658L27.541 27.0395C27.541 27.0395 27.6791 24.6206 27.6791 23.4263C27.6791 22.232 27.541 19.8304 27.541 19.8304L30.2767 19.6567C30.2767 19.6567 30.1385 22.1451 30.1385 23.2699C30.1385 24.3947 30.2767 26.8658 30.2767 26.8658Z" fill="white"/>
<path d="M31.4492 23.2243C31.4492 25.5177 33.0241 27.1928 35.5526 27.0306C38.0857 26.8683 39.6561 25.1274 39.6561 22.698C39.6561 20.5011 38.0768 18.7295 35.5526 18.8917C33.0241 19.054 31.4492 20.9572 31.4492 23.2243ZM35.5526 24.838C34.6787 24.895 33.8935 24.2372 33.8935 23.0664C33.8935 21.9306 34.7275 21.1325 35.5526 21.0799C36.4443 21.0229 37.2118 21.7684 37.2118 22.8515C37.2118 24.0706 36.4266 24.7854 35.5526 24.838Z" fill="white"/>
<path d="M28.9089 19.0721C28.1514 19.1208 27.541 18.5532 27.541 17.8037C27.541 17.0542 28.1514 16.4067 28.9089 16.3579C29.6663 16.3091 30.2767 16.8768 30.2767 17.6263C30.2767 18.3758 29.6618 19.0232 28.9089 19.0721Z" fill="white"/>
<path d="M26.1731 27.255L23.6328 27.4288C23.6328 27.4288 23.7611 25.0098 23.7611 23.8155C23.7611 22.6212 23.6328 20.2196 23.6328 20.2196L26.1731 20.0459C26.1731 20.0459 26.0448 22.5344 26.0448 23.6591C26.0448 24.784 26.1731 27.255 26.1731 27.255Z" fill="white"/>
<path d="M24.9029 19.266C24.1996 19.3147 23.6328 18.7471 23.6328 17.9976C23.6328 17.2481 24.1996 16.6006 24.9029 16.5518C25.6062 16.503 26.1731 17.0707 26.1731 17.8202C26.1731 18.5697 25.6062 19.2171 24.9029 19.266Z" fill="white"/>
<path d="M20.1635 20.395L20.1196 20.5158C19.7557 21.5335 19.4181 22.5557 19.1068 23.5863C18.6727 22.4392 18.2167 21.361 17.7958 20.5459C17.4582 20.5675 16.1166 20.6537 15.7834 20.6753C15.3624 21.5465 14.9064 22.685 14.4724 23.8839C14.1611 22.892 13.8235 21.9131 13.4596 20.9427L13.4157 20.8263L10.9297 20.9858L10.9736 21.1023C11.8154 23.3535 12.5607 25.7082 13.0913 28.0111L15.5773 27.8516C15.9368 26.3421 16.3095 24.9448 16.7918 23.4354C17.2741 24.8801 17.6731 26.3551 18.0063 27.6964L20.4923 27.5368C21.0623 25.1174 21.7682 22.7195 22.61 20.3605L22.6538 20.2397L20.1635 20.395Z" fill="white"/>
</g>
<defs>
<clipPath id="clip0_1886_2370">
<rect width="50" height="50" fill="white"/>
</clipPath>
</defs>
</svg>
