<svg width="50" height="50" viewBox="0 0 50 50" fill="none" xmlns="http://www.w3.org/2000/svg">
<rect width="50" height="50" fill="#1A1136"/>
<path d="M42 13.8286L8 16.0874L10.5909 39.0857L16.1436 31.001L41.4571 31.2495L42 13.8286Z" fill="#FA4756"/>
<path d="M30.2762 26.8658L27.5405 27.0395C27.5405 27.0395 27.6786 24.6206 27.6786 23.4263C27.6786 22.232 27.5405 19.8304 27.5405 19.8304L30.2762 19.6567C30.2762 19.6567 30.138 22.1451 30.138 23.2699C30.138 24.3947 30.2762 26.8658 30.2762 26.8658Z" fill="white"/>
<path d="M31.449 23.2245C31.449 25.5179 33.0239 27.193 35.5524 27.0308C38.0855 26.8685 39.6559 25.1276 39.6559 22.6982C39.6559 20.5013 38.0766 18.7297 35.5524 18.8919C33.0239 19.0542 31.449 20.9574 31.449 23.2245ZM35.5524 24.8382C34.6785 24.8952 33.8933 24.2374 33.8933 23.0666C33.8933 21.9308 34.7273 21.1327 35.5524 21.0801C36.4441 21.0231 37.2116 21.7686 37.2116 22.8517C37.2116 24.0708 36.4264 24.7856 35.5524 24.8382Z" fill="white"/>
<path d="M28.9084 19.072C28.1509 19.1207 27.5405 18.5531 27.5405 17.8036C27.5405 17.0541 28.1509 16.4066 28.9084 16.3578C29.6658 16.309 30.2762 16.8767 30.2762 17.6262C30.2762 18.3757 29.6613 19.0231 28.9084 19.072Z" fill="white"/>
<path d="M26.1723 27.2552L23.632 27.429C23.632 27.429 23.7603 25.01 23.7603 23.8157C23.7603 22.6214 23.632 20.2198 23.632 20.2198L26.1723 20.0461C26.1723 20.0461 26.044 22.5346 26.044 23.6593C26.044 24.7842 26.1723 27.2552 26.1723 27.2552Z" fill="white"/>
<path d="M24.9021 19.266C24.1988 19.3147 23.632 18.7471 23.632 17.9976C23.632 17.2481 24.1988 16.6006 24.9021 16.5518C25.6054 16.503 26.1723 17.0707 26.1723 17.8202C26.1723 18.5697 25.6054 19.2171 24.9021 19.266Z" fill="white"/>
<path d="M20.1642 20.3949L20.1203 20.5157C19.7564 21.5334 19.4188 22.5556 19.1075 23.5862C18.6734 22.4391 18.2174 21.3609 17.7965 20.5458C17.4589 20.5674 16.1173 20.6536 15.7841 20.6752C15.3631 21.5464 14.9071 22.6849 14.4731 23.8838C14.1618 22.8919 13.8242 21.913 13.4603 20.9426L13.4164 20.8262L10.9304 20.9857L10.9743 21.1022C11.8161 23.3534 12.5614 25.7081 13.092 28.011L15.578 27.8515C15.9375 26.342 16.3102 24.9447 16.7925 23.4353C17.2748 24.88 17.6738 26.355 18.007 27.6963L20.493 27.5367C21.063 25.1173 21.7689 22.7194 22.6107 20.3604L22.6545 20.2396L20.1642 20.3949Z" fill="white"/>
</svg>
