<svg width="122" height="30" viewBox="0 0 122 30" fill="none" xmlns="http://www.w3.org/2000/svg">
<path d="M13.1711 22.0571C14.0433 22.0571 14.8574 21.8219 15.5552 21.381C15.9332 20.7048 16.1368 19.9405 16.1368 19.1174C16.1368 16.5893 14.1015 14.5021 11.601 14.5021H9.10053V12.0621C9.10053 9.53402 7.06526 7.44684 4.56478 7.44684C3.7216 7.44684 2.93656 7.68201 2.23875 8.09357C1.86078 8.7697 1.62817 9.56341 1.62817 10.3865V17.236C1.62817 19.7935 3.8379 22.0571 6.36745 22.0571H13.1711Z" fill="#FA3296"/>
<path d="M13.1711 22.0571H6.36749C3.86702 22.0571 1.62822 19.7641 1.62822 17.236V10.3865C1.62822 9.56342 1.86082 8.7697 2.2388 8.09358C0.901335 8.88729 0 10.3571 0 12.0622V18.5589C0 21.087 2.52955 23.7033 5.03003 23.7033H11.601C13.2874 23.7033 14.7703 22.7626 15.5553 21.3516C14.8575 21.7925 14.0434 22.0571 13.1711 22.0571Z" fill="#503296"/>
<path d="M14.8574 20.3815H7.61769C5.11721 20.3815 3.25639 18.7352 3.25639 15.7661V8.7109C3.25639 7.85839 3.48899 7.06467 3.89605 6.38855C2.52951 7.18226 1.62817 8.6815 1.62817 10.3865V17.236C1.62817 19.7935 3.8379 22.0571 6.36745 22.0571H13.1711C14.8574 22.0571 16.3403 21.1458 17.1253 19.7935C16.4566 20.1757 15.6715 20.3815 14.8574 20.3815Z" fill="#C83296"/>
<path d="M17.765 17.236C17.6487 14.7961 15.6716 12.8265 13.2292 12.8265H10.7288V10.4453C10.7288 7.82903 8.57719 5.68306 5.98949 5.80065C4.39034 5.85944 2.99473 6.77074 2.23877 8.123C2.9075 7.71144 3.72161 7.47627 4.56479 7.47627C7.06527 7.47627 9.10054 9.53405 9.10054 12.0916V14.5315H11.601C14.1015 14.5315 16.1368 16.5893 16.1368 19.1468C16.1368 19.9699 15.9332 20.7343 15.5553 21.4104C16.9218 20.5285 17.8231 18.9998 17.765 17.236Z" fill="#FA78B4"/>
<path d="M14.8575 11.1802H12.357V8.74031C12.357 6.21218 10.3218 4.125 7.82129 4.125C6.16399 4.125 4.68115 5.0363 3.89612 6.38856C4.5067 6.0358 5.23358 5.80062 5.98954 5.77122C8.57724 5.65364 10.7288 7.79961 10.7288 10.4159V12.7971H13.2293C15.6716 12.7971 17.6778 14.7373 17.765 17.2066C17.7941 18.1179 17.5615 18.9998 17.1254 19.7347C18.4919 18.941 19.3933 17.4418 19.3933 15.7368C19.3933 13.238 17.358 11.1802 14.8575 11.1802Z" fill="#FAA0C8"/>
<path d="M3.40178 7.59382C3.51808 7.18226 3.66346 6.77071 3.89606 6.38855C3.19825 6.8001 2.61675 7.38804 2.23877 8.09356C2.58767 7.88779 2.96565 7.71141 3.40178 7.59382Z" fill="#FAA0C8"/>
<path d="M15.9914 20.2345C15.9042 20.646 15.7297 20.9988 15.5553 21.3516C16.195 20.9694 16.7474 20.4109 17.1254 19.7641C16.7765 19.9993 16.3985 20.1463 15.9914 20.2345Z" fill="#FAA0C8"/>
<path d="M99.8446 9.85738C99.4666 9.12246 98.8851 8.56392 98.1291 8.15236C97.3732 7.74081 96.4428 7.53503 95.3379 7.53503H89.959V22.0571H92.5467V17.1478H95.3088C96.4137 17.1478 97.3441 16.942 98.1001 16.5305C98.856 16.1189 99.4375 15.5604 99.8155 14.8255C100.193 14.0905 100.397 13.2674 100.397 12.3561C100.426 11.4154 100.252 10.5923 99.8446 9.85738ZM97.4895 13.7084C97.286 14.0905 96.9952 14.4139 96.5882 14.6491C96.1811 14.8842 95.6577 15.0018 95.0181 15.0018H92.6339V9.7398H95.0181C95.6577 9.7398 96.2102 9.85738 96.6172 10.0632C97.0243 10.2689 97.3441 10.5923 97.5476 10.9745C97.7512 11.3566 97.8384 11.827 97.8384 12.3267C97.7802 12.8559 97.693 13.2968 97.4895 13.7084Z" fill="#503296"/>
<path d="M104.991 22.2629C104.322 22.2629 103.683 22.1453 103.159 21.8807C102.607 21.6455 102.171 21.2634 101.88 20.793C101.56 20.2933 101.415 19.7053 101.415 18.9998C101.415 18.3825 101.531 17.8827 101.764 17.4712C101.996 17.0596 102.287 16.7362 102.694 16.5011C103.072 16.2659 103.508 16.0895 104.002 15.9425C104.497 15.8249 104.991 15.7368 105.514 15.678C106.154 15.6192 106.648 15.5604 107.055 15.5016C107.433 15.4428 107.724 15.3546 107.928 15.237C108.102 15.1194 108.189 14.943 108.189 14.7079V14.6785C108.189 14.1493 108.044 13.7378 107.724 13.4438C107.404 13.1498 106.968 13.0028 106.357 13.0028C105.747 13.0028 105.253 13.1498 104.875 13.4144C104.526 13.679 104.264 14.0023 104.148 14.3845L101.764 14.0317C101.938 13.3556 102.258 12.8265 102.694 12.3561C103.13 11.9152 103.653 11.5624 104.264 11.3566C104.875 11.1508 105.572 11.0333 106.328 11.0333C106.852 11.0333 107.375 11.092 107.869 11.2096C108.393 11.3272 108.858 11.533 109.265 11.827C109.701 12.1209 110.021 12.5031 110.283 12.9734C110.544 13.4438 110.661 14.0611 110.661 14.7667V22.0571H108.218V20.5578H108.131C107.986 20.8518 107.753 21.1458 107.491 21.4103C107.201 21.6749 106.852 21.8807 106.445 22.0277C106.038 22.1747 105.543 22.2629 104.991 22.2629ZM105.66 20.3815C106.183 20.3815 106.619 20.2639 106.997 20.0875C107.375 19.8817 107.666 19.6171 107.869 19.2644C108.073 18.9116 108.16 18.5588 108.16 18.1473V16.8538C108.073 16.9126 107.957 16.9714 107.753 17.0302C107.579 17.089 107.346 17.1478 107.113 17.1772C106.881 17.2066 106.648 17.2654 106.416 17.2948C106.183 17.3242 105.979 17.3536 105.834 17.383C105.456 17.4418 105.107 17.53 104.816 17.6475C104.526 17.7651 104.293 17.9415 104.119 18.1473C103.944 18.3531 103.857 18.6176 103.857 18.9704C103.857 19.4408 104.031 19.7935 104.38 20.0287C104.7 20.2639 105.136 20.3815 105.66 20.3815Z" fill="#503296"/>
<path d="M113.917 26.1432C113.568 26.1432 113.248 26.1138 112.958 26.055C112.667 25.9962 112.434 25.9374 112.26 25.8787L112.841 23.8797C113.219 23.9973 113.539 24.0267 113.83 24.0267C114.121 24.0267 114.382 23.9385 114.586 23.7621C114.818 23.5857 114.993 23.2917 115.138 22.8802L115.342 22.2922L111.504 11.1508H114.208L116.679 19.3819H116.795L119.296 11.1508H122L117.697 23.3505C117.493 23.9385 117.232 24.4088 116.912 24.8498C116.592 25.2613 116.185 25.5847 115.691 25.7905C115.167 26.0256 114.586 26.1432 113.917 26.1432Z" fill="#503296"/>
<path d="M22.9114 7.27046H26.7784L29.8604 13.3262L32.9133 7.27046H36.7512L31.5467 16.8832V21.9983H28.1449V16.8832L22.9114 7.27046Z" fill="#503296"/>
<path d="M38.9318 22.2041C38.2631 22.2041 37.6525 22.0865 37.1291 21.8513C36.6058 21.6161 36.1987 21.2634 35.8789 20.793C35.5881 20.3227 35.4137 19.7347 35.4137 19.0292C35.4137 18.4413 35.53 17.9121 35.7335 17.5006C35.937 17.089 36.2278 16.7656 36.6058 16.5011C36.9838 16.2365 37.3908 16.0601 37.8851 15.9131C38.3503 15.7661 38.8737 15.678 39.4261 15.6486C40.0367 15.5898 40.5309 15.531 40.8798 15.4722C41.2578 15.4134 41.5195 15.3252 41.694 15.2076C41.8684 15.09 41.9556 14.9136 41.9556 14.7079V14.6785C41.9556 14.3257 41.8393 14.0317 41.5777 13.8554C41.3451 13.6496 40.9962 13.5614 40.5891 13.5614C40.1239 13.5614 39.775 13.6496 39.5133 13.8554C39.2516 14.0611 39.0772 14.3257 38.99 14.6785L35.8498 14.5609C35.9371 13.9141 36.1697 13.3262 36.5767 12.7971C36.9547 12.2679 37.5071 11.8564 38.1758 11.5624C38.8446 11.2684 39.6587 11.1214 40.6182 11.1214C41.2869 11.1214 41.9266 11.2096 42.5081 11.3566C43.0896 11.5036 43.5839 11.7388 44.02 12.0621C44.4561 12.3561 44.7759 12.7383 45.0085 13.1792C45.2411 13.6202 45.3574 14.1199 45.3574 14.7079V22.0571H42.1592V20.5578H42.0429C41.8684 20.9106 41.6067 21.234 41.316 21.4985C41.0252 21.7631 40.6763 21.9395 40.2693 22.0571C39.8913 22.1453 39.4261 22.2041 38.9318 22.2041ZM39.9785 19.9405C40.3565 19.9405 40.6763 19.8523 40.9671 19.7053C41.2578 19.5583 41.4904 19.3526 41.6649 19.088C41.8393 18.8234 41.9266 18.5295 41.9266 18.1767V17.1478C41.8393 17.2066 41.723 17.236 41.5777 17.2948C41.4323 17.3242 41.2869 17.383 41.1415 17.4124C40.9671 17.4418 40.8217 17.4712 40.6473 17.5006C40.4728 17.53 40.2983 17.5594 40.153 17.5888C39.8331 17.6475 39.5715 17.7063 39.3389 17.8239C39.1063 17.9415 38.9318 18.0591 38.8155 18.2355C38.6992 18.4119 38.6411 18.6176 38.6411 18.8528C38.6411 19.2056 38.7574 19.4702 39.019 19.6759C39.2807 19.8523 39.6005 19.9405 39.9785 19.9405Z" fill="#503296"/>
<path d="M47.9742 22.0277V11.0626H51.2016V13.1792C51.4342 12.5325 51.9285 12.0033 52.4518 11.6212C52.9752 11.239 53.6149 11.0626 54.3417 11.0626C55.0977 11.0626 55.7083 11.2684 56.2607 11.6506C56.7841 12.0327 57.133 12.5619 57.2783 13.2086C57.4819 12.5619 57.9762 12.0621 58.5577 11.6506C59.1392 11.2684 59.8079 11.0626 60.622 11.0626C61.6396 11.0626 62.4537 11.386 63.0934 12.0327C63.7331 12.6795 64.0529 13.5908 64.0529 14.7372V22.0277H60.6511V15.531C60.6511 15.0018 60.5057 14.5903 60.244 14.2963C59.9823 14.0023 59.6044 13.8553 59.1682 13.8553C58.703 13.8553 58.3251 14.0023 58.0634 14.3257C57.8017 14.6197 57.6563 15.0312 57.6563 15.5604V22.0277H54.3999V15.5016C54.3999 15.0018 54.2545 14.5903 53.9928 14.3257C53.7312 14.0317 53.3532 13.8847 52.917 13.8847C52.6263 13.8847 52.3646 13.9435 52.132 14.0905C51.8994 14.2375 51.725 14.4433 51.6087 14.7078C51.4924 14.9724 51.4051 15.2664 51.4051 15.6485V22.0277H47.9742Z" fill="#503296"/>
<path d="M66.4952 26.0844V11.0626H69.868V13.0616C70.0134 12.7383 70.3041 12.4149 70.5658 12.1209C70.8275 11.827 71.1473 11.5624 71.5543 11.386C71.9614 11.1802 72.4266 11.092 73.0081 11.092C73.7641 11.092 74.4328 11.2978 75.1015 11.68C75.7412 12.0621 76.2645 12.6795 76.6716 13.5026C77.0787 14.3257 77.2822 15.384 77.2822 16.648C77.2822 17.8827 77.0787 18.9116 76.7007 19.7347C76.3227 20.5578 75.7993 21.1752 75.1597 21.5867C74.52 21.9983 73.7931 22.204 73.0081 22.204C72.4557 22.204 71.9905 22.1159 71.6125 21.9395C71.2345 21.7631 70.8856 21.5279 70.6239 21.234C70.3623 20.94 70.1587 20.6166 70.0134 20.2932H69.9552V26.1138L66.4952 26.0844ZM69.8389 16.6186C69.8389 17.2066 69.9261 17.7063 70.0715 18.1473C70.2169 18.5882 70.4495 18.9116 70.7402 19.1468C71.031 19.3819 71.3799 19.4995 71.816 19.4995C72.2231 19.4995 72.6011 19.3819 72.8918 19.1468C73.1826 18.9116 73.4152 18.5882 73.5605 18.1473C73.7059 17.7063 73.7931 17.2066 73.7931 16.6186C73.7931 16.0307 73.7059 15.531 73.5605 15.1194C73.4152 14.6784 73.1826 14.3551 72.8918 14.1199C72.6011 13.8847 72.2521 13.7671 71.816 13.7671C71.409 13.7671 71.031 13.8847 70.7402 14.1199C70.4495 14.3551 70.2169 14.6784 70.0715 15.1194C69.9261 15.5016 69.8389 16.0307 69.8389 16.6186Z" fill="#503296"/>
<path d="M81.4109 9.06368C80.9166 9.06368 80.5096 8.9167 80.1607 8.59333C79.8118 8.26997 79.6373 7.88781 79.6373 7.41746C79.6373 6.97651 79.8118 6.59435 80.1607 6.27098C80.5096 5.94762 80.9166 5.80063 81.3819 5.80063C81.8761 5.80063 82.2832 5.94762 82.6321 6.27098C82.981 6.59435 83.1554 6.97651 83.1554 7.41746C83.1554 7.88781 82.981 8.26997 82.6321 8.59333C82.3123 8.9167 81.9052 9.06368 81.4109 9.06368Z" fill="#503296"/>
<path d="M83.0972 11.0921H79.6954V21.9983H83.0972V11.0921Z" fill="#503296"/>
</svg>
