<svg width="134" height="20" viewBox="0 0 134 20" fill="none" xmlns="http://www.w3.org/2000/svg">
<path d="M56.2383 4.62988L60.8115 0.0117188H68.5879V20H60.8115V9.23633L56.2383 13.8418L51.6777 9.23633V20H43.8887V0.0117188H51.6777L56.2383 4.62988ZM82.3418 0.0117188C86.326 0.0118919 89.5662 3.27261 89.5664 7.30859C89.5664 11.3326 86.3381 14.6053 82.3418 14.6055H78.3691V20H70.5918V0.0117188H82.3418ZM99.7314 20H91.2227V7.22363H99.7314V20ZM12.9141 10.1973L15.6738 0H25.0352L19.6221 19.999H10.2617L12.1445 13.042H6.45703V6.52148H0V0H12.9141V10.1973ZM34.8877 0.0244141C38.764 0.0244141 41.8963 3.18763 41.8965 7.10254V19.999H28.4189C25.3948 19.9988 22.9346 17.5264 22.9346 14.46V14.0605C22.9346 11.0062 25.3948 8.5217 28.4189 8.52148H34.0957C34.0357 7.40648 33.1121 6.52167 31.9961 6.52148H28.3955V0L34.8877 0.0244141ZM129.983 12.8096H130.068L131.955 6.49707H134L130.732 15.8672C130.58 16.3098 130.378 16.6893 130.127 17.0049C129.876 17.324 129.568 17.5675 129.203 17.7344C128.842 17.9049 128.409 17.9893 127.906 17.9893C127.644 17.9892 127.402 17.9683 127.179 17.9248C126.959 17.885 126.784 17.8375 126.653 17.7832L127.099 16.248C127.378 16.3314 127.628 16.3717 127.848 16.3682C128.067 16.3645 128.26 16.2939 128.427 16.1562C128.597 16.0221 128.741 15.7969 128.857 15.4814L129.022 15.0293L126.063 6.49707H128.104L129.983 12.8096ZM32.2959 12.1211C31.1678 12.1211 30.2559 13.0423 30.2559 14.1816C30.256 15.3209 31.1678 16.2422 32.2959 16.2422C33.4239 16.2421 34.3358 15.3209 34.3359 14.1816C34.3359 13.0423 33.424 12.1212 32.2959 12.1211ZM121.755 6.38867C122.148 6.38868 122.539 6.43597 122.929 6.53027C123.318 6.62459 123.675 6.78039 123.997 6.99805C124.319 7.21206 124.578 7.50415 124.772 7.87402C124.971 8.24402 125.069 8.70677 125.069 9.26172V14.8555H123.221V13.707H123.157C123.04 13.9392 122.876 14.1572 122.663 14.3604C122.454 14.5597 122.191 14.7214 121.872 14.8447C121.557 14.9644 121.187 15.0244 120.762 15.0244C120.245 15.0244 119.779 14.9298 119.364 14.7412C118.954 14.549 118.628 14.2661 118.387 13.8926C118.149 13.5189 118.031 13.0575 118.031 12.5098C118.031 12.0383 118.116 11.6481 118.286 11.3398C118.456 11.0318 118.688 10.7855 118.981 10.6006C119.275 10.4156 119.607 10.275 119.976 10.1807C120.347 10.0828 120.731 10.0123 121.128 9.96875C121.606 9.91799 121.994 9.8729 122.291 9.83301C122.589 9.78948 122.805 9.72378 122.939 9.63672C123.078 9.54603 123.146 9.40637 123.146 9.21777V9.18555C123.146 8.7758 123.028 8.4583 122.791 8.2334C122.554 8.00851 122.212 7.89554 121.766 7.89551C121.295 7.89551 120.921 8.00062 120.645 8.21094C120.372 8.42134 120.187 8.67045 120.092 8.95703L118.297 8.69531C118.439 8.1876 118.672 7.7628 118.998 7.42188C119.324 7.07744 119.723 6.81985 120.193 6.64941C120.664 6.47538 121.185 6.38867 121.755 6.38867ZM113.097 3.71094C113.932 3.71094 114.635 3.8712 115.201 4.19043C115.771 4.5096 116.201 4.94844 116.491 5.50684C116.785 6.06183 116.933 6.69305 116.933 7.40039C116.933 8.11499 116.785 8.74968 116.491 9.30469C116.197 9.8596 115.764 10.297 115.19 10.6162C114.617 10.9318 113.91 11.0898 113.07 11.0898H110.988V14.8555H109.018V3.71094H113.097ZM123.152 10.8721C123.092 10.9229 122.989 10.9701 122.844 11.0137C122.702 11.0572 122.543 11.0953 122.366 11.1279C122.189 11.1606 122.013 11.1895 121.84 11.2148C121.666 11.2402 121.516 11.2621 121.389 11.2803C121.102 11.3202 120.845 11.3859 120.618 11.4766C120.392 11.5673 120.212 11.6942 120.081 11.8574C119.95 12.017 119.885 12.2238 119.885 12.4775C119.885 12.8401 120.014 13.1138 120.272 13.2988C120.531 13.4838 120.861 13.5762 121.261 13.5762C121.647 13.5762 121.981 13.4987 122.265 13.3428C122.548 13.1832 122.766 12.9721 122.918 12.7109C123.074 12.4499 123.152 12.1656 123.152 11.8574V10.8721ZM110.988 9.43066H112.805C113.293 9.43066 113.694 9.34307 114.006 9.16895C114.317 8.99489 114.548 8.75565 114.696 8.45117C114.849 8.14645 114.925 7.7958 114.925 7.40039C114.925 7.00503 114.849 6.65653 114.696 6.35547C114.548 6.05443 114.315 5.82017 114 5.65332C113.688 5.48292 113.286 5.39844 112.794 5.39844H110.988V9.43066ZM80.2051 5.16309C79.077 5.16317 78.165 6.0853 78.165 7.22461C78.1653 8.3637 79.0772 9.28507 80.2051 9.28516C81.333 9.28516 82.2449 8.36375 82.2451 7.22461C82.2451 6.08524 81.3332 5.16309 80.2051 5.16309ZM99.7314 5.2002H91.2227V0H99.7314V5.2002Z" fill="#221D25"/>
</svg>
