<svg width="134" height="30" viewBox="0 0 134 30" fill="none" xmlns="http://www.w3.org/2000/svg">
<path d="M94.3837 22.9148V6H100.813C102.13 6 103.235 6.24227 104.127 6.72681C105.026 7.21135 105.704 7.87759 106.162 8.72553C106.625 9.56796 106.856 10.526 106.856 11.5997C106.856 12.6844 106.625 13.648 106.162 14.4904C105.698 15.3329 105.015 15.9964 104.111 16.4809C103.207 16.9599 102.093 17.1994 100.771 17.1994H96.5099V14.6804H100.352C101.122 14.6804 101.753 14.5482 102.244 14.284C102.735 14.0197 103.098 13.6563 103.332 13.1937C103.572 12.7312 103.692 12.1999 103.692 11.5997C103.692 10.9996 103.572 10.471 103.332 10.014C103.098 9.55695 102.732 9.20181 102.236 8.94853C101.744 8.68974 101.111 8.56034 100.335 8.56034H97.4893V22.9148H94.3837Z" fill="#221D25"/>
<path d="M112.89 23.1708C112.075 23.1708 111.341 23.0277 110.688 22.7413C110.041 22.4495 109.527 22.02 109.148 21.4529C108.774 20.8858 108.587 20.1865 108.587 19.3551C108.587 18.6393 108.721 18.0474 108.989 17.5794C109.257 17.1113 109.622 16.7369 110.085 16.4561C110.549 16.1753 111.07 15.9633 111.651 15.8202C112.237 15.6715 112.842 15.5641 113.467 15.4981C114.221 15.421 114.832 15.3521 115.3 15.2916C115.769 15.2255 116.11 15.1264 116.322 14.9942C116.539 14.8566 116.648 14.6446 116.648 14.3583V14.3087C116.648 13.6865 116.461 13.2048 116.087 12.8634C115.713 12.522 115.175 12.3513 114.472 12.3513C113.73 12.3513 113.141 12.511 112.706 12.8303C112.276 13.1497 111.986 13.5269 111.835 13.9618L109.006 13.5654C109.229 12.7945 109.597 12.1503 110.111 11.6328C110.624 11.1097 111.252 10.7187 111.994 10.46C112.736 10.1957 113.557 10.0635 114.455 10.0635C115.074 10.0635 115.691 10.1351 116.305 10.2783C116.919 10.4214 117.48 10.6582 117.988 10.9885C118.495 11.3134 118.903 11.7566 119.21 12.3183C119.522 12.8799 119.678 13.5819 119.678 14.4244V22.9148H116.765V21.1721H116.665C116.481 21.5245 116.221 21.8549 115.886 22.1632C115.557 22.466 115.141 22.7111 114.639 22.8983C114.143 23.08 113.559 23.1708 112.89 23.1708ZM113.677 20.9739C114.285 20.9739 114.812 20.8555 115.259 20.6187C115.705 20.3765 116.048 20.0571 116.288 19.6607C116.534 19.2642 116.657 18.832 116.657 18.364V16.8691C116.562 16.9462 116.4 17.0177 116.171 17.0838C115.948 17.1499 115.697 17.2077 115.418 17.2573C115.139 17.3068 114.862 17.3509 114.589 17.3894C114.316 17.4279 114.078 17.461 113.877 17.4885C113.425 17.5491 113.021 17.6482 112.664 17.7858C112.306 17.9235 112.025 18.1162 111.818 18.364C111.612 18.6063 111.508 18.9201 111.508 19.3055C111.508 19.8561 111.712 20.2719 112.12 20.5527C112.527 20.8335 113.046 20.9739 113.677 20.9739Z" fill="#221D25"/>
<path d="M124.149 27.6721C123.736 27.6721 123.353 27.639 123.002 27.573C122.656 27.5124 122.379 27.4408 122.173 27.3582L122.876 25.0291C123.317 25.1558 123.71 25.2163 124.056 25.2108C124.402 25.2053 124.707 25.098 124.969 24.8887C125.237 24.685 125.463 24.3436 125.647 23.8646L125.906 23.1791L121.244 10.2287H124.458L127.422 19.8093H127.556L130.527 10.2287H133.75L128.602 24.451C128.362 25.1227 128.044 25.6981 127.648 26.1772C127.251 26.6617 126.766 27.0306 126.191 27.2839C125.622 27.5427 124.941 27.6721 124.149 27.6721Z" fill="#221D25"/>
<path d="M87.0268 12.4699H79.6231V23.3293H87.0268V12.4699Z" fill="#221D25"/>
<path d="M87.0268 6.32921H79.6231V10.7492H87.0268V6.32921Z" fill="#221D25"/>
<path d="M0.25 6.32923V11.8723H5.86805V17.4153H11.4861V6.32923H0.25Z" fill="#221D25"/>
<path d="M13.8879 6.32923H22.033L17.3234 23.3293H9.17832L13.8879 6.32923Z" fill="#221D25"/>
<path d="M53.162 6.33966L49.1834 10.2651L45.2152 6.33966H38.4381V23.3294H45.2152V14.1803L49.1834 18.0955L53.162 14.1803V23.3294H59.9287V6.33966H53.162Z" fill="#221D25"/>
<path d="M71.8958 6.33966H61.6726V23.3294H68.4393V18.7446H71.8958C75.3731 18.7446 78.1821 15.9627 78.1821 12.5421C78.1821 9.11118 75.3626 6.33966 71.8958 6.33966ZM70.037 14.2215C69.0554 14.2215 68.2618 13.4385 68.2618 12.47C68.2618 11.5015 69.0554 10.7185 70.037 10.7185C71.0186 10.7185 71.8122 11.5015 71.8122 12.47C71.8122 13.4385 71.0186 14.2215 70.037 14.2215Z" fill="#221D25"/>
<path d="M30.6062 6.34984L24.9568 6.32923V11.8723H28.0895C29.0607 11.8723 29.8647 12.6244 29.9169 13.5723H24.9777C22.3462 13.5723 20.2055 15.6844 20.2055 18.2808V18.6208C20.2055 21.2275 22.3462 23.3293 24.9777 23.3293H36.7046V12.3668C36.7046 9.03894 33.9791 6.34984 30.6062 6.34984ZM28.3506 20.1353C27.369 20.1353 26.5754 19.3523 26.5754 18.3838C26.5754 17.4153 27.369 16.6323 28.3506 16.6323C29.3322 16.6323 30.1258 17.4153 30.1258 18.3838C30.1258 19.3523 29.3322 20.1353 28.3506 20.1353Z" fill="#221D25"/>
</svg>
