<svg width="50" height="50" viewBox="0 0 50 50" fill="none" xmlns="http://www.w3.org/2000/svg">
<path d="M0 10C0 4.47715 4.47715 0 10 0H40C45.5228 0 50 4.47715 50 10V40C50 45.5228 45.5228 50 40 50H10C4.47715 50 0 45.5228 0 40V10Z" fill="white"/>
<path fill-rule="evenodd" clip-rule="evenodd" d="M40 1H10C5.02944 1 1 5.02944 1 10V40C1 44.9706 5.02944 49 10 49H40C44.9706 49 49 44.9706 49 40V10C49 5.02944 44.9706 1 40 1ZM10 0C4.47715 0 0 4.47715 0 10V40C0 45.5228 4.47715 50 10 50H40C45.5228 50 50 45.5228 50 40V10C50 4.47715 45.5228 0 40 0H10Z" fill="#DDDDE0"/>
<path d="M18.849 39.7797C16.9155 38.9581 15.2056 37.8103 13.7192 36.3182C12.2328 34.8561 11.0725 33.1465 10.2448 31.2013C9.411 29.2561 9 27.202 9 25.0393C9 22.8765 9.41708 20.8166 10.2448 18.8592C11.0725 16.9019 12.2328 15.18 13.7192 13.694C15.2056 12.2079 16.9155 11.0539 18.849 10.2324C20.7826 9.4108 22.8308 9 25.0002 9C27.1633 9 29.2236 9.4168 31.1814 10.2444C33.139 11.0782 34.849 12.226 36.3112 13.688C37.7735 15.174 38.9216 16.8959 39.7554 18.8531C40.5831 20.8106 41 22.8705 41 25.0331C41 27.196 40.5892 29.2439 39.7674 31.1832C38.9457 33.1163 37.7917 34.826 36.3052 36.3121C34.843 37.774 33.1269 38.9219 31.1754 39.7555C29.2176 40.5892 27.1572 40.9999 24.9941 40.9999C22.8308 41.006 20.7826 40.5952 18.849 39.7797ZM28.3898 33.0559C29.4472 32.6089 30.3837 31.9806 31.1934 31.1711C32.0031 30.3616 32.6254 29.4311 33.0606 28.3861C33.4955 27.3348 33.7191 26.2233 33.7191 25.0393C33.7191 23.8613 33.4955 22.7437 33.0484 21.6924C32.6013 20.6413 31.9729 19.7171 31.1632 18.9076C30.3776 18.1222 29.4472 17.506 28.3777 17.0528C27.3082 16.6059 26.1783 16.3822 25.0002 16.3822C23.8399 16.3822 22.7282 16.6059 21.6527 17.0528C20.5832 17.5 19.6527 18.1162 18.8672 18.9076C18.0575 19.7171 17.429 20.6474 16.982 21.6924C16.5348 22.7437 16.3113 23.8552 16.3113 25.0393C16.3113 26.2173 16.5348 27.3348 16.982 28.3861C17.429 29.4372 18.0575 30.3677 18.8672 31.1711C19.6768 31.9806 20.6073 32.6089 21.6527 33.0559C22.704 33.503 23.8158 33.7265 25.0002 33.7265C26.1966 33.7265 27.3323 33.503 28.3898 33.0559Z" fill="url(#paint0_linear_1372_1289)"/>
<defs>
<linearGradient id="paint0_linear_1372_1289" x1="13.4172" y1="13.908" x2="36.3865" y2="36.4847" gradientUnits="userSpaceOnUse">
<stop stop-color="#00FFE6"/>
<stop offset="1" stop-color="#7B3DFF"/>
</linearGradient>
</defs>
</svg>
