<svg width="150" height="150" viewBox="0 0 150 150" fill="none" xmlns="http://www.w3.org/2000/svg">
<path d="M0 30C0 13.4315 13.4315 0 30 0H120C136.569 0 150 13.4315 150 30V120C150 136.569 136.569 150 120 150H30C13.4315 150 0 136.569 0 120V30Z" fill="white"/>
<path fill-rule="evenodd" clip-rule="evenodd" d="M120 3H30C15.0883 3 3 15.0883 3 30V120C3 134.912 15.0883 147 30 147H120C134.912 147 147 134.912 147 120V30C147 15.0883 134.912 3 120 3ZM30 0C13.4315 0 0 13.4315 0 30V120C0 136.569 13.4315 150 30 150H120C136.569 150 150 136.569 150 120V30C150 13.4315 136.569 0 120 0H30Z" fill="#DDDDE0"/>
<path d="M56.5469 119.339C50.7464 116.874 45.6167 113.431 41.1575 108.955C36.6983 104.568 33.2176 99.4394 30.7344 93.6039C28.233 87.7683 27 81.606 27 75.118C27 68.6296 28.2512 62.4497 30.7344 56.5775C33.2176 50.7057 36.6983 45.54 41.1575 41.0821C45.6167 36.6236 50.7464 33.1618 56.5469 30.6971C62.3478 28.2324 68.4925 27 75.0005 27C81.4898 27 87.6709 28.2504 93.5443 30.7332C99.4171 33.2346 104.547 36.6779 108.934 41.064C113.32 45.522 116.765 50.6877 119.266 56.5594C121.749 62.4317 123 68.6115 123 75.0994C123 81.5879 121.767 87.7316 119.302 93.5495C116.837 99.349 113.375 104.478 108.915 108.936C104.529 113.322 99.3806 116.766 93.5261 119.267C87.6527 121.768 81.4716 123 74.9824 123C68.4925 123.018 62.3478 121.786 56.5469 119.339ZM85.1695 99.1676C88.3416 97.8266 91.1512 95.9418 93.5802 93.5134C96.0092 91.0848 97.8763 88.2934 99.1817 85.1583C100.487 82.0045 101.157 78.6699 101.157 75.118C101.157 71.5839 100.487 68.2311 99.1453 65.0772C97.804 61.924 95.9186 59.1513 93.4896 56.7227C91.1329 54.3666 88.3416 52.518 85.133 51.1585C81.9246 49.8177 78.535 49.1466 75.0005 49.1466C71.5198 49.1466 68.1847 49.8177 64.958 51.1585C61.7496 52.5 58.9582 54.3485 56.6016 56.7227C54.1726 59.1513 52.2871 61.9421 50.9459 65.0772C49.6045 68.2311 48.934 71.5657 48.934 75.118C48.934 78.6518 49.6045 82.0045 50.9459 85.1583C52.2871 88.3115 54.1726 91.103 56.6016 93.5134C59.0305 95.9418 61.822 97.8266 64.958 99.1676C68.1119 100.509 71.4474 101.179 75.0005 101.179C78.5897 101.179 81.997 100.509 85.1695 99.1676Z" fill="url(#paint0_linear_1372_1290)"/>
<defs>
<linearGradient id="paint0_linear_1372_1290" x1="40.2515" y1="41.7239" x2="109.16" y2="109.454" gradientUnits="userSpaceOnUse">
<stop stop-color="#00FFE6"/>
<stop offset="1" stop-color="#7B3DFF"/>
</linearGradient>
</defs>
</svg>
